<svg width="102" height="115" viewBox="0 0 102 115" fill="none" xmlns="http://www.w3.org/2000/svg">
<path d="M101.177 42.6533C101.177 19.2953 82.3389 0.365723 59.094 0.365723H0.189453V114.516H10.088C27.2714 114.516 41.4519 101.621 43.5789 84.9269H43.6067L43.6762 67.2128H42.1887C30.2882 67.2128 20.6121 57.6852 20.2785 45.8106H20.2646V40.1666H25.895C33.7638 40.1666 40.7289 44.0783 44.9831 50.0575C49.0426 35.5984 62.2777 24.9951 77.9596 24.9951V30.639V38.2248C77.9596 54.1647 66.0174 67.101 50.1826 67.1988V84.9269C52.2401 101.663 66.4484 114.627 83.6735 114.627H101.204V80.694H77.4869C91.5284 73.8347 101.204 59.3756 101.204 42.6393L101.177 42.6533Z" fill="#4338CA"/>
</svg>
