<?xml version="1.0" encoding="UTF-8"?>
<svg fill="none" version="1.1" viewBox="0 0 780 500" xmlns="http://www.w3.org/2000/svg">
<rect width="780" height="500" ry="0" fill="#2350a9"/>
<g transform="matrix(1.3333 0 0 -1.3333 9.1445 264.97)">
<path d="m152.79 34.877h-32.718c0 5.3694-0.63047 8.9728-1.8857 10.807-1.9476 2.714-7.3208 4.0726-16.116 4.0726-8.5426 0-14.204-0.78155-16.968-2.3462-2.7619-1.5694-4.1446-4.9826-4.1446-10.238 0-4.7575 1.2248-7.89 3.679-9.3913 1.7568-1.0653 4.0809-1.6915 6.9753-1.8786l6.5988-0.46608c14.141-0.9385 22.973-1.5996 26.494-1.9753 11.184-1.1271 19.291-4.1012 24.321-8.9205 3.9585-3.7603 6.319-8.6748 7.072-14.742 0.44072-3.6307 0.65949-7.7394 0.65949-12.304 0-10.519-1.0035-18.224-3.0137-23.106-3.643-8.9588-11.826-14.617-24.56-16.993-5.3349-1.0051-13.495-1.5079-24.472-1.5079-18.324 0-31.093 1.0912-38.302 3.2833-8.8491 2.6858-14.683 8.1266-17.506 16.319-1.5729 4.5608-2.352 12.156-2.352 22.788h32.717c0-1.186 0.0044-2.0913 0.0044-2.7167 0-5.6736 1.6305-9.3228 4.8865-10.948 2.2552-1.121 4.9788-1.7093 8.1797-1.7792h12.029c6.1368 0 10.056 0.31389 11.744 0.945 3.0084 1.1828 4.982 3.0864 5.9251 5.7213 0.50159 1.6218 0.74937 3.721 0.74937 6.2897 0 5.7531-2.0992 9.2531-6.2928 10.509-1.5686 0.49541-8.8636 1.1871-21.885 2.0633-10.458 0.7462-17.722 1.4645-21.789 2.1606-10.711 2.0033-17.849 6.1242-21.412 12.38-3.1322 5.3155-4.6971 13.358-4.6971 24.116 0 8.1928 0.84528 14.762 2.5377 19.704 1.6936 4.943 4.4216 8.6954 8.1866 11.26 5.5156 3.9411 12.572 6.254 21.163 6.9452 7.1486 0.62302 15.079 0.94167 23.8 0.94167 13.732 0 23.518-0.78948 29.352-2.3542 14.238-3.8253 21.356-14.54 21.356-32.148 0-1.4442-0.10621-3.6034-0.31706-6.4902" fill="#fff"/>
<path d="m331.84 9.9383h21.925c6.9515 0.25048 11.18 0.78472 12.701 1.6218 2.0783 1.1414 3.4734 3.4306 4.1678 6.8628 0.44389 2.2844 0.66583 5.6817 0.66583 10.19 0 5.5295-0.44072 9.6259-1.3269 12.3-1.2651 3.7476-4.2946 6.0305-9.0933 6.8596-0.94801 0.12524-3.2198 0.19182-6.8184 0.19182h-22.221zm-35.168-64.051v130.67h65.522c8.9871 0 15.845-0.73399 20.557-2.2004 10.777-3.3767 18.007-10.29 21.711-20.739 1.9119-5.4836 2.8678-13.74 2.8678-24.764 0-13.255-1.0606-22.781-3.1579-28.581-4.2026-11.467-12.854-18.074-25.916-19.785-1.5362-0.25698-8.0724-0.48685-19.609-0.67074l-5.8387-0.19499h-20.967v-33.739h-35.168" fill="#fff"/>
<path d="m475.41-6.0714-16.478 56.644-15.991-56.644zm6.9848-25.457h-47.022l-6.3174-22.584h-36.386l39.262 130.67h53.05l39.743-130.67h-35.622l-6.709 22.584" fill="#fff"/>
<path d="m248.13 58.176c14.506 0 27.451-6.682 35.961-17.148l7.5809 16.254c-11.856 11.206-27.993 18.115-45.791 18.115-27.711 0-51.416-16.736-61.145-40.427h-14.783l-8.7287-18.713h19.017c-0.14268-1.7359-0.23463-3.4734-0.23463-5.2458 0-2.1449 0.11097-4.2645 0.3234-6.3586h-9.5578l-8.7271-18.719h23.144c10.006-23.091 33.415-39.303 60.692-39.303 13.746 0 26.501 4.1186 37.063 11.154v22.941c-8.5051-9.6833-20.945-15.802-34.813-15.802-16.211 0-30.471 8.3594-38.775 21.01h48.464l8.7271 18.719h-64.322c-0.33132 2.2527-0.50888 4.5546-0.50888 6.8992 0 1.5853 0.0824 3.1547 0.23463 4.7052h70.005l8.7271 18.713h-72.678c8.0375 13.871 22.995 23.206 40.126 23.206" fill="#fbbc09"/>
<path d="m208 34.409h72.678l-0.50888 0.79899-8.7239-18.714 0.50571 0.3234h-70.511l-0.0539-0.50888c-0.15695-1.579-0.23621-3.1801-0.23621-4.7559 0-2.3161 0.17438-4.6671 0.51522-6.9848l0.0729-0.47718h64.804l-0.50571 0.79741-8.7287-18.715 0.5073 0.32388h-49.506l0.5723-0.86573c8.7334-13.32 23.405-21.26 39.244-21.26 13.464 0 26.308 5.823 35.238 15.986l-0.98606 0.36969v-22.941l0.24731 0.46322c-10.859-7.2304-23.564-11.054-36.749-11.054-26.302 0-49.921 15.295-60.173 38.966l-0.14902 0.33624h-23.513l0.51364-0.802 8.7239 18.721-0.51046-0.32499h10.176l-0.0618 0.61985c-0.21084 2.1148-0.32023 4.2391-0.32023 6.3016 0 1.5869 0.0777 3.2879 0.23463 5.1966l0.0491 0.60876h-19.626l0.50572-0.80058 8.7302 18.718-0.50729-0.32499h15.16l0.1411 0.34718c4.8034 11.696 12.974 21.668 23.624 28.845 10.908 7.3463 23.707 11.23 37.002 11.23 17.028 0 33.15-6.3729 45.405-17.955l-0.12523 0.6468-7.5762-16.259 0.94325 0.11731c-8.9728 11.031-22.235 17.357-36.397 17.357-16.658 0-32.216-8.9997-40.615-23.488l-0.48827-0.8418zm40.126 23.207c13.822 0 26.769-6.1779 35.523-16.944l0.56595-0.69594 0.38364 0.81167 7.5777 16.256 0.16963 0.36779-0.2917 0.2806c-12.462 11.779-28.862 18.266-46.178 18.266-13.521 0-26.533-3.9522-37.63-11.428-10.836-7.2971-19.146-17.448-24.03-29.347l0.51522 0.35035h-15.143l-0.1506-0.32499-8.7255-18.714-0.37255-0.80058h19.897l-0.55962 0.60876c-0.16011-1.942-0.2362-3.6684-0.2362-5.2901 0-2.1005 0.10621-4.2613 0.3234-6.4141l0.56119 0.61351h-9.9129l-0.1506-0.3234-8.7302-18.715-0.36938-0.79883h24.022l-0.51364 0.33925c10.433-24.08 34.458-39.643 61.205-39.643 13.408 0 26.329 3.887 37.373 11.246l0.2489 0.16662v24.735l-0.9813-1.1208c-8.7144-9.9186-21.249-15.606-34.392-15.606-15.461 0-29.781 7.7599-38.307 20.756l-0.46767-0.87192h48.822l0.1506 0.32071 8.7287 18.721 0.37255 0.79582h-65.205l0.55803-0.47718c-0.33291 2.2654-0.50413 4.5577-0.50413 6.8184 0 1.5393 0.0777 3.1024 0.23304 4.6481l-0.56119-0.5073h70.368l0.14744 0.3234 8.7271 18.718 0.37572 0.79899h-73.564l0.48193-0.84496c8.196 14.142 23.388 22.928 39.644 22.928" fill="#2350a9"/>
</g>
</svg>
