<svg
    width="20"
    height="20"
    viewBox="0 0 20 20"
    fill="white"
    stroke="currentColor"
    xmlns="http://www.w3.org/2000/svg"
>
    <path d="M3.20801 7.18358C3.08637 6.63568 3.10505 6.06595 3.2623 5.52719C3.41956 4.98844 3.7103 4.49812 4.10756 4.10168C4.50483 3.70524 4.99576 3.41553 5.53484 3.25941C6.07393 3.10328 6.6437 3.0858 7.19134 3.20858C7.49276 2.73716 7.90801 2.34921 8.3988 2.08048C8.88959 1.81175 9.44013 1.6709 9.99967 1.6709C10.5592 1.6709 11.1098 1.81175 11.6005 2.08048C12.0913 2.34921 12.5066 2.73716 12.808 3.20858C13.3565 3.08526 13.9272 3.10267 14.4672 3.25917C15.0071 3.41568 15.4987 3.70619 15.8962 4.10371C16.2937 4.50122 16.5842 4.99281 16.7407 5.53275C16.8972 6.07269 16.9147 6.64344 16.7913 7.19191C17.2628 7.49333 17.6507 7.90858 17.9194 8.39937C18.1882 8.89016 18.329 9.4407 18.329 10.0002C18.329 10.5598 18.1882 11.1103 17.9194 11.6011C17.6507 12.0919 17.2628 12.5072 16.7913 12.8086C16.9141 13.3562 16.8966 13.926 16.7405 14.4651C16.5844 15.0042 16.2947 15.4951 15.8982 15.8924C15.5018 16.2896 15.0115 16.5804 14.4727 16.7376C13.934 16.8949 13.3642 16.9135 12.8163 16.7919C12.5153 17.2651 12.0997 17.6547 11.6081 17.9247C11.1165 18.1946 10.5647 18.3361 10.0038 18.3361C9.44298 18.3361 8.89119 18.1946 8.39957 17.9247C7.90794 17.6547 7.49237 17.2651 7.19134 16.7919C6.6437 16.9147 6.07393 16.8972 5.53484 16.7411C4.99576 16.585 4.50483 16.2952 4.10756 15.8988C3.7103 15.5024 3.41956 15.012 3.2623 14.4733C3.10505 13.9345 3.08637 13.3648 3.20801 12.8169C2.73297 12.5163 2.34168 12.1004 2.07055 11.6079C1.79941 11.1155 1.65723 10.5624 1.65723 10.0002C1.65723 9.43807 1.79941 8.88503 2.07055 8.39257C2.34168 7.9001 2.73297 7.48421 3.20801 7.18358Z" fill="white" stroke="currentColor" stroke-width="1.25" stroke-linecap="round" stroke-linejoin="round"/>
    <path d="M7.5 9.99967L9.16667 11.6663L12.5 8.33301" stroke="currentColor" stroke-width="1.25" stroke-linecap="round" stroke-linejoin="round"/>
</svg>
