<svg width="126" height="112" viewBox="0 0 126 112" fill="none" xmlns="http://www.w3.org/2000/svg">
<rect x="1.34253" y="1.34863" width="124.157" height="109.336" rx="4.5" stroke="#E4EBF0"/>
<rect x="14" y="29" width="26" height="2" fill="#E4EBF0"/>
<rect x="14" y="35" width="15" height="1" fill="#E4EBF0"/>
<rect x="14.5" y="38" width="47" height="12" rx="0.5" stroke="#C8D0D7"/>
<rect x="64" y="35" width="15" height="1" fill="#E4EBF0"/>
<rect x="64.5" y="38" width="47" height="12" rx="0.5" stroke="#C8D0D7"/>
<rect x="18" y="43" width="18" height="1" fill="#E4EBF0"/>
<rect x="68" y="43" width="18" height="1" fill="#E4EBF0"/>
<rect x="14" y="52.5" width="15" height="1" fill="#E4EBF0"/>
<rect x="14.5" y="55.5" width="47" height="12" rx="0.5" stroke="#C8D0D7"/>
<rect x="64" y="52.5" width="15" height="1" fill="#E4EBF0"/>
<rect x="64.5" y="55.5" width="47" height="12" rx="0.5" stroke="#C8D0D7"/>
<rect x="18" y="60" width="18" height="1" fill="#E4EBF0"/>
<rect x="68" y="60" width="18" height="1" fill="#E4EBF0"/>
<rect x="14" y="70" width="15" height="1" fill="#E4EBF0"/>
<rect x="14.5" y="73" width="47" height="12" rx="0.5" stroke="#C8D0D7"/>
<rect x="64" y="70" width="15" height="1" fill="#E4EBF0"/>
<rect x="64.5" y="73" width="47" height="12" rx="0.5" stroke="#C8D0D7"/>
<path fill-rule="evenodd" clip-rule="evenodd" d="M105.092 78.0838C105.211 77.9689 105.401 77.9726 105.516 78.0921L107 79.6672L108.484 78.0921C108.599 77.9726 108.789 77.9689 108.908 78.0838C109.027 78.1986 109.031 78.3885 108.916 78.5079L107.216 80.3079C107.16 80.3668 107.082 80.4 107 80.4C106.918 80.4 106.84 80.3668 106.784 80.3079L105.084 78.5079C104.969 78.3885 104.973 78.1986 105.092 78.0838Z" fill="#C8D0D7"/>
<rect x="18" y="78" width="18" height="1" fill="#E4EBF0"/>
<rect x="68" y="78" width="18" height="1" fill="#E4EBF0"/>
</svg>
