<svg width="126" height="111" viewBox="0 0 126 111" fill="none" xmlns="http://www.w3.org/2000/svg">
<rect x="1.34253" y="0.853027" width="124.157" height="109.336" rx="4.5" stroke="#E4EBF0"/>
<rect x="50.2429" y="54.5532" width="41.6" height="2" fill="#E4EBF0"/>
<rect x="36.3425" y="51.853" width="7" height="7" rx="0.5" stroke="#C8D0D7"/>
<path d="M41.687 53.4066C41.8449 53.5067 41.89 53.7131 41.7878 53.8676L39.5807 57.2009C39.5226 57.2885 39.4261 57.3445 39.3197 57.3521C39.3114 57.3528 39.303 57.353 39.2947 57.353C39.1971 57.353 39.1038 57.3121 39.0389 57.2399L37.9274 56.0036C37.8032 55.8654 37.8169 55.6548 37.9581 55.5331C38.0996 55.4115 38.3148 55.4251 38.4389 55.5632L39.2534 56.469L41.2159 53.5051C41.3183 53.3506 41.5293 53.3066 41.687 53.4066Z" fill="#C8D0D7"/>
</svg>
