<svg width="126" height="111" viewBox="0 0 126 111" fill="none" xmlns="http://www.w3.org/2000/svg">
<rect x="1.34253" y="0.844727" width="124.157" height="109.336" rx="4.5" stroke="#E4EBF0"/>
<rect x="15.3425" y="51.8447" width="97" height="12" rx="0.5" stroke="#C8D0D7"/>
<rect x="14.8425" y="45.3447" width="26" height="2" fill="#E4EBF0"/>
<rect x="18.8425" y="57.3447" width="26" height="1.2" fill="#E4EBF0"/>
<path fill-rule="evenodd" clip-rule="evenodd" d="M106.092 56.867C106.211 56.7521 106.401 56.7558 106.516 56.8753L108 58.4504L109.484 56.8753C109.598 56.7558 109.788 56.7521 109.908 56.867C110.027 56.9818 110.031 57.1717 109.916 57.2911L108.216 59.0911C108.159 59.15 108.081 59.1832 108 59.1832C107.918 59.1832 107.84 59.15 107.784 59.0911L106.084 57.2911C105.969 57.1717 105.972 56.9818 106.092 56.867Z" fill="#C8D0D7"/>
</svg>
