<svg width="126" height="111" viewBox="0 0 126 111" fill="none" xmlns="http://www.w3.org/2000/svg">
<rect x="1.34253" y="1.17188" width="124.157" height="109.336" rx="4.5" stroke="#E4EBF0"/>
<rect x="14.8425" y="45.6719" width="26" height="2" fill="#E4EBF0"/>
<rect x="15.3425" y="52.1719" width="97" height="12" rx="0.5" stroke="#C8D0D7"/>
<rect x="18.8425" y="57.6719" width="26" height="1.2" fill="#E4EBF0"/>
<g clip-path="url(#clip0_5423_20046)">
<path d="M109.374 57.0781V59.2656C109.374 59.5245 109.164 59.7344 108.905 59.7344H105.78C105.521 59.7344 105.311 59.5245 105.311 59.2656V57.0781M109.374 57.0781C109.374 56.8192 109.164 56.6094 108.905 56.6094H105.78C105.521 56.6094 105.311 56.8192 105.311 57.0781M109.374 57.0781V57.1287C109.374 57.2915 109.289 57.4426 109.151 57.5279L107.588 58.4894C107.438 58.5822 107.248 58.5822 107.097 58.4894L105.534 57.5279C105.396 57.4426 105.311 57.2915 105.311 57.1287V57.0781" stroke="#C8D0D7" stroke-width="0.5" stroke-linecap="round" stroke-linejoin="round"/>
</g>
<defs>
<clipPath id="clip0_5423_20046">
<rect width="5" height="5" fill="white" transform="translate(104.843 55.6719)"/>
</clipPath>
</defs>
</svg>
