<svg width="126" height="111" viewBox="0 0 126 111" fill="none" xmlns="http://www.w3.org/2000/svg">
<rect x="0.5" y="0.5" width="124.157" height="109.336" rx="4.5" stroke="#E4EBF0"/>
<rect x="13.5786" y="15.6681" width="26" height="2" fill="#C8D0D7"/>
<rect x="14.0786" y="22.1681" width="97" height="12" rx="0.5" stroke="#C8D0D7"/>
<path d="M18.1572 26.0342L21.6162 30.3021" stroke="#C8D0D7" stroke-linecap="round"/>
<path d="M21.6162 26.0341L18.1573 30.3021" stroke="#C8D0D7" stroke-linecap="round"/>
<path d="M24.6162 26.0342L28.0752 30.3021" stroke="#C8D0D7" stroke-linecap="round"/>
<path d="M28.0752 26.0341L24.6163 30.3021" stroke="#C8D0D7" stroke-linecap="round"/>
<path d="M31.0752 26.0342L34.5342 30.3021" stroke="#C8D0D7" stroke-linecap="round"/>
<path d="M34.5342 26.0341L31.0753 30.3021" stroke="#C8D0D7" stroke-linecap="round"/>
<path d="M37.5342 26.0342L40.9932 30.3021" stroke="#C8D0D7" stroke-linecap="round"/>
<path d="M40.9932 26.0341L37.5343 30.3021" stroke="#C8D0D7" stroke-linecap="round"/>
<path d="M43.9932 26.0342L47.4521 30.3021" stroke="#C8D0D7" stroke-linecap="round"/>
<path d="M47.4521 26.0341L43.9933 30.3021" stroke="#C8D0D7" stroke-linecap="round"/>
<path d="M50.4521 26.0342L53.9111 30.3021" stroke="#C8D0D7" stroke-linecap="round"/>
<path d="M53.9111 26.0341L50.4522 30.3021" stroke="#C8D0D7" stroke-linecap="round"/>
<path d="M56.9111 26.0342L60.3701 30.3021" stroke="#C8D0D7" stroke-linecap="round"/>
<path d="M60.3701 26.0341L56.9112 30.3021" stroke="#C8D0D7" stroke-linecap="round"/>
<path d="M63.3701 26.0342L66.8291 30.3021" stroke="#C8D0D7" stroke-linecap="round"/>
<path d="M66.8291 26.0341L63.3702 30.3021" stroke="#C8D0D7" stroke-linecap="round"/>
<path d="M69.8291 26.0342L73.2881 30.3021" stroke="#C8D0D7" stroke-linecap="round"/>
<path d="M73.2881 26.0341L69.8292 30.3021" stroke="#C8D0D7" stroke-linecap="round"/>
<rect x="100.345" y="25.5596" width="7.22375" height="5.21715" rx="1" stroke="#C8D0D7" stroke-width="0.7"/>
<path d="M101.95 29.1714H101.957" stroke="#C8D0D7" stroke-linecap="round"/>
<path d="M100.746 27.5662H107.569" stroke="#C8D0D7" stroke-width="0.7" stroke-linecap="round"/>
<rect x="13.5786" y="45.6681" width="25.5305" height="2" fill="#E4EBF0"/>
<rect x="14.0786" y="52.1681" width="46" height="12" rx="0.5" stroke="#E4EBF0"/>
<rect x="15.9302" y="57.6681" width="25.5305" height="1.2" fill="#E4EBF0"/>
<rect x="64.5786" y="45.6681" width="25.5305" height="2" fill="#E4EBF0"/>
<rect x="65.0786" y="52.1681" width="46" height="12" rx="0.5" stroke="#E4EBF0"/>
<rect x="68.6606" y="57.6681" width="25.5305" height="1.2" fill="#E4EBF0"/>
<rect x="13.5786" y="75.6681" width="25.5305" height="2" fill="#E4EBF0"/>
<rect x="14.0786" y="82.1681" width="46" height="12" rx="0.5" stroke="#E4EBF0"/>
<rect x="15.9302" y="87.6681" width="25.5305" height="1.2" fill="#E4EBF0"/>
<rect x="64.5786" y="75.6681" width="25.5305" height="2" fill="#E4EBF0"/>
<rect x="65.0786" y="82.1681" width="46" height="12" rx="0.5" stroke="#E4EBF0"/>
<rect x="68.6606" y="87.6681" width="25.5305" height="1.2" fill="#E4EBF0"/>
</svg>

