<svg width="126" height="111" viewBox="0 0 126 111" fill="none" xmlns="http://www.w3.org/2000/svg">
<rect x="1.34253" y="0.508301" width="124.157" height="109.336" rx="4.5" stroke="#E4EBF0"/>
<rect x="14" y="44" width="26" height="2" fill="#E4EBF0"/>
<rect x="41.1575" y="55.9917" width="45" height="1" fill="#E4EBF0"/>
<rect x="18.1575" y="55.9917" width="13" height="1" fill="#E4EBF0"/>
<mask id="path-5-inside-1_5424_20302" fill="white">
<path d="M14 51C14 50.4477 14.4477 50 15 50H34V63H15C14.4477 63 14 62.5523 14 62V51Z"/>
</mask>
<path d="M13 51C13 49.8954 13.8954 49 15 49H34V51H15H13ZM34 64H15C13.8954 64 13 63.1046 13 62H15H34V64ZM15 64C13.8954 64 13 63.1046 13 62V51C13 49.8954 13.8954 49 15 49V51V62V64ZM34 50V63V50Z" fill="#C8D0D7" mask="url(#path-5-inside-1_5424_20302)"/>
<path d="M34.5 50.5H110C110.276 50.5 110.5 50.7239 110.5 51V62C110.5 62.2761 110.276 62.5 110 62.5H34.5V50.5Z" stroke="#C8D0D7"/>
<g clip-path="url(#clip0_5424_20302)">
<path d="M103.469 55.4062C103.469 57.1321 104.868 58.5312 106.594 58.5312H107.062C107.321 58.5312 107.531 58.3214 107.531 58.0625V57.7767C107.531 57.6692 107.458 57.5755 107.354 57.5494L106.432 57.319C106.341 57.2961 106.244 57.3303 106.188 57.4057L105.986 57.6752C105.927 57.7535 105.826 57.7881 105.734 57.7544C105.045 57.5021 104.498 56.9551 104.246 56.2662C104.212 56.1744 104.247 56.0729 104.325 56.0142L104.594 55.8121C104.67 55.7555 104.704 55.6593 104.681 55.5678L104.451 54.6463C104.425 54.5419 104.331 54.4688 104.223 54.4688H103.938C103.679 54.4688 103.469 54.6786 103.469 54.9375V55.4062Z" stroke="#E4EBF0" stroke-width="0.4" stroke-linecap="round" stroke-linejoin="round"/>
</g>
<defs>
<clipPath id="clip0_5424_20302">
<rect width="5" height="5" fill="white" transform="translate(103 54)"/>
</clipPath>
</defs>
</svg>
