<svg width="126" height="111" viewBox="0 0 126 111" fill="none" xmlns="http://www.w3.org/2000/svg">
<rect x="1.34253" y="0.508301" width="124.157" height="109.336" rx="4.5" stroke="#E4EBF0"/>
<rect x="41" y="55" width="45" height="1" fill="#E4EBF0"/>
<rect x="18" y="55" width="13" height="1" fill="#E4EBF0"/>
<mask id="path-4-inside-1_5487_20607" fill="white">
<path d="M13.8425 50.0083C13.8425 49.456 14.2902 49.0083 14.8425 49.0083H33.8425V62.0083H14.8425C14.2902 62.0083 13.8425 61.5606 13.8425 61.0083V50.0083Z"/>
</mask>
<path d="M12.8425 50.0083C12.8425 48.9037 13.738 48.0083 14.8425 48.0083H33.8425V50.0083H14.8425H12.8425ZM33.8425 63.0083H14.8425C13.738 63.0083 12.8425 62.1129 12.8425 61.0083H14.8425H33.8425V63.0083ZM14.8425 63.0083C13.738 63.0083 12.8425 62.1129 12.8425 61.0083V50.0083C12.8425 48.9037 13.738 48.0083 14.8425 48.0083V50.0083V61.0083V63.0083ZM33.8425 49.0083V62.0083V49.0083Z" fill="#C8D0D7" mask="url(#path-4-inside-1_5487_20607)"/>
<path d="M34.3425 49.5083H109.843C110.119 49.5083 110.343 49.7322 110.343 50.0083V61.0083C110.343 61.2844 110.119 61.5083 109.843 61.5083H34.3425V49.5083Z" stroke="#C8D0D7"/>
<rect x="14" y="43" width="26" height="2" fill="#E4EBF0"/>
<circle cx="105" cy="56" r="2" stroke="#C8D0D7" stroke-width="0.4"/>
<path d="M105 54.0918C104.493 54.3466 104.125 55.1047 104.125 56.0002C104.125 56.9151 104.509 57.6865 105.033 57.9245" stroke="#C8D0D7" stroke-width="0.4"/>
<path d="M105 54.0913C105.507 54.3462 105.875 55.1042 105.875 55.9998C105.875 56.8953 105.507 57.6534 105 57.9082" stroke="#C8D0D7" stroke-width="0.4"/>
<line x1="107" y1="56.6375" x2="103" y2="56.6375" stroke="#C8D0D7" stroke-width="0.4"/>
<line x1="103" y1="55.3625" x2="107" y2="55.3625" stroke="#C8D0D7" stroke-width="0.4"/>
</svg>
