<svg viewBox="0 0 24 24" xmlns="http://www.w3.org/2000/svg"><path d="m14.439 11.358c-.084-.057-.199-.034-.256.051-.334.503-1.043.53-1.08.53-.007 0-.01 0-.017 0-.874 0-1.208.746-1.221.776-.04.094.003.202.094.243.024.01.051.017.074.017.071 0 .138-.04.169-.111.003-.007.233-.52.823-.553v.955c-.024.206-.121.368-.294.489-.179.125-.418.189-.712.189-.351 0-.638-.121-.85-.361-.216-.24-.324-.58-.324-1.019l.003-1.053c.017-.388.121-.695.321-.914.216-.24.499-.361.85-.361.294 0 .533.064.712.189s.28.297.297.52v.024c0 .128.105.233.233.233s.233-.105.233-.233c0-.007 0-.017 0-.024-.034-.334-.186-.597-.459-.796-.273-.201-.613-.299-1.025-.299-.489 0-.884.162-1.184.482-.283.3-.432.695-.449 1.181 0 .034-.003.067-.003.101l.003.948h-.003c0 .536.152.965.452 1.285s.695.482 1.184.482c.412 0 .752-.098 1.026-.297.25-.182.398-.422.449-.719l.01-1.059c.307-.074.725-.243.989-.641.066-.083.043-.198-.045-.255zm3.249-10.847h2.588c.115 0 .209-.094.209-.209s-.094-.209-.209-.209h-2.588c-.115 0-.209.094-.209.209s.094.209.209.209zm-13.863 0h2.588c.115 0 .209-.094.209-.209s-.095-.209-.209-.209h-2.588c-.115 0-.209.094-.209.209s.091.209.209.209zm16.583 1.68c.116 0 .209.094.209.209 0 .116-.094.209-.209.209-.116 0-.209-.094-.209-.209-.001-.115.093-.209.209-.209zm-8.418-.658c.116 0 .209.094.209.209s-.094.209-.209.209-.209-.094-.209-.209.093-.209.209-.209zm-3.88.871h.01c.786 0 1.137-.493 1.404-.951.088-.152.412-.658.87-.789.567-.165 1.171.098 1.407.614.034.074.108.118.182.121h.01.013c.074-.003.148-.047.182-.121.236-.516.84-.779 1.407-.614.459.135.783.638.87.789.267.462.617.951 1.414.951.479 0 1.046-.358 1.204-1.043.132-.567-.111-1.08-.641-1.339-.105-.051-.229-.01-.28.094-.051.105-.01.229.094.28.503.25.459.692.418.87-.081.351-.391.722-.8.722-.523 0-.773-.263-1.053-.746-.138-.236-.523-.81-1.113-.982-.644-.189-1.326.037-1.717.533-.391-.496-1.073-.722-1.717-.533-.59.172-.975.746-1.113.982-.28.482-.53.746-1.043.746-.003 0-.007 0-.007 0-.445-.003-.729-.314-.81-.621-.04-.145-.125-.641.442-.978.098-.057.132-.186.071-.287-.059-.097-.183-.131-.285-.07-.651.388-.752 1.002-.631 1.447.149.55.638.921 1.212.925zm3.886 19.696h.004zm-8.498-19.909c.116 0 .209.094.209.209 0 .116-.094.209-.209.209s-.21-.093-.21-.209c0-.115.094-.209.21-.209zm-.587-2.095c.116 0 .209.094.209.209s-.094.209-.209.209-.21-.093-.21-.209.094-.209.21-.209zm18.239 0c.116 0 .209.094.209.209s-.094.209-.209.209-.209-.094-.209-.209.093-.209.209-.209zm1.12 13.404c.116 0 .209.094.209.209 0 .116-.094.209-.209.209-.116 0-.209-.094-.209-.209s.093-.209.209-.209zm-.84 4.785c.116 0 .209.094.209.209 0 .116-.094.209-.209.209s-.209-.094-.209-.209c0-.116.093-.209.209-.209zm-1.343.597c.116 0 .209.094.209.209 0 .116-.094.209-.209.209-.116 0-.209-.094-.209-.209 0-.116.094-.209.209-.209zm-12.413-17.794c0 .31.253.563.563.563s.563-.253.563-.563-.252-.564-.562-.564c-.31-.003-.564.25-.564.564zm.564-.149c.081 0 .148.067.148.148s-.067.148-.148.148-.148-.067-.148-.148c-.001-.08.067-.148.148-.148zm7.591.712c.31 0 .563-.253.563-.563s-.253-.563-.563-.563-.563.253-.563.563.253.563.563.563zm0-.712c.081 0 .148.067.148.148s-.067.148-.148.148-.148-.067-.148-.148c0-.08.067-.148.148-.148zm-3.269.5c-.108.04-.162.159-.121.267.04.108.159.162.267.125.034-.013.843-.283 1.464.682.04.061.108.094.175.094.037 0 .078-.01.111-.034.098-.061.125-.192.064-.287-.648-1.002-1.565-.992-1.96-.847zm-1.127 0c-.03-.01-.307-.108-.685-.051-.351.051-.854.25-1.272.901-.061.098-.034.226.064.287.034.024.074.034.111.034.067 0 .135-.034.175-.094.617-.965 1.427-.695 1.464-.682.108.04.226-.017.267-.125s-.016-.23-.124-.27zm9.599.57 1.016-1.154v1.663c0 .115.094.209.209.209s.209-.094.209-.209v-2.213c0-.088-.054-.165-.135-.196s-.172-.007-.229.057l-1.38 1.569c-.078.088-.067.219.02.294.081.078.212.068.29-.02zm-19.265.722c.115 0 .209-.094.209-.209v-1.664l1.016 1.154c.077.088.209.095.293.021.088-.078.094-.209.02-.294l-1.38-1.572c-.057-.064-.148-.088-.229-.058-.081.031-.135.108-.135.196v2.217c0 .114.091.209.206.209zm14.73.206c-.098-.007-.189.061-.213.155-.024.098.024.199.111.24.331.155.631.216.901.216.516 0 .928-.226 1.215-.462.459-.378.695-.854.705-.874.047-.098.013-.216-.081-.27-.213-.125-.58-.202-1.14.138-.28.172-.496.378-.533.415-.513.452-.941.442-.965.442zm1.245-.132c.003-.003.007-.007.01-.01.159-.159.607-.526.958-.543-.101.145-.253.341-.459.513-.304.25-.628.371-.972.364.143-.074.301-.182.463-.324zm-12.784-.864c-.094.054-.128.173-.08.27.01.02.246.496.705.874.287.236.695.462 1.215.462.273 0 .574-.061.901-.216.091-.044.135-.142.111-.24-.024-.097-.112-.161-.213-.158-.017 0-.449.013-.962-.439-.037-.036-.253-.242-.533-.414-.56-.338-.931-.26-1.144-.139zm1.397.864c.159.142.317.246.462.324-.729.007-1.211-.55-1.431-.877.351.017.8.385.958.543.005.003.008.007.011.01zm16.161 16.954c-.209-.175-.439-.277-.651-.334.081-.061.159-.132.226-.209.516-.607.52-1.501.007-2.082-.078-.088-.209-.094-.294-.017-.088.078-.094.209-.017.294.375.425.368 1.083-.013 1.535-.31.364-.901.452-1.076.472-.53.057-1.124.179-1.444.904-.051.111-.081.236-.088.371-.074-.024-.155-.037-.236-.037-.422 0-.766.344-.766.766 0 .29.162.543.401.671-.071.064-.138.135-.199.216-.709-.955-1.842-1.555-3.09-1.555-.179 0-.358.013-.53.037 1.026-.314 1.98-.803 2.851-1.451 1.124-.84 2.058-1.937 2.699-3.168.675-1.296 1.016-2.696 1.016-4.153 0-.01 0-.017 0-.027 0-.003 0-.003 0-.007s0-.007 0-.01c-.007-1.184-.27-2.25-.644-3.168.138.027.27.037.388.037.874 0 1.258-.601 1.299-.671.189-.317.219-.702.111-1.049.003-.01.003-.024.003-.037v-3.803c0-.115-.094-.209-.209-.209s-.209.094-.209.209v3.195c-.354-.307-.867-.341-1.08-.341-.412.003-.668-.061-.857-.385-.159-.273-.067-.557.091-.719.199-.202.482-.229.759-.078.101.054.229.02.283-.081s.02-.229-.081-.283c-.439-.243-.931-.182-1.258.148-.324.331-.385.82-.155 1.218.3.516.756.59 1.204.59h.017c.135 0 .57.02.82.256.324.307.408.789.196 1.147 0 0-.003.003-.003.007-.017.03-.418.712-1.538.354-.337-.715-.729-1.323-1.093-1.808l-.166.127.165-.128-.067-.088c-.719-1.204.111-2.487.543-3.03l.243-.277c.074-.088.067-.219-.02-.294-.084-.071-.206-.067-.283.01-.007.007-.044.044-.101.108-.375.381-1.839 1.731-3.259 1.026l-.04-.027-.02-.013c-1.272-.685-2.527-1.08-3.725-1.181-.155-.354-.361-.624-.621-.624-.263 0-.469.273-.628.634-1.677.074-3.762 1.157-3.85 1.201-1.428.72-2.899-.637-3.274-1.018-.057-.064-.098-.101-.101-.108-.078-.078-.199-.081-.283-.01-.088.074-.094.206-.02.294l.26.294c.151.188.343.461.505.788.405.82.412 1.565.024 2.22-.483.601-.874 1.232-1.174 1.897-1.13.368-1.535-.321-1.552-.351 0-.003-.003-.003-.003-.007-.213-.358-.129-.84.195-1.147.25-.236.685-.256.82-.256h.003c.452 0 .918-.071 1.218-.59.23-.399.169-.892-.155-1.219-.327-.334-.82-.391-1.258-.148-.102.054-.139.182-.081.283.054.101.182.138.283.081.28-.152.563-.125.759.078.159.162.247.445.091.718-.185.321-.438.385-.843.385-.003 0-.007 0-.013 0-.186 0-.617.027-.962.25v-3.047c0-.115-.094-.209-.209-.209s-.209.094-.209.209v3.509c-.23.411-.243.914-.007 1.319.023.044.168.287.492.469.186.104.452.202.807.202.128 0 .27-.013.422-.044-.364.978-.547 2.031-.553 3.178v.007.003.027c0 2.072.729 4.106 2.051 5.729 1.171 1.437 2.763 2.503 4.528 3.047-.186-.027-.375-.04-.563-.04-1.238 0-2.362.59-3.07 1.532-.057-.074-.121-.145-.192-.206.223-.135.375-.378.375-.658 0-.422-.344-.766-.766-.766-.078 0-.152.013-.223.034-.01-.132-.04-.256-.088-.368-.324-.725-.914-.847-1.444-.904-.175-.02-.766-.108-1.076-.472-.391-.442-.398-1.1-.024-1.525.078-.088.067-.219-.017-.294-.088-.078-.219-.067-.294.017-.509.58-.506 1.474.007 2.082.067.081.145.148.226.209-.213.057-.442.162-.651.334-.496.408-.749 1.09-.756 2.018-.017.084.02.172.094.219.034.02.071.03.108.03.013 0 .03-.003.044-.007h.003c.007 0 .01-.003.017-.007.01-.003.024-.007.034-.013.003 0 .003-.003.007-.003.034-.02.064-.047.084-.081.081-.105.415-.236.692-.294 1.083-.236 1.309-.968 1.275-1.319-.01-.115-.111-.199-.226-.189s-.199.111-.189.226c0 .003.003.064-.017.155-.051.209-.236.57-.931.722-.003 0-.003 0-.007 0-.081.017-.324.074-.55.179.061-.601.253-1.039.58-1.312.503-.418 1.167-.3 1.174-.297.024.003.044.003.064 0 .111.024.206.037.277.044.557.061.897.182 1.11.658.165.375-.047.806-.334 1.022-.145.111-.533.331-.968-.027-.088-.074-.219-.061-.294.027-.074.088-.061.219.027.294.196.162.415.256.641.283-.29.236-.486.533-.574.688-.283.489-.513.752-.894.756v-1.461c0-.115-.094-.209-.209-.209s-.209.094-.209.209v1.694c0 .084.051.155.121.189.037.027.081.047.128.047h4.858c.074 0 .135-.037.175-.094.027-.027.051-.061.061-.101.192-.746.864-1.265 1.633-1.265.688 0 1.299.418 1.559 1.043h-.444c-.182-.449-.621-.749-1.117-.749-.543 0-1.022.368-1.167.891-.03.111.037.226.145.256.111.03.226-.037.256-.145.094-.344.408-.584.763-.584.263 0 .499.128.644.331h-.122c-.115 0-.209.094-.209.209s.094.209.209.209h.422c.007-.001.017.002.024.002.01 0 .02 0 .027-.003h.837c.115 0 .209-.094.209-.209 0-.01 0-.02-.003-.03.003-.027.003-.057-.003-.088-.246-.914-1.083-1.552-2.031-1.552-.918 0-1.724.594-2.004 1.461h-1.09c.088-.28.206-.54.354-.783.01-.013.017-.027.027-.04.617-.968 1.697-1.589 2.895-1.589.709 0 1.39.216 1.967.621.017.01.034.02.051.024.088.105.175.216.26.331.02.027.037.054.057.081-.02.428.213.877.695 1.336.017.051.034.094.044.128v.044c0 .115.094.209.209.209.098 0 .175-.064.199-.155 0-.003.03-.105.091-.273.435-.425.651-.84.648-1.242.027-.04.057-.084.088-.125.094-.128.192-.253.294-.371.574-.398 1.245-.607 1.947-.607 1.512 0 2.834.985 3.273 2.412h-1.09c-.277-.867-1.083-1.461-2.004-1.461-.948 0-1.781.638-2.031 1.552-.01.034-.01.067 0 .101v.017c0 .115.094.209.209.209h1.829c.115 0 .209-.094.209-.209s-.094-.209-.209-.209h-.665c.145-.202.381-.331.644-.331.361 0 .675.243.766.594.024.094.108.155.202.155.017 0 .034-.003.051-.007.111-.027.179-.142.152-.253-.138-.533-.617-.908-1.171-.908-.493 0-.931.3-1.117.749h-.422c.256-.624.87-1.043 1.559-1.043.769 0 1.441.52 1.633 1.265.003.017.013.034.02.051.027.084.105.145.199.145h4.95c.115 0 .209-.094.209-.209 0-.003 0-.01 0-.013s0-.01 0-.013v-.04c.003-.02.003-.04.003-.061 0-.003 0-.007-.003-.01v-1.582c0-.115-.094-.209-.209-.209s-.209.094-.209.209v1.417c-.351-.027-.57-.287-.84-.752-.088-.148-.27-.428-.54-.658.186-.04.364-.128.53-.267.088-.074.101-.206.027-.294s-.206-.101-.294-.027c-.432.358-.82.138-.968.027-.287-.216-.499-.651-.334-1.022.213-.476.553-.601 1.11-.658.071-.007.165-.02.277-.044.02.003.044.003.067 0 .007 0 .665-.121 1.171.297.331.273.526.712.584 1.316-.229-.108-.476-.165-.553-.182-.003 0-.003 0-.007 0-.692-.152-.881-.509-.931-.719-.02-.088-.02-.148-.017-.155.01-.115-.074-.216-.189-.226s-.216.074-.226.189c-.034.354.192 1.083 1.279 1.319.28.061.634.199.698.304 0 0 0 .003.003.003.01.013.02.027.03.037.003.003.007.003.01.007.01.007.02.017.03.02.003.003.01.007.013.007.01.007.02.01.03.013.003 0 .01.003.013.003.013.003.03.007.047.007.013 0 .024 0 .037-.003.003 0 .007 0 .01-.003.01-.003.02-.007.034-.01h.003c.01-.003.017-.01.027-.013l.003-.003c.007-.003.013-.01.017-.013.003-.003.01-.007.013-.013.003-.003.01-.01.013-.013.003-.007.01-.01.013-.017s.007-.01.01-.017.007-.01.01-.017.003-.013.007-.02c.003-.007.003-.013.007-.02 0-.007.003-.013.003-.017 0-.007.003-.013.003-.024v-.008c-.001-.954-.257-1.646-.76-2.061zm-17.507 3.816h-2.196c.186-.189.317-.415.418-.59.088-.152.412-.658.87-.789.54-.159 1.046.027 1.296.455-.165.286-.297.597-.388.924zm.057-1.812c-.192 0-.348-.155-.348-.348s.155-.348.348-.348c.192 0 .348.155.348.348s-.159.348-.348.348zm12.369-2.635.03.037zm.007-.209c-1.97-.229-3.394.617-4.244 1.366-.368.324-.658.658-.877.941-.04-.027-.078-.054-.111-.071v-.594c1.596-1.603 3.182-2.082 4.234-2.2.698-.078 1.262-.013 1.599.051-.193.18-.392.348-.601.507zm2.473-2.942c-.202.388-.435.759-.692 1.117-.267-.084-.601-.162-1.002-.199.894-1.134 1.461-2.487 1.643-3.914.29-.034.692-.159.999-.358-.081 1.171-.398 2.298-.948 3.354zm-1.42-3.765.243-.01c.081.361.354.651.712.749-.189 1.444-.789 2.807-1.748 3.92-.462 0-.999.054-1.606.186 1.417-1.154 2.341-2.892 2.399-4.845zm-3.965 5.33c-.135.054-.229.098-.277.118-.56.223-1.161.368-1.788.415l5.597-5.597c-.168 2.254-1.572 4.164-3.532 5.064zm6.353-5.556c-.007.189-.523.496-.978.57-.064.01-.128.017-.189.017-.081 0-.159-.017-.229-.047-.213-.091-.361-.3-.361-.543s.148-.452.361-.543c.071-.03.148-.047.229-.047.061 0 .125.007.189.017.455.074.968.381.978.567zm-1.953-5.338.088.118c.766 1.022 1.663 2.605 1.835 4.575-.304-.196-.702-.321-.989-.354-.216-1.707-.975-3.249-2.099-4.44.047-.098.074-.209.074-.324 0-.155-.047-.3-.125-.418l.958-1.093c-.181.694-.093 1.352.258 1.936zm-2.797-2.365.044.03.023.014c.334.169.692.253 1.063.253.391 0 .8-.094 1.211-.283l-1.08 1.231c-.098-.047-.206-.071-.324-.071-.152 0-.29.044-.408.118-1.063-.776-2.321-1.292-3.691-1.461-.034-.246-.101-.597-.202-.941 1.083.121 2.213.493 3.364 1.11zm1.289 1.94c0 .152-.101.283-.24.331-.034.01-.071.017-.108.017-.01 0-.024 0-.034 0-.155-.013-.28-.132-.307-.28-.003-.02-.007-.044-.007-.064 0-.024.003-.044.007-.067.03-.152.159-.27.317-.28h.024s.013 0 .02 0c.155.01.287.121.321.27.003.02.007.037.007.057-.004.002 0 .009 0 .016zm-4.434-1.684c1.255.165 2.416.644 3.398 1.353-.051.101-.078.213-.078.334 0 .152.044.29.121.412l-1.68 1.916c-.078.088-.067.219.02.294.04.034.088.051.138.051.057 0 .115-.024.159-.071l1.677-1.913c.101.051.213.078.334.078.155 0 .297-.047.415-.125 1.046 1.12 1.751 2.557 1.96 4.15-.361.101-.641.398-.715.769l-.24.01c-.051-1.542-.648-3.013-1.69-4.157-.078-.084-.209-.091-.294-.013-.084.078-.091.209-.013.294.918 1.005 1.464 2.281 1.569 3.63l-2.244-2.237c-.081-.081-.213-.081-.294 0s-.081.213 0 .294l2.409 2.409-5.938 5.938-5.938-5.938 2.389-2.389c.081-.081.081-.213 0-.294s-.213-.081-.294 0l-2.215 2.216c.118-1.535.806-2.915 1.856-3.92l1.046 1.194c.04.047.098.071.159.071.047 0 .098-.017.138-.051.088-.078.094-.209.02-.294l-1.05-1.197c.945-.789 2.129-1.299 3.428-1.397l-1.781 1.765c-.081.081-.081.213 0 .294.04.04.094.061.148.061s.105-.02.148-.061l1.957-1.937 1.9 1.9c.081.081.213.081.294 0s.081-.213 0-.294l-1.727-1.727c1.07.081 2.088.439 2.976 1.049.094.064.226.04.29-.054s.04-.226-.054-.29c-1.026-.705-2.22-1.097-3.468-1.134v-.149c.39-.094.704-.428.764-.84zm-6.096 2.507c.118 0 .229-.027.327-.074l.3.344c-1.191 1.137-1.95 2.719-2.011 4.477l-.169-.01c-.081-.395-.388-.705-.783-.786.206-1.562.894-2.972 1.906-4.079.126.081.271.128.43.128zm-.348-.762c0-.017 0-.03.003-.047 0-.01.003-.017.003-.027.03-.148.159-.263.314-.273h.017s.003 0 .007 0c.159 0 .294.108.334.256.007.03.013.061.013.091 0 .024-.003.047-.007.071-.03.148-.159.263-.314.273-.01 0-.017 0-.027 0-.044 0-.088-.01-.125-.024-.123-.047-.218-.175-.218-.32zm-1.208 5.917.172.01c.057 1.957.985 3.698 2.406 4.852-.611-.135-1.147-.189-1.613-.192-.951-1.11-1.555-2.466-1.744-3.904.388-.081.695-.381.779-.766zm.604.277 5.597 5.597c-2.982-.226-5.371-2.614-5.597-5.597zm5.49-8.401c.091-.631.401-1.474.563-1.542.186.071.472.945.56 1.538.017.119.027.227.027.315 0 .037-.003.071-.01.105-.051.273-.29.482-.58.482s-.53-.209-.58-.482c-.007-.034-.01-.071-.01-.105.003-.092.013-.196.03-.311zm.364 1.299v.145c-1.505.047-2.881.611-3.961 1.515l-.297-.341c.078-.118.125-.263.125-.415 0-.128-.034-.25-.088-.354.989-.725 2.159-1.215 3.431-1.387.058.419.378.756.79.837zm-5.152-.796c.371 0 .729-.084 1.066-.253.02-.01 1.947-1.012 3.505-1.147-.101.341-.169.695-.202.938-1.386.172-2.665.708-3.735 1.504-.114-.067-.243-.104-.384-.104-.118 0-.229.027-.327.074l-1.134-1.292c.415.185.82.28 1.211.28zm-1.684 2.088.017-.024c.351-.58.439-1.242.263-1.937l1.012 1.157c-.077.119-.124.264-.124.416 0 .111.024.216.067.314-1.103 1.188-1.846 2.713-2.058 4.4-.3.047-.698.175-.999.368.119-1.782.716-3.324 1.822-4.694zm-1.838 5.311c.007-.196.55-.466.978-.553.094-.02.182-.03.256-.03.057 0 .108.007.162.024.246.071.428.297.428.567s-.182.496-.428.567c-.051.013-.105.024-.162.024-.078 0-.165-.01-.256-.03-.428-.091-.972-.361-.978-.557 0-.009 0-.009 0-.012zm.02.621c.3.196.702.324.999.371.179 1.431.746 2.787 1.643 3.92-.401.037-.736.111-1.005.196-.969-1.329-1.529-2.865-1.637-4.487zm1.937 4.878c-.01-.013-.02-.024-.03-.037 1.016-.28 2.126-.132 2.905.054.941.226 1.63.553 1.636.557l.003-.007c.746.297 1.559.462 2.409.462.847 0 1.657-.162 2.399-.459s.007-.003.02-.01c.088-.037.179-.074.263-.115.287-.118.769-.294 1.35-.432.786-.189 1.9-.337 2.915-.054-.175.216-.358.422-.553.621-.283-.078-1.005-.226-1.98-.121-1.059.115-2.618.567-4.211 2.038v-.368c0-.115-.094-.209-.209-.209s-.209.094-.209.209v.348c-1.582-1.454-3.134-1.903-4.187-2.018-.999-.108-1.731.054-1.997.128-.177-.182-.356-.381-.524-.587zm.887.938c.337-.067.908-.135 1.619-.054 1.873.209 3.31 1.279 4.211 2.176v.611c-.03.017-.064.037-.101.064-.219-.28-.506-.607-.867-.924-.85-.752-2.281-1.603-4.258-1.366v.003c-.209-.162-.412-.331-.604-.51zm5.24 3.307c-.395-.506-.827-.887-1.258-1.174l.003-.01c-.01-.003-.02-.007-.03-.007-.719-.469-1.441-.675-2.021-.759-.273-.142-.543-.3-.803-.472 1.272-.037 2.426.395 3.445 1.289.351.307.628.624.837.897-.065.07-.123.148-.173.236zm1.008 1.265c-.051.061-.105.121-.165.182-.013.013-.03.03-.047.044l-.003.003-.003.003v-.007c-.007-.007-.017-.013-.024-.024-.067-.064-.125-.128-.179-.192-.246-.294-.354-.567-.317-.816.003-.02.007-.04.013-.061.027-.108.078-.202.138-.283.051-.067.108-.125.165-.175.051-.044.101-.081.145-.111.02-.013.037-.024.054-.034 0 0 .003 0 .003-.003h.003c.024.013.047.03.078.051.04.027.088.064.135.105.061.054.121.118.172.189.061.088.111.186.132.297 0 .007.003.017.007.024.038.244-.067.514-.307.808zm.824-1.522c-.007.007-.013.013-.017.02-.078.088-.148.175-.213.26-.051-.088-.108-.169-.169-.24.209-.273.493-.601.85-.914 1.012-.891 2.163-1.323 3.425-1.292-.263.172-.533.334-.81.476-1.444.219-2.432.968-3.066 1.69zm5.887-.398c.192 0 .348.155.348.348s-.155.348-.348.348-.348-.155-.348-.348c.001-.189.156-.348.348-.348zm1.053 1.083c.459.135.783.638.87.789.108.189.253.439.466.634h-2.332c-.088-.317-.213-.617-.371-.894.257-.458.83-.687 1.367-.529zm-17.777-14.656c0 .341.277.621.621.621s.62-.277.62-.621c0-.341-.277-.621-.621-.621s-.62.28-.62.621zm.823 0c0 .111-.091.202-.202.202s-.202-.091-.202-.202.091-.202.202-.202c.111-.001.202.091.202.202zm18.715 0c0-.341-.277-.621-.621-.621-.341 0-.621.277-.621.621 0 .341.277.621.621.621s.621-.277.621-.621zm-.823 0c0-.111.091-.202.202-.202s.202.091.202.202-.091.202-.202.202c-.111.004-.202-.087-.202-.202zm1.42 1.545c-.078-.03-.169-.013-.229.047-.273.28-.722.27-.729.27-.003 0-.007 0-.007 0-.111 0-.202.088-.209.199-.003.115.084.213.199.216.02 0 .351.01.688-.145v3.404c0 .115.094.209.209.209s.209-.094.209-.209v-3.799c-.003-.084-.053-.162-.131-.192zm-20.604 4.201c.115 0 .209-.094.209-.209v-3.405c.337.155.668.145.688.145.115-.003.206-.101.199-.216-.003-.114-.101-.205-.216-.199-.003 0-.455.01-.729-.27-.06-.06-.148-.077-.229-.047-.078.03-.128.108-.128.192v3.802c-.004.116.091.207.206.207zm20.769 3.471c0-.115-.094-.209-.209-.209h-1.35c-.115 0-.209.094-.209.209s.094.209.209.209h1.35c.115.001.209-.091.209-.209zm-1.4.8c.115 0 .209-.094.209-.209s-.094-.209-.209-.209h-.52c-.115 0-.209.094-.209.209s.094.209.209.209zm.506.385c0-.115-.094-.209-.209-.209h-1.289c-.115 0-.209.094-.209.209s.094.209.209.209h1.289c.115 0 .209-.091.209-.209zm-.816.597c0-.115-.094-.209-.209-.209h-1.009c-.115 0-.209.094-.209.209s.094.209.209.209h1.009c.114 0 .209-.094.209-.209zm-1.873.388c-.115 0-.209.094-.209.209s.094.209.209.209h.574c.115 0 .209-.094.209-.209s-.094-.209-.209-.209zm3.374-3.57h-.752c-.115 0-.209.094-.209.209s.094.209.209.209h.752c.115 0 .209-.094.209-.209 0-.114-.094-.209-.209-.209zm0 .597h-1.049c-.115 0-.209.094-.209.209s.094.209.209.209h1.049c.115 0 .209-.094.209-.209s-.094-.209-.209-.209zm0-1.788h-.334c-.115 0-.209.094-.209.209s.094.209.209.209h.334c.115 0 .209-.094.209-.209 0-.114-.094-.209-.209-.209zm0 .597h-.513c-.115 0-.209.094-.209.209s.094.209.209.209h.513c.115 0 .209-.094.209-.209 0-.114-.094-.209-.209-.209zm-20.567-1.207c.116 0 .209.094.209.209 0 .116-.094.209-.209.209-.116 0-.209-.094-.209-.209 0-.116.093-.209.209-.209zm.843 4.78c.116 0 .209.094.209.209 0 .116-.094.209-.209.209-.116 0-.209-.094-.209-.209s.094-.209.209-.209zm1.343.598c.116 0 .209.094.209.209 0 .116-.094.209-.209.209s-.209-.094-.209-.209c0-.116.094-.209.209-.209zm-2.206-1.961h1.35c.115 0 .209-.094.209-.209s-.095-.209-.21-.209h-1.35c-.115 0-.209.094-.209.209 0 .118.095.209.21.209zm1.71.176h-.52c-.115 0-.209.094-.209.209s.094.209.209.209h.52c.115 0 .209-.094.209-.209s-.094-.209-.209-.209zm.473.594h-1.289c-.115 0-.209.094-.209.209s.094.209.209.209h1.289c.115 0 .209-.094.209-.209 0-.118-.095-.209-.209-.209zm.536.593h-1.009c-.115 0-.209.094-.209.209s.094.209.209.209h1.009c.115 0 .209-.094.209-.209 0-.114-.094-.209-.209-.209zm-.128.807c0 .115.094.209.209.209h.574c.115 0 .209-.094.209-.209s-.094-.209-.209-.209h-.574c-.115 0-.209.094-.209.209zm-2.591-3.361h.752c.115 0 .209-.094.209-.209s-.094-.209-.209-.209h-.752c-.115 0-.209.094-.209.209-.001.115.094.209.209.209zm0 .598h1.049c.115 0 .209-.094.209-.209s-.094-.209-.209-.209h-1.049c-.115 0-.209.094-.209.209s.094.209.209.209zm0-1.789h.334c.115 0 .209-.094.209-.209s-.094-.209-.209-.209h-.334c-.115 0-.209.094-.209.209s.094.209.209.209zm0 .594h.513c.115 0 .209-.094.209-.209s-.094-.209-.209-.209h-.513c-.115 0-.209.094-.209.209-.001.118.094.209.209.209zm10.293 8.077c.003-.003 0-.003 0-.007zm9.488-19.042c.003 0 .003 0 0 0 .094 0 .179-.064.202-.159.074-.297.044-.55-.098-.759-.226-.337-.641-.401-.688-.408-.108-.013-.209.054-.233.162-.078.354-.034.638.135.847.25.303.641.314.682.317zm-.236-.682c.04.064.064.138.064.226-.061-.024-.128-.061-.175-.121-.054-.067-.081-.155-.081-.267.067.034.141.088.192.162zm-1.12-2.334c-.226-.337-.641-.401-.688-.408-.108-.013-.209.054-.233.162-.078.354-.034.638.135.847.243.304.634.314.678.314.094 0 .179-.064.202-.159.078-.291.047-.547-.094-.756zm-.456.34c-.054-.067-.081-.155-.081-.267.071.034.145.088.192.162.04.064.064.138.064.226-.06-.023-.128-.06-.175-.121zm-16.539 1.35c-.047.007-.459.071-.688.408-.138.209-.172.462-.098.759.024.091.108.159.203.159.044 0 .435-.01.678-.314.168-.209.212-.496.135-.847-.021-.108-.122-.178-.23-.165zm-.226.749c-.047.061-.115.098-.179.121 0-.088.024-.165.064-.226.051-.074.125-.128.192-.162.001.112-.026.2-.077.267zm1.657-2.848c-.047.007-.459.071-.689.409-.138.209-.172.462-.097.759.023.091.108.158.202.158.044 0 .435-.01.678-.314.169-.209.213-.496.135-.847-.023-.107-.121-.178-.229-.165zm-.23.749c-.047.061-.114.098-.178.122 0-.088.024-.165.064-.226.05-.074.124-.128.192-.162 0 .111-.024.199-.078.266zm14.245 9.063c.013.108.101.186.206.186h.024c.115-.013.196-.118.182-.233-.209-1.822-1.454-3.111-1.508-3.165-.081-.081-.213-.084-.294-.003s-.084.213-.003.294c.013.012 1.201 1.244 1.393 2.921zm-13.361.182h.024c.105 0 .196-.078.206-.186.192-1.676 1.38-2.908 1.39-2.918.081-.081.078-.216-.003-.294-.082-.081-.217-.081-.294.004-.054.054-1.296 1.343-1.508 3.165-.01.114.071.215.185.229z"/></svg>