<svg width="44" height="44" viewBox="0 0 44 44" fill="none" xmlns="http://www.w3.org/2000/svg">
<path d="M36 0H8C3.58172 0 0 3.58172 0 8V36C0 40.4183 3.58172 44 8 44H36C40.4183 44 44 40.4183 44 36V8C44 3.58172 40.4183 0 36 0Z" fill="#0D6EFD"/>
<path d="M10 36C11.6569 36 13 34.6569 13 33C13 31.3431 11.6569 30 10 30C8.34315 30 7 31.3431 7 33C7 34.6569 8.34315 36 10 36Z" fill="white"/>
<path fill-rule="evenodd" clip-rule="evenodd" d="M34.092 8C34.8632 8 35.6029 8.30638 36.1483 8.85173C36.6936 9.39709 37 10.1368 37 10.908C37 11.6792 36.6936 12.4189 36.1483 12.9643C35.6029 13.5096 34.8632 13.816 34.092 13.816L13.8 13.815V19.184H22.493C23.2642 19.184 24.0039 19.4904 24.5493 20.0357C25.0946 20.5811 25.401 21.3207 25.401 22.092C25.401 22.8632 25.0946 23.6029 24.5493 24.1483C24.0039 24.6936 23.2642 25 22.493 25H10.9C10.1309 25 9.39325 24.6945 8.84939 24.1506C8.30553 23.6068 8 22.8691 8 22.1V10.9C8 10.1309 8.30553 9.39325 8.84939 8.84939C9.39325 8.30553 10.1309 8 10.9 8H34.092Z" fill="white"/>
</svg>
