<svg width="162" height="120" viewBox="0 0 162 120" fill="none" xmlns="http://www.w3.org/2000/svg">
<path fill-rule="evenodd" clip-rule="evenodd" d="M132.122 119.374H29.3205L0 34.9675L36.6922 61.9029C36.5087 62.8341 36.4106 63.7451 36.4106 64.6592C36.4106 72.9952 43.1935 79.7792 51.5306 79.7792C59.8634 79.7792 66.6506 72.9963 66.6506 64.6592C66.6506 58.1621 62.6004 52.6336 56.7594 50.5205L80.722 0L104.611 50.3883C98.6089 52.4128 94.3401 58.0608 94.3401 64.6646C94.3401 73.0006 101.123 79.7845 109.46 79.7845C117.791 79.7845 124.58 73.0016 124.58 64.6646C124.58 63.5595 124.451 62.4491 124.192 61.3547L161.508 34.7712L132.122 119.374Z" fill="#0098D7"/>
</svg>
