<svg width="441" height="218" viewBox="0 0 441 218" fill="none" xmlns="http://www.w3.org/2000/svg">
<path d="M385.552 68.5901L371.41 54.448L307.77 118.088L321.912 132.23L385.552 68.5901Z" fill="#5123A0"/>
<path d="M186.529 76.8397L176.529 94.1602L254.471 139.16L264.471 121.84L186.529 76.8397Z" fill="#5123A0"/>
<path d="M133.552 99.5901L119.41 85.448L55.7703 149.088L69.9124 163.23L133.552 99.5901Z" fill="#5123A0"/>
<path d="M403.5 68C420.621 68 434.5 54.1208 434.5 37C434.5 19.8792 420.621 6 403.5 6C386.379 6 372.5 19.8792 372.5 37C372.5 54.1208 386.379 68 403.5 68Z" stroke="#5123A0" stroke-width="12"/>
<path d="M289.5 180C306.621 180 320.5 166.121 320.5 149C320.5 131.879 306.621 118 289.5 118C272.379 118 258.5 131.879 258.5 149C258.5 166.121 272.379 180 289.5 180Z" stroke="#5123A0" stroke-width="12"/>
<path d="M151.5 99C168.621 99 182.5 85.1208 182.5 68C182.5 50.8792 168.621 37 151.5 37C134.379 37 120.5 50.8792 120.5 68C120.5 85.1208 134.379 99 151.5 99Z" stroke="#5123A0" stroke-width="12"/>
<path d="M37.5 218C57.9345 218 74.5 201.435 74.5 181C74.5 160.565 57.9345 144 37.5 144C17.0655 144 0.5 160.565 0.5 181C0.5 201.435 17.0655 218 37.5 218Z" fill="#5123A0"/>
</svg>
