<svg width="38" height="38" viewBox="0 0 38 38" fill="none" xmlns="http://www.w3.org/2000/svg">
<path d="M19.4969 36.9219C9.87276 36.9219 2 29.0423 2 19.4609C2 9.82849 9.85576 2 19.4969 2C29.0701 2 36.9428 9.87954 36.9428 19.4609C36.9428 29.0593 29.0701 36.9219 19.4969 36.9219Z" stroke="#FD641F" stroke-width="2.11319" stroke-miterlimit="10"/>
<path d="M16.6592 16.9927C17.9005 17.0438 18.3086 16.8906 18.3596 16.1078C18.4106 14.7123 18.4106 13.3678 18.3596 11.9553C18.3596 11.4447 17.9515 11.0703 17.4754 11.0703C17.1693 11.0703 16.9143 11.0703 16.5912 11.0703C16.0301 11.0703 15.656 11.4788 15.605 12.0574C15.605 12.7381 15.605 13.3508 15.605 14.0315C15.605 14.7123 15.605 15.376 15.605 16.0567C15.673 16.6183 16.0471 16.9417 16.6592 16.9927Z" fill="#FD641F"/>
<path d="M23.1375 16.9925C24.3277 16.9925 24.7868 16.7883 24.7868 16.0565C24.7868 14.661 24.7868 13.3165 24.7868 11.904C24.7868 11.3934 24.3788 11.0701 23.8516 11.019C23.5966 11.019 23.2905 11.019 23.0184 11.019C22.3893 11.019 22.0322 11.3764 22.0322 12.0061C22.0322 12.6358 22.0322 13.2995 22.0322 13.9292C22.0322 14.6099 22.0322 15.2737 22.0322 16.0054C22.1002 16.6181 22.4573 16.9925 23.1375 16.9925Z" fill="#FD641F"/>
<path d="M10.8501 19.1616C10.7993 18.6319 11.2158 18.1736 11.748 18.1736H28.1048C28.6487 18.1736 29.0721 18.6459 29.0128 19.1866L28.6852 22.1762C28.1948 26.6513 24.4145 30.0399 19.9126 30.0399C15.3649 30.0399 11.5619 26.5841 11.1278 22.0572L10.8501 19.1616Z" fill="#FD641F"/>
</svg>
