<?xml version="1.0" encoding="UTF-8" standalone="no"?><!DOCTYPE svg PUBLIC "-//W3C//DTD SVG 1.1//EN" "http://www.w3.org/Graphics/SVG/1.1/DTD/svg11.dtd"><svg width="100%" height="100%" viewBox="0 0 1600 1200" version="1.1" xmlns="http://www.w3.org/2000/svg" xmlns:xlink="http://www.w3.org/1999/xlink" xml:space="preserve" xmlns:serif="http://www.serif.com/" style="fill-rule:evenodd;clip-rule:evenodd;stroke-linejoin:round;stroke-miterlimit:2;"><rect id="Artboard2" x="0" y="0" width="1600" height="1200" style="fill:none;"/><g><path d="M989.788,901.264l-170.835,0c-18.497,0 -33.512,-15.019 -33.512,-33.518c0,-18.493 15.015,-33.513 33.512,-33.513l111.592,0c17.414,-1.194 31.189,-15.716 31.189,-33.428c0,-18.498 -15.015,-33.513 -33.513,-33.513l-81.588,-0l0,-0.005l-93.032,-0c-18.469,-0 -33.467,-14.995 -33.467,-33.463c0,-18.474 14.998,-33.472 33.467,-33.472l21.08,-0l-0.044,-0.04l31.338,-0c18.462,-0 33.452,-14.988 33.452,-33.451c-0,-18.462 -14.99,-33.45 -33.452,-33.45l-78.819,-0l-0,-0.03l-165.287,-0c-18.462,-0 -33.453,-14.991 -33.453,-33.457c-0,-18.462 14.991,-33.454 33.453,-33.454l165.287,0l-0,-0.093l64.715,-0c18.445,-0 33.422,-14.975 33.422,-33.424c0,-18.445 -14.977,-33.423 -33.422,-33.423l-14.75,-0l0.003,-0.004l-68.728,0c-18.472,0 -33.467,-14.998 -33.467,-33.467c-0,-18.472 14.995,-33.47 33.467,-33.47l158.701,-0c0.792,-0 1.573,0.027 2.349,0.08l56.73,0c18.493,0 33.508,-15.015 33.508,-33.51c-0,-18.496 -15.015,-33.511 -33.508,-33.511l-83.39,0c-17.353,-1.258 -31.06,-15.754 -31.06,-33.427c-0,-18.495 15.015,-33.514 33.514,-33.514l131.355,0c0.144,0 0.288,0 0.443,0.004l154.879,-0l-271.379,296.366l328.243,306.217l-198.107,0l-0.045,-0.045c-0.279,0.01 -0.558,0.015 -0.841,0.015Zm-321.55,-67.031c18.432,0 33.397,14.965 33.397,33.394c-0,18.434 -14.965,33.394 -33.397,33.394l-122.548,-0c-18.429,-0 -33.393,-14.96 -33.393,-33.394c-0,-18.429 14.964,-33.394 33.393,-33.394l122.548,0Zm-48.515,-133.881c18.485,-0 33.494,15.008 33.494,33.496c-0,18.484 -15.009,33.494 -33.494,33.494c-18.489,-0 -33.497,-15.01 -33.497,-33.494c-0,-18.488 15.008,-33.496 33.497,-33.496Zm-175.01,-133.882c18.489,0 33.497,15.009 33.497,33.497c0,18.486 -15.008,33.494 -33.497,33.494c-18.485,0 -33.494,-15.008 -33.494,-33.494c0,-18.488 15.009,-33.497 33.494,-33.497Zm129.805,-133.881c18.486,-0 33.497,15.008 33.497,33.497c-0,18.486 -15.011,33.494 -33.497,33.494c-18.486,-0 -33.497,-15.008 -33.497,-33.494c-0,-18.489 15.011,-33.497 33.497,-33.497Zm120.122,-133.882c18.432,0 33.393,14.965 33.393,33.394c0,18.432 -14.961,33.397 -33.393,33.397l-77.464,-0c-18.429,-0 -33.394,-14.965 -33.394,-33.397c0,-18.429 14.962,-33.394 33.394,-33.394l77.464,0Z" style="fill:url(#_Linear1);"/><path d="M800,5.773c327.963,0 594.227,266.264 594.227,594.227c-0,327.963 -266.264,594.227 -594.227,594.227c-327.963,-0 -594.227,-266.264 -594.227,-594.227c0,-327.963 266.264,-594.227 594.227,-594.227Zm0,49.98c300.378,0 544.247,243.869 544.247,544.247c-0,300.378 -243.869,544.247 -544.247,544.247c-300.378,-0 -544.247,-243.869 -544.247,-544.247c0,-300.378 243.869,-544.247 544.247,-544.247Z" style="fill:url(#_Linear2);"/></g><defs><linearGradient id="_Linear1" x1="0" y1="0" x2="1" y2="0" gradientUnits="userSpaceOnUse" gradientTransform="matrix(7.29071e-14,1190.66,-1190.66,7.29071e-14,780.872,2.48435)"><stop offset="0" style="stop-color:#0073e6;stop-opacity:1"/><stop offset="1" style="stop-color:#005ab3;stop-opacity:1"/></linearGradient><linearGradient id="_Linear2" x1="0" y1="0" x2="1" y2="0" gradientUnits="userSpaceOnUse" gradientTransform="matrix(7.29071e-14,1190.66,-1190.66,7.29071e-14,780.872,2.48435)"><stop offset="0" style="stop-color:#0073e6;stop-opacity:1"/><stop offset="1" style="stop-color:#005ab3;stop-opacity:1"/></linearGradient></defs></svg>