<svg xmlns="http://www.w3.org/2000/svg" fill="none" viewBox="0 0 100 100">
  <path fill="#787DFF" d="m22.206 11.439 18.338 20.39a16.398 16.398 0 0 1 4.505 11.288v47.655L22.188 74.807l.018-63.368Z" opacity=".3"/>
  <path fill="#787DFF" d="m7.964 8.594 30.22 21.52a16.066 16.066 0 0 1 6.846 12.184v48.44L7.958 71.202l.006-62.608Z" opacity=".5"/>
  <path fill="#787DFF" d="M45.048 91.241 11.647 80.552A16.577 16.577 0 0 1 0 65.76V16.468L36.287 30.48a13.482 13.482 0 0 1 8.737 11.678v.76l.024 48.323Z"/>
  <path fill="#FD739C" d="m77.794 11.439-18.338 20.39a16.398 16.398 0 0 0-4.504 11.257V90.74l22.86-15.965-.018-63.337Z" opacity=".3"/>
  <path fill="#FD739C" d="m92.037 8.594-30.22 21.52a16.064 16.064 0 0 0-6.846 12.184v48.44l37.072-19.536-.006-62.608Z" opacity=".5"/>
  <path fill="#FD739C" d="m54.952 91.241 33.395-10.689c6.537-2.095 11.32-7.94 11.653-14.792V16.468L63.725 30.48a13.489 13.489 0 0 0-8.742 11.678v.76l-.031 48.323Z"/>
</svg>
