<svg width="134" height="134" viewBox="0 0 134 134" fill="none" xmlns="http://www.w3.org/2000/svg">
<path d="M133.903 66.762C133.903 103.635 103.927 133.524 66.9516 133.524C55.3582 133.524 44.4531 130.587 34.9447 125.416C14.1255 114.095 0 92.074 0 66.762C0 29.8908 29.9752 0 66.951 0C103.927 0 133.903 29.8908 133.903 66.762Z" fill="#20B276"/>
<path d="M92.2799 84.3747C85.1954 91.656 76.5989 95.2976 66.4897 95.2976C60.3201 95.2976 54.5496 93.7851 49.1765 90.7601L49.1708 131.146C49.1708 131.146 47.8631 130.786 46.161 130.238C45.7413 130.103 45.3175 129.958 44.8735 129.802C44.6624 129.727 44.5594 129.683 44.342 129.621C43.7852 129.461 43.0794 129.152 42.5355 128.941C40.7077 128.231 39.2266 127.555 39.1909 127.538C39.1552 127.521 33.9234 125.033 33.3334 124.665C32.8051 124.336 32.3347 124.078 31.9316 123.789C31.8027 123.698 31.7054 123.632 31.5833 123.548C30.6249 122.892 30.0893 122.514 30.0893 122.514L30.0732 57.7778C30.0732 47.3952 33.615 38.5777 40.6999 31.3238C47.7839 24.0684 56.3805 20.4422 66.4902 20.4422C76.5994 20.4422 85.196 24.0818 92.2804 31.3636C99.3644 38.6443 102.908 47.4803 102.908 57.8697C102.907 68.2595 99.3639 77.094 92.2799 84.3747ZM78.7578 45.2495C75.3936 41.7895 71.3049 40.0603 66.4892 40.0603C61.6729 40.0603 57.5836 41.7895 54.221 45.2495C50.8573 48.7095 49.1759 52.9152 49.1759 57.8697C49.1759 62.8236 50.8573 67.0293 54.221 70.4888C57.5836 73.9503 61.6729 75.6801 66.4892 75.6801C71.3044 75.6801 75.3936 73.9503 78.7578 70.4888C82.1205 67.0293 83.8029 62.8236 83.8029 57.8697C83.8029 52.9152 82.1205 48.7095 78.7578 45.2495Z" fill="white"/>
</svg>
