<?xml version="1.0" encoding="UTF-8" standalone="no"?>
<svg
   width="128"
   height="128"
   viewBox="0 0 128 128"
   fill="none"
   version="1.1"
   id="svg8"
   sodipodi:docname="ST-Logo.svg"
   inkscape:version="1.1.2 (0a00cf5339, 2022-02-04)"
   xmlns:inkscape="http://www.inkscape.org/namespaces/inkscape"
   xmlns:sodipodi="http://sodipodi.sourceforge.net/DTD/sodipodi-0.dtd"
   xmlns="http://www.w3.org/2000/svg"
   xmlns:svg="http://www.w3.org/2000/svg">
  <defs
     id="defs12" />
  <sodipodi:namedview
     id="namedview10"
     pagecolor="#ffffff"
     bordercolor="#666666"
     borderopacity="1.0"
     inkscape:pageshadow="2"
     inkscape:pageopacity="0.0"
     inkscape:pagecheckerboard="0"
     showgrid="false"
     inkscape:zoom="0.90793201"
     inkscape:cx="341.98596"
     inkscape:cy="3.3042122"
     inkscape:window-width="1495"
     inkscape:window-height="749"
     inkscape:window-x="651"
     inkscape:window-y="254"
     inkscape:window-maximized="0"
     inkscape:current-layer="svg8" />
  <path
     fill-rule="evenodd"
     clip-rule="evenodd"
     d="M 101.77046,10.491803 H 26.229538 c -8.691692,0 -15.737735,7.046043 -15.737735,15.737735 v 75.540922 c 0,8.69169 7.046043,15.73772 15.737735,15.73772 h 75.540922 c 8.69169,0 15.73772,-7.04603 15.73772,-15.73772 V 26.229538 c 0,-8.691692 -7.04603,-15.737735 -15.73772,-15.737735 z M 26.229538,0 C 11.743348,0 0,11.743348 0,26.229538 V 101.77046 C 0,116.25662 11.743348,128 26.229538,128 H 101.77046 C 116.25662,128 128,116.25662 128,101.77046 V 26.229538 C 128,11.743348 116.25662,0 101.77046,0 Z"
     fill="white"
     id="path4"
     style="fill:#c238ee;stroke-width:1.23077;fill-opacity:1" />
  <path
     fill-rule="evenodd"
     clip-rule="evenodd"
     d="m 77.345846,40.269538 c -0.245908,-0.219815 -0.505477,-0.4304 -0.778831,-0.63163 -2.368984,-1.744246 -5.584123,-2.61637 -9.645169,-2.61637 -2.759508,0 -5.089477,0.390524 -6.989908,1.17157 -1.90043,0.754954 -3.358276,1.80923 -4.373538,3.162954 -1.090462,1.492307 -2.947692,2.701538 -4.553723,1.78683 -1.2608,-0.718277 -2.425108,-1.60443 -3.4592,-2.6384 -1.928615,-1.928492 -3.342646,-4.309907 -4.112615,-6.926277 -0.3392,-1.152615 -0.03902,-2.412184 0.86843,-3.19963 2.029662,-1.761231 4.402339,-3.24357 7.117785,-4.447016 4.581908,-2.030646 9.788431,-3.045907 15.619815,-3.045907 5.935631,0 11.116185,1.015261 15.541785,3.045907 4.451692,2.030523 7.914092,4.855139 10.3872,8.473723 0.904615,1.323693 1.649108,2.724062 2.233354,4.200985 1.732431,4.379938 -2.266216,8.372923 -6.976369,8.372923 -3.676677,0 -6.619939,-2.749908 -9.400493,-5.347815 l -3.69e-4,-2.47e-4 -1.23e-4,-2.46e-4 c -0.496739,-0.464123 -0.988431,-0.923446 -1.478031,-1.361354 z m -24.209108,8.663016 c 0.698093,-0.272985 1.445662,0.140184 1.835939,0.780184 0.6768,1.067324 1.600985,1.991508 2.772431,2.772554 1.171569,0.754954 2.525292,1.418708 4.061169,1.991508 1.536,0.546708 3.176,1.015262 4.920246,1.405785 l 7.185108,1.718153 c 3.488492,0.780924 6.690584,1.822277 9.606277,3.123939 2.915692,1.301661 5.440861,2.902646 7.57563,4.803077 2.134647,1.900431 3.787693,4.139323 4.959262,6.716554 1.197538,2.57723 1.809231,5.532061 1.835323,8.864246 -0.02609,4.894277 -1.275569,9.1376 -3.7488,12.730215 -2.447138,3.566523 -5.987569,6.339081 -10.621415,8.317541 -4.607877,1.95249 -10.165908,2.92874 -16.674216,2.92874 -6.456246,0 -12.079384,-0.9893 -16.869415,-2.96776 -4.764062,-1.97858 -8.486769,-4.907321 -11.168123,-8.786213 -1.237539,-1.819815 -2.200862,-3.840369 -2.889846,-6.061662 -1.389908,-4.480369 2.571446,-8.425723 7.2624,-8.425723 h 0.608246 c 4.054523,0 7.066338,3.478523 9.506584,6.716554 1.379693,1.770216 3.215016,3.110892 5.50597,4.022154 2.316923,0.885046 4.933292,1.327631 7.848984,1.327631 2.863631,0 5.349785,-0.416493 7.458462,-1.2496 2.134646,-0.833108 3.787815,-1.991508 4.959261,-3.475446 1.171447,-1.483816 1.75717,-3.189047 1.75717,-5.115447 0,-1.796307 -0.533662,-3.306215 -1.600985,-4.529723 -1.041354,-1.22363 -2.577231,-2.264861 -4.607877,-3.124061 -2.004554,-0.859077 -4.464615,-1.64 -7.380308,-2.342892 L 58.526154,68.886031 C 52.813908,67.496615 48.12,65.443815 44.444431,62.727754 c -0.993846,-0.7344 -1.360493,-2.0272 -1.011569,-3.212554 0.769846,-2.616246 2.18363,-4.997538 4.111876,-6.926031 1.5952,-1.595323 3.500308,-2.838646 5.592,-3.656615 z M 42.789785,37.901046 42.024492,35.300923 c -0.03298,-0.112861 -0.101661,-0.212061 -0.195692,-0.282585 -0.09415,-0.07065 -0.208492,-0.1088 -0.326154,-0.1088 -0.117538,0 -0.232,0.03815 -0.326154,0.1088 -0.09403,0.07052 -0.162707,0.169724 -0.195569,0.282585 l -0.764308,2.600123 c -0.513477,1.744123 -1.456246,3.331446 -2.741907,4.616985 -1.285662,1.285415 -2.873354,2.227938 -4.617477,2.741169 l -2.600246,0.765292 c -0.520739,0.154339 -0.520739,0.891323 0,1.04357 l 2.600246,0.765169 c 1.744,0.513354 3.331323,1.456 4.616861,2.741415 1.285539,1.285416 2.228062,2.872739 2.741539,4.616739 l 0.765292,2.60123 c 0.153231,0.519631 0.890215,0.519631 1.043569,0 l 0.765293,-2.600123 c 0.51323,-1.744123 1.455753,-3.331692 2.741169,-4.617354 1.285538,-1.285661 2.872984,-2.22843 4.617108,-2.741907 l 2.601353,-0.765169 c 0.519631,-0.153354 0.519631,-0.890339 0,-1.042462 l -2.600246,-0.765292 c -1.744246,-0.513354 -3.331938,-1.456 -4.617723,-2.741662 -1.285661,-1.285661 -2.228308,-2.873354 -2.741661,-4.6176 z m -9.275939,15.357662 0.229539,0.780061 c 0.154092,0.5232 0.4368,0.999508 0.822523,1.385231 0.385723,0.385723 0.86203,0.668554 1.385354,0.822523 l 0.780061,0.229539 c 0.155939,0.04566 0.155939,0.266707 0,0.312738 l -0.780431,0.229538 c -0.5232,0.154093 -0.999384,0.436924 -1.385107,0.822647 -0.3856,0.3856 -0.668431,0.861907 -0.8224,1.385107 l -0.229539,0.780062 c -0.04603,0.155938 -0.267077,0.155938 -0.313108,0 L 32.9712,59.225846 c -0.154092,-0.5232 -0.4368,-0.999384 -0.822523,-1.384984 -0.3856,-0.385724 -0.861785,-0.668431 -1.384985,-0.822524 L 29.983631,56.7888 c -0.156308,-0.04566 -0.156308,-0.266708 0,-0.313108 l 0.780061,-0.229538 c 0.5232,-0.153969 0.999508,-0.436677 1.385231,-0.822277 0.385723,-0.385723 0.668554,-0.861908 0.822523,-1.385108 l 0.229292,-0.780061 c 0.01,-0.03385 0.03052,-0.06363 0.05871,-0.0848 0.02831,-0.02117 0.06252,-0.03262 0.09785,-0.03262 0.03532,0 0.06966,0.01145 0.09785,0.03262 0.02819,0.02117 0.04886,0.05095 0.05871,0.0848 z m -1.495261,-21.220431 -0.35717,-1.213415 c -0.01538,-0.05268 -0.04738,-0.09895 -0.09132,-0.131939 -0.04394,-0.03286 -0.09723,-0.05071 -0.152123,-0.05071 -0.05489,0 -0.108307,0.01785 -0.152246,0.05071 -0.04394,0.03299 -0.07594,0.07926 -0.09132,0.131939 l -0.356554,1.213415 c -0.239631,0.813908 -0.679631,1.554708 -1.279631,2.154585 -0.6,0.599876 -1.340923,1.03963 -2.15483,1.279138 l -1.213416,0.357169 c -0.243077,0.072 -0.243077,0.416 0,0.487016 l 1.213416,0.357046 c 0.813907,0.239631 1.554584,0.679507 2.154584,1.279384 0.599877,0.599877 1.039754,1.340554 1.279262,2.154462 l 0.357169,1.213908 c 0.07151,0.242461 0.415508,0.242461 0.487015,0 l 0.35717,-1.213416 c 0.239507,-0.813907 0.679261,-1.554831 1.279261,-2.154707 0.599877,-0.6 1.340677,-1.04 2.154585,-1.279631 l 1.214031,-0.357046 c 0.242461,-0.07151 0.242461,-0.415508 0,-0.486523 l -1.213539,-0.35717 c -0.814031,-0.239507 -1.554831,-0.679384 -2.154831,-1.279384 -0.6,-0.6 -1.04,-1.340923 -1.279507,-2.154831 z"
     fill="white"
     id="path6"
     style="fill:#c238ee;stroke-width:1.23077;fill-opacity:1" />
</svg>
