<svg width="150" height="18" viewBox="0 0 164 18" fill="none" xmlns="http://www.w3.org/2000/svg" class="ml-1 h-4 !text-white "><g id="logotype"><g id="sure"><path d="M0.941406 14.7723L2.13288 13.0566C2.67962 13.6749 3.40688 14.1953 4.31467 14.6178C5.22246 15.0402 6.17667 15.2515 7.17731 15.2515C8.32236 15.2515 9.21468 15.0093 9.85426 14.525C10.5042 14.0407 10.8291 13.407 10.8291 12.6238C10.8291 12.1292 10.6537 11.7119 10.303 11.3718C9.95226 11.0317 9.49836 10.769 8.94131 10.5835C8.38426 10.398 7.77047 10.228 7.09994 10.0734C6.42941 9.91885 5.75373 9.73851 5.07288 9.53242C4.40236 9.32633 3.78857 9.07387 3.23151 8.77503C2.67446 8.4762 2.22057 8.05371 1.86983 7.50756C1.51909 6.95111 1.34372 6.29161 1.34372 5.52907C1.34372 4.27191 1.8492 3.22599 2.86015 2.39131C3.87109 1.54633 5.25857 1.12384 7.02257 1.12384C9.35394 1.12384 11.2417 1.86577 12.6859 3.34964L11.5873 4.98808C11.1128 4.41102 10.4732 3.94731 9.66857 3.59695C8.87426 3.23629 7.99226 3.05596 7.02257 3.05596C6.00131 3.05596 5.1812 3.28781 4.56225 3.75152C3.9433 4.20493 3.63383 4.77683 3.63383 5.46724C3.63383 5.91034 3.8092 6.28646 4.15994 6.5956C4.51067 6.89444 4.95941 7.13144 5.50615 7.30662C6.0632 7.4715 6.67699 7.63122 7.34752 7.78579C8.02836 7.93005 8.70405 8.11038 9.37457 8.32678C10.0554 8.54318 10.6692 8.8111 11.2159 9.13054C11.773 9.43968 12.2269 9.88793 12.5776 10.4753C12.9284 11.0627 13.1037 11.7582 13.1037 12.562C13.1037 13.9016 12.5776 15.0093 11.5254 15.8852C10.4835 16.7508 9.01352 17.1836 7.11541 17.1836C4.54678 17.1836 2.48878 16.3799 0.941406 14.7723Z" fill="currentColor"></path><path d="M15.0708 12.2992V1.51026H17.4382V11.5727C17.4382 12.8505 17.7322 13.7522 18.3202 14.2777C18.9082 14.7929 19.7644 15.0506 20.8889 15.0506C21.776 15.0506 22.6322 14.829 23.4575 14.3859C24.2828 13.9428 24.9275 13.3967 25.3917 12.7475V1.51026H27.7747V16.7972H25.3917V14.6487C24.7521 15.37 23.9527 15.9728 22.9933 16.4571C22.0339 16.9415 21.0178 17.1836 19.945 17.1836C16.6955 17.1836 15.0708 15.5555 15.0708 12.2992Z" fill="currentColor"></path><path d="M30.6237 16.7972V1.51026H32.9912V3.95246C33.6514 3.10748 34.4199 2.43253 35.2967 1.9276C36.1736 1.41237 37.1072 1.15475 38.0975 1.15475V3.59695C37.7261 3.55573 37.4218 3.53513 37.1845 3.53513C36.4521 3.53513 35.6578 3.78759 34.8016 4.29252C33.9454 4.78714 33.3419 5.34874 32.9912 5.97732V16.7972H30.6237Z" fill="currentColor"></path><path d="M38.285 9.13054C38.285 7.66728 38.6048 6.32768 39.2444 5.11173C39.8943 3.88548 40.7969 2.91685 41.9523 2.20583C43.1077 1.4845 44.4023 1.12384 45.8362 1.12384C47.3423 1.12384 48.6576 1.48965 49.782 2.22128C50.9064 2.95291 51.7523 3.93701 52.3197 5.17356C52.8973 6.39981 53.1862 7.78579 53.1862 9.33148V9.9343H40.8227C40.9155 11.4388 41.452 12.6959 42.432 13.7058C43.4223 14.7157 44.7118 15.2206 46.3004 15.2206C47.1979 15.2206 48.0592 15.0506 48.8845 14.7105C49.7201 14.3704 50.4473 13.8861 51.0663 13.2575L52.1959 14.8032C50.5763 16.3902 48.5492 17.1836 46.1147 17.1836C43.8246 17.1836 41.9471 16.4365 40.4823 14.9424C39.0174 13.4482 38.285 11.5109 38.285 9.13054ZM40.7918 8.15675H50.8342C50.8239 7.56939 50.7156 6.98718 50.5092 6.41012C50.3132 5.83306 50.0192 5.29207 49.6272 4.78714C49.2352 4.28221 48.7091 3.87518 48.0489 3.56604C47.3887 3.2466 46.6408 3.08687 45.8052 3.08687C45.0212 3.08687 44.3094 3.24144 43.6699 3.55058C43.0303 3.85972 42.5093 4.26675 42.107 4.77168C41.715 5.2663 41.4055 5.8073 41.1786 6.39466C40.9516 6.97172 40.8227 7.55908 40.7918 8.15675Z" fill="currentColor"></path></g><g id="TRIGGERS"><path d="M63.4163 17.061V4.19288H68.0272V1.22515H55.3828V4.19288H60.0175V17.061H63.4163Z" fill="currentColor"></path><path d="M82.5737 17.061L78.9848 11.0305C80.6961 10.6269 82.4786 9.10746 82.4786 6.32965C82.4786 3.38566 80.4346 1.22515 77.1309 1.22515H69.7154V17.061H73.0904V11.4342H75.5623L78.6758 17.061H82.5737ZM76.6556 8.46642H73.0904V4.19288H76.6556C77.9865 4.19288 79.0086 5.00011 79.0086 6.30591C79.0086 7.6592 77.9865 8.46642 76.6556 8.46642Z" fill="currentColor"></path><path d="M87.8876 17.061V1.22515H84.5126V17.061H87.8876Z" fill="currentColor"></path><path d="M98.2601 17.3459C101.112 17.3459 103.37 16.1825 104.986 14.3782V8.30023H97.4283V11.2442H101.611V13.1436C100.97 13.7371 99.6624 14.3544 98.2601 14.3544C95.3605 14.3544 93.2689 12.1464 93.2689 9.15494C93.2689 6.16346 95.3605 3.95547 98.2601 3.95547C99.9239 3.95547 101.279 4.90514 102.015 6.02101L104.796 4.50153C103.608 2.62592 101.54 0.963989 98.2601 0.963989C93.6017 0.963989 89.7989 4.1454 89.7989 9.15494C89.7989 14.1407 93.6017 17.3459 98.2601 17.3459Z" fill="currentColor"></path><path d="M114.891 17.3459C117.743 17.3459 120.001 16.1825 121.617 14.3782V8.30023H114.059V11.2442H118.242V13.1436C117.6 13.7371 116.293 14.3544 114.891 14.3544C111.991 14.3544 109.9 12.1464 109.9 9.15494C109.9 6.16346 111.991 3.95547 114.891 3.95547C116.555 3.95547 117.909 4.90514 118.646 6.02101L121.427 4.50153C120.239 2.62592 118.171 0.963989 114.891 0.963989C110.233 0.963989 106.43 4.1454 106.43 9.15494C106.43 14.1407 110.233 17.3459 114.891 17.3459Z" fill="currentColor"></path><path d="M135.039 17.061V14.0933H127.196V10.4845H134.873V7.51675H127.196V4.19288H135.039V1.22515H123.821V17.061H135.039Z" fill="currentColor"></path><path d="M150.061 17.061L146.472 11.0305C148.183 10.6269 149.966 9.10746 149.966 6.32965C149.966 3.38566 147.922 1.22515 144.618 1.22515H137.202V17.061H140.577V11.4342H143.049L146.163 17.061H150.061ZM144.143 8.46642H140.577V4.19288H144.143C145.474 4.19288 146.496 5.00011 146.496 6.30591C146.496 7.6592 145.474 8.46642 144.143 8.46642Z" fill="currentColor"></path><path d="M157.656 17.3459C161.911 17.3459 164.002 15.1616 164.002 12.2651C164.002 6.3534 154.899 8.03907 154.899 5.54617C154.899 4.5965 155.707 3.97921 157.133 3.97921C158.75 3.97921 160.461 4.52527 161.744 5.71237L163.622 3.19573C162.053 1.74747 159.962 0.987731 157.442 0.987731C153.711 0.987731 151.429 3.17198 151.429 5.80733C151.429 11.7665 160.556 9.84345 160.556 12.5975C160.556 13.5234 159.677 14.3544 157.799 14.3544C155.612 14.3544 153.877 13.3573 152.76 12.1939L150.906 14.8292C152.404 16.325 154.59 17.3459 157.656 17.3459Z" fill="currentColor"></path></g></g></svg>