<svg width="40" height="40" viewBox="0 0 40 40" fill="none" xmlns="http://www.w3.org/2000/svg">
<g id="logos" clip-path="url(#clip0_4834_5333)">
<path id="Vector" fill-rule="evenodd" clip-rule="evenodd" d="M19.9491 39.8981C30.9666 39.8981 39.8981 30.9666 39.8981 19.9491C39.8981 8.93151 30.9666 0 19.9491 0C8.93151 0 0 8.93151 0 19.9491C0 30.9666 8.93151 39.8981 19.9491 39.8981ZM20.035 9.97453C18.4332 9.97453 16.2164 10.8906 15.0838 12.0206L12.0075 15.0897H27.341L32.4682 9.97453H20.035ZM24.7885 27.8776C23.6559 29.0075 21.4392 29.9237 19.8373 29.9237H7.40423L12.5314 24.8085H27.8648L24.7885 27.8776ZM29.7721 17.6473H9.44947L8.48953 18.6064C6.21646 20.6524 6.89062 22.2509 10.0739 22.2509H30.4515L31.4118 21.2918C33.6627 19.2578 32.9554 17.6473 29.7721 17.6473Z" fill="#0553F0"/>
</g>
<defs>
<clipPath id="clip0_4834_5333">
<rect width="40" height="40" fill="white"/>
</clipPath>
</defs>
</svg>
