<svg width="35" height="35" viewBox="0 0 35 35" fill="none" xmlns="http://www.w3.org/2000/svg">
<path fill-rule="evenodd" clip-rule="evenodd" d="M0 0H17.3232C26.8906 0 34.6464 7.75587 34.6464 17.3232C34.6464 26.8906 26.8906 34.6464 17.3232 34.6464H0V0ZM16.8272 14.9671C17.5881 14.1067 18.0527 12.9584 18.0527 11.6971C18.0527 10.5863 17.6923 9.56296 17.0864 8.74685C17.7932 8.18038 18.6903 7.84155 19.6664 7.84155C21.9465 7.84155 23.7949 9.68991 23.7949 11.97C23.7949 14.25 21.9465 16.0984 19.6664 16.0984C18.5666 16.0984 17.5672 15.6683 16.8272 14.9671ZM11.964 16.1547C9.39894 16.1547 7.31955 14.0753 7.31955 11.5102C7.31955 8.94516 9.39894 6.86576 11.964 6.86576C14.5291 6.86576 16.6085 8.94516 16.6085 11.5102C16.6085 14.0753 14.5291 16.1547 11.964 16.1547ZM18.8057 27.7107V22.3533C18.8057 20.0965 17.5198 18.1622 15.6922 17.3499H19.641C22.5214 17.3499 24.8564 19.6849 24.8564 22.5653C24.8564 25.4458 22.5214 27.7808 19.641 27.7808C19.3492 27.7808 19.0707 27.7568 18.8057 27.7107ZM6.73907 27.7659V22.5409C6.73907 19.6551 9.02808 17.3158 11.8517 17.3158C14.6754 17.3158 17.498 19.6551 17.498 22.5409V27.7659H6.73907Z" fill="#4B3BED"/>
</svg>
