<svg width="38" height="39" viewBox="0 0 38 39" fill="none" xmlns="http://www.w3.org/2000/svg">
<path fill-rule="evenodd" clip-rule="evenodd" d="M8 0.0504761H38V30.0505C38 34.4688 34.4183 38.0505 30 38.0505H0V8.05048C0 3.6322 3.58172 0.0504761 8 0.0504761Z" fill="#E55B10"/>
<path fill-rule="evenodd" clip-rule="evenodd" d="M17.5 16.5505L17.5 28.5505C17.5 29.3789 16.8284 30.0505 16 30.0505H15C14.1716 30.0505 13.5 29.3789 13.5 28.5505L13.5 14.5505C13.5 14.0081 13.7878 13.533 14.2191 13.2695C14.4825 12.8383 14.9577 12.5505 15.5 12.5505L29.5 12.5505C30.3284 12.5505 31 13.222 31 14.0505V15.0505C31 15.8789 30.3284 16.5505 29.5 16.5505L17.5 16.5505Z" fill="white"/>
<path fill-rule="evenodd" clip-rule="evenodd" d="M21.5 21.0505L21.5 9.05048C21.5 8.22205 22.1716 7.55048 23 7.55048H24C24.8284 7.55048 25.5 8.22205 25.5 9.05048L25.5 23.0505C25.5 23.5928 25.2122 24.0679 24.7809 24.3314C24.5175 24.7626 24.0423 25.0505 23.5 25.0505L9.5 25.0505C8.67157 25.0505 8 24.3789 8 23.5505V22.5505C8 21.722 8.67157 21.0505 9.5 21.0505L21.5 21.0505Z" fill="white"/>
</svg>
