<svg xmlns="http://www.w3.org/2000/svg" width="976" height="296" viewBox="0 0 976 296" fill="none"><rect width="50" height="56" fill="#FFB923"></rect><rect x="76" width="102" height="56" fill="#FFB923"></rect><rect x="204" width="92" height="56" fill="#FFB923"></rect><rect y="84" width="92" height="56" fill="#FFB923"></rect><rect x="112" y="84" width="101" height="56" fill="#FFB923"></rect><rect x="235" y="84" width="61" height="56" fill="#FFB923"></rect><rect y="168" width="296" height="128" fill="#FFB923"></rect><path d="M463.344 10.7812V84.6875C463.344 92.5521 461.599 99.6615 458.109 106.016C454.672 112.318 449.438 117.318 442.406 121.016C435.427 124.714 426.625 126.562 416 126.562C400.896 126.562 389.385 122.708 381.469 115C373.552 107.292 369.594 97.0833 369.594 84.375V10.7812H393.734V80.7031C393.734 90.1302 395.661 96.7448 399.516 100.547C403.37 104.349 409.073 106.25 416.625 106.25C421.938 106.25 426.234 105.339 429.516 103.516C432.849 101.693 435.297 98.8802 436.859 95.0781C438.422 91.276 439.203 86.4323 439.203 80.5469V10.7812H463.344ZM535.794 10.7812C546.158 10.7812 554.7 12.0312 561.419 14.5312C568.19 17.0312 573.216 20.8073 576.497 25.8594C579.778 30.9115 581.419 37.2917 581.419 45C581.419 50.2083 580.429 54.7656 578.45 58.6719C576.471 62.5781 573.867 65.8854 570.637 68.5938C567.408 71.3021 563.919 73.5156 560.169 75.2344L593.762 125H566.887L539.622 81.1719H526.731V125H502.512V10.7812H535.794ZM534.075 30.625H526.731V61.4844H534.544C542.565 61.4844 548.294 60.1562 551.731 57.5C555.221 54.7917 556.966 50.8333 556.966 45.625C556.966 40.2083 555.091 36.3542 551.341 34.0625C547.643 31.7708 541.887 30.625 534.075 30.625ZM619.337 10.7812H654.884C670.093 10.7812 681.603 12.9167 689.416 17.1875C697.228 21.4583 701.134 28.9583 701.134 39.6875C701.134 44.0104 700.431 47.9167 699.025 51.4062C697.671 54.8958 695.692 57.7604 693.087 60C690.483 62.2396 687.306 63.6979 683.556 64.375V65.1562C687.358 65.9375 690.796 67.2917 693.869 69.2188C696.942 71.0938 699.39 73.8542 701.212 77.5C703.087 81.0938 704.025 85.8854 704.025 91.875C704.025 98.8021 702.332 104.74 698.947 109.688C695.561 114.635 690.718 118.438 684.416 121.094C678.166 123.698 670.718 125 662.072 125H619.337V10.7812ZM643.556 56.0156H657.619C664.65 56.0156 669.52 54.9219 672.228 52.7344C674.936 50.4948 676.291 47.2135 676.291 42.8906C676.291 38.5156 674.676 35.3906 671.447 33.5156C668.27 31.5885 663.218 30.625 656.291 30.625H643.556V56.0156ZM643.556 75.2344V105H659.337C666.629 105 671.707 103.594 674.572 100.781C677.436 97.9688 678.869 94.1927 678.869 89.4531C678.869 86.6406 678.244 84.1667 676.994 82.0312C675.744 79.8958 673.634 78.2292 670.666 77.0312C667.749 75.8333 663.712 75.2344 658.556 75.2344H643.556ZM807.959 125L799.678 97.8125H758.038L749.756 125H723.663L763.975 10.3125H793.584L834.053 125H807.959ZM793.897 77.5L785.616 50.9375C785.095 49.1667 784.392 46.901 783.506 44.1406C782.673 41.3281 781.814 38.4896 780.928 35.625C780.095 32.7083 779.418 30.1823 778.897 28.0469C778.376 30.1823 777.647 32.8385 776.709 36.0156C775.824 39.1406 774.965 42.1094 774.131 44.9219C773.298 47.7344 772.699 49.7396 772.334 50.9375L764.131 77.5H793.897ZM961.034 125H930.253L880.566 38.5938H879.862C880.071 42.1875 880.253 45.8073 880.409 49.4531C880.566 53.099 880.722 56.7448 880.878 60.3906C881.034 63.9844 881.191 67.6042 881.347 71.25V125H859.706V10.7812H890.253L939.862 96.3281H940.409C940.305 92.7865 940.175 89.2708 940.019 85.7812C939.862 82.2917 939.706 78.8021 939.55 75.3125C939.446 71.8229 939.342 68.3333 939.237 64.8438V10.7812H961.034V125ZM471.703 285H440.922L391.234 198.594H390.531C390.74 202.188 390.922 205.807 391.078 209.453C391.234 213.099 391.391 216.745 391.547 220.391C391.703 223.984 391.859 227.604 392.016 231.25V285H370.375V170.781H400.922L450.531 256.328H451.078C450.974 252.786 450.844 249.271 450.688 245.781C450.531 242.292 450.375 238.802 450.219 235.312C450.115 231.823 450.01 228.333 449.906 224.844V170.781H471.703V285ZM577.512 285H511.731V170.781H577.512V190.625H535.95V215.703H574.622V235.547H535.95V265H577.512V285ZM680.041 253.281C680.041 260.052 678.4 265.938 675.119 270.938C671.837 275.938 667.046 279.792 660.744 282.5C654.494 285.208 646.89 286.562 637.931 286.562C633.973 286.562 630.093 286.302 626.291 285.781C622.541 285.26 618.921 284.505 615.431 283.516C611.994 282.474 608.712 281.198 605.587 279.688V257.188C611.004 259.583 616.629 261.745 622.462 263.672C628.296 265.599 634.077 266.562 639.806 266.562C643.765 266.562 646.942 266.042 649.337 265C651.785 263.958 653.556 262.526 654.65 260.703C655.744 258.88 656.291 256.797 656.291 254.453C656.291 251.589 655.327 249.141 653.4 247.109C651.473 245.078 648.817 243.177 645.431 241.406C642.098 239.635 638.322 237.734 634.103 235.703C631.447 234.453 628.556 232.943 625.431 231.172C622.306 229.349 619.337 227.135 616.525 224.531C613.712 221.927 611.395 218.776 609.572 215.078C607.801 211.328 606.916 206.849 606.916 201.641C606.916 194.818 608.478 188.984 611.603 184.141C614.728 179.297 619.181 175.599 624.962 173.047C630.796 170.443 637.671 169.141 645.587 169.141C651.525 169.141 657.176 169.844 662.541 171.25C667.957 172.604 673.608 174.583 679.494 177.188L671.681 196.016C666.421 193.88 661.707 192.24 657.541 191.094C653.374 189.896 649.129 189.297 644.806 189.297C641.785 189.297 639.207 189.792 637.072 190.781C634.936 191.719 633.322 193.073 632.228 194.844C631.134 196.562 630.587 198.568 630.587 200.859C630.587 203.568 631.369 205.859 632.931 207.734C634.546 209.557 636.942 211.328 640.119 213.047C643.348 214.766 647.358 216.771 652.15 219.062C657.983 221.823 662.957 224.714 667.072 227.734C671.239 230.703 674.442 234.219 676.681 238.281C678.921 242.292 680.041 247.292 680.041 253.281ZM756.006 285H731.788V190.938H700.772V170.781H787.022V190.938H756.006V285Z" fill="white"></path></svg>