<svg xmlns="http://www.w3.org/2000/svg" width="996" height="296" viewBox="0 0 996 296" fill="none"><rect width="50" height="56" fill="#FFB923"></rect><rect x="76" width="102" height="56" fill="#FFB923"></rect><rect x="204" width="92" height="56" fill="#FFB923"></rect><rect y="84" width="92" height="56" fill="#FFB923"></rect><rect x="112" y="84" width="101" height="56" fill="#FFB923"></rect><rect x="235" y="84" width="61" height="56" fill="#FFB923"></rect><rect y="168" width="296" height="128" fill="#FFB923"></rect><path d="M483.344 10.7812V84.6875C483.344 92.5521 481.599 99.6615 478.109 106.016C474.672 112.318 469.438 117.318 462.406 121.016C455.427 124.714 446.625 126.562 436 126.562C420.896 126.562 409.385 122.708 401.469 115C393.552 107.292 389.594 97.0833 389.594 84.375V10.7812H413.734V80.7031C413.734 90.1302 415.661 96.7448 419.516 100.547C423.37 104.349 429.073 106.25 436.625 106.25C441.938 106.25 446.234 105.339 449.516 103.516C452.849 101.693 455.297 98.8802 456.859 95.0781C458.422 91.276 459.203 86.4323 459.203 80.5469V10.7812H483.344ZM555.794 10.7812C566.158 10.7812 574.7 12.0312 581.419 14.5312C588.19 17.0312 593.216 20.8073 596.497 25.8594C599.778 30.9115 601.419 37.2917 601.419 45C601.419 50.2083 600.429 54.7656 598.45 58.6719C596.471 62.5781 593.867 65.8854 590.637 68.5938C587.408 71.3021 583.919 73.5156 580.169 75.2344L613.762 125H586.887L559.622 81.1719H546.731V125H522.512V10.7812H555.794ZM554.075 30.625H546.731V61.4844H554.544C562.565 61.4844 568.294 60.1562 571.731 57.5C575.221 54.7917 576.966 50.8333 576.966 45.625C576.966 40.2083 575.091 36.3542 571.341 34.0625C567.643 31.7708 561.887 30.625 554.075 30.625ZM639.337 10.7812H674.884C690.093 10.7812 701.603 12.9167 709.416 17.1875C717.228 21.4583 721.134 28.9583 721.134 39.6875C721.134 44.0104 720.431 47.9167 719.025 51.4062C717.671 54.8958 715.692 57.7604 713.087 60C710.483 62.2396 707.306 63.6979 703.556 64.375V65.1562C707.358 65.9375 710.796 67.2917 713.869 69.2188C716.942 71.0938 719.39 73.8542 721.212 77.5C723.087 81.0938 724.025 85.8854 724.025 91.875C724.025 98.8021 722.332 104.74 718.947 109.688C715.561 114.635 710.718 118.438 704.416 121.094C698.166 123.698 690.718 125 682.072 125H639.337V10.7812ZM663.556 56.0156H677.619C684.65 56.0156 689.52 54.9219 692.228 52.7344C694.936 50.4948 696.291 47.2135 696.291 42.8906C696.291 38.5156 694.676 35.3906 691.447 33.5156C688.27 31.5885 683.218 30.625 676.291 30.625H663.556V56.0156ZM663.556 75.2344V105H679.337C686.629 105 691.707 103.594 694.572 100.781C697.436 97.9688 698.869 94.1927 698.869 89.4531C698.869 86.6406 698.244 84.1667 696.994 82.0312C695.744 79.8958 693.634 78.2292 690.666 77.0312C687.749 75.8333 683.712 75.2344 678.556 75.2344H663.556ZM827.959 125L819.678 97.8125H778.038L769.756 125H743.663L783.975 10.3125H813.584L854.053 125H827.959ZM813.897 77.5L805.616 50.9375C805.095 49.1667 804.392 46.901 803.506 44.1406C802.673 41.3281 801.814 38.4896 800.928 35.625C800.095 32.7083 799.418 30.1823 798.897 28.0469C798.376 30.1823 797.647 32.8385 796.709 36.0156C795.824 39.1406 794.965 42.1094 794.131 44.9219C793.298 47.7344 792.699 49.7396 792.334 50.9375L784.131 77.5H813.897ZM981.034 125H950.253L900.566 38.5938H899.862C900.071 42.1875 900.253 45.8073 900.409 49.4531C900.566 53.099 900.722 56.7448 900.878 60.3906C901.034 63.9844 901.191 67.6042 901.347 71.25V125H879.706V10.7812H910.253L959.862 96.3281H960.409C960.305 92.7865 960.175 89.2708 960.019 85.7812C959.862 82.2917 959.706 78.8021 959.55 75.3125C959.446 71.8229 959.342 68.3333 959.237 64.8438V10.7812H981.034V125ZM491.703 285H460.922L411.234 198.594H410.531C410.74 202.188 410.922 205.807 411.078 209.453C411.234 213.099 411.391 216.745 411.547 220.391C411.703 223.984 411.859 227.604 412.016 231.25V285H390.375V170.781H420.922L470.531 256.328H471.078C470.974 252.786 470.844 249.271 470.688 245.781C470.531 242.292 470.375 238.802 470.219 235.312C470.115 231.823 470.01 228.333 469.906 224.844V170.781H491.703V285ZM597.512 285H531.731V170.781H597.512V190.625H555.95V215.703H594.622V235.547H555.95V265H597.512V285ZM700.041 253.281C700.041 260.052 698.4 265.938 695.119 270.938C691.837 275.938 687.046 279.792 680.744 282.5C674.494 285.208 666.89 286.562 657.931 286.562C653.973 286.562 650.093 286.302 646.291 285.781C642.541 285.26 638.921 284.505 635.431 283.516C631.994 282.474 628.712 281.198 625.587 279.688V257.188C631.004 259.583 636.629 261.745 642.462 263.672C648.296 265.599 654.077 266.562 659.806 266.562C663.765 266.562 666.942 266.042 669.337 265C671.785 263.958 673.556 262.526 674.65 260.703C675.744 258.88 676.291 256.797 676.291 254.453C676.291 251.589 675.327 249.141 673.4 247.109C671.473 245.078 668.817 243.177 665.431 241.406C662.098 239.635 658.322 237.734 654.103 235.703C651.447 234.453 648.556 232.943 645.431 231.172C642.306 229.349 639.337 227.135 636.525 224.531C633.712 221.927 631.395 218.776 629.572 215.078C627.801 211.328 626.916 206.849 626.916 201.641C626.916 194.818 628.478 188.984 631.603 184.141C634.728 179.297 639.181 175.599 644.962 173.047C650.796 170.443 657.671 169.141 665.587 169.141C671.525 169.141 677.176 169.844 682.541 171.25C687.957 172.604 693.608 174.583 699.494 177.188L691.681 196.016C686.421 193.88 681.707 192.24 677.541 191.094C673.374 189.896 669.129 189.297 664.806 189.297C661.785 189.297 659.207 189.792 657.072 190.781C654.936 191.719 653.322 193.073 652.228 194.844C651.134 196.562 650.587 198.568 650.587 200.859C650.587 203.568 651.369 205.859 652.931 207.734C654.546 209.557 656.942 211.328 660.119 213.047C663.348 214.766 667.358 216.771 672.15 219.062C677.983 221.823 682.957 224.714 687.072 227.734C691.239 230.703 694.442 234.219 696.681 238.281C698.921 242.292 700.041 247.292 700.041 253.281ZM776.006 285H751.788V190.938H720.772V170.781H807.022V190.938H776.006V285Z" fill="white"></path></svg>