<svg width="406" height="307" viewBox="0 0 406 307" fill="none" xmlns="http://www.w3.org/2000/svg">
<path d="M353.339 257.551H54.9799C54.9013 257.573 54.8187 257.577 54.7384 257.562C54.658 257.547 54.5823 257.514 54.5171 257.465C54.4519 257.416 54.399 257.352 54.3625 257.279C54.3261 257.206 54.3071 257.125 54.3071 257.043C54.3071 256.962 54.3261 256.881 54.3625 256.808C54.399 256.735 54.4519 256.671 54.5171 256.622C54.5823 256.573 54.658 256.539 54.7384 256.525C54.8187 256.51 54.9013 256.513 54.9799 256.536H353.39C353.5 256.567 353.597 256.634 353.666 256.726C353.735 256.817 353.773 256.929 353.773 257.043C353.773 257.158 353.735 257.27 353.666 257.361C353.597 257.453 353.5 257.519 353.39 257.551H353.339Z" fill="#D0D5DD"/>
<path d="M335.495 19.0078V217.992H72.5103V19.0078H335.495Z" fill="white" stroke="#475569" stroke-width="1.015"/>
<g clip-path="url(#clip0_9614_84280)">
<rect width="64" height="4" transform="translate(171 40.5)" fill="#94A3B8"/>
<rect width="26" height="4" transform="translate(190 49.5)" fill="#94A3B8"/>
<rect width="40" height="2" transform="translate(183 198.5)" fill="#94A3B8"/>
<rect width="100" height="14" transform="translate(153 173.5)" fill="#1F2937"/>
<rect x="153.5" y="102" width="29.6667" height="19" stroke="#475569"/>
<circle cx="158.5" cy="107" r="2" fill="#1F2937" stroke="#1F2937"/>
<rect x="188.167" y="102" width="29.6667" height="19" stroke="#475569"/>
<circle cx="193.503" cy="107" r="2" stroke="#475569"/>
<rect x="222.833" y="102" width="29.6667" height="19" stroke="#475569"/>
<circle cx="227.497" cy="107" r="2" stroke="#475569"/>
<rect x="153.5" y="84" width="99" height="11" stroke="#475569"/>
<rect x="153.5" y="128" width="99" height="37" stroke="#475569"/>
<path d="M246 162.5L250 158.5" stroke="#475569"/>
<path d="M249 162.5L250 161.5" stroke="#475569"/>
<rect x="153.5" y="66" width="47" height="11" stroke="#475569"/>
<rect x="205.5" y="66" width="47" height="11" stroke="#475569"/>
</g>
<rect width="26" height="8" transform="translate(300 26.5)" fill="#CBD5E1"/>
<path d="M284.485 96.5578C283.858 96.0965 283.362 95.4791 283.047 94.7669C282.731 94.0547 282.608 93.2725 282.689 92.4978C281.896 92.671 281.069 92.5779 280.335 92.2328C279.601 91.8878 279.001 91.3102 278.629 90.5896C277.922 89.1081 277.725 87.4342 278.07 85.8293C276.835 85.2308 275.802 84.2824 275.101 83.1019C274.4 81.9214 274.062 80.5609 274.128 79.1896C274.194 77.8183 274.661 76.4966 275.472 75.3888C276.283 74.2811 277.402 73.4362 278.689 72.9591C278.47 72.8601 278.278 72.7097 278.13 72.5206C277.982 72.3315 277.881 72.1093 277.837 71.873C276.923 68.828 278.73 65.4176 281.511 63.9053C282.937 63.2089 284.494 62.8243 286.08 62.7771C287.665 62.7298 289.243 63.021 290.707 63.6312C290.624 63.2275 290.659 62.8085 290.806 62.4237C290.954 62.0389 291.208 61.7042 291.539 61.4591C292.21 60.9804 292.98 60.661 293.793 60.5253C297.873 59.6415 302.122 59.948 306.034 61.4084C307.891 62.1087 309.931 63.5196 309.779 65.4684C310.993 65.2614 312.24 65.4271 313.358 65.9436C314.475 66.4601 315.41 67.3032 316.039 68.3616C316.668 69.4201 316.961 70.6443 316.88 71.8727C316.799 73.1011 316.347 74.2762 315.585 75.2428C316.5 76.1201 317.163 77.2279 317.502 78.4497C317.841 79.6715 317.845 80.9622 317.512 82.1859C317.18 83.4096 316.524 84.5211 315.613 85.4034C314.702 86.2857 313.57 86.9062 312.337 87.1995C312.469 86.7428 313.169 87.1488 313.352 87.5852C314.56 90.6302 312.337 94.1929 309.505 95.8981C306.673 97.6033 302.552 97.9281 300.187 95.553C300.2 96.34 299.946 97.1081 299.467 97.7327C298.988 98.3573 298.312 98.8017 297.548 98.9938C296.009 99.3404 294.407 99.295 292.889 98.8619C291.367 98.5472 290.007 97.7251 288.535 97.3901C287.063 97.0552 285.815 97.5119 284.485 96.5578Z" fill="white"/>
<path d="M295.737 99.7028C294.729 99.6764 293.726 99.5471 292.743 99.3171C291.937 99.1241 291.15 98.8626 290.388 98.5356C289.731 98.2535 289.052 98.0227 288.358 97.8454C287.907 97.7574 287.448 97.7098 286.988 97.7033C286.003 97.7568 285.026 97.4974 284.197 96.9623C283.586 96.5131 283.085 95.9303 282.734 95.2584C282.382 94.5865 282.188 93.8432 282.167 93.085C281.354 93.1228 280.547 92.928 279.84 92.5235C279.134 92.1191 278.557 91.5216 278.178 90.8013C277.444 89.3439 277.205 87.6869 277.498 86.0815C276.299 85.4245 275.302 84.4525 274.614 83.2705C273.927 82.0885 273.575 80.7412 273.597 79.3741C273.619 78.0069 274.014 76.6716 274.739 75.5122C275.464 74.3529 276.491 73.4134 277.711 72.7952C277.544 72.5458 277.418 72.2718 277.336 71.9832C276.402 68.9382 278.117 65.1421 281.253 63.4267C282.62 62.7412 284.111 62.3384 285.637 62.2425C287.163 62.1465 288.693 62.3595 290.135 62.8685C290.258 62.148 290.636 61.4959 291.2 61.0313C291.93 60.5015 292.776 60.1535 293.667 60.0163C297.841 59.1099 302.188 59.4199 306.192 60.9095C308.598 61.8129 310.069 63.2846 310.252 64.9188C311.488 64.8311 312.723 65.0919 313.817 65.6716C314.912 66.2513 315.822 67.1265 316.444 68.1977C317.066 69.269 317.374 70.4933 317.335 71.7313C317.295 72.9693 316.909 74.1713 316.22 75.2007C317.041 76.0842 317.638 77.1514 317.962 78.3129C318.285 79.4745 318.326 80.6967 318.081 81.8773C317.835 83.0578 317.311 84.1625 316.551 85.0988C315.791 86.035 314.818 86.7757 313.713 87.2589C313.741 87.3076 313.765 87.3585 313.784 87.4112C315.124 90.8317 312.698 94.5669 309.724 96.333C307.045 97.9367 303.218 98.4442 300.589 96.5868C300.382 97.2772 300.005 97.9046 299.492 98.4118C298.98 98.9189 298.348 99.2895 297.656 99.4897C297.031 99.6563 296.384 99.7281 295.737 99.7028ZM282.685 91.9178C282.8 91.9139 282.912 91.9538 282.999 92.0294C283.064 92.0828 283.115 92.1516 283.147 92.2296C283.179 92.3076 283.191 92.3923 283.182 92.476C283.11 93.1664 283.22 93.8635 283.499 94.4988C283.778 95.1341 284.218 95.6858 284.775 96.0996C285.451 96.5338 286.248 96.7401 287.049 96.6883C287.575 96.6938 288.098 96.7516 288.612 96.8608C289.348 97.0462 290.067 97.2906 290.764 97.5916C291.469 97.8986 292.199 98.1432 292.946 98.3224C294.38 98.7327 295.894 98.7816 297.351 98.4645C297.989 98.3107 298.559 97.9509 298.972 97.4409C299.384 96.9308 299.618 96.2988 299.635 95.6428C299.624 95.5378 299.645 95.432 299.696 95.3395C299.747 95.247 299.825 95.1722 299.919 95.1252C300.014 95.08 300.121 95.0655 300.225 95.0837C300.328 95.1019 300.424 95.1518 300.498 95.2267C302.741 97.4698 306.588 97.0537 309.207 95.4906C311.825 93.9275 313.926 90.5983 312.83 87.7969C312.803 87.7393 312.765 87.6876 312.718 87.6446L312.424 87.7258C312.338 87.747 312.247 87.745 312.161 87.72C312.076 87.6951 311.998 87.6481 311.937 87.5837C311.876 87.518 311.833 87.4378 311.812 87.3508C311.79 87.2638 311.791 87.1728 311.815 87.0864C311.858 86.9285 311.95 86.7884 312.078 86.6863C312.205 86.5841 312.362 86.5252 312.526 86.518C312.616 86.5032 312.709 86.5032 312.8 86.518C313.801 86.1537 314.702 85.5586 315.431 84.7809C316.159 84.0032 316.694 83.0648 316.992 82.0418C317.282 80.9042 317.269 79.7103 316.954 78.5793C316.639 77.4482 316.032 76.4197 315.195 75.5966C315.108 75.5075 315.054 75.3903 315.045 75.2658C315.036 75.1413 315.071 75.0176 315.144 74.9165C315.829 74.0278 316.231 72.954 316.298 71.8342C316.366 70.7145 316.095 69.6002 315.522 68.6358C314.949 67.6713 314.1 66.9011 313.084 66.4248C312.069 65.9485 310.934 65.788 309.826 65.9642C309.75 65.9748 309.673 65.9685 309.601 65.946C309.528 65.9234 309.461 65.8851 309.405 65.8337C309.349 65.7823 309.304 65.7192 309.275 65.6487C309.246 65.5783 309.233 65.5023 309.237 65.4263C309.359 63.782 307.552 62.4929 305.816 61.8433C301.999 60.4198 297.853 60.1204 293.87 60.9806C293.139 61.1007 292.445 61.3853 291.84 61.8129C291.591 61.9986 291.397 62.2493 291.281 62.5375C291.165 62.8257 291.13 63.1403 291.18 63.447C291.206 63.5364 291.207 63.6314 291.182 63.7211C291.157 63.8109 291.107 63.8917 291.038 63.9545C290.97 64.018 290.886 64.0619 290.795 64.0815C290.703 64.1012 290.609 64.0959 290.52 64.0662C289.124 63.479 287.619 63.1962 286.105 63.2364C284.591 63.2767 283.103 63.6391 281.741 64.2996C279.01 65.7917 277.508 69.0397 278.31 71.6787C278.381 71.9223 278.554 72.3486 278.817 72.4298C278.92 72.4595 279.01 72.5205 279.075 72.6043C279.141 72.6881 279.179 72.7904 279.183 72.8967C279.184 73.0038 279.153 73.1087 279.093 73.1975C279.033 73.2864 278.948 73.3549 278.848 73.394C277.654 73.8373 276.618 74.6216 275.866 75.6493C275.115 76.677 274.682 77.9028 274.621 79.1745C274.561 80.4462 274.875 81.7076 275.526 82.802C276.176 83.8965 277.134 84.7757 278.279 85.3304C278.379 85.3762 278.46 85.4542 278.51 85.5518C278.56 85.6494 278.575 85.7609 278.554 85.8684C278.22 87.362 278.399 88.9242 279.061 90.3039C279.378 90.925 279.891 91.4245 280.52 91.7254C281.149 92.0262 281.86 92.1116 282.542 91.9685C282.589 91.957 282.637 91.9536 282.685 91.9584V91.9178Z" fill="#1F2937"/>
<path d="M278.321 108.492C278.321 108.492 260.985 139.592 258.661 145.032C256.336 150.473 266.628 163.109 270.607 160.044C274.586 156.979 278.321 108.492 278.321 108.492Z" fill="#D54407"/>
<path d="M311.548 270.689C311.548 270.689 312.228 275.257 311.203 277.013C309.809 279.507 308.99 282.281 308.807 285.133C309.616 286.067 310.612 286.822 311.731 287.346C312.85 287.871 314.067 288.154 315.303 288.178C319.414 288.178 323.514 285.011 323.971 283.488C324.428 281.966 320.662 265.797 320.662 265.797L311.548 270.689Z" fill="white"/>
<path d="M315.303 288.615C313.996 288.595 312.708 288.297 311.525 287.74C310.342 287.184 309.291 286.382 308.442 285.387C308.405 285.341 308.377 285.287 308.362 285.229C308.346 285.172 308.342 285.112 308.351 285.052C308.534 282.145 309.374 279.317 310.807 276.78C311.578 275.461 311.274 271.979 311.091 270.761C311.074 270.667 311.087 270.57 311.129 270.484C311.171 270.398 311.24 270.328 311.325 270.284L320.46 265.361C320.524 265.329 320.595 265.312 320.668 265.312C320.74 265.312 320.811 265.329 320.876 265.361C320.939 265.393 320.995 265.437 321.041 265.491C321.086 265.545 321.12 265.608 321.14 265.676C321.769 268.406 324.905 282.048 324.438 283.611C323.971 285.174 319.627 288.615 315.303 288.615ZM309.295 284.951C310.058 285.79 310.985 286.465 312.018 286.935C313.051 287.404 314.169 287.658 315.303 287.681C319.231 287.681 323.149 284.636 323.525 283.327C323.789 282.434 322.114 274.09 320.348 266.458L312.045 270.944C312.187 272.05 312.543 275.633 311.599 277.247C310.272 279.614 309.486 282.245 309.295 284.951Z" fill="#1F2937"/>
<path d="M283.284 159.844L303.046 165.467L307.623 106.739C307.623 106.739 291.262 102.75 287.323 104.628C283.385 106.505 283.284 159.844 283.284 159.844Z" fill="#1F2937"/>
<path d="M303.046 165.973H302.904L283.183 160.33C283.075 160.301 282.981 160.238 282.913 160.15C282.845 160.062 282.808 159.954 282.807 159.843C282.807 150.88 283.091 106.048 287.121 104.17C291.15 102.292 307.096 106.078 307.776 106.2C307.893 106.231 307.996 106.301 308.066 106.399C308.137 106.498 308.17 106.617 308.162 106.738L303.584 165.466C303.578 165.54 303.555 165.612 303.519 165.677C303.482 165.742 303.432 165.798 303.371 165.842C303.281 165.921 303.166 165.968 303.046 165.973ZM283.761 159.457L302.559 164.806L307.055 107.124C302.244 105.987 290.511 103.652 287.496 105.094C285.213 106.21 283.842 133.859 283.792 159.457H283.761Z" fill="#1F2937"/>
<path d="M289.875 260.125V273.868L283.491 275.746L283.643 272.934L280.76 275.908C280.76 275.908 263.607 279.075 263.698 276.72C263.789 274.365 265.525 273.086 267.687 271.919C270.011 270.66 276.122 267.118 276.122 267.118L277.035 257.039" fill="white"/>
<path d="M266.873 278.039C265.74 278.164 264.595 277.959 263.574 277.45C263.463 277.362 263.374 277.249 263.314 277.12C263.255 276.992 263.225 276.851 263.229 276.709C263.331 274.101 265.33 272.649 267.462 271.512C269.593 270.376 274.567 267.452 275.683 266.833L276.566 256.988C276.582 256.867 276.643 256.756 276.737 256.678C276.832 256.601 276.952 256.563 277.074 256.572C277.135 256.577 277.194 256.594 277.249 256.622C277.303 256.651 277.351 256.69 277.39 256.737C277.428 256.784 277.457 256.839 277.475 256.898C277.492 256.957 277.497 257.018 277.49 257.079L276.587 267.178C276.578 267.252 276.552 267.322 276.512 267.383C276.471 267.445 276.417 267.496 276.353 267.534C276.292 267.534 270.263 271.096 267.909 272.345C265.554 273.593 264.234 274.74 264.163 276.76C264.65 277.612 272.131 277.034 280.525 275.491L283.306 272.629C283.374 272.562 283.461 272.517 283.555 272.499C283.649 272.481 283.746 272.491 283.834 272.527C283.919 272.566 283.991 272.629 284.039 272.709C284.088 272.788 284.112 272.881 284.108 272.974L283.986 275.136L289.416 273.542V260.144C289.415 260.084 289.426 260.023 289.448 259.966C289.471 259.91 289.504 259.858 289.547 259.815C289.589 259.771 289.64 259.737 289.696 259.713C289.752 259.69 289.812 259.677 289.873 259.677C289.997 259.677 290.116 259.727 290.203 259.814C290.291 259.902 290.34 260.021 290.34 260.144V273.887C290.341 273.988 290.309 274.087 290.249 274.168C290.188 274.249 290.102 274.307 290.005 274.334L283.621 276.212C283.55 276.231 283.475 276.234 283.403 276.22C283.331 276.206 283.263 276.175 283.205 276.131C283.146 276.086 283.1 276.027 283.07 275.959C283.04 275.892 283.027 275.818 283.032 275.745L283.113 274.161L281.083 276.242C281.015 276.313 280.926 276.359 280.829 276.374C276.224 277.267 271.56 277.824 266.873 278.039Z" fill="#1F2937"/>
<path d="M320.524 165.381L325.812 269.743C325.812 269.743 325.305 273.559 317.246 274.036C309.187 274.513 309.999 272.565 309.999 272.565L297.392 196.013L292.226 264.018L274.87 265.145L278.321 157.961L320.524 165.381Z" fill="#1F2937"/>
<path d="M314.881 274.62C311.978 274.62 310.263 274.204 309.674 273.371C309.499 273.136 309.422 272.841 309.461 272.549L297.606 200.281L292.764 264.054C292.755 264.176 292.701 264.291 292.613 264.377C292.526 264.462 292.41 264.514 292.287 264.521L274.9 265.627C274.83 265.632 274.759 265.622 274.692 265.598C274.625 265.573 274.565 265.535 274.515 265.485C274.464 265.437 274.424 265.378 274.398 265.314C274.371 265.249 274.359 265.179 274.362 265.109L277.813 157.925C277.815 157.852 277.833 157.78 277.865 157.714C277.897 157.648 277.943 157.59 278 157.544C278.057 157.497 278.124 157.464 278.195 157.446C278.266 157.427 278.34 157.425 278.412 157.438L320.616 164.888C320.73 164.907 320.834 164.965 320.91 165.052C320.986 165.139 321.029 165.25 321.032 165.365L326.29 269.727C326.29 269.991 325.63 274.051 317.256 274.539C316.393 274.589 315.602 274.62 314.881 274.62ZM310.466 272.752L310.557 272.843C310.872 273.148 312.151 273.859 317.195 273.534C324.656 273.097 325.315 269.717 325.315 269.677L320.068 165.812L278.808 158.575L275.387 264.612L291.78 263.597L296.916 196.038C296.928 195.915 296.983 195.8 297.073 195.715C297.162 195.629 297.279 195.578 297.403 195.572C297.525 195.565 297.646 195.604 297.741 195.681C297.837 195.757 297.901 195.867 297.92 195.988L310.486 272.539C310.512 272.632 310.512 272.73 310.486 272.823L310.466 272.752Z" fill="#1F2937"/>
<path d="M304.067 101.125C304.067 101.125 297.297 172.002 300.332 176.062C303.367 180.122 322.094 183.34 323.494 175.464C325.798 162.512 324.509 115.985 321.809 111.61C310.908 101.917 304.067 101.125 304.067 101.125Z" fill="#D54407"/>
<path d="M278.322 108.495C278.322 108.495 268.639 172.866 270.466 174.734C272.293 176.601 282.22 179.129 284.96 177.251C287.701 175.373 291.446 101.461 291.446 101.461C286.506 102.549 281.964 104.984 278.322 108.495Z" fill="#D54407"/>
<path d="M291.977 100.181L291.145 107.053C291.596 108.412 292.544 109.551 293.8 110.24C295.056 110.929 296.526 111.118 297.915 110.768C303.152 109.662 303.213 106.627 303.213 106.627C303.213 106.627 303.924 91.1378 303.924 91.0972C303.798 90.7388 303.627 90.3978 303.416 90.0822C302.634 88.3161 301.518 85.8902 301.853 83.9313C302.134 82.3164 302.941 80.8394 304.147 79.7292C303.526 80.0056 302.85 80.135 302.171 80.1073C301.492 80.0796 300.828 79.8955 300.232 79.5694C299.636 79.2433 299.123 78.784 298.733 78.2272C298.344 77.6704 298.088 77.0312 297.986 76.3594C297.986 77.0597 297.367 77.5774 296.778 77.9631C295.909 78.6393 294.834 78.9975 293.733 78.9781C292.292 78.8157 291.216 77.5875 289.866 77.0597C290.074 77.5227 290.109 78.0454 289.964 78.5319C289.819 79.0185 289.503 79.4364 289.074 79.7089C288.194 80.2301 287.143 80.3833 286.151 80.1352C286.811 80.2671 286.252 87.6056 286.242 88.2552C286.149 90.5299 286.203 92.8083 286.405 95.076C286.892 99.1258 291.977 100.181 291.977 100.181Z" fill="white"/>
<path d="M296.382 111.439C292.028 111.439 290.647 107.257 290.637 107.206C290.622 107.136 290.622 107.063 290.637 106.993L291.409 100.568C290.079 100.182 286.334 98.7817 285.887 95.0262C285.693 92.9107 285.635 90.785 285.714 88.6621V88.1343C285.714 88.0328 285.714 87.7486 285.714 87.3426C286.009 82.4199 285.917 80.8771 285.775 80.4711C285.7 80.4147 285.643 80.3377 285.61 80.2494C285.578 80.1612 285.572 80.0654 285.593 79.9737C285.603 79.9082 285.628 79.8455 285.663 79.7896C285.699 79.7337 285.746 79.6858 285.801 79.6487C285.857 79.6116 285.919 79.5862 285.984 79.574C286.049 79.5618 286.117 79.5632 286.181 79.5779C287.044 79.788 287.954 79.6647 288.729 79.2328C289.059 79.025 289.303 78.7063 289.419 78.3341C289.534 77.9618 289.513 77.5606 289.358 77.2028C289.307 77.1114 289.285 77.0063 289.296 76.9019C289.306 76.7976 289.349 76.6991 289.418 76.6201C289.487 76.5411 289.579 76.4854 289.681 76.4607C289.783 76.436 289.89 76.4435 289.988 76.4821C290.559 76.7299 291.103 77.036 291.612 77.3956C292.232 77.8919 292.957 78.2392 293.733 78.4106C294.711 78.4181 295.665 78.1004 296.443 77.5073C297.103 77.081 297.458 76.6953 297.458 76.3299C297.46 76.2011 297.51 76.0777 297.598 75.9839C297.687 75.8901 297.807 75.8325 297.935 75.8224C298.062 75.8107 298.189 75.8485 298.289 75.9279C298.389 76.0072 298.455 76.1221 298.473 76.2487C298.555 76.8485 298.775 77.421 299.116 77.9212C299.458 78.4213 299.91 78.8353 300.439 79.1306C300.967 79.4258 301.557 79.5943 302.162 79.6226C302.767 79.6509 303.37 79.5383 303.924 79.2937C304.033 79.2427 304.157 79.2331 304.273 79.2667C304.388 79.3004 304.488 79.3749 304.553 79.4764C304.618 79.5768 304.646 79.6971 304.631 79.816C304.616 79.9349 304.56 80.0447 304.472 80.126C303.342 81.1571 302.588 82.5359 302.33 84.0439C302.036 85.7795 303.04 88.1039 303.771 89.7076L303.863 89.9004C303.904 89.9913 303.952 90.0794 304.005 90.1643C304.224 90.4625 304.364 90.8119 304.411 91.1793C304.411 91.1793 304.411 91.1793 303.7 106.739C303.7 106.871 303.568 110.19 297.996 111.347C297.463 111.434 296.922 111.464 296.382 111.439ZM291.632 106.993C292.044 108.208 292.902 109.222 294.032 109.83C295.162 110.439 296.48 110.596 297.722 110.271C302.452 109.256 302.614 106.719 302.624 106.607C302.634 106.496 303.325 91.3011 303.335 91.0778C303.335 91.0778 303.162 90.7733 303.081 90.6312C303 90.5123 302.928 90.3867 302.868 90.2557L302.787 90.073C302.005 88.2866 300.929 85.8607 301.274 83.8206C301.469 82.6485 301.931 81.537 302.624 80.5726C301.681 80.6294 300.74 80.4258 299.904 79.9839C298.982 79.4607 298.248 78.6621 297.803 77.7001C297.551 77.9506 297.272 78.1719 296.971 78.3599C295.995 79.0701 294.807 79.428 293.601 79.3749C292.671 79.2019 291.795 78.8124 291.043 78.2381L290.495 77.8828C290.466 78.3069 290.341 78.7189 290.13 79.088C289.919 79.4571 289.628 79.7737 289.277 80.0143C288.547 80.4813 287.684 80.6953 286.821 80.6233C286.955 82.8661 286.917 85.1157 286.709 87.3528C286.709 87.7385 286.709 88.0024 286.709 88.1039V88.6215C286.635 90.7038 286.692 92.7888 286.882 94.8638C287.318 98.6091 291.957 99.6241 292.048 99.6343C292.171 99.6632 292.278 99.7359 292.351 99.8387C292.424 99.9414 292.457 100.067 292.444 100.193L291.632 106.993Z" fill="#1F2937"/>
<path d="M291.02 87.5703C291.02 87.5703 287.975 91.539 288.614 92.3104C289.254 93.0818 291.05 92.7367 291.05 92.7367" fill="white"/>
<path d="M290.158 93.3196C289.808 93.3451 289.457 93.2938 289.129 93.1693C288.801 93.0448 288.505 92.8501 288.26 92.5989C287.57 91.7057 289.194 89.1987 290.665 87.2499C290.746 87.1422 290.866 87.071 291 87.052C291.133 87.0329 291.268 87.0676 291.376 87.1484C291.43 87.1875 291.476 87.2372 291.511 87.2945C291.546 87.3519 291.569 87.4156 291.578 87.482C291.588 87.5484 291.584 87.6159 291.566 87.6807C291.549 87.7455 291.519 87.8061 291.477 87.8589C290.128 89.6554 289.011 91.6042 289.092 92.0407C289.336 92.335 290.381 92.335 291 92.2234C291.066 92.21 291.133 92.2097 291.198 92.2224C291.264 92.235 291.326 92.2605 291.382 92.2972C291.437 92.334 291.485 92.3814 291.523 92.4366C291.56 92.4919 291.586 92.5539 291.599 92.6192C291.613 92.6852 291.612 92.7533 291.599 92.8193C291.586 92.8853 291.56 92.948 291.522 93.0037C291.484 93.0594 291.435 93.1071 291.379 93.1439C291.323 93.1807 291.26 93.2059 291.193 93.2181C290.852 93.2838 290.505 93.3177 290.158 93.3196Z" fill="#1F2937"/>
<path d="M291.975 100.182C291.975 100.182 296.035 100.182 297.893 99.0859C297.893 99.0859 296.309 103.826 291.924 104.993L291.975 100.182Z" fill="#1F2937"/>
<path d="M291.924 105.494C291.811 105.496 291.7 105.461 291.61 105.393C291.547 105.345 291.497 105.284 291.464 105.213C291.43 105.143 291.414 105.065 291.417 104.987L291.468 100.176C291.468 100.041 291.521 99.9118 291.616 99.8167C291.711 99.7215 291.84 99.668 291.975 99.668C292.188 99.668 295.923 99.668 297.629 98.653C297.714 98.5941 297.815 98.5625 297.918 98.5625C298.021 98.5625 298.122 98.5941 298.207 98.653C298.286 98.7199 298.343 98.8085 298.372 98.9078C298.401 99.007 298.4 99.1125 298.37 99.2113C298.299 99.4143 296.644 104.215 292.046 105.454L291.924 105.494ZM292.472 100.683V104.296C294.421 103.459 296.008 101.955 296.949 100.054C295.489 100.457 293.986 100.678 292.472 100.713V100.683Z" fill="#1F2937"/>
<path d="M325.914 158.406H325.864C325.204 158.325 309.776 156.539 304.873 153.788C304.814 153.756 304.763 153.713 304.721 153.661C304.679 153.609 304.648 153.549 304.63 153.484C304.612 153.42 304.607 153.352 304.616 153.286C304.625 153.22 304.647 153.156 304.681 153.098C304.748 152.983 304.858 152.899 304.987 152.863C305.116 152.827 305.253 152.842 305.371 152.905C310.09 155.554 325.823 157.371 325.975 157.391C326.11 157.4 326.236 157.461 326.325 157.562C326.415 157.663 326.46 157.795 326.452 157.929C326.444 158.064 326.383 158.19 326.282 158.279C326.181 158.369 326.049 158.415 325.914 158.406Z" fill="#1F2937"/>
<path d="M321.808 111.609C321.808 111.609 352.421 155.254 339.307 166.541C327.289 176.864 300.737 159.72 300.737 159.72L302.341 145.226C302.341 145.226 323.361 156.929 323.706 151.479C324.204 143.46 313.901 132.508 313.901 132.508C312.975 130.732 312.415 128.789 312.255 126.792C312.094 124.796 312.337 122.787 312.968 120.886C313.567 118.734 314.687 116.761 316.229 115.143C317.771 113.525 319.687 112.312 321.808 111.609Z" fill="#D54407"/>
<path d="M274.052 146.787C273.986 146.777 273.922 146.754 273.865 146.72C273.808 146.685 273.758 146.64 273.719 146.586C273.679 146.532 273.65 146.471 273.634 146.407C273.618 146.342 273.615 146.274 273.625 146.208C274.569 139.875 279.106 115.687 279.157 115.444C279.184 115.313 279.261 115.198 279.37 115.123C279.48 115.047 279.614 115.017 279.746 115.038C279.878 115.065 279.995 115.143 280.071 115.254C280.147 115.366 280.176 115.504 280.152 115.637C280.101 115.88 275.564 139.997 274.63 146.361C274.608 146.493 274.535 146.611 274.427 146.691C274.319 146.77 274.185 146.805 274.052 146.787Z" fill="#1F2937"/>
<path d="M269.773 165.921H300.294C300.863 165.911 301.422 165.774 301.931 165.521C302.44 165.268 302.887 164.905 303.238 164.458C303.59 164.011 303.838 163.492 303.964 162.937C304.091 162.383 304.092 161.807 303.969 161.252L297.483 129.878C297.297 128.978 296.811 128.168 296.105 127.58C295.399 126.992 294.514 126.661 293.595 126.641H263.521C262.918 126.65 262.325 126.794 261.785 127.061C261.245 127.329 260.771 127.713 260.398 128.186C260.025 128.66 259.761 129.21 259.627 129.798C259.493 130.385 259.492 130.995 259.623 131.584L266.099 162.856C266.263 163.713 266.719 164.486 267.389 165.045C268.058 165.604 268.901 165.913 269.773 165.921Z" fill="white"/>
<path d="M300.299 166.376H269.778C268.801 166.363 267.858 166.015 267.106 165.391C266.354 164.766 265.839 163.903 265.647 162.945L259.181 131.673C259.038 131 259.048 130.303 259.209 129.634C259.371 128.964 259.68 128.34 260.115 127.806C260.526 127.297 261.045 126.886 261.635 126.603C262.225 126.321 262.871 126.173 263.525 126.172H293.6C294.628 126.187 295.62 126.553 296.41 127.211C297.201 127.868 297.742 128.777 297.944 129.785L304.43 161.149C304.566 161.788 304.557 162.45 304.405 163.086C304.252 163.722 303.959 164.315 303.547 164.823C303.154 165.306 302.659 165.696 302.098 165.965C301.536 166.234 300.921 166.374 300.299 166.376ZM263.525 127.106C263.009 127.106 262.5 127.222 262.034 127.445C261.569 127.668 261.159 127.992 260.836 128.395C260.495 128.816 260.252 129.308 260.122 129.834C259.992 130.36 259.979 130.908 260.085 131.44L266.56 162.722C266.707 163.471 267.107 164.148 267.692 164.637C268.278 165.127 269.014 165.4 269.778 165.412H300.299C300.784 165.409 301.263 165.298 301.7 165.088C302.137 164.877 302.522 164.572 302.826 164.194C303.152 163.795 303.384 163.328 303.505 162.827C303.627 162.326 303.634 161.805 303.527 161.301L297.031 129.927C296.873 129.13 296.446 128.41 295.822 127.889C295.197 127.368 294.413 127.077 293.6 127.065L263.525 127.106Z" fill="#1F2937"/>
<path d="M306.58 150.164C306.756 149.067 306.673 147.945 306.337 146.886C306.004 146.174 305.547 145.528 304.987 144.978C304.034 143.963 303.017 143.01 301.942 142.125C300.927 141.334 299.78 140.562 298.562 140.826C298.937 142.645 299.967 144.262 301.454 145.373C300.968 144.792 300.322 144.365 299.597 144.145C299.11 143.993 298.45 144.013 298.247 144.501C298.2 144.657 298.186 144.822 298.205 144.984C298.224 145.146 298.277 145.303 298.359 145.444C298.927 146.701 299.799 147.796 300.896 148.632L299.719 147.88C299.418 147.659 299.071 147.51 298.704 147.444C298.523 147.414 298.338 147.444 298.175 147.528C298.012 147.612 297.881 147.746 297.8 147.911C297.726 148.186 297.755 148.478 297.882 148.733C298.188 149.464 298.695 150.094 299.343 150.55C298.919 150.187 298.409 149.939 297.861 149.829C297.585 149.788 297.303 149.847 297.066 149.996C296.83 150.145 296.654 150.374 296.572 150.641C296.542 150.947 296.606 151.255 296.755 151.524C297.628 153.26 299.709 153.453 300.724 154.914C301.485 156 301.13 157.168 302.672 157.827C306.529 159.421 306.367 152.478 306.58 150.164Z" fill="white"/>
<path d="M303.789 158.573C303.354 158.566 302.926 158.469 302.53 158.289C302.101 158.115 301.721 157.84 301.422 157.486C301.123 157.132 300.915 156.711 300.815 156.259C300.712 155.901 300.558 155.559 300.358 155.244C299.9 154.691 299.329 154.241 298.683 153.924C297.715 153.464 296.906 152.726 296.359 151.803C296.143 151.436 296.061 151.006 296.126 150.585C296.215 150.245 296.411 149.944 296.685 149.724C296.959 149.505 297.297 149.38 297.648 149.367C297.579 149.239 297.518 149.107 297.465 148.971C297.282 148.599 297.249 148.17 297.374 147.774C297.479 147.531 297.654 147.325 297.876 147.182C298.098 147.04 298.358 146.966 298.622 146.972C298.351 146.567 298.117 146.139 297.922 145.693C297.806 145.49 297.735 145.264 297.714 145.031C297.693 144.798 297.722 144.563 297.8 144.343C297.917 144.101 298.105 143.9 298.339 143.768C298.573 143.635 298.842 143.577 299.11 143.602C298.625 142.8 298.282 141.921 298.095 141.004C298.066 140.937 298.051 140.866 298.051 140.793C298.051 140.721 298.067 140.65 298.097 140.584C298.126 140.518 298.169 140.459 298.223 140.41C298.277 140.362 298.34 140.325 298.409 140.303C299.861 139.999 301.201 140.892 302.205 141.704C303.306 142.6 304.343 143.569 305.311 144.607C305.914 145.19 306.406 145.878 306.763 146.637C307.137 147.765 307.231 148.966 307.037 150.139C307.037 150.433 307.037 150.798 306.966 151.214C306.844 153.549 306.641 157.071 304.936 158.157C304.602 158.404 304.203 158.548 303.789 158.573ZM297.78 150.321C297.642 150.312 297.504 150.346 297.386 150.419C297.267 150.492 297.175 150.6 297.12 150.727C297.111 150.927 297.16 151.124 297.262 151.296C297.726 152.039 298.396 152.632 299.191 153.001C299.982 153.377 300.676 153.929 301.221 154.615C301.482 155.015 301.681 155.453 301.81 155.914C301.858 156.233 301.989 156.535 302.191 156.788C302.392 157.041 302.656 157.236 302.957 157.355C303.182 157.481 303.435 157.546 303.692 157.546C303.95 157.546 304.203 157.481 304.428 157.355C305.727 156.543 305.92 153.082 306.032 151.265C306.032 150.829 306.032 150.443 306.103 150.149C306.271 149.131 306.198 148.088 305.89 147.104C305.585 146.446 305.162 145.851 304.641 145.348C303.689 144.348 302.672 143.412 301.596 142.546C300.929 141.912 300.094 141.483 299.191 141.308C299.516 142.379 300.086 143.359 300.855 144.17C301.237 144.403 301.579 144.694 301.87 145.033C301.955 145.126 302.001 145.247 302.001 145.373C302.001 145.499 301.955 145.62 301.87 145.713C301.787 145.805 301.671 145.863 301.547 145.874C301.423 145.885 301.3 145.85 301.201 145.774C300.862 145.528 300.543 145.257 300.246 144.962C300.008 144.816 299.752 144.701 299.485 144.617C299.16 144.526 298.805 144.556 298.754 144.688C298.725 144.875 298.765 145.066 298.866 145.226C299.391 146.409 300.208 147.44 301.241 148.22C301.295 148.258 301.34 148.305 301.375 148.36C301.409 148.416 301.433 148.477 301.443 148.542C301.453 148.606 301.451 148.672 301.435 148.735C301.42 148.799 301.392 148.858 301.353 148.91C301.279 149.019 301.165 149.094 301.036 149.121C300.908 149.147 300.774 149.123 300.663 149.052L299.485 148.312C299.258 148.135 298.995 148.01 298.714 147.946C298.644 147.931 298.572 147.936 298.505 147.961C298.438 147.986 298.38 148.03 298.338 148.088C298.317 148.242 298.346 148.398 298.419 148.535C298.665 149.132 299.068 149.652 299.587 150.037L299.709 150.128C299.763 150.166 299.81 150.214 299.845 150.27C299.881 150.325 299.905 150.388 299.917 150.453C299.928 150.518 299.926 150.585 299.911 150.65C299.897 150.714 299.869 150.775 299.83 150.829C299.754 150.938 299.638 151.014 299.507 151.038C299.376 151.063 299.241 151.035 299.13 150.961L298.998 150.869C298.675 150.602 298.292 150.418 297.882 150.331L297.78 150.321Z" fill="#1F2937"/>
<path d="M260.104 147.982C260.256 145.881 260.885 143.556 262.661 142.501C263.211 142.185 263.831 142.013 264.464 142.001C265.097 141.988 265.724 142.136 266.285 142.43C266.388 142.47 266.481 142.533 266.556 142.614C266.632 142.695 266.688 142.791 266.721 142.897C266.792 143.232 266.488 143.506 266.214 143.678C265.626 144.047 264.987 144.324 264.316 144.5C264.862 144.456 265.409 144.582 265.88 144.862C266.351 145.142 266.723 145.562 266.945 146.063C266.283 146.841 265.358 147.347 264.346 147.485C264.682 147.395 265.038 147.409 265.365 147.525C265.693 147.641 265.978 147.853 266.183 148.134C266.843 149.088 266.315 149.352 265.595 149.92C265.911 149.853 266.241 149.885 266.539 150.012C266.689 150.08 266.816 150.192 266.903 150.333C266.99 150.474 267.033 150.638 267.026 150.804C266.975 151.413 266.234 151.605 265.717 151.91C265.299 152.164 264.983 152.555 264.823 153.016C264.765 153.281 264.68 153.54 264.57 153.788C263.555 155.604 261.301 154.092 260.743 152.773C260.171 151.244 259.952 149.607 260.104 147.982Z" fill="white"/>
<path d="M263.248 155.143H263.126C262.514 155.057 261.933 154.819 261.436 154.45C260.94 154.081 260.544 153.593 260.284 153.032C259.678 151.413 259.442 149.679 259.594 147.957C259.736 145.927 260.335 143.298 262.406 142.07C263.029 141.711 263.732 141.515 264.451 141.501C265.169 141.487 265.88 141.654 266.517 141.989C266.687 142.062 266.839 142.173 266.96 142.314C267.081 142.455 267.169 142.621 267.217 142.801C267.278 143.085 267.217 143.623 266.486 144.11L266.039 144.374C266.65 144.704 267.133 145.229 267.41 145.866C267.445 145.953 267.457 146.048 267.442 146.141C267.428 146.234 267.389 146.321 267.329 146.394C267 146.796 266.605 147.139 266.161 147.409C266.332 147.539 266.479 147.697 266.598 147.876C267.146 148.657 267.055 149.185 266.76 149.581C267.003 149.694 267.206 149.877 267.344 150.107C267.481 150.337 267.546 150.602 267.532 150.87C267.471 151.621 266.801 151.956 266.324 152.189L265.979 152.372C265.661 152.559 265.423 152.855 265.309 153.204C265.279 153.28 265.255 153.358 265.238 153.438C265.192 153.653 265.117 153.862 265.014 154.057C264.845 154.38 264.591 154.651 264.28 154.842C263.97 155.034 263.613 155.137 263.248 155.143ZM260.609 148.038C260.465 149.596 260.67 151.167 261.208 152.636C261.396 153.024 261.674 153.361 262.018 153.62C262.362 153.88 262.763 154.054 263.187 154.128C263.384 154.133 263.578 154.081 263.745 153.979C263.913 153.876 264.047 153.727 264.131 153.549C264.188 153.425 264.232 153.296 264.263 153.164C264.263 153.062 264.314 152.971 264.344 152.869C264.539 152.29 264.935 151.8 265.461 151.489L265.867 151.266C266.253 151.083 266.506 150.941 266.527 150.768C266.547 150.596 266.435 150.545 266.314 150.484C266.11 150.406 265.888 150.389 265.674 150.433C265.565 150.449 265.453 150.429 265.356 150.375C265.259 150.321 265.183 150.238 265.138 150.137C265.093 150.036 265.083 149.923 265.108 149.815C265.133 149.707 265.193 149.611 265.278 149.54L265.471 149.388C266.09 148.911 266.09 148.911 265.765 148.444C265.441 147.977 265.106 147.916 264.416 148.008C264.349 148.017 264.28 148.014 264.215 147.996C264.15 147.979 264.088 147.948 264.035 147.907C263.982 147.865 263.938 147.813 263.905 147.753C263.873 147.694 263.853 147.628 263.847 147.561C263.83 147.428 263.866 147.293 263.948 147.187C264.03 147.08 264.15 147.01 264.284 146.993C265.053 146.885 265.766 146.528 266.314 145.978C266.12 145.639 265.834 145.364 265.488 145.184C265.143 145.004 264.753 144.927 264.365 144.963C264.238 144.978 264.109 144.944 264.006 144.869C263.902 144.794 263.831 144.682 263.807 144.557C263.781 144.43 263.805 144.299 263.873 144.19C263.941 144.081 264.048 144.001 264.172 143.968C264.792 143.803 265.384 143.546 265.928 143.207C266.131 143.085 266.202 142.983 266.212 142.943L266.029 142.831C265.548 142.575 265.009 142.447 264.463 142.458C263.918 142.468 263.385 142.618 262.913 142.892C261.218 143.907 260.721 146.211 260.599 147.967L260.609 148.038Z" fill="#1F2937"/>
<path d="M286.547 89.4407C285.804 89.4407 285.078 89.2204 284.461 88.8078C283.843 88.3951 283.362 87.8086 283.077 87.1224C282.793 86.4361 282.719 85.681 282.864 84.9525C283.009 84.224 283.366 83.5549 283.891 83.0297C284.417 82.5044 285.086 82.1468 285.814 82.0019C286.543 81.8569 287.298 81.9313 287.984 82.2156C288.67 82.4998 289.257 82.9812 289.67 83.5987C290.082 84.2163 290.303 84.9424 290.303 85.6852C290.3 86.6804 289.903 87.6341 289.2 88.3378C288.496 89.0415 287.542 89.438 286.547 89.4407ZM286.547 82.9447C286.005 82.9447 285.475 83.1054 285.024 83.4065C284.574 83.7077 284.223 84.1357 284.015 84.6364C283.808 85.1372 283.753 85.6882 283.859 86.2198C283.965 86.7514 284.226 87.2397 284.609 87.623C284.992 88.0063 285.481 88.2673 286.012 88.373C286.544 88.4788 287.095 88.4245 287.596 88.2171C288.097 88.0097 288.525 87.6584 288.826 87.2077C289.127 86.7571 289.288 86.2272 289.288 85.6852C289.285 84.9592 288.995 84.2637 288.482 83.7503C287.969 83.237 287.273 82.9474 286.547 82.9447Z" fill="#1F2937"/>
<path d="M294.906 89.4407C294.164 89.4407 293.438 89.2204 292.82 88.8078C292.202 88.3951 291.721 87.8086 291.437 87.1224C291.153 86.4361 291.078 85.681 291.223 84.9525C291.368 84.224 291.726 83.5549 292.251 83.0297C292.776 82.5044 293.445 82.1468 294.174 82.0019C294.902 81.8569 295.657 81.9313 296.344 82.2156C297.03 82.4998 297.616 82.9812 298.029 83.5987C298.442 84.2163 298.662 84.9424 298.662 85.6852C298.662 86.6812 298.266 87.6364 297.562 88.3407C296.858 89.045 295.902 89.4407 294.906 89.4407ZM294.906 82.9447C294.364 82.9447 293.835 83.1054 293.384 83.4065C292.933 83.7077 292.582 84.1357 292.374 84.6364C292.167 85.1372 292.113 85.6882 292.219 86.2198C292.324 86.7514 292.585 87.2397 292.969 87.623C293.352 88.0063 293.84 88.2673 294.372 88.373C294.903 88.4788 295.454 88.4245 295.955 88.2171C296.456 88.0097 296.884 87.6584 297.185 87.2077C297.486 86.7571 297.647 86.2272 297.647 85.6852C297.647 84.9584 297.358 84.2613 296.844 83.7474C296.33 83.2334 295.633 82.9447 294.906 82.9447Z" fill="#1F2937"/>
<path d="M291.547 95.6432C290.247 95.6172 288.97 95.298 287.811 94.7094C287.696 94.6414 287.612 94.5317 287.576 94.403C287.54 94.2744 287.555 94.1369 287.619 94.0192C287.685 93.9022 287.794 93.8163 287.924 93.7801C288.053 93.744 288.192 93.7606 288.309 93.8263C288.502 93.9278 293.018 96.4044 295.779 92.2226C295.853 92.1096 295.969 92.0305 296.101 92.0029C296.234 91.9753 296.372 92.0014 296.485 92.0754C296.598 92.1495 296.677 92.2654 296.704 92.3977C296.732 92.53 296.706 92.6678 296.632 92.7809C296.108 93.6602 295.362 94.387 294.47 94.8891C293.578 95.3912 292.57 95.6512 291.547 95.6432Z" fill="#1F2937"/>
<path d="M291.659 86.1947H289.791C289.657 86.1947 289.527 86.1412 289.432 86.046C289.337 85.9509 289.284 85.8218 289.284 85.6872C289.284 85.5526 289.337 85.4235 289.432 85.3283C289.527 85.2332 289.657 85.1797 289.791 85.1797H291.659C291.793 85.1797 291.922 85.2332 292.018 85.3283C292.113 85.4235 292.166 85.5526 292.166 85.6872C292.164 85.821 292.109 85.9485 292.015 86.0432C291.92 86.1378 291.793 86.1921 291.659 86.1947Z" fill="#1F2937"/>
<path d="M305.65 88.2259C305.607 88.2356 305.562 88.2356 305.518 88.2259L298.028 86.1959C297.893 86.1609 297.778 86.0739 297.707 85.954C297.637 85.8341 297.617 85.6911 297.652 85.5565C297.687 85.4219 297.774 85.3067 297.894 85.2363C298.014 85.1658 298.157 85.1459 298.292 85.1809L305.782 87.2109C305.911 87.2466 306.021 87.3316 306.087 87.4475C306.154 87.5634 306.172 87.7009 306.138 87.8301C306.114 87.942 306.053 88.0425 305.964 88.1146C305.876 88.1867 305.765 88.226 305.65 88.2259Z" fill="#1F2937"/>
<path d="M301.456 88.9319C301.657 88.2087 302.083 87.5686 302.674 87.1049C303.124 86.7248 303.65 86.4457 304.218 86.2863C304.785 86.127 305.38 86.0912 305.962 86.1813C306.543 86.4265 307.023 86.8608 307.325 87.4137C307.627 87.9665 307.734 88.6054 307.627 89.2263C307.543 90.0704 307.233 90.8763 306.729 91.5588C306.225 92.2413 305.547 92.775 304.764 93.1036C304.251 93.2872 303.707 93.3657 303.162 93.3343C302.618 93.3029 302.086 93.1623 301.598 92.9209" fill="white"/>
<path d="M303.412 93.8458C302.708 93.8447 302.013 93.6815 301.382 93.3687C301.322 93.3397 301.268 93.2988 301.224 93.2485C301.18 93.1982 301.147 93.1396 301.126 93.0761C301.105 93.0127 301.097 92.9456 301.103 92.8791C301.109 92.8125 301.128 92.7477 301.159 92.6887C301.188 92.6286 301.229 92.5749 301.279 92.5307C301.329 92.4864 301.387 92.4524 301.45 92.4307C301.514 92.4091 301.58 92.4001 301.647 92.4043C301.714 92.4085 301.779 92.4258 301.839 92.4552C302.266 92.6658 302.731 92.7895 303.207 92.8191C303.683 92.8487 304.159 92.7837 304.61 92.6278C305.301 92.3268 305.9 91.8478 306.346 91.2398C306.792 90.6318 307.068 89.9164 307.147 89.1666C307.236 88.6642 307.156 88.1464 306.919 87.6945C306.682 87.2426 306.302 86.8822 305.838 86.6697C305.332 86.6069 304.818 86.6494 304.329 86.7943C303.84 86.9393 303.386 87.1837 302.996 87.5122C302.501 87.9088 302.146 88.4528 301.981 89.0651C301.963 89.1318 301.932 89.1942 301.89 89.2489C301.848 89.3036 301.795 89.3495 301.735 89.3839C301.676 89.4183 301.609 89.4405 301.541 89.4494C301.473 89.4583 301.403 89.4536 301.336 89.4356C301.27 89.4176 301.207 89.3867 301.153 89.3445C301.098 89.3024 301.052 89.2499 301.018 89.1901C300.983 89.1302 300.961 89.0642 300.952 88.9957C300.943 88.9273 300.948 88.8577 300.966 88.7911C301.203 87.9842 301.69 87.2733 302.356 86.7611C302.869 86.3297 303.47 86.0154 304.117 85.8401C304.764 85.6648 305.441 85.6327 306.102 85.7461C306.796 86.0226 307.375 86.527 307.744 87.1764C308.113 87.8257 308.249 88.5813 308.132 89.3189C308.04 90.255 307.697 91.1488 307.137 91.905C306.578 92.6611 305.823 93.2512 304.955 93.6123C304.458 93.7803 303.936 93.8593 303.412 93.8458Z" fill="#1F2937"/>
<path d="M320.57 153.102C315.891 153.102 309.039 149.316 308.055 148.758C307.997 148.724 307.946 148.68 307.905 148.627C307.864 148.574 307.834 148.513 307.817 148.449C307.799 148.384 307.795 148.317 307.804 148.251C307.812 148.184 307.834 148.12 307.867 148.062C307.9 148.004 307.945 147.954 307.998 147.913C308.051 147.872 308.111 147.842 308.176 147.825C308.24 147.807 308.308 147.803 308.374 147.811C308.44 147.82 308.504 147.841 308.562 147.875C311.841 149.742 320.895 153.965 323.28 151.153C325.665 148.342 318.519 134.426 315.556 129.31C315.504 129.196 315.496 129.066 315.535 128.947C315.573 128.827 315.654 128.726 315.763 128.663C315.872 128.599 316 128.579 316.123 128.605C316.246 128.631 316.355 128.701 316.429 128.803C317.555 130.752 327.38 147.895 324.061 151.803C323.61 152.262 323.063 152.616 322.46 152.841C321.857 153.065 321.211 153.154 320.57 153.102Z" fill="#1F2937"/>
<path d="M324.143 170.358H324.072C316.571 169.232 306.817 163.253 306.391 163.03C306.334 162.995 306.285 162.949 306.246 162.894C306.207 162.84 306.179 162.779 306.164 162.714C306.149 162.648 306.147 162.581 306.158 162.515C306.169 162.449 306.193 162.386 306.228 162.33C306.262 162.272 306.308 162.222 306.362 162.182C306.417 162.142 306.478 162.114 306.544 162.099C306.609 162.084 306.677 162.082 306.743 162.094C306.809 162.105 306.872 162.13 306.929 162.167C307.02 162.218 316.926 168.257 324.184 169.364C324.25 169.371 324.314 169.392 324.372 169.425C324.429 169.458 324.48 169.502 324.52 169.556C324.56 169.609 324.588 169.67 324.604 169.734C324.619 169.799 324.621 169.866 324.61 169.932C324.592 170.045 324.536 170.149 324.451 170.227C324.366 170.304 324.258 170.351 324.143 170.358Z" fill="#1F2937"/>
<path d="M59.4816 183.736L52.6587 212.734L87.9211 221.031L94.744 192.033L59.4816 183.736Z" fill="white"/>
<path d="M87.9296 221.506H87.8179L52.5568 213.203C52.497 213.19 52.4404 213.165 52.3905 213.129C52.3405 213.094 52.2982 213.049 52.266 212.997C52.2338 212.945 52.2124 212.887 52.2031 212.826C52.1938 212.766 52.1967 212.704 52.2117 212.645L59.0325 183.646C59.0614 183.527 59.1363 183.423 59.2408 183.359C59.3453 183.294 59.471 183.273 59.5908 183.301L94.8519 191.604C94.9119 191.616 94.9687 191.641 95.0192 191.676C95.0697 191.711 95.1129 191.755 95.1462 191.807C95.2087 191.914 95.2269 192.041 95.197 192.162L88.3762 221.16C88.3469 221.277 88.2743 221.379 88.1732 221.445C88.0995 221.488 88.0149 221.509 87.9296 221.506ZM53.2166 212.371L87.5845 220.491L94.1921 192.395L59.8344 184.275L53.2166 212.371Z" fill="#1F2937"/>
<path d="M80.9165 178.141C80.9165 178.141 80.3278 193.113 78.7748 192.22C76.7448 191.032 77.5873 187.581 77.5873 187.581L70.7056 186.13C70.7056 186.13 73.6288 176.193 73.8216 175.858C74.0145 175.523 80.9165 178.141 80.9165 178.141Z" fill="white"/>
<path d="M78.907 192.714C78.7782 192.714 78.6519 192.678 78.5416 192.612C76.674 191.536 76.8668 188.999 77.0394 187.943L70.6144 186.583C70.5513 186.568 70.4919 186.54 70.4396 186.502C70.3874 186.464 70.3432 186.415 70.3099 186.36C70.2645 186.242 70.2645 186.112 70.3099 185.994C71.4061 182.259 73.2839 175.956 73.4767 175.621C73.6696 175.286 73.8624 174.941 81.1298 177.712C81.2224 177.743 81.3023 177.803 81.3573 177.884C81.4123 177.965 81.4393 178.061 81.4343 178.159C81.2719 182.219 80.7441 191.831 79.3028 192.622C79.1832 192.692 79.0451 192.724 78.907 192.714ZM71.2945 185.771L77.6788 187.121C77.8036 187.151 77.9124 187.227 77.9833 187.334C78.028 187.448 78.028 187.575 77.9833 187.689C77.9833 187.689 77.2627 190.653 78.8258 191.749C79.4957 190.734 80.1453 184.279 80.3889 178.473C77.7803 177.458 74.9688 176.514 74.0959 176.332C73.7609 177.458 72.3298 182.269 71.2945 185.771Z" fill="#1F2937"/>
<path d="M91.5416 262.275C91.5416 262.275 90.9732 271.654 91.0036 275.207C91.0341 278.759 91.0036 282.098 95.1753 281.297C97.4489 280.88 109.933 277.724 108.786 275.399C107.639 273.075 99.5296 272.476 99.5296 272.476L100.26 261.758" fill="white"/>
<path d="M94.0714 281.902C93.3134 281.938 92.5678 281.7 91.9703 281.232C90.5899 280.096 90.5696 277.792 90.5493 275.356V275.213C90.5493 271.681 91.0771 262.343 91.0771 262.242C91.081 262.182 91.0967 262.123 91.1233 262.069C91.1499 262.015 91.1869 261.967 91.2322 261.927C91.2774 261.888 91.3301 261.858 91.3871 261.838C91.4441 261.819 91.5043 261.811 91.5643 261.815C91.6257 261.817 91.6862 261.83 91.742 261.856C91.7978 261.882 91.8477 261.918 91.8887 261.964C91.9296 262.01 91.9607 262.063 91.98 262.122C91.9993 262.18 92.0064 262.242 92.0008 262.303C92.0008 262.394 91.4425 271.702 91.473 275.203V275.345C91.473 277.558 91.473 279.659 92.559 280.522C92.9308 280.762 93.3504 280.918 93.7886 280.979C94.2268 281.041 94.6732 281.006 95.0965 280.877C98.04 280.329 107.449 277.71 108.352 275.914C108.378 275.873 108.391 275.825 108.391 275.777C108.391 275.728 108.378 275.681 108.352 275.64C107.601 274.127 102.516 273.204 99.4813 272.98C99.3592 272.97 99.2461 272.912 99.1663 272.819C99.0866 272.726 99.0466 272.605 99.055 272.483L99.7858 261.765C99.7961 261.644 99.8523 261.531 99.9428 261.45C100.033 261.369 100.151 261.325 100.273 261.328C100.396 261.339 100.51 261.396 100.591 261.489C100.673 261.582 100.715 261.702 100.709 261.826L100.009 272.087C101.887 272.26 108.129 273.001 109.144 275.234C109.231 275.403 109.277 275.591 109.277 275.782C109.277 275.973 109.231 276.16 109.144 276.33C107.754 279.091 95.3401 281.76 95.2183 281.781C94.8405 281.856 94.4566 281.896 94.0714 281.902Z" fill="#1F2937"/>
<path d="M120.713 263.393C120.713 263.393 120.145 272.771 120.175 276.324C120.206 279.876 120.175 283.216 124.347 282.414C126.621 281.998 140.09 279.846 138.943 277.521C137.796 275.197 128.701 273.593 128.701 273.593L129.432 262.875" fill="white"/>
<path d="M123.243 283.024C122.485 283.06 121.74 282.822 121.142 282.354C119.762 281.217 119.741 278.913 119.721 276.477V276.315C119.721 272.783 120.249 263.445 120.249 263.353C120.257 263.231 120.312 263.117 120.403 263.036C120.495 262.954 120.614 262.911 120.736 262.917C120.798 262.918 120.858 262.932 120.914 262.958C120.97 262.983 121.02 263.02 121.061 263.066C121.101 263.111 121.133 263.165 121.152 263.223C121.171 263.281 121.178 263.343 121.173 263.404C121.173 263.496 120.614 272.813 120.645 276.305V276.447C120.645 278.66 120.645 280.761 121.731 281.623C122.103 281.864 122.522 282.02 122.96 282.081C123.399 282.142 123.845 282.107 124.268 281.979L124.979 281.847C135.464 280.01 138.174 278.7 138.519 277.919C138.519 277.838 138.519 277.797 138.519 277.746C137.758 276.214 132.043 274.701 128.613 274.072C128.499 274.054 128.397 273.994 128.328 273.903C128.258 273.813 128.225 273.699 128.237 273.585L128.968 262.866C128.978 262.745 129.034 262.633 129.125 262.551C129.215 262.47 129.334 262.427 129.455 262.43C129.578 262.44 129.692 262.498 129.774 262.591C129.855 262.683 129.897 262.804 129.891 262.927L129.201 273.27C131.15 273.635 138.255 275.117 139.351 277.33C139.435 277.486 139.479 277.66 139.479 277.838C139.479 278.015 139.435 278.189 139.351 278.345C138.61 279.817 134.276 281.177 125.141 282.77L124.441 282.902C124.046 282.976 123.645 283.017 123.243 283.024Z" fill="#1F2937"/>
<path d="M90.3377 156.407C90.3377 156.407 87.4551 256.324 88.9776 264.87C88.9776 264.87 94.8341 271.478 102.426 268.179L112.038 187.141L117.113 268.108C117.113 268.108 121.975 272.939 132.166 264.911V152.875L90.3377 156.407Z" fill="#1F2937"/>
<path d="M121.527 270.08C119.787 270.17 118.077 269.593 116.747 268.466C116.657 268.381 116.602 268.265 116.595 268.141L111.895 192.777L102.953 268.243C102.94 268.331 102.906 268.414 102.853 268.485C102.799 268.556 102.729 268.612 102.648 268.649C94.8025 272.049 88.6719 265.279 88.611 265.208C88.5486 265.136 88.5065 265.048 88.4892 264.954C86.987 256.459 89.7376 160.47 89.8493 156.349C89.856 156.226 89.9068 156.108 89.9924 156.019C90.0781 155.93 90.1929 155.874 90.3162 155.862L132.114 152.33C132.184 152.324 132.254 152.333 132.321 152.356C132.387 152.379 132.448 152.416 132.499 152.463C132.551 152.511 132.592 152.569 132.62 152.633C132.648 152.698 132.662 152.767 132.662 152.837V264.914C132.662 264.991 132.645 265.068 132.612 265.139C132.579 265.209 132.53 265.271 132.469 265.32C127.729 269.045 124.095 270.08 121.527 270.08ZM117.599 267.867C118.422 268.537 122.908 271.46 131.647 264.67V153.426L90.8541 156.877C90.6511 164.165 88.0832 255.657 89.4737 264.639C90.2553 265.472 95.3709 270.506 101.979 267.827L111.55 187.083C111.552 187.019 111.568 186.956 111.596 186.899C111.624 186.841 111.663 186.789 111.712 186.747C111.76 186.705 111.817 186.674 111.878 186.655C111.939 186.636 112.004 186.63 112.068 186.637C112.194 186.639 112.314 186.688 112.406 186.774C112.498 186.86 112.555 186.978 112.565 187.104L117.599 267.867Z" fill="#1F2937"/>
<path d="M175.487 113.29C175.487 113.29 181.049 110.143 181.455 109.798C181.861 109.453 183.8 104.307 184.114 103.972C184.429 103.637 185.211 103.028 185.474 103.739C185.738 104.449 185.17 108.398 185.17 108.398C185.17 108.398 192.011 103.049 192.488 103.323C192.965 103.597 193.32 104.216 192.244 105.718C191.273 106.88 190.126 107.884 188.844 108.692C188.844 108.692 191.25 111.392 190.874 112.316C190.499 113.239 181.374 119.36 181.374 119.36" fill="white"/>
<path d="M181.409 119.846C181.332 119.848 181.257 119.83 181.189 119.795C181.122 119.759 181.065 119.707 181.023 119.643C180.988 119.592 180.964 119.535 180.951 119.475C180.939 119.415 180.938 119.353 180.949 119.293C180.961 119.233 180.984 119.175 181.017 119.124C181.051 119.072 181.094 119.028 181.145 118.993C185.469 116.101 190.138 112.751 190.483 112.152C190.594 111.817 189.651 110.315 188.453 109.016C188.408 108.966 188.374 108.906 188.355 108.841C188.335 108.776 188.331 108.707 188.341 108.64C188.35 108.574 188.374 108.51 188.411 108.454C188.447 108.397 188.497 108.35 188.554 108.316C189.784 107.543 190.887 106.584 191.823 105.474C192.432 104.611 192.472 104.195 192.432 104.022C192.416 103.948 192.377 103.88 192.32 103.829C189.909 105.319 187.6 106.967 185.408 108.762C185.332 108.815 185.241 108.843 185.149 108.843C185.057 108.843 184.966 108.815 184.89 108.762C184.81 108.716 184.745 108.646 184.704 108.564C184.662 108.481 184.646 108.387 184.657 108.295C184.93 106.837 185.042 105.353 184.992 103.87C184.931 103.87 184.657 103.992 184.413 104.256C184.17 104.52 183.794 105.616 183.398 106.58C182.383 109.077 181.987 109.889 181.713 110.122C181.439 110.356 176.638 113.167 175.623 113.665C175.516 113.716 175.394 113.724 175.281 113.688C175.169 113.652 175.074 113.575 175.016 113.472C174.958 113.369 174.941 113.248 174.969 113.133C174.997 113.018 175.067 112.918 175.166 112.853C177.298 111.655 180.779 109.655 181.074 109.402C181.605 108.369 182.079 107.309 182.495 106.225C182.807 105.321 183.208 104.451 183.692 103.626C183.875 103.434 184.525 102.814 185.154 102.926C185.31 102.962 185.453 103.039 185.571 103.147C185.688 103.256 185.775 103.393 185.824 103.545C185.959 104.797 185.915 106.062 185.692 107.301C191.934 102.49 192.35 102.743 192.645 102.916C192.81 103.007 192.954 103.134 193.066 103.286C193.179 103.439 193.256 103.614 193.294 103.799C193.324 104.195 193.272 104.592 193.143 104.967C193.014 105.342 192.81 105.687 192.543 105.981C191.678 107.062 190.651 108.004 189.498 108.772C190.351 109.787 191.64 111.533 191.305 112.457C190.97 113.381 184.413 117.867 181.622 119.734C181.561 119.789 181.488 119.827 181.409 119.846Z" fill="#1F2937"/>
<path d="M127.351 107.661C127.351 107.661 117.495 104.433 91.5417 109.417C87.0351 110.279 84.9645 152.3 88.3647 177.574L133.827 177.198C133.827 177.198 141.327 111.162 127.351 107.661Z" fill="#D54407"/>
<path d="M89.8274 103.336C89.8274 103.336 79.9921 134.801 79.3628 137.592C78.7335 140.383 72.0649 177.431 72.0649 177.431L82.3976 180.902C82.3976 180.902 97.379 146.27 96.4249 136.547C95.4708 126.823 89.8274 103.336 89.8274 103.336Z" fill="#D54407"/>
<path d="M126.497 107.681C134.404 108.432 150.857 127.524 152.197 126.966C153.536 126.407 177.917 109.711 177.917 109.711L185.631 118.155C185.631 118.155 162.012 145.56 157.211 148.463C149.821 152.878 118.448 132.781 118.448 132.781C118.448 132.781 118.59 106.919 126.497 107.681Z" fill="#D54407"/>
<path d="M77.6171 187.734C77.6171 187.734 74.4198 185.998 75.8307 183.055L77.6171 187.734Z" fill="white"/>
<path d="M77.6179 188.2C77.5396 188.198 77.4628 188.177 77.3946 188.139C76.1563 187.469 74.1466 185.5 75.3646 182.851C75.4185 182.739 75.5145 182.653 75.6316 182.612C75.7486 182.571 75.8771 182.578 75.9889 182.632C76.1006 182.686 76.1863 182.782 76.2273 182.899C76.2682 183.016 76.2609 183.145 76.2071 183.257C74.9992 185.774 77.6788 187.317 77.7905 187.317C77.8796 187.367 77.9496 187.446 77.9897 187.54C78.0298 187.634 78.0378 187.739 78.0124 187.838C77.987 187.938 77.9296 188.026 77.8492 188.089C77.7687 188.153 77.6696 188.188 77.5672 188.189L77.6179 188.2Z" fill="#1F2937"/>
<path d="M150.502 149.063H150.411C145.447 148.048 135.734 142.303 123.006 132.823L122.427 132.386C122.326 132.318 122.255 132.213 122.231 132.094C122.206 131.974 122.229 131.85 122.295 131.747C122.36 131.648 122.461 131.577 122.576 131.551C122.692 131.524 122.813 131.544 122.914 131.605C123.139 131.753 123.356 131.912 123.564 132.082C136.15 141.491 145.732 147.216 150.563 148.17C150.684 148.194 150.79 148.266 150.859 148.368C150.927 148.471 150.952 148.597 150.928 148.718C150.901 148.812 150.846 148.896 150.77 148.958C150.693 149.019 150.6 149.056 150.502 149.063Z" fill="#1F2937"/>
<path d="M124.014 88.2412C123.353 88.2412 122.708 88.0454 122.158 87.6784C121.609 87.3115 121.181 86.79 120.929 86.1798C120.676 85.5696 120.61 84.8981 120.738 84.2504C120.867 83.6026 121.185 83.0076 121.652 82.5406C122.119 82.0736 122.714 81.7555 123.362 81.6267C124.01 81.4978 124.681 81.564 125.292 81.8167C125.902 82.0694 126.423 82.4975 126.79 83.0466C127.157 83.5958 127.353 84.2414 127.353 84.9019C127.353 85.7875 127.001 86.6369 126.375 87.2631C125.749 87.8894 124.899 88.2412 124.014 88.2412ZM124.014 82.5775C123.554 82.5775 123.105 82.7138 122.722 82.9692C122.34 83.2246 122.042 83.5876 121.866 84.0124C121.69 84.4371 121.644 84.9044 121.734 85.3553C121.824 85.8062 122.045 86.2204 122.37 86.5454C122.695 86.8705 123.109 87.0919 123.56 87.1815C124.011 87.2712 124.478 87.2252 124.903 87.0493C125.328 86.8733 125.691 86.5754 125.946 86.1932C126.202 85.811 126.338 85.3616 126.338 84.9019C126.338 84.5966 126.278 84.2944 126.161 84.0124C126.044 83.7304 125.873 83.4741 125.657 83.2583C125.441 83.0425 125.185 82.8712 124.903 82.7544C124.621 82.6376 124.319 82.5775 124.014 82.5775Z" fill="#1F2937"/>
<path d="M122.651 87.1094C122.651 87.1094 125.949 92.5498 125.188 93.6155C124.427 94.6813 122.042 93.8693 122.042 93.8693" fill="white"/>
<path d="M123.757 94.6239C123.116 94.6079 122.48 94.4985 121.869 94.2991C121.735 94.2547 121.623 94.1586 121.56 94.0321C121.496 93.9055 121.485 93.7587 121.529 93.6242C121.574 93.4896 121.67 93.3781 121.796 93.3143C121.923 93.2506 122.07 93.2397 122.204 93.2841C122.864 93.5176 124.356 93.7916 124.772 93.2232C125.036 92.736 123.849 89.9549 122.225 87.2753C122.189 87.2195 122.166 87.1572 122.155 87.0921C122.144 87.0271 122.146 86.9604 122.161 86.8962C122.176 86.832 122.204 86.7714 122.243 86.718C122.282 86.6646 122.331 86.6194 122.387 86.5851C122.444 86.5497 122.507 86.5258 122.573 86.5148C122.638 86.5037 122.706 86.5058 122.771 86.5209C122.836 86.536 122.897 86.5638 122.952 86.6027C123.006 86.6416 123.052 86.6908 123.087 86.7475C124.102 88.473 126.467 92.6041 125.594 93.8525C125.374 94.1204 125.091 94.3305 124.771 94.4649C124.451 94.5993 124.103 94.6538 123.757 94.6239Z" fill="#1F2937"/>
<path d="M122.177 80.0857C124.339 81.9838 123.547 85.8103 123.425 88.3072C123.263 91.8259 123.019 95.3412 122.694 98.8531C122.491 101.076 116.716 100.883 115.721 100.193L116.939 105.765L104.323 103.918L105.104 96.6505C105.104 96.6505 104.292 86.5005 106.728 82.0751C107.436 80.7927 108.487 79.7333 109.764 79.016C111.04 78.2987 112.492 77.9521 113.955 78.0151C113.955 78.0151 120.065 78.2181 122.177 80.0857Z" fill="white"/>
<path d="M116.94 106.267H116.869L104.252 104.419C104.123 104.399 104.006 104.33 103.927 104.226C103.847 104.122 103.811 103.991 103.826 103.861L104.597 96.5936C104.597 96.2688 103.806 86.3624 106.282 81.8253C107.03 80.4513 108.151 79.3169 109.516 78.5535C110.881 77.7901 112.434 77.4289 113.996 77.5116C114.23 77.5116 120.299 77.7349 122.512 79.6938C124.542 81.4498 124.238 84.5151 124.035 86.9815C124.035 87.4586 123.953 87.9153 123.933 88.3315C123.771 91.8434 123.527 95.4365 123.202 98.8875C123.156 99.2747 123 99.6405 122.751 99.9411C122.503 100.242 122.173 100.464 121.802 100.583C120.075 101.208 118.21 101.341 116.412 100.968L117.427 105.658C117.444 105.736 117.441 105.818 117.42 105.896C117.399 105.973 117.359 106.045 117.305 106.104C117.259 106.155 117.202 106.196 117.139 106.224C117.077 106.252 117.009 106.266 116.94 106.267ZM104.882 103.485L116.29 105.15L115.275 100.298C115.252 100.199 115.261 100.095 115.299 100.001C115.337 99.9066 115.403 99.8261 115.488 99.7705C115.573 99.7116 115.674 99.68 115.778 99.68C115.881 99.68 115.982 99.7116 116.067 99.7705C117.819 100.31 119.698 100.271 121.426 99.6589C121.934 99.4254 122.208 99.1311 122.238 98.786C122.563 95.3045 122.806 91.7723 122.969 88.2706C122.969 87.8443 123.03 87.3774 123.07 86.8902C123.263 84.647 123.497 81.8152 121.893 80.4449C119.944 78.7296 114.047 78.5164 113.996 78.5164C112.626 78.4461 111.263 78.7641 110.066 79.4339C108.868 80.1037 107.884 81.098 107.226 82.3024C104.892 86.5755 105.653 96.5124 105.663 96.5936L104.882 103.485Z" fill="#1F2937"/>
<path d="M101.846 105.628L103.034 101.781L118.523 103.273L119.406 106.805C116.573 107.917 113.53 108.387 110.494 108.184C107.458 107.98 104.505 107.107 101.846 105.628Z" fill="white"/>
<path d="M112.037 108.746C108.396 108.729 104.815 107.812 101.613 106.076C101.509 106.02 101.428 105.93 101.384 105.821C101.339 105.712 101.334 105.59 101.369 105.478L102.516 101.631C102.553 101.519 102.626 101.424 102.723 101.359C102.821 101.295 102.938 101.265 103.054 101.275L118.574 102.747C118.676 102.757 118.774 102.798 118.852 102.865C118.93 102.933 118.985 103.023 119.01 103.123L119.903 106.655C119.931 106.768 119.919 106.888 119.869 106.993C119.819 107.098 119.735 107.183 119.629 107.234C117.231 108.259 114.645 108.774 112.037 108.746ZM102.516 105.376C105.016 106.679 107.757 107.453 110.569 107.648C113.38 107.844 116.202 107.457 118.858 106.513L118.168 103.752L103.45 102.321L102.516 105.376Z" fill="#1F2937"/>
<path d="M109.424 97.5638C109.424 103.542 115.433 115.631 110.277 120.381C105.435 124.847 97.0815 126.014 90.8291 125.324C81.6941 124.309 76.8932 117.986 80.6791 109.084C82.5163 104.74 85.7541 101.157 88.4439 97.2796C90.8111 93.8656 92.7988 90.2034 94.3715 86.3582C95.7113 83.1 96.706 79.2532 98.5127 76.2082C102.512 69.4686 109.576 66.8296 117.006 69.0017C120.193 69.9355 126.324 73.7722 124.821 77.9235C124.456 78.9385 123.208 80.4712 122.213 80.0449C121.929 82.014 120.66 82.9579 119.117 84.2165C117.497 85.411 115.813 86.5156 114.073 87.5254C112.888 88.2305 111.853 89.1616 111.028 90.2659C110.124 91.7721 109.602 93.4757 109.505 95.2293C109.433 96.0052 109.406 96.7847 109.424 97.5638Z" fill="white"/>
<path d="M94.1911 126.013C93.0519 126.011 91.9136 125.95 90.7807 125.83C85.8478 125.302 82.1025 123.231 80.2044 120.024C78.3064 116.817 78.3977 113.112 80.2044 108.859C81.6832 105.718 83.541 102.769 85.7362 100.079C86.5076 99.0643 87.279 98.0493 88.0199 96.9633C90.3632 93.5755 92.3336 89.9444 93.8968 86.1332C94.3332 85.0573 94.7291 83.951 95.1452 82.7736C95.9025 80.4162 96.8812 78.1358 98.0684 75.9629C99.891 72.7034 102.791 70.1795 106.27 68.8239C109.75 67.4683 113.593 67.3655 117.14 68.5331C119.515 69.2233 123.525 71.5071 124.986 74.3897C125.297 74.9538 125.485 75.5775 125.538 76.2196C125.59 76.8617 125.506 77.5076 125.291 78.1147C124.922 79.125 124.201 79.9684 123.261 80.4898C123.055 80.5776 122.835 80.6291 122.611 80.6421C122.185 82.3879 120.997 83.3521 119.637 84.4585L119.424 84.631C118.367 85.4596 117.251 86.2093 116.085 86.8742C115.516 87.2193 114.948 87.5644 114.39 87.8892C113.254 88.5847 112.264 89.4948 111.477 90.5688C110.627 92.0078 110.136 93.6301 110.045 95.2987C109.961 96.0569 109.924 96.8196 109.934 97.5824C110.113 100.017 110.548 102.426 111.233 104.769C112.684 110.666 114.278 117.355 110.624 120.765C106.371 124.673 99.7127 126.013 94.1911 126.013ZM111.994 68.8072C109.326 68.8093 106.707 69.5235 104.407 70.876C102.107 72.2285 100.21 74.1702 98.9109 76.5009C97.7603 78.621 96.8089 80.8432 96.0689 83.139C95.673 84.2758 95.2467 85.4938 94.8001 86.5088C93.2173 90.3911 91.2125 94.0876 88.8218 97.5317C88.0808 98.5467 87.2993 99.6429 86.5076 100.678C84.3697 103.306 82.5567 106.183 81.1078 109.245C79.4635 113.163 79.4533 116.705 81.1078 119.476C82.8333 122.409 86.3147 124.297 90.9127 124.795C96.6271 125.414 105.041 124.521 109.964 119.973C113.222 116.928 111.659 110.585 110.279 104.961C109.568 102.54 109.122 100.049 108.949 97.5317C108.938 96.7348 108.978 95.938 109.071 95.1464C109.162 93.3224 109.698 91.5485 110.634 89.9801C111.484 88.8216 112.557 87.8449 113.791 87.1076C114.359 86.7321 114.938 86.3768 115.516 86.0317C116.645 85.3849 117.727 84.6591 118.754 83.8596L118.967 83.6972C120.398 82.53 121.424 81.6672 121.677 80.0026C121.69 79.9266 121.719 79.8543 121.763 79.7913C121.808 79.7283 121.866 79.6763 121.934 79.6391C122.001 79.6019 122.076 79.5806 122.153 79.5768C122.23 79.5729 122.307 79.5867 122.378 79.6169C122.521 79.6756 122.681 79.6756 122.824 79.6169C123.509 79.2098 124.033 78.5788 124.306 77.8305C124.475 77.3533 124.539 76.8457 124.495 76.3415C124.451 75.8374 124.3 75.3484 124.052 74.9073C122.743 72.3191 118.977 70.1876 116.826 69.5684C115.259 69.0866 113.633 68.8302 111.994 68.8072Z" fill="#1F2937"/>
<path d="M122.714 96.2234C122.714 96.2234 119.923 97.7967 118.573 94.9141L122.714 96.2234Z" fill="white"/>
<path d="M121.027 97.1551C120.707 97.1577 120.388 97.1097 120.083 97.013C119.64 96.8581 119.235 96.6104 118.896 96.2866C118.556 95.9628 118.29 95.5703 118.114 95.1353C118.085 95.0746 118.069 95.0089 118.066 94.9419C118.062 94.8749 118.072 94.8079 118.095 94.7448C118.117 94.6816 118.152 94.6236 118.197 94.5739C118.242 94.5242 118.297 94.4839 118.358 94.4552C118.418 94.4266 118.484 94.4101 118.551 94.4069C118.618 94.4036 118.685 94.4136 118.748 94.4362C118.811 94.4588 118.869 94.4936 118.919 94.5387C118.969 94.5838 119.009 94.6382 119.038 94.6988C119.154 95.0053 119.333 95.2838 119.564 95.5164C119.795 95.749 120.072 95.9304 120.377 96.0488C121.081 96.2124 121.821 96.115 122.458 95.7747C122.517 95.7426 122.581 95.7223 122.648 95.7151C122.714 95.7079 122.781 95.7139 122.845 95.7328C122.91 95.7516 122.969 95.783 123.021 95.825C123.073 95.8671 123.116 95.919 123.148 95.9777C123.182 96.0346 123.204 96.0978 123.212 96.1633C123.221 96.2289 123.216 96.2955 123.198 96.3592C123.18 96.4228 123.149 96.4821 123.107 96.5334C123.066 96.5848 123.014 96.6271 122.955 96.6578C122.362 96.9753 121.7 97.1459 121.027 97.1551Z" fill="#1F2937"/>
<path d="M108.147 89.1865C108.104 89.1961 108.059 89.1961 108.015 89.1865C107.886 89.1508 107.777 89.0658 107.71 88.9499C107.644 88.834 107.626 88.6965 107.66 88.5673C108.208 86.6693 108.614 86.6388 108.858 86.6185C109.101 86.5982 120.733 85.167 126.783 84.4261C126.916 84.4088 127.05 84.445 127.157 84.5269C127.264 84.6087 127.333 84.7294 127.351 84.8625C127.365 84.9968 127.327 85.1314 127.243 85.2376C127.16 85.3438 127.038 85.4132 126.904 85.431C125.199 85.6441 110.867 87.4609 109.101 87.6132C108.906 88.0055 108.753 88.4171 108.645 88.8414C108.608 88.9438 108.541 89.0322 108.452 89.0942C108.362 89.1561 108.256 89.1884 108.147 89.1865Z" fill="#1F2937"/>
<path d="M115.82 89.1071C115.754 88.2218 115.445 87.372 114.927 86.6508C114.604 86.0459 114.193 85.4918 113.709 85.0065C113.465 84.767 113.171 84.5845 112.848 84.4722C112.525 84.3599 112.181 84.3205 111.841 84.3569C111.545 84.4167 111.265 84.5379 111.018 84.7127C110.772 84.8875 110.564 85.1121 110.41 85.3719C110.12 85.9043 109.947 86.4926 109.903 87.0974C109.795 88.4205 110.036 89.7487 110.602 90.9492C111.169 92.1498 112.04 93.1806 113.13 93.9385L112.948 93.7152" fill="white"/>
<path d="M113.136 94.4647C113.034 94.4628 112.935 94.4311 112.852 94.3734C111.692 93.5623 110.764 92.4622 110.161 91.182C109.557 89.9019 109.299 88.4863 109.411 87.0755C109.452 86.3903 109.65 85.7236 109.989 85.1267C110.175 84.8002 110.428 84.5177 110.733 84.2987C111.038 84.0797 111.387 83.9293 111.755 83.858C112.173 83.8053 112.597 83.8473 112.995 83.9809C113.394 84.1144 113.758 84.3361 114.06 84.6294C114.583 85.1487 115.024 85.7441 115.369 86.3955C115.955 87.1895 116.306 88.1319 116.384 89.1157C116.374 89.2478 116.316 89.3715 116.22 89.4633C116.125 89.5551 115.999 89.6084 115.866 89.613C115.8 89.6117 115.734 89.5973 115.673 89.5705C115.612 89.5438 115.556 89.5053 115.51 89.4572C115.464 89.4092 115.428 89.3525 115.404 89.2904C115.379 89.2283 115.368 89.162 115.369 89.0954C115.299 88.3065 115.015 87.5518 114.547 86.9131C114.251 86.3507 113.875 85.8344 113.43 85.3805C113.241 85.193 113.013 85.0487 112.762 84.9576C112.512 84.8665 112.244 84.8307 111.979 84.8527C111.753 84.9038 111.541 85.0015 111.356 85.1396C111.171 85.2777 111.016 85.4531 110.903 85.6545C110.646 86.1197 110.497 86.6365 110.466 87.1669C110.373 88.3167 110.56 89.472 111.013 90.533C111.466 91.5941 112.17 92.529 113.065 93.2569C113.128 93.2621 113.189 93.2802 113.245 93.3098C113.301 93.3395 113.35 93.3802 113.39 93.4294L113.572 93.6426C113.654 93.7352 113.699 93.8542 113.699 93.9775C113.699 94.1008 113.654 94.2199 113.572 94.3125C113.516 94.3693 113.447 94.4125 113.372 94.4389C113.296 94.4653 113.215 94.4741 113.136 94.4647Z" fill="#1F2937"/>
<path d="M121.75 85.5872C122.025 85.5829 122.239 85.016 122.228 84.3209C122.217 83.6259 121.985 83.066 121.711 83.0703C121.436 83.0746 121.222 83.6415 121.233 84.3366C121.244 85.0316 121.476 85.5915 121.75 85.5872Z" fill="#1F2937"/>
<path d="M87.6438 171.511C87.527 171.514 87.4138 171.471 87.3285 171.391C87.2431 171.311 87.1923 171.201 87.187 171.085C86.304 159.219 88.0701 127.44 88.0904 127.125C88.093 127.064 88.1077 127.004 88.1337 126.949C88.1597 126.894 88.1966 126.845 88.242 126.804C88.2874 126.763 88.3405 126.732 88.3981 126.712C88.4557 126.693 88.5168 126.684 88.5776 126.689C88.7005 126.699 88.8147 126.757 88.8961 126.849C88.9774 126.942 89.0197 127.063 89.014 127.186C89.014 127.501 87.2276 159.209 88.1107 171.014C88.1191 171.136 88.0791 171.257 87.9994 171.35C87.9196 171.443 87.8065 171.501 87.6844 171.511H87.6438Z" fill="#1F2937"/>
<path d="M91.9163 172.517C91.8056 172.501 91.7045 172.445 91.6314 172.36C91.5583 172.275 91.5181 172.167 91.5181 172.055C91.5181 171.943 91.5583 171.835 91.6314 171.75C91.7045 171.666 91.8056 171.61 91.9163 171.594L132.516 169.564C132.578 169.559 132.64 169.568 132.698 169.588C132.756 169.609 132.81 169.641 132.855 169.683C132.901 169.724 132.938 169.775 132.963 169.831C132.989 169.887 133.002 169.948 133.004 170.01C133.006 170.133 132.961 170.253 132.878 170.344C132.795 170.434 132.68 170.489 132.557 170.497L91.9569 172.527L91.9163 172.517Z" fill="#1F2937"/>
<path d="M86.6165 26.1664C86.9923 25.4577 88.0077 25.4577 88.3835 26.1664L89.6083 28.4766C89.702 28.6534 89.8466 28.798 90.0234 28.8917L92.3336 30.1165C93.0423 30.4923 93.0423 31.5077 92.3336 31.8835L90.0234 33.1083C89.8466 33.202 89.702 33.3466 89.6083 33.5234L88.3835 35.8336C88.0077 36.5423 86.9923 36.5423 86.6165 35.8336L85.3917 33.5234C85.298 33.3466 85.1534 33.202 84.9766 33.1083L82.6664 31.8835C81.9577 31.5077 81.9577 30.4923 82.6664 30.1165L84.9766 28.8917C85.1534 28.798 85.298 28.6534 85.3917 28.4766L86.6165 26.1664Z" fill="#CBD5E1"/>
<path d="M287.993 137.398L268 137.922L273.864 157.043L293.857 156.519L287.993 137.398Z" fill="#0F172A"/>
<path d="M274.963 141.867L283.532 141.643L284.369 144.374L277.229 144.561L276.22 145.965L275.801 144.599L274.963 141.867Z" fill="white"/>
<path d="M276.219 145.969L283.36 145.782L284.197 148.513L278.485 148.663L277.476 150.066L277.057 148.7L276.219 145.969Z" fill="white"/>
<path d="M277.475 150.062L281.759 149.95L282.597 152.682L278.313 152.794L277.475 150.062Z" fill="white"/>
<defs>
<clipPath id="clip0_9614_84280">
<rect width="116" height="160" fill="white" transform="translate(145 40.5)"/>
</clipPath>
</defs>
</svg>
