<svg width="512" height="374" viewBox="0 0 512 374" fill="none" xmlns="http://www.w3.org/2000/svg">
<g filter="url(#filter0_d_8127_26554)">
<rect x="40" y="27.1406" width="432" height="308.571" rx="11.5714" fill="white"/>
<rect x="40.4821" y="27.6228" width="431.036" height="307.607" rx="11.0893" stroke="url(#paint0_linear_8127_26554)" stroke-width="0.964286"/>
<rect x="64" y="48.9375" width="383.998" height="264.974" rx="11.9882" fill="url(#paint1_linear_8127_26554)"/>
<path d="M84.4531 68.6078C84.4531 67.7026 85.1869 66.9688 86.0921 66.9688H145.097C146.002 66.9688 146.736 67.7026 146.736 68.6078C146.736 69.513 146.002 70.2468 145.097 70.2468H86.0921C85.1869 70.2468 84.4531 69.513 84.4531 68.6078Z" fill="url(#paint2_linear_8127_26554)"/>
<path d="M325.933 73.5234C323.519 73.5234 321.562 75.4803 321.562 77.8941L321.562 296.43C321.562 298.844 323.519 300.8 325.933 300.8L436.294 300.8C438.708 300.8 440.664 298.844 440.664 296.43L440.664 77.8942C440.664 75.4803 438.708 73.5234 436.294 73.5234L325.933 73.5234Z" fill="url(#paint3_linear_8127_26554)"/>
<rect x="338.781" y="115.906" width="84.6736" height="3.02406" rx="1.51203" fill="url(#paint4_linear_8127_26554)"/>
<rect x="338.781" y="123.469" width="72.5774" height="3.02406" rx="1.51203" fill="url(#paint5_linear_8127_26554)"/>
<rect x="338.781" y="131.031" width="54.4331" height="3.02406" rx="1.51203" fill="url(#paint6_linear_8127_26554)"/>
<path d="M344.306 98.6728C344.538 98.2696 345.12 98.2696 345.353 98.6728L347.448 102.302L349.543 105.931C349.776 106.334 349.485 106.838 349.02 106.838H344.829H340.639C340.174 106.838 339.883 106.334 340.115 105.931L342.21 102.302L344.306 98.6728Z" fill="url(#paint7_linear_8127_26554)"/>
<rect x="338.781" y="187.156" width="84.6736" height="3.02406" rx="1.51203" fill="url(#paint8_linear_8127_26554)"/>
<rect x="338.781" y="194.719" width="72.5774" height="3.02406" rx="1.51203" fill="url(#paint9_linear_8127_26554)"/>
<rect x="338.781" y="202.281" width="54.4331" height="3.02406" rx="1.51203" fill="url(#paint10_linear_8127_26554)"/>
<path d="M344.299 169.986C344.528 169.566 345.131 169.566 345.36 169.986L346.883 172.77C346.938 172.871 347.022 172.955 347.123 173.01L349.907 174.533C350.327 174.763 350.327 175.365 349.907 175.594L347.123 177.117C347.022 177.173 346.938 177.256 346.883 177.357L345.36 180.142C345.131 180.561 344.528 180.561 344.299 180.142L342.776 177.357C342.721 177.256 342.637 177.173 342.536 177.117L339.751 175.594C339.332 175.365 339.332 174.763 339.751 174.533L342.536 173.01C342.637 172.955 342.721 172.871 342.776 172.77L344.299 169.986Z" fill="url(#paint11_linear_8127_26554)"/>
<rect x="338.781" y="258.414" width="84.6736" height="3.02406" rx="1.51203" fill="url(#paint12_linear_8127_26554)"/>
<rect x="338.781" y="265.977" width="72.5774" height="3.02406" rx="1.51203" fill="url(#paint13_linear_8127_26554)"/>
<rect x="338.781" y="273.539" width="54.4331" height="3.02406" rx="1.51203" fill="url(#paint14_linear_8127_26554)"/>
<path d="M344.287 241.372C344.509 240.923 345.15 240.923 345.372 241.372L346.466 243.59C346.554 243.768 346.725 243.892 346.922 243.921L349.369 244.276C349.865 244.348 350.063 244.958 349.704 245.308L347.933 247.034C347.791 247.173 347.726 247.373 347.759 247.569L348.177 250.007C348.262 250.501 347.743 250.878 347.3 250.644L345.111 249.494C344.935 249.401 344.724 249.401 344.548 249.494L342.359 250.644C341.915 250.878 341.397 250.501 341.482 250.007L341.9 247.569C341.933 247.373 341.868 247.173 341.726 247.034L339.955 245.308C339.596 244.958 339.794 244.348 340.29 244.276L342.737 243.921C342.934 243.892 343.104 243.768 343.193 243.59L344.287 241.372Z" fill="url(#paint15_linear_8127_26554)"/>
<path d="M84.4531 105.756C84.4531 104.851 85.1869 104.117 86.0921 104.117H145.097C146.002 104.117 146.736 104.851 146.736 105.756C146.736 106.661 146.002 107.395 145.097 107.395H86.0921C85.1869 107.395 84.4531 106.661 84.4531 105.756Z" fill="url(#paint16_linear_8127_26554)"/>
<path d="M84.4531 143.998C84.4531 143.093 85.1869 142.359 86.0921 142.359H145.097C146.002 142.359 146.736 143.093 146.736 143.998C146.736 144.904 146.002 145.637 145.097 145.637H86.0921C85.1869 145.637 84.4531 144.904 84.4531 143.998Z" fill="url(#paint17_linear_8127_26554)"/>
<path d="M84.4531 185.522C84.4531 184.617 85.1869 183.883 86.0921 183.883H145.097C146.002 183.883 146.736 184.617 146.736 185.522C146.736 186.427 146.002 187.161 145.097 187.161H86.0921C85.1869 187.161 84.4531 186.427 84.4531 185.522Z" fill="url(#paint18_linear_8127_26554)"/>
<rect x="84.4531" y="74.6172" width="223.999" height="20.7609" rx="1.71152" fill="url(#paint19_linear_8127_26554)"/>
<rect x="84.4531" y="111.766" width="223.999" height="20.7609" rx="1.71152" fill="url(#paint20_linear_8127_26554)"/>
<rect x="84.4531" y="150.008" width="223.999" height="20.7609" rx="1.71152" fill="url(#paint21_linear_8127_26554)"/>
<rect x="84.4531" y="192.625" width="223.999" height="62.2826" rx="1.71152" fill="url(#paint22_linear_8127_26554)"/>
<rect x="84.4531" y="272.391" width="58.0314" height="19.3438" rx="2.49597" fill="url(#paint23_linear_8127_26554)"/>
<rect x="153.365" y="273.6" width="55.6134" height="16.9258" rx="1.28699" stroke="url(#paint24_linear_8127_26554)" stroke-width="2.41797"/>
</g>
<g filter="url(#filter1_bd_8127_26554)">
<rect x="194.281" y="119.719" width="123.429" height="123.429" rx="61.7143" fill="white" fill-opacity="0.25" style="mix-blend-mode:overlay" shape-rendering="crispEdges"/>
<path d="M220.729 181.432C220.729 183.055 219.413 184.371 217.79 184.371C216.167 184.371 214.852 183.055 214.852 181.432C214.852 179.809 216.167 178.493 217.79 178.493C219.413 178.493 220.729 179.809 220.729 181.432Z" fill="url(#paint25_angular_8127_26554)"/>
<path d="M297.137 181.432C297.137 183.055 295.822 184.371 294.199 184.371C292.575 184.371 291.26 183.055 291.26 181.432C291.26 179.809 292.575 178.493 294.199 178.493C295.822 178.493 297.137 179.809 297.137 181.432Z" fill="url(#paint26_angular_8127_26554)"/>
<path d="M255.994 146.167C254.371 146.167 253.056 144.851 253.056 143.228C253.056 141.605 254.371 140.289 255.994 140.289C257.617 140.289 258.933 141.605 258.933 143.228C258.933 144.851 257.617 146.167 255.994 146.167Z" fill="url(#paint27_angular_8127_26554)"/>
<path d="M255.994 222.575C254.371 222.575 253.056 221.259 253.056 219.636C253.056 218.013 254.371 216.697 255.994 216.697C257.617 216.697 258.933 218.013 258.933 219.636C258.933 221.259 257.617 222.575 255.994 222.575Z" fill="url(#paint28_angular_8127_26554)"/>
<path d="M238.364 150.891C236.958 151.703 235.161 151.221 234.349 149.816C233.538 148.41 234.019 146.613 235.425 145.801C236.83 144.99 238.628 145.471 239.439 146.877C240.251 148.282 239.769 150.08 238.364 150.891Z" fill="url(#paint29_angular_8127_26554)"/>
<path d="M276.568 217.063C275.162 217.874 273.365 217.393 272.553 215.987C271.742 214.581 272.223 212.784 273.629 211.972C275.035 211.161 276.832 211.643 277.643 213.048C278.455 214.454 277.973 216.251 276.568 217.063Z" fill="url(#paint30_angular_8127_26554)"/>
<path d="M286.537 163.799C285.725 162.394 286.207 160.596 287.613 159.785C289.018 158.973 290.816 159.455 291.627 160.86C292.439 162.266 291.957 164.063 290.551 164.875C289.146 165.686 287.348 165.205 286.537 163.799Z" fill="url(#paint31_angular_8127_26554)"/>
<path d="M220.366 202.003C219.554 200.598 220.036 198.8 221.441 197.989C222.847 197.177 224.644 197.659 225.456 199.064C226.267 200.47 225.786 202.267 224.38 203.079C222.974 203.89 221.177 203.409 220.366 202.003Z" fill="url(#paint32_angular_8127_26554)"/>
<path d="M225.455 163.799C224.643 165.205 222.846 165.686 221.44 164.875C220.035 164.063 219.553 162.266 220.365 160.86C221.176 159.455 222.973 158.973 224.379 159.785C225.785 160.596 226.266 162.394 225.455 163.799Z" fill="url(#paint33_angular_8127_26554)"/>
<path d="M291.626 202.003C290.815 203.409 289.017 203.89 287.612 203.079C286.206 202.267 285.725 200.47 286.536 199.064C287.348 197.659 289.145 197.177 290.55 197.989C291.956 198.8 292.438 200.598 291.626 202.003Z" fill="url(#paint34_angular_8127_26554)"/>
<path d="M273.628 150.891C272.222 150.08 271.741 148.282 272.552 146.877C273.364 145.471 275.161 144.99 276.567 145.801C277.972 146.613 278.454 148.41 277.642 149.816C276.831 151.221 275.034 151.703 273.628 150.891Z" fill="url(#paint35_angular_8127_26554)"/>
<path d="M235.424 217.063C234.018 216.251 233.537 214.454 234.348 213.048C235.16 211.643 236.957 211.161 238.363 211.972C239.768 212.784 240.25 214.581 239.438 215.987C238.627 217.393 236.83 217.874 235.424 217.063Z" fill="url(#paint36_angular_8127_26554)"/>
<path d="M261.134 171.143L266.277 176.286M245.705 196.857L271.42 171.143L266.277 166L240.562 191.714L245.705 196.857ZM250.848 166C250.848 166.909 251.209 167.781 251.852 168.424C252.495 169.067 253.367 169.429 254.277 169.429C253.367 169.429 252.495 169.79 251.852 170.433C251.209 171.076 250.848 171.948 250.848 172.857C250.848 171.948 250.487 171.076 249.844 170.433C249.201 169.79 248.329 169.429 247.42 169.429C248.329 169.429 249.201 169.067 249.844 168.424C250.487 167.781 250.848 166.909 250.848 166ZM267.991 183.143C267.991 184.052 268.352 184.924 268.995 185.567C269.638 186.21 270.51 186.571 271.42 186.571C270.51 186.571 269.638 186.933 268.995 187.576C268.352 188.219 267.991 189.091 267.991 190C267.991 189.091 267.63 188.219 266.987 187.576C266.344 186.933 265.472 186.571 264.563 186.571C265.472 186.571 266.344 186.21 266.987 185.567C267.63 184.924 267.991 184.052 267.991 183.143Z" stroke="url(#paint37_linear_8127_26554)" stroke-width="3.42857" stroke-linecap="round" stroke-linejoin="round"/>
</g>
<g filter="url(#filter2_bd_8127_26554)">
<rect x="156.57" y="287.43" width="198.857" height="61.7143" rx="30.8571" fill="white" fill-opacity="0.32" shape-rendering="crispEdges"/>
<rect x="157.32" y="288.18" width="197.357" height="60.2143" rx="30.1071" stroke="white" stroke-width="1.5" shape-rendering="crispEdges"/>
<path d="M192.983 309.697L194.911 307.768C195.748 306.931 197.105 306.931 197.942 307.768C198.778 308.605 198.778 309.962 197.942 310.799L185.806 322.934C185.202 323.539 184.457 323.983 183.638 324.227L180.569 325.141L181.483 322.072C181.727 321.253 182.171 320.508 182.776 319.904L192.983 309.697ZM192.983 309.697L195.998 312.712M194.283 320.569V325.998C194.283 327.418 193.132 328.569 191.712 328.569H179.712C178.292 328.569 177.141 327.418 177.141 325.998V313.998C177.141 312.578 178.292 311.426 179.712 311.426H185.141" stroke="url(#paint38_linear_8127_26554)" stroke-width="1.71429" stroke-linecap="round" stroke-linejoin="round"/>
<path d="M226.282 328.571C223.758 328.571 221.711 326.525 221.711 324V310.286C221.711 309.023 222.734 308 223.997 308H228.568C229.83 308 230.854 309.023 230.854 310.286V324C230.854 326.525 228.807 328.571 226.282 328.571ZM226.282 328.571H239.997C241.259 328.571 242.282 327.548 242.282 326.286V321.714C242.282 320.452 241.259 319.429 239.997 319.429H237.319M230.854 312.964L232.747 311.07C233.64 310.177 235.087 310.177 235.98 311.07L239.212 314.303C240.105 315.195 240.105 316.642 239.212 317.535L229.515 327.232M226.282 324H226.294" stroke="url(#paint39_linear_8127_26554)" stroke-width="1.71429" stroke-linecap="round" stroke-linejoin="round"/>
<path d="M274.073 322.745L273.144 325.998L272.215 322.745C271.726 321.036 270.391 319.701 268.682 319.213L265.43 318.283L268.682 317.354C270.391 316.866 271.726 315.53 272.215 313.822L273.144 310.569L274.073 313.822C274.561 315.53 275.897 316.866 277.605 317.354L280.858 318.283L277.605 319.213C275.897 319.701 274.561 321.036 274.073 322.745Z" stroke="url(#paint40_linear_8127_26554)" stroke-width="2" stroke-linecap="round" stroke-linejoin="round"/>
<path d="M283.726 314.529L283.43 315.712L283.134 314.529C282.788 313.147 281.709 312.068 280.327 311.722L279.144 311.426L280.327 311.13C281.709 310.785 282.788 309.706 283.134 308.324L283.43 307.141L283.726 308.324C284.071 309.706 285.15 310.785 286.532 311.13L287.715 311.426L286.532 311.722C285.15 312.068 284.071 313.147 283.726 314.529Z" stroke="url(#paint41_linear_8127_26554)" stroke-width="2" stroke-linecap="round" stroke-linejoin="round"/>
<path d="M282.166 328.075L281.715 329.426L281.265 328.075C281.009 327.307 280.406 326.704 279.639 326.448L278.287 325.998L279.639 325.547C280.406 325.291 281.009 324.689 281.265 323.921L281.715 322.569L282.166 323.921C282.422 324.689 283.024 325.291 283.792 325.547L285.144 325.998L283.792 326.448C283.024 326.704 282.422 327.307 282.166 328.075Z" stroke="url(#paint42_linear_8127_26554)" stroke-width="2" stroke-linecap="round" stroke-linejoin="round"/>
<path d="M325.246 320.992C325.365 321.498 325.429 322.026 325.429 322.569C325.429 326.356 322.359 329.426 318.571 329.426V323.941M325.246 320.992C329.514 317.873 332.286 312.831 332.286 307.141C326.596 307.141 321.554 309.913 318.436 314.18M325.246 320.992C323.294 322.418 321.028 323.442 318.571 323.941M318.436 314.18C317.929 314.061 317.4 313.998 316.857 313.998C313.07 313.998 310 317.068 310 320.855H315.487M318.436 314.18C317.009 316.133 315.985 318.399 315.487 320.855M318.571 323.941C318.453 323.965 318.335 323.988 318.216 324.009C317.179 323.187 316.24 322.248 315.418 321.212C315.44 321.092 315.462 320.973 315.487 320.855M312.928 323.587C311.671 324.525 310.857 326.023 310.857 327.712C310.857 327.983 310.878 328.249 310.918 328.508C311.178 328.548 311.444 328.569 311.714 328.569C313.403 328.569 314.902 327.755 315.839 326.498M326.286 314.855C326.286 315.802 325.518 316.569 324.571 316.569C323.625 316.569 322.857 315.802 322.857 314.855C322.857 313.908 323.625 313.141 324.571 313.141C325.518 313.141 326.286 313.908 326.286 314.855Z" stroke="url(#paint43_linear_8127_26554)" stroke-width="1.71429" stroke-linecap="round" stroke-linejoin="round"/>
</g>
<g filter="url(#filter3_bd_8127_26554)">
<rect x="16" y="120" width="64" height="64" rx="6" fill="white" fill-opacity="0.32" shape-rendering="crispEdges"/>
<rect x="16.5" y="120.5" width="63" height="63" rx="5.5" stroke="white" shape-rendering="crispEdges"/>
<path d="M49.83 163L41.79 142H45.9L54.18 163H49.83ZM33.24 163L41.52 142H45.63L37.59 163H33.24ZM37.14 158.38V154.75H50.31V158.38H37.14ZM56.366 163V148H60.326V163H56.366ZM58.346 145.57C57.746 145.57 57.216 145.35 56.756 144.91C56.296 144.45 56.066 143.91 56.066 143.29C56.066 142.67 56.296 142.14 56.756 141.7C57.216 141.24 57.746 141.01 58.346 141.01C58.966 141.01 59.496 141.24 59.936 141.7C60.396 142.14 60.626 142.67 60.626 143.29C60.626 143.91 60.396 144.45 59.936 144.91C59.496 145.35 58.966 145.57 58.346 145.57Z" fill="url(#paint44_linear_8127_26554)"/>
</g>
<g filter="url(#filter4_bd_8127_26554)">
<rect x="385" y="85" width="107" height="56" rx="6" fill="white" fill-opacity="0.32" shape-rendering="crispEdges"/>
<rect x="385.5" y="85.5" width="106" height="55" rx="5.5" stroke="white" shape-rendering="crispEdges"/>
<path fill-rule="evenodd" clip-rule="evenodd" d="M423.731 102.875V123.125H428.84V116.804C429.894 116.67 430.894 116.482 431.813 116.214C432.759 115.946 433.597 115.545 434.3 115.009C435.03 114.473 435.571 113.804 436.003 112.973C436.409 112.116 436.625 111.098 436.625 109.839C436.625 108.848 436.49 107.991 436.247 107.268C435.976 106.518 435.652 105.902 435.192 105.393C434.76 104.884 434.219 104.455 433.624 104.134C433.03 103.813 432.354 103.545 431.651 103.357C430.975 103.17 430.218 103.063 429.434 102.982C428.651 102.902 427.867 102.875 427.083 102.875H423.731ZM429.894 111.768C429.651 111.875 429.326 111.902 428.975 111.902V107.348H429.407C429.732 107.348 430.002 107.429 430.218 107.562C430.435 107.696 430.624 107.857 430.732 108.098C430.867 108.313 430.948 108.554 431.002 108.848C431.083 109.116 431.083 109.384 431.083 109.705C431.083 110.027 431.029 110.321 430.948 110.589C430.867 110.884 430.732 111.098 430.543 111.312C430.381 111.5 430.164 111.661 429.894 111.768Z" fill="#111827"/>
<path d="M421.532 103.063V123.072H416.612V103.063H421.532Z" fill="#111827"/>
<path d="M407.353 107.723H402.162V103.116H414.949L408.245 118.598H414.002V123.071H401L407.353 107.75V107.723Z" fill="#111827"/>
<path d="M475.841 106.257L475.828 106.259C475.823 106.259 475.819 106.259 475.815 106.26L475.841 106.257Z" fill="#FF580E"/>
<path d="M462.324 111.592C462.397 111.664 462.397 111.857 462.397 111.857L462.204 112.943C462.18 113.039 462.131 113.136 462.035 113.208C461.939 113.28 461.746 113.304 461.746 113.304H459.021C458.949 113.304 458.949 113.232 458.949 113.232L459.238 111.592C459.262 111.519 459.335 111.495 459.335 111.495H462.083C462.18 111.495 462.276 111.519 462.324 111.592Z" fill="#FF580E"/>
<path fill-rule="evenodd" clip-rule="evenodd" d="M475.828 106.259C475.951 106.256 476.031 106.355 475.988 106.464C475.545 107.534 473.257 111.991 465.355 115.712C465.202 115.779 465.247 116.02 465.404 116.008L472.043 116.038C472.176 116.055 472.268 116.211 472.169 116.301C470.72 117.994 461.943 127.398 449.018 124.422C443.922 123.237 440.396 118.523 440.375 112.828C440.355 107.133 443.781 102.751 449.557 101.839C456.085 100.787 467.032 101 468.774 101.055C468.879 101.047 468.968 101.176 468.896 101.264C468.523 101.892 467.174 103.851 463.515 106.588C463.414 106.65 463.457 106.865 463.588 106.855C464.856 106.92 469.096 106.972 475.828 106.259ZM456.489 109.687C456.489 109.687 456.634 109.711 456.682 109.783C456.706 109.856 456.706 109.928 456.682 110L452.945 116.707C452.849 116.9 452.704 116.972 452.511 116.972H451.04C451.04 116.972 450.871 116.972 450.799 116.9C450.727 116.828 450.703 116.779 450.678 116.707L450.027 113.378C450.027 113.378 450.003 113.305 449.931 113.305C449.859 113.305 449.835 113.305 449.835 113.354L447.93 116.731C447.833 116.9 447.664 116.996 447.496 116.996H446.025C446.025 116.996 445.856 116.996 445.808 116.924C445.736 116.876 445.711 116.803 445.687 116.731L444.409 110.024C444.409 110.024 444.409 109.88 444.482 109.807C444.554 109.735 444.626 109.711 444.699 109.711H446.435C446.435 109.711 446.604 109.711 446.652 109.783C446.666 109.805 446.681 109.824 446.694 109.843C446.727 109.886 446.755 109.925 446.772 109.976L447.447 113.378C447.447 113.378 447.472 113.45 447.544 113.45C447.616 113.45 447.64 113.45 447.664 113.402L449.569 109.952C449.666 109.783 449.81 109.687 450.003 109.687H451.209C451.209 109.687 451.378 109.687 451.45 109.759C451.522 109.807 451.546 109.88 451.571 109.952L452.222 113.354C452.222 113.354 452.27 113.426 452.318 113.45C452.366 113.474 452.415 113.45 452.415 113.402L454.343 109.952C454.44 109.783 454.585 109.687 454.777 109.687H456.489ZM464.398 113.232L464.687 111.567L464.711 111.543C464.808 111.013 464.687 110.554 464.374 110.192C464.06 109.831 463.626 109.638 463.096 109.638H457.815C457.695 109.638 457.598 109.686 457.502 109.758C457.406 109.831 457.333 110.048 457.333 110.048L456.152 116.561C456.128 116.682 456.152 116.778 456.224 116.851C456.296 116.923 456.489 116.971 456.489 116.971H457.888C458.008 116.971 458.105 116.923 458.201 116.851C458.298 116.778 458.37 116.561 458.37 116.561L458.611 115.21C458.611 115.162 458.708 115.138 458.708 115.138H462.083C462.638 115.138 463.12 114.945 463.578 114.583C464.012 114.221 464.302 113.763 464.398 113.232Z" fill="#FF580E"/>
</g>
<g filter="url(#filter5_bd_8127_26554)">
<rect x="398" y="214" width="98" height="94" rx="6" fill="white" fill-opacity="0.24" shape-rendering="crispEdges"/>
<rect x="398.5" y="214.5" width="97" height="93" rx="5.5" stroke="white" shape-rendering="crispEdges"/>
<path d="M404 222C404 220.895 404.895 220 406 220H488C489.105 220 490 220.895 490 222V282C490 283.105 489.105 284 488 284H406C404.895 284 404 283.105 404 282V222Z" fill="url(#paint45_linear_8127_26554)"/>
<circle cx="410" cy="296" r="6" fill="#BD09A1"/>
<circle cx="428.5" cy="296" r="6" fill="#FB7D3A"/>
<circle cx="447" cy="296" r="6" fill="#0F172A"/>
<circle cx="465.5" cy="296" r="6" fill="#475569"/>
<circle cx="484" cy="296" r="6" fill="#D9D9D9"/>
</g>
<defs>
<filter id="filter0_d_8127_26554" x="36.9143" y="27.1406" width="438.171" height="314.742" filterUnits="userSpaceOnUse" color-interpolation-filters="sRGB">
<feFlood flood-opacity="0" result="BackgroundImageFix"/>
<feColorMatrix in="SourceAlpha" type="matrix" values="0 0 0 0 0 0 0 0 0 0 0 0 0 0 0 0 0 0 127 0" result="hardAlpha"/>
<feMorphology radius="3.08572" operator="erode" in="SourceAlpha" result="effect1_dropShadow_8127_26554"/>
<feOffset dy="3.08572"/>
<feGaussianBlur stdDeviation="3.08572"/>
<feComposite in2="hardAlpha" operator="out"/>
<feColorMatrix type="matrix" values="0 0 0 0 0 0 0 0 0 0 0 0 0 0 0 0 0 0 0.08 0"/>
<feBlend mode="normal" in2="BackgroundImageFix" result="effect1_dropShadow_8127_26554"/>
<feBlend mode="normal" in="SourceGraphic" in2="effect1_dropShadow_8127_26554" result="shape"/>
</filter>
<filter id="filter1_bd_8127_26554" x="139.424" y="85.433" width="233.144" height="233.144" filterUnits="userSpaceOnUse" color-interpolation-filters="sRGB">
<feFlood flood-opacity="0" result="BackgroundImageFix"/>
<feGaussianBlur in="BackgroundImageFix" stdDeviation="3.42857"/>
<feComposite in2="SourceAlpha" operator="in" result="effect1_backgroundBlur_8127_26554"/>
<feColorMatrix in="SourceAlpha" type="matrix" values="0 0 0 0 0 0 0 0 0 0 0 0 0 0 0 0 0 0 127 0" result="hardAlpha"/>
<feMorphology radius="13.7143" operator="erode" in="SourceAlpha" result="effect2_dropShadow_8127_26554"/>
<feOffset dy="20.5714"/>
<feGaussianBlur stdDeviation="34.2857"/>
<feComposite in2="hardAlpha" operator="out"/>
<feColorMatrix type="matrix" values="0 0 0 0 0 0 0 0 0 0 0 0 0 0 0 0 0 0 0.08 0"/>
<feBlend mode="normal" in2="effect1_backgroundBlur_8127_26554" result="effect2_dropShadow_8127_26554"/>
<feBlend mode="normal" in="SourceGraphic" in2="effect2_dropShadow_8127_26554" result="shape"/>
</filter>
<filter id="filter2_bd_8127_26554" x="148.57" y="280.573" width="214.859" height="92.5681" filterUnits="userSpaceOnUse" color-interpolation-filters="sRGB">
<feFlood flood-opacity="0" result="BackgroundImageFix"/>
<feGaussianBlur in="BackgroundImageFix" stdDeviation="3.42857"/>
<feComposite in2="SourceAlpha" operator="in" result="effect1_backgroundBlur_8127_26554"/>
<feColorMatrix in="SourceAlpha" type="matrix" values="0 0 0 0 0 0 0 0 0 0 0 0 0 0 0 0 0 0 127 0" result="hardAlpha"/>
<feMorphology radius="16" operator="erode" in="SourceAlpha" result="effect2_dropShadow_8127_26554"/>
<feOffset dy="16"/>
<feGaussianBlur stdDeviation="12"/>
<feComposite in2="hardAlpha" operator="out"/>
<feColorMatrix type="matrix" values="0 0 0 0 0 0 0 0 0 0 0 0 0 0 0 0 0 0 0.12 0"/>
<feBlend mode="normal" in2="effect1_backgroundBlur_8127_26554" result="effect2_dropShadow_8127_26554"/>
<feBlend mode="normal" in="SourceGraphic" in2="effect2_dropShadow_8127_26554" result="shape"/>
</filter>
<filter id="filter3_bd_8127_26554" x="0" y="112" width="128" height="128" filterUnits="userSpaceOnUse" color-interpolation-filters="sRGB">
<feFlood flood-opacity="0" result="BackgroundImageFix"/>
<feGaussianBlur in="BackgroundImageFix" stdDeviation="3"/>
<feComposite in2="SourceAlpha" operator="in" result="effect1_backgroundBlur_8127_26554"/>
<feColorMatrix in="SourceAlpha" type="matrix" values="0 0 0 0 0 0 0 0 0 0 0 0 0 0 0 0 0 0 127 0" result="hardAlpha"/>
<feMorphology radius="8" operator="erode" in="SourceAlpha" result="effect2_dropShadow_8127_26554"/>
<feOffset dx="16" dy="24"/>
<feGaussianBlur stdDeviation="20"/>
<feComposite in2="hardAlpha" operator="out"/>
<feColorMatrix type="matrix" values="0 0 0 0 0 0 0 0 0 0 0 0 0 0 0 0 0 0 0.12 0"/>
<feBlend mode="normal" in2="effect1_backgroundBlur_8127_26554" result="effect2_dropShadow_8127_26554"/>
<feBlend mode="normal" in="SourceGraphic" in2="effect2_dropShadow_8127_26554" result="shape"/>
</filter>
<filter id="filter4_bd_8127_26554" x="337" y="77" width="171" height="120" filterUnits="userSpaceOnUse" color-interpolation-filters="sRGB">
<feFlood flood-opacity="0" result="BackgroundImageFix"/>
<feGaussianBlur in="BackgroundImageFix" stdDeviation="3"/>
<feComposite in2="SourceAlpha" operator="in" result="effect1_backgroundBlur_8127_26554"/>
<feColorMatrix in="SourceAlpha" type="matrix" values="0 0 0 0 0 0 0 0 0 0 0 0 0 0 0 0 0 0 127 0" result="hardAlpha"/>
<feMorphology radius="8" operator="erode" in="SourceAlpha" result="effect2_dropShadow_8127_26554"/>
<feOffset dx="-16" dy="24"/>
<feGaussianBlur stdDeviation="20"/>
<feComposite in2="hardAlpha" operator="out"/>
<feColorMatrix type="matrix" values="0 0 0 0 0 0 0 0 0 0 0 0 0 0 0 0 0 0 0.12 0"/>
<feBlend mode="normal" in2="effect1_backgroundBlur_8127_26554" result="effect2_dropShadow_8127_26554"/>
<feBlend mode="normal" in="SourceGraphic" in2="effect2_dropShadow_8127_26554" result="shape"/>
</filter>
<filter id="filter5_bd_8127_26554" x="350" y="206" width="162" height="158" filterUnits="userSpaceOnUse" color-interpolation-filters="sRGB">
<feFlood flood-opacity="0" result="BackgroundImageFix"/>
<feGaussianBlur in="BackgroundImageFix" stdDeviation="3"/>
<feComposite in2="SourceAlpha" operator="in" result="effect1_backgroundBlur_8127_26554"/>
<feColorMatrix in="SourceAlpha" type="matrix" values="0 0 0 0 0 0 0 0 0 0 0 0 0 0 0 0 0 0 127 0" result="hardAlpha"/>
<feMorphology radius="8" operator="erode" in="SourceAlpha" result="effect2_dropShadow_8127_26554"/>
<feOffset dx="-16" dy="24"/>
<feGaussianBlur stdDeviation="20"/>
<feComposite in2="hardAlpha" operator="out"/>
<feColorMatrix type="matrix" values="0 0 0 0 0 0 0 0 0 0 0 0 0 0 0 0 0 0 0.12 0"/>
<feBlend mode="normal" in2="effect1_backgroundBlur_8127_26554" result="effect2_dropShadow_8127_26554"/>
<feBlend mode="normal" in="SourceGraphic" in2="effect2_dropShadow_8127_26554" result="shape"/>
</filter>
<linearGradient id="paint0_linear_8127_26554" x1="40" y1="27.1406" x2="472" y2="335.712" gradientUnits="userSpaceOnUse">
<stop stop-color="#B809A7"/>
<stop offset="0.46875" stop-color="#E90B76"/>
<stop offset="1" stop-color="#FC8536"/>
</linearGradient>
<linearGradient id="paint1_linear_8127_26554" x1="64" y1="181.421" x2="447.998" y2="181.421" gradientUnits="userSpaceOnUse">
<stop stop-color="#D1DAE5" stop-opacity="0.25"/>
<stop offset="1" stop-color="#D1DAE5" stop-opacity="0"/>
</linearGradient>
<linearGradient id="paint2_linear_8127_26554" x1="84.4531" y1="68.6077" x2="146.736" y2="68.6077" gradientUnits="userSpaceOnUse">
<stop stop-color="#D1DAE5"/>
<stop offset="1" stop-color="#D1DAE5" stop-opacity="0.25"/>
<stop offset="1" stop-color="#D1DAE5" stop-opacity="0"/>
</linearGradient>
<linearGradient id="paint3_linear_8127_26554" x1="381.112" y1="73.5234" x2="381.112" y2="300.8" gradientUnits="userSpaceOnUse">
<stop stop-color="#D1DAE5" stop-opacity="0.25"/>
<stop offset="1" stop-color="#D1DAE5" stop-opacity="0"/>
</linearGradient>
<linearGradient id="paint4_linear_8127_26554" x1="338.781" y1="117.418" x2="423.455" y2="117.418" gradientUnits="userSpaceOnUse">
<stop stop-color="#D1DAE5"/>
<stop offset="1" stop-color="#D1DAE5" stop-opacity="0.25"/>
<stop offset="1" stop-color="#D1DAE5" stop-opacity="0"/>
</linearGradient>
<linearGradient id="paint5_linear_8127_26554" x1="338.781" y1="124.981" x2="411.359" y2="124.981" gradientUnits="userSpaceOnUse">
<stop stop-color="#D1DAE5"/>
<stop offset="1" stop-color="#D1DAE5" stop-opacity="0.25"/>
<stop offset="1" stop-color="#D1DAE5" stop-opacity="0"/>
</linearGradient>
<linearGradient id="paint6_linear_8127_26554" x1="338.781" y1="132.543" x2="393.214" y2="132.543" gradientUnits="userSpaceOnUse">
<stop stop-color="#D1DAE5"/>
<stop offset="1" stop-color="#D1DAE5" stop-opacity="0.25"/>
<stop offset="1" stop-color="#D1DAE5" stop-opacity="0"/>
</linearGradient>
<linearGradient id="paint7_linear_8127_26554" x1="338.781" y1="103.814" x2="350.877" y2="103.814" gradientUnits="userSpaceOnUse">
<stop stop-color="#D1DAE5"/>
<stop offset="1" stop-color="#D1DAE5" stop-opacity="0.25"/>
<stop offset="1" stop-color="#D1DAE5" stop-opacity="0"/>
</linearGradient>
<linearGradient id="paint8_linear_8127_26554" x1="338.781" y1="188.668" x2="423.455" y2="188.668" gradientUnits="userSpaceOnUse">
<stop stop-color="#D1DAE5"/>
<stop offset="1" stop-color="#D1DAE5" stop-opacity="0.25"/>
<stop offset="1" stop-color="#D1DAE5" stop-opacity="0"/>
</linearGradient>
<linearGradient id="paint9_linear_8127_26554" x1="338.781" y1="196.231" x2="411.359" y2="196.231" gradientUnits="userSpaceOnUse">
<stop stop-color="#D1DAE5"/>
<stop offset="1" stop-color="#D1DAE5" stop-opacity="0.25"/>
<stop offset="1" stop-color="#D1DAE5" stop-opacity="0"/>
</linearGradient>
<linearGradient id="paint10_linear_8127_26554" x1="338.781" y1="203.793" x2="393.214" y2="203.793" gradientUnits="userSpaceOnUse">
<stop stop-color="#D1DAE5"/>
<stop offset="1" stop-color="#D1DAE5" stop-opacity="0.25"/>
<stop offset="1" stop-color="#D1DAE5" stop-opacity="0"/>
</linearGradient>
<linearGradient id="paint11_linear_8127_26554" x1="338.781" y1="175.064" x2="350.877" y2="175.064" gradientUnits="userSpaceOnUse">
<stop stop-color="#D1DAE5"/>
<stop offset="1" stop-color="#D1DAE5" stop-opacity="0.25"/>
<stop offset="1" stop-color="#D1DAE5" stop-opacity="0"/>
</linearGradient>
<linearGradient id="paint12_linear_8127_26554" x1="338.781" y1="259.926" x2="423.455" y2="259.926" gradientUnits="userSpaceOnUse">
<stop stop-color="#D1DAE5"/>
<stop offset="1" stop-color="#D1DAE5" stop-opacity="0.25"/>
<stop offset="1" stop-color="#D1DAE5" stop-opacity="0"/>
</linearGradient>
<linearGradient id="paint13_linear_8127_26554" x1="338.781" y1="267.489" x2="411.359" y2="267.489" gradientUnits="userSpaceOnUse">
<stop stop-color="#D1DAE5"/>
<stop offset="1" stop-color="#D1DAE5" stop-opacity="0.25"/>
<stop offset="1" stop-color="#D1DAE5" stop-opacity="0"/>
</linearGradient>
<linearGradient id="paint14_linear_8127_26554" x1="338.781" y1="275.051" x2="393.214" y2="275.051" gradientUnits="userSpaceOnUse">
<stop stop-color="#D1DAE5"/>
<stop offset="1" stop-color="#D1DAE5" stop-opacity="0.25"/>
<stop offset="1" stop-color="#D1DAE5" stop-opacity="0"/>
</linearGradient>
<linearGradient id="paint15_linear_8127_26554" x1="338.781" y1="246.321" x2="350.877" y2="246.321" gradientUnits="userSpaceOnUse">
<stop stop-color="#D1DAE5"/>
<stop offset="1" stop-color="#D1DAE5" stop-opacity="0.25"/>
<stop offset="1" stop-color="#D1DAE5" stop-opacity="0"/>
</linearGradient>
<linearGradient id="paint16_linear_8127_26554" x1="84.4531" y1="105.756" x2="146.736" y2="105.756" gradientUnits="userSpaceOnUse">
<stop stop-color="#D1DAE5"/>
<stop offset="1" stop-color="#D1DAE5" stop-opacity="0.25"/>
<stop offset="1" stop-color="#D1DAE5" stop-opacity="0"/>
</linearGradient>
<linearGradient id="paint17_linear_8127_26554" x1="84.4531" y1="143.998" x2="146.736" y2="143.998" gradientUnits="userSpaceOnUse">
<stop stop-color="#D1DAE5"/>
<stop offset="1" stop-color="#D1DAE5" stop-opacity="0.25"/>
<stop offset="1" stop-color="#D1DAE5" stop-opacity="0"/>
</linearGradient>
<linearGradient id="paint18_linear_8127_26554" x1="84.4531" y1="185.522" x2="146.736" y2="185.522" gradientUnits="userSpaceOnUse">
<stop stop-color="#D1DAE5"/>
<stop offset="1" stop-color="#D1DAE5" stop-opacity="0.25"/>
<stop offset="1" stop-color="#D1DAE5" stop-opacity="0"/>
</linearGradient>
<linearGradient id="paint19_linear_8127_26554" x1="84.4531" y1="84.9974" x2="308.452" y2="84.9974" gradientUnits="userSpaceOnUse">
<stop stop-color="#D1DAE5"/>
<stop offset="1" stop-color="#D1DAE5" stop-opacity="0.25"/>
<stop offset="1" stop-color="#D1DAE5" stop-opacity="0"/>
</linearGradient>
<linearGradient id="paint20_linear_8127_26554" x1="84.4531" y1="122.146" x2="308.452" y2="122.146" gradientUnits="userSpaceOnUse">
<stop stop-color="#D1DAE5"/>
<stop offset="1" stop-color="#D1DAE5" stop-opacity="0.25"/>
<stop offset="1" stop-color="#D1DAE5" stop-opacity="0"/>
</linearGradient>
<linearGradient id="paint21_linear_8127_26554" x1="84.4531" y1="160.388" x2="308.452" y2="160.388" gradientUnits="userSpaceOnUse">
<stop stop-color="#D1DAE5"/>
<stop offset="1" stop-color="#D1DAE5" stop-opacity="0.25"/>
<stop offset="1" stop-color="#D1DAE5" stop-opacity="0"/>
</linearGradient>
<linearGradient id="paint22_linear_8127_26554" x1="84.4531" y1="223.766" x2="308.452" y2="223.766" gradientUnits="userSpaceOnUse">
<stop stop-color="#D1DAE5"/>
<stop offset="1" stop-color="#D1DAE5" stop-opacity="0.25"/>
<stop offset="1" stop-color="#D1DAE5" stop-opacity="0"/>
</linearGradient>
<linearGradient id="paint23_linear_8127_26554" x1="84.4531" y1="282.062" x2="142.485" y2="282.062" gradientUnits="userSpaceOnUse">
<stop stop-color="#D1DAE5"/>
<stop offset="1" stop-color="#D1DAE5" stop-opacity="0.25"/>
<stop offset="1" stop-color="#D1DAE5" stop-opacity="0"/>
</linearGradient>
<linearGradient id="paint24_linear_8127_26554" x1="152.156" y1="282.062" x2="210.188" y2="282.062" gradientUnits="userSpaceOnUse">
<stop stop-color="#D1DAE5"/>
<stop offset="1" stop-color="#D1DAE5" stop-opacity="0.25"/>
<stop offset="1" stop-color="#D1DAE5" stop-opacity="0"/>
</linearGradient>
<radialGradient id="paint25_angular_8127_26554" cx="0" cy="0" r="1" gradientUnits="userSpaceOnUse" gradientTransform="translate(255.994 181.432) rotate(98.2971) scale(41.5781)">
<stop stop-color="#B809A7" stop-opacity="0"/>
<stop offset="0.46875" stop-color="#E90B76"/>
<stop offset="1" stop-color="#FC8536"/>
</radialGradient>
<radialGradient id="paint26_angular_8127_26554" cx="0" cy="0" r="1" gradientUnits="userSpaceOnUse" gradientTransform="translate(255.994 181.432) rotate(98.2971) scale(41.5781)">
<stop stop-color="#B809A7" stop-opacity="0"/>
<stop offset="0.46875" stop-color="#E90B76"/>
<stop offset="1" stop-color="#FC8536"/>
</radialGradient>
<radialGradient id="paint27_angular_8127_26554" cx="0" cy="0" r="1" gradientUnits="userSpaceOnUse" gradientTransform="translate(255.994 181.432) rotate(98.2971) scale(41.5781)">
<stop stop-color="#B809A7" stop-opacity="0"/>
<stop offset="0.46875" stop-color="#E90B76"/>
<stop offset="1" stop-color="#FC8536"/>
</radialGradient>
<radialGradient id="paint28_angular_8127_26554" cx="0" cy="0" r="1" gradientUnits="userSpaceOnUse" gradientTransform="translate(255.994 181.432) rotate(98.2971) scale(41.5781)">
<stop stop-color="#B809A7" stop-opacity="0"/>
<stop offset="0.46875" stop-color="#E90B76"/>
<stop offset="1" stop-color="#FC8536"/>
</radialGradient>
<radialGradient id="paint29_angular_8127_26554" cx="0" cy="0" r="1" gradientUnits="userSpaceOnUse" gradientTransform="translate(255.994 181.432) rotate(98.2971) scale(41.5781)">
<stop stop-color="#B809A7" stop-opacity="0"/>
<stop offset="0.46875" stop-color="#E90B76"/>
<stop offset="1" stop-color="#FC8536"/>
</radialGradient>
<radialGradient id="paint30_angular_8127_26554" cx="0" cy="0" r="1" gradientUnits="userSpaceOnUse" gradientTransform="translate(255.994 181.432) rotate(98.2971) scale(41.5781)">
<stop stop-color="#B809A7" stop-opacity="0"/>
<stop offset="0.46875" stop-color="#E90B76"/>
<stop offset="1" stop-color="#FC8536"/>
</radialGradient>
<radialGradient id="paint31_angular_8127_26554" cx="0" cy="0" r="1" gradientUnits="userSpaceOnUse" gradientTransform="translate(255.994 181.432) rotate(98.2971) scale(41.5781)">
<stop stop-color="#B809A7" stop-opacity="0"/>
<stop offset="0.46875" stop-color="#E90B76"/>
<stop offset="1" stop-color="#FC8536"/>
</radialGradient>
<radialGradient id="paint32_angular_8127_26554" cx="0" cy="0" r="1" gradientUnits="userSpaceOnUse" gradientTransform="translate(255.994 181.432) rotate(98.2971) scale(41.5781)">
<stop stop-color="#B809A7" stop-opacity="0"/>
<stop offset="0.46875" stop-color="#E90B76"/>
<stop offset="1" stop-color="#FC8536"/>
</radialGradient>
<radialGradient id="paint33_angular_8127_26554" cx="0" cy="0" r="1" gradientUnits="userSpaceOnUse" gradientTransform="translate(255.994 181.432) rotate(98.2971) scale(41.5781)">
<stop stop-color="#B809A7" stop-opacity="0"/>
<stop offset="0.46875" stop-color="#E90B76"/>
<stop offset="1" stop-color="#FC8536"/>
</radialGradient>
<radialGradient id="paint34_angular_8127_26554" cx="0" cy="0" r="1" gradientUnits="userSpaceOnUse" gradientTransform="translate(255.994 181.432) rotate(98.2971) scale(41.5781)">
<stop stop-color="#B809A7" stop-opacity="0"/>
<stop offset="0.46875" stop-color="#E90B76"/>
<stop offset="1" stop-color="#FC8536"/>
</radialGradient>
<radialGradient id="paint35_angular_8127_26554" cx="0" cy="0" r="1" gradientUnits="userSpaceOnUse" gradientTransform="translate(255.994 181.432) rotate(98.2971) scale(41.5781)">
<stop stop-color="#B809A7" stop-opacity="0"/>
<stop offset="0.46875" stop-color="#E90B76"/>
<stop offset="1" stop-color="#FC8536"/>
</radialGradient>
<radialGradient id="paint36_angular_8127_26554" cx="0" cy="0" r="1" gradientUnits="userSpaceOnUse" gradientTransform="translate(255.994 181.432) rotate(98.2971) scale(41.5781)">
<stop stop-color="#B809A7" stop-opacity="0"/>
<stop offset="0.46875" stop-color="#E90B76"/>
<stop offset="1" stop-color="#FC8536"/>
</radialGradient>
<linearGradient id="paint37_linear_8127_26554" x1="240.563" y1="181.429" x2="271.42" y2="181.429" gradientUnits="userSpaceOnUse">
<stop stop-color="#B809A7"/>
<stop offset="0.46875" stop-color="#E90B76"/>
<stop offset="1" stop-color="#FC8536"/>
</linearGradient>
<linearGradient id="paint38_linear_8127_26554" x1="177.141" y1="317.855" x2="198.569" y2="317.855" gradientUnits="userSpaceOnUse">
<stop stop-color="#B809A7"/>
<stop offset="0.46875" stop-color="#E90B76"/>
<stop offset="1" stop-color="#FC8536"/>
</linearGradient>
<linearGradient id="paint39_linear_8127_26554" x1="221.711" y1="318.286" x2="242.282" y2="318.286" gradientUnits="userSpaceOnUse">
<stop stop-color="#B809A7"/>
<stop offset="0.46875" stop-color="#E90B76"/>
<stop offset="1" stop-color="#FC8536"/>
</linearGradient>
<linearGradient id="paint40_linear_8127_26554" x1="265.43" y1="318.283" x2="287.715" y2="318.283" gradientUnits="userSpaceOnUse">
<stop stop-color="#B809A7"/>
<stop offset="0.46875" stop-color="#E90B76"/>
<stop offset="1" stop-color="#FC8536"/>
</linearGradient>
<linearGradient id="paint41_linear_8127_26554" x1="265.43" y1="318.283" x2="287.715" y2="318.283" gradientUnits="userSpaceOnUse">
<stop stop-color="#B809A7"/>
<stop offset="0.46875" stop-color="#E90B76"/>
<stop offset="1" stop-color="#FC8536"/>
</linearGradient>
<linearGradient id="paint42_linear_8127_26554" x1="265.43" y1="318.283" x2="287.715" y2="318.283" gradientUnits="userSpaceOnUse">
<stop stop-color="#B809A7"/>
<stop offset="0.46875" stop-color="#E90B76"/>
<stop offset="1" stop-color="#FC8536"/>
</linearGradient>
<linearGradient id="paint43_linear_8127_26554" x1="310" y1="318.283" x2="332.286" y2="318.283" gradientUnits="userSpaceOnUse">
<stop stop-color="#B809A7"/>
<stop offset="0.46875" stop-color="#E90B76"/>
<stop offset="1" stop-color="#FC8536"/>
</linearGradient>
<linearGradient id="paint44_linear_8127_26554" x1="33" y1="152" x2="63" y2="152" gradientUnits="userSpaceOnUse">
<stop stop-color="#B809A7"/>
<stop offset="0.46875" stop-color="#E90B76"/>
<stop offset="1" stop-color="#FC8536"/>
</linearGradient>
<linearGradient id="paint45_linear_8127_26554" x1="404" y1="220" x2="490" y2="284" gradientUnits="userSpaceOnUse">
<stop stop-color="#B809A7"/>
<stop offset="0.46875" stop-color="#E90B76"/>
<stop offset="1" stop-color="#FC8536"/>
</linearGradient>
</defs>
</svg>
