<svg width="480" height="344" viewBox="0 0 480 344" fill="none" xmlns="http://www.w3.org/2000/svg">
<g clip-path="url(#clip0_8127_26427)">
<mask id="mask0_8127_26427" style="mask-type:alpha" maskUnits="userSpaceOnUse" x="0" y="0" width="480" height="345">
<rect width="480" height="344.571" fill="url(#paint0_radial_8127_26427)"/>
</mask>
<g mask="url(#mask0_8127_26427)">
<line x1="11.1462" y1="1.71094" x2="11.1462" y2="344.568" stroke="#E4EAF1" stroke-width="1.71429"/>
<line x1="28.2868" y1="1.71094" x2="28.2868" y2="344.568" stroke="#E4EAF1" stroke-width="1.71429"/>
<line x1="45.4275" y1="1.71094" x2="45.4274" y2="344.568" stroke="#E4EAF1" stroke-width="1.71429"/>
<line x1="62.5759" y1="1.71094" x2="62.5759" y2="344.568" stroke="#E4EAF1" stroke-width="1.71429"/>
<line x1="79.7165" y1="1.71094" x2="79.7165" y2="344.568" stroke="#E4EAF1" stroke-width="1.71429"/>
<line x1="96.8571" y1="1.71094" x2="96.8571" y2="344.568" stroke="#E4EAF1" stroke-width="1.71429"/>
<line x1="114.006" y1="1.71094" x2="114.006" y2="344.568" stroke="#E4EAF1" stroke-width="1.71429"/>
<line x1="131.146" y1="1.71094" x2="131.146" y2="344.568" stroke="#E4EAF1" stroke-width="1.71429"/>
<line x1="148.287" y1="1.71094" x2="148.287" y2="344.568" stroke="#E4EAF1" stroke-width="1.71429"/>
<line x1="165.427" y1="1.71094" x2="165.427" y2="344.568" stroke="#E4EAF1" stroke-width="1.71429"/>
<line x1="182.576" y1="1.71094" x2="182.576" y2="344.568" stroke="#E4EAF1" stroke-width="1.71429"/>
<line x1="199.717" y1="1.71094" x2="199.717" y2="344.568" stroke="#E4EAF1" stroke-width="1.71429"/>
<line x1="216.857" y1="1.71094" x2="216.857" y2="344.568" stroke="#E4EAF1" stroke-width="1.71429"/>
<line x1="234.006" y1="1.71094" x2="234.006" y2="344.568" stroke="#E4EAF1" stroke-width="1.71429"/>
<line x1="251.146" y1="1.71094" x2="251.146" y2="344.568" stroke="#E4EAF1" stroke-width="1.71429"/>
<line x1="268.287" y1="1.71094" x2="268.287" y2="344.568" stroke="#E4EAF1" stroke-width="1.71429"/>
<line x1="285.427" y1="1.71094" x2="285.427" y2="344.568" stroke="#E4EAF1" stroke-width="1.71429"/>
<line x1="302.576" y1="1.71094" x2="302.576" y2="344.568" stroke="#E4EAF1" stroke-width="1.71429"/>
<line x1="319.717" y1="1.71094" x2="319.716" y2="344.568" stroke="#E4EAF1" stroke-width="1.71429"/>
<line x1="336.857" y1="1.71094" x2="336.857" y2="344.568" stroke="#E4EAF1" stroke-width="1.71429"/>
<line x1="354.006" y1="1.71094" x2="354.006" y2="344.568" stroke="#E4EAF1" stroke-width="1.71429"/>
<line x1="371.146" y1="1.71094" x2="371.146" y2="344.568" stroke="#E4EAF1" stroke-width="1.71429"/>
<line x1="388.287" y1="1.71094" x2="388.287" y2="344.568" stroke="#E4EAF1" stroke-width="1.71429"/>
<line x1="405.427" y1="1.71094" x2="405.427" y2="344.568" stroke="#E4EAF1" stroke-width="1.71429"/>
<line x1="422.576" y1="1.71094" x2="422.576" y2="344.568" stroke="#E4EAF1" stroke-width="1.71429"/>
<line x1="439.717" y1="1.71094" x2="439.716" y2="344.568" stroke="#E4EAF1" stroke-width="1.71429"/>
<line x1="456.857" y1="1.71094" x2="456.857" y2="344.568" stroke="#E4EAF1" stroke-width="1.71429"/>
<line x1="474.006" y1="1.71094" x2="474.006" y2="344.568" stroke="#E4EAF1" stroke-width="1.71429"/>
<line x1="8.57813" y1="335.135" x2="476.578" y2="335.135" stroke="#E4EAF1" stroke-width="1.71429"/>
<line x1="8.57813" y1="317.994" x2="476.578" y2="317.994" stroke="#E4EAF1" stroke-width="1.71429"/>
<line x1="8.57813" y1="300.854" x2="476.578" y2="300.854" stroke="#E4EAF1" stroke-width="1.71429"/>
<line x1="8.57813" y1="283.705" x2="476.578" y2="283.705" stroke="#E4EAF1" stroke-width="1.71429"/>
<line x1="8.57813" y1="266.565" x2="476.578" y2="266.565" stroke="#E4EAF1" stroke-width="1.71429"/>
<line x1="8.57813" y1="249.424" x2="476.578" y2="249.424" stroke="#E4EAF1" stroke-width="1.71429"/>
<line x1="8.57813" y1="232.276" x2="476.578" y2="232.276" stroke="#E4EAF1" stroke-width="1.71429"/>
<line x1="8.57813" y1="215.135" x2="476.578" y2="215.135" stroke="#E4EAF1" stroke-width="1.71429"/>
<line x1="8.57813" y1="197.994" x2="476.578" y2="197.994" stroke="#E4EAF1" stroke-width="1.71429"/>
<line x1="8.57813" y1="180.854" x2="476.578" y2="180.854" stroke="#E4EAF1" stroke-width="1.71429"/>
<line x1="8.57813" y1="163.705" x2="476.578" y2="163.705" stroke="#E4EAF1" stroke-width="1.71429"/>
<line x1="8.57813" y1="146.565" x2="476.578" y2="146.565" stroke="#E4EAF1" stroke-width="1.71429"/>
<line x1="8.57813" y1="129.424" x2="476.578" y2="129.424" stroke="#E4EAF1" stroke-width="1.71429"/>
<line x1="8.57813" y1="112.276" x2="476.578" y2="112.276" stroke="#E4EAF1" stroke-width="1.71429"/>
<line x1="8.57813" y1="95.135" x2="476.578" y2="95.135" stroke="#E4EAF1" stroke-width="1.71429"/>
<line x1="8.57813" y1="77.9944" x2="476.578" y2="77.9944" stroke="#E4EAF1" stroke-width="1.71429"/>
<line x1="8.57813" y1="60.8538" x2="476.578" y2="60.8538" stroke="#E4EAF1" stroke-width="1.71429"/>
<line x1="8.57813" y1="43.7054" x2="476.578" y2="43.7054" stroke="#E4EAF1" stroke-width="1.71429"/>
<line x1="8.57813" y1="26.5647" x2="476.578" y2="26.5647" stroke="#E4EAF1" stroke-width="1.71429"/>
<line x1="8.57813" y1="9.42411" x2="476.578" y2="9.4241" stroke="#E4EAF1" stroke-width="1.71429"/>
</g>
<g opacity="0.5" filter="url(#filter0_f_8127_26427)">
<rect x="77.1406" y="56.5703" width="325.714" height="233.143" rx="34.2857" fill="url(#paint1_linear_8127_26427)"/>
</g>
<g filter="url(#filter1_d_8127_26427)">
<rect x="48" y="34.2812" width="384" height="274.286" rx="10.2857" fill="white"/>
<rect x="48.4286" y="34.7098" width="383.143" height="273.429" rx="9.85714" stroke="#D54407" stroke-width="0.857143"/>
<rect x="64.2812" y="49.4922" width="351.429" height="242.5" rx="10.9714" fill="url(#paint2_linear_8127_26427)"/>
<path d="M83 67.4922C83 66.6638 83.6716 65.9922 84.5 65.9922H138.5C139.328 65.9922 140 66.6638 140 67.4922C140 68.3206 139.328 68.9922 138.5 68.9922H84.5C83.6716 68.9922 83 68.3206 83 67.4922Z" fill="url(#paint3_linear_8127_26427)"/>
<path d="M304 71.9922C301.791 71.9922 300 73.783 300 75.9922L300 275.992C300 278.201 301.791 279.992 304 279.992L405 279.992C407.209 279.992 409 278.201 409 275.992L409 75.9922C409 73.7831 407.209 71.9922 405 71.9922L304 71.9922Z" fill="url(#paint4_linear_8127_26427)"/>
<rect x="315.758" y="110.781" width="77.4919" height="2.76757" rx="1.38378" fill="url(#paint5_linear_8127_26427)"/>
<rect x="315.758" y="117.703" width="66.4216" height="2.76757" rx="1.38378" fill="url(#paint6_linear_8127_26427)"/>
<rect x="315.758" y="124.625" width="49.8162" height="2.76757" rx="1.38378" fill="url(#paint7_linear_8127_26427)"/>
<path d="M320.814 95.01C321.027 94.6409 321.559 94.6409 321.772 95.01L323.69 98.331L325.607 101.652C325.82 102.021 325.554 102.482 325.128 102.482H321.293H317.458C317.032 102.482 316.766 102.021 316.979 101.652L318.896 98.331L320.814 95.01Z" fill="url(#paint8_linear_8127_26427)"/>
<rect x="315.758" y="175.992" width="77.4919" height="2.76757" rx="1.38378" fill="url(#paint9_linear_8127_26427)"/>
<rect x="315.758" y="182.914" width="66.4216" height="2.76757" rx="1.38378" fill="url(#paint10_linear_8127_26427)"/>
<rect x="315.758" y="189.836" width="49.8162" height="2.76757" rx="1.38378" fill="url(#paint11_linear_8127_26427)"/>
<path d="M320.807 160.279C321.017 159.895 321.569 159.895 321.779 160.279L323.172 162.827C323.223 162.919 323.299 162.996 323.392 163.047L325.94 164.44C326.324 164.65 326.324 165.201 325.94 165.411L323.392 166.805C323.299 166.856 323.223 166.932 323.172 167.025L321.779 169.573C321.569 169.957 321.017 169.957 320.807 169.573L319.414 167.025C319.363 166.932 319.287 166.856 319.194 166.805L316.646 165.411C316.262 165.201 316.262 164.65 316.646 164.44L319.194 163.047C319.287 162.996 319.363 162.919 319.414 162.827L320.807 160.279Z" fill="url(#paint12_linear_8127_26427)"/>
<rect x="315.758" y="241.203" width="77.4919" height="2.76757" rx="1.38378" fill="url(#paint13_linear_8127_26427)"/>
<rect x="315.758" y="248.125" width="66.4216" height="2.76757" rx="1.38378" fill="url(#paint14_linear_8127_26427)"/>
<rect x="315.758" y="255.047" width="49.8162" height="2.76757" rx="1.38378" fill="url(#paint15_linear_8127_26427)"/>
<path d="M320.797 225.607C321 225.196 321.586 225.196 321.789 225.607L322.791 227.637C322.872 227.8 323.027 227.913 323.208 227.94L325.447 228.265C325.901 228.331 326.083 228.889 325.754 229.209L324.133 230.789C324.003 230.916 323.943 231.099 323.974 231.279L324.357 233.509C324.434 233.961 323.96 234.306 323.554 234.093L321.551 233.04C321.389 232.955 321.197 232.955 321.035 233.04L319.032 234.093C318.626 234.306 318.152 233.961 318.229 233.509L318.612 231.279C318.642 231.099 318.583 230.916 318.452 230.789L316.832 229.209C316.503 228.889 316.685 228.331 317.139 228.265L319.378 227.94C319.559 227.913 319.714 227.8 319.795 227.637L320.797 225.607Z" fill="url(#paint16_linear_8127_26427)"/>
<path d="M83 101.492C83 100.664 83.6716 99.9922 84.5 99.9922H138.5C139.328 99.9922 140 100.664 140 101.492C140 102.321 139.328 102.992 138.5 102.992H84.5C83.6716 102.992 83 102.321 83 101.492Z" fill="url(#paint17_linear_8127_26427)"/>
<path d="M83 136.492C83 135.664 83.6716 134.992 84.5 134.992H138.5C139.328 134.992 140 135.664 140 136.492C140 137.321 139.328 137.992 138.5 137.992H84.5C83.6716 137.992 83 137.321 83 136.492Z" fill="url(#paint18_linear_8127_26427)"/>
<path d="M83 174.492C83 173.664 83.6716 172.992 84.5 172.992H138.5C139.328 172.992 140 173.664 140 174.492C140 175.321 139.328 175.992 138.5 175.992H84.5C83.6716 175.992 83 175.321 83 174.492Z" fill="url(#paint19_linear_8127_26427)"/>
<rect x="83" y="72.9922" width="205" height="19" rx="1.56636" fill="url(#paint20_linear_8127_26427)"/>
<rect x="83" y="106.992" width="205" height="19" rx="1.56636" fill="url(#paint21_linear_8127_26427)"/>
<rect x="83" y="141.992" width="205" height="19" rx="1.56636" fill="url(#paint22_linear_8127_26427)"/>
<rect x="83" y="180.992" width="205" height="57" rx="1.56636" fill="url(#paint23_linear_8127_26427)"/>
<rect x="83" y="253.992" width="53.1093" height="17.7031" rx="2.28427" fill="url(#paint24_linear_8127_26427)"/>
<rect x="146.067" y="255.099" width="50.8965" height="15.4902" rx="1.17783" stroke="url(#paint25_linear_8127_26427)" stroke-width="2.21289"/>
<path d="M173.098 101.206C173.311 100.173 174.786 100.173 174.999 101.206L175.413 103.211C175.595 104.093 176.284 104.783 177.166 104.965L179.172 105.379C180.204 105.592 180.204 107.067 179.172 107.28L177.166 107.694C176.284 107.876 175.595 108.565 175.413 109.448L174.999 111.453C174.786 112.486 173.311 112.486 173.098 111.453L172.684 109.448C172.501 108.565 171.812 107.876 170.93 107.694L168.924 107.28C167.892 107.067 167.892 105.592 168.924 105.379L170.93 104.965C171.812 104.783 172.501 104.093 172.684 103.211L173.098 101.206Z" stroke="#D54407" stroke-width="1.28571"/>
<path d="M299.957 120.065C300.17 119.033 301.645 119.033 301.858 120.065L302.272 122.071C302.454 122.953 303.144 123.642 304.026 123.824L306.031 124.238C307.064 124.451 307.064 125.926 306.031 126.139L304.026 126.553C303.144 126.736 302.454 127.425 302.272 128.307L301.858 130.313C301.645 131.345 300.17 131.345 299.957 130.313L299.543 128.307C299.361 127.425 298.672 126.736 297.789 126.553L295.784 126.139C294.751 125.926 294.751 124.451 295.784 124.238L297.789 123.824C298.672 123.642 299.361 122.953 299.543 122.071L299.957 120.065Z" stroke="#D54407" stroke-width="1.28571"/>
<path d="M182.527 220.346C182.74 219.314 184.215 219.314 184.428 220.346L184.842 222.352C185.025 223.234 185.714 223.923 186.596 224.105L188.602 224.52C189.634 224.733 189.634 226.207 188.602 226.421L186.596 226.835C185.714 227.017 185.025 227.706 184.842 228.588L184.428 230.594C184.215 231.626 182.74 231.626 182.527 230.594L182.113 228.588C181.931 227.706 181.242 227.017 180.36 226.835L178.354 226.421C177.322 226.207 177.322 224.733 178.354 224.52L180.36 224.105C181.242 223.923 181.931 223.234 182.113 222.352L182.527 220.346Z" stroke="#D54407" stroke-width="1.28571"/>
</g>
<g filter="url(#filter2_bd_8127_26427)">
<rect x="178.281" y="109.719" width="123.429" height="123.429" rx="61.7143" fill="white" fill-opacity="0.25" style="mix-blend-mode:overlay" shape-rendering="crispEdges"/>
<path d="M204.729 171.432C204.729 173.055 203.413 174.371 201.79 174.371C200.167 174.371 198.852 173.055 198.852 171.432C198.852 169.809 200.167 168.493 201.79 168.493C203.413 168.493 204.729 169.809 204.729 171.432Z" fill="url(#paint26_angular_8127_26427)"/>
<path d="M281.137 171.432C281.137 173.055 279.822 174.371 278.199 174.371C276.575 174.371 275.26 173.055 275.26 171.432C275.26 169.809 276.575 168.493 278.199 168.493C279.822 168.493 281.137 169.809 281.137 171.432Z" fill="url(#paint27_angular_8127_26427)"/>
<path d="M239.994 136.167C238.371 136.167 237.056 134.851 237.056 133.228C237.056 131.605 238.371 130.289 239.994 130.289C241.617 130.289 242.933 131.605 242.933 133.228C242.933 134.851 241.617 136.167 239.994 136.167Z" fill="url(#paint28_angular_8127_26427)"/>
<path d="M239.994 212.575C238.371 212.575 237.056 211.259 237.056 209.636C237.056 208.013 238.371 206.697 239.994 206.697C241.617 206.697 242.933 208.013 242.933 209.636C242.933 211.259 241.617 212.575 239.994 212.575Z" fill="url(#paint29_angular_8127_26427)"/>
<path d="M222.364 140.891C220.958 141.703 219.161 141.221 218.349 139.816C217.538 138.41 218.019 136.613 219.425 135.801C220.83 134.99 222.628 135.471 223.439 136.877C224.251 138.282 223.769 140.08 222.364 140.891Z" fill="url(#paint30_angular_8127_26427)"/>
<path d="M260.568 207.063C259.162 207.874 257.365 207.393 256.553 205.987C255.742 204.581 256.223 202.784 257.629 201.972C259.035 201.161 260.832 201.643 261.643 203.048C262.455 204.454 261.973 206.251 260.568 207.063Z" fill="url(#paint31_angular_8127_26427)"/>
<path d="M270.537 153.799C269.725 152.394 270.207 150.596 271.613 149.785C273.018 148.973 274.816 149.455 275.627 150.86C276.439 152.266 275.957 154.063 274.551 154.875C273.146 155.686 271.348 155.205 270.537 153.799Z" fill="url(#paint32_angular_8127_26427)"/>
<path d="M204.366 192.003C203.554 190.598 204.036 188.8 205.441 187.989C206.847 187.177 208.644 187.659 209.456 189.064C210.267 190.47 209.786 192.267 208.38 193.079C206.974 193.89 205.177 193.409 204.366 192.003Z" fill="url(#paint33_angular_8127_26427)"/>
<path d="M209.455 153.799C208.643 155.205 206.846 155.686 205.44 154.875C204.035 154.063 203.553 152.266 204.365 150.86C205.176 149.455 206.973 148.973 208.379 149.785C209.785 150.596 210.266 152.394 209.455 153.799Z" fill="url(#paint34_angular_8127_26427)"/>
<path d="M275.626 192.003C274.815 193.409 273.017 193.89 271.612 193.079C270.206 192.267 269.725 190.47 270.536 189.064C271.348 187.659 273.145 187.177 274.55 187.989C275.956 188.8 276.438 190.598 275.626 192.003Z" fill="url(#paint35_angular_8127_26427)"/>
<path d="M257.628 140.891C256.222 140.08 255.741 138.282 256.552 136.877C257.364 135.471 259.161 134.99 260.567 135.801C261.972 136.613 262.454 138.41 261.642 139.816C260.831 141.221 259.034 141.703 257.628 140.891Z" fill="url(#paint36_angular_8127_26427)"/>
<path d="M219.424 207.063C218.018 206.251 217.537 204.454 218.348 203.048C219.16 201.643 220.957 201.161 222.363 201.972C223.768 202.784 224.25 204.581 223.438 205.987C222.627 207.393 220.83 207.874 219.424 207.063Z" fill="url(#paint37_angular_8127_26427)"/>
<animateTransform xlinkHref="#rotatingGroup"
                    attributeName="transform"
                    type="rotate"
                    from="0 240 172"
                    to="360 240 172"
                    dur="10s"
                    repeatCount="indefinite"/>
</g>
  <path d="M245.134 161.143L250.277 166.286M229.705 186.857L255.42 161.143L250.277 156L224.562 181.714L229.705 186.857ZM234.848 156C234.848 156.909 235.209 157.781 235.852 158.424C236.495 159.067 237.367 159.429 238.277 159.429C237.367 159.429 236.495 159.79 235.852 160.433C235.209 161.076 234.848 161.948 234.848 162.857C234.848 161.948 234.487 161.076 233.844 160.433C233.201 159.79 232.329 159.429 231.42 159.429C232.329 159.429 233.201 159.067 233.844 158.424C234.487 157.781 234.848 156.909 234.848 156ZM251.991 173.143C251.991 174.052 252.352 174.924 252.995 175.567C253.638 176.21 254.51 176.571 255.42 176.571C254.51 176.571 253.638 176.933 252.995 177.576C252.352 178.219 251.991 179.091 251.991 180C251.991 179.091 251.63 178.219 250.987 177.576C250.344 176.933 249.472 176.571 248.563 176.571C249.472 176.571 250.344 176.21 250.987 175.567C251.63 174.924 251.991 174.052 251.991 173.143Z" stroke="#D54407" stroke-width="3.42857" stroke-linecap="round" stroke-linejoin="round"/>
</g>
<defs>
<filter id="filter0_f_8127_26427" x="8.5692" y="-12.0011" width="462.854" height="370.283" filterUnits="userSpaceOnUse" color-interpolation-filters="sRGB">
<feFlood flood-opacity="0" result="BackgroundImageFix"/>
<feBlend mode="normal" in="SourceGraphic" in2="BackgroundImageFix" result="shape"/>
<feGaussianBlur stdDeviation="34.2857" result="effect1_foregroundBlur_8127_26427"/>
</filter>
<filter id="filter1_d_8127_26427" x="45.2571" y="34.2812" width="389.486" height="279.775" filterUnits="userSpaceOnUse" color-interpolation-filters="sRGB">
<feFlood flood-opacity="0" result="BackgroundImageFix"/>
<feColorMatrix in="SourceAlpha" type="matrix" values="0 0 0 0 0 0 0 0 0 0 0 0 0 0 0 0 0 0 127 0" result="hardAlpha"/>
<feMorphology radius="2.74286" operator="erode" in="SourceAlpha" result="effect1_dropShadow_8127_26427"/>
<feOffset dy="2.74286"/>
<feGaussianBlur stdDeviation="2.74286"/>
<feComposite in2="hardAlpha" operator="out"/>
<feColorMatrix type="matrix" values="0 0 0 0 0 0 0 0 0 0 0 0 0 0 0 0 0 0 0.08 0"/>
<feBlend mode="normal" in2="BackgroundImageFix" result="effect1_dropShadow_8127_26427"/>
<feBlend mode="normal" in="SourceGraphic" in2="effect1_dropShadow_8127_26427" result="shape"/>
</filter>
<filter id="filter2_bd_8127_26427" x="123.424" y="75.433" width="233.144" height="233.144" filterUnits="userSpaceOnUse" color-interpolation-filters="sRGB">
<feFlood flood-opacity="0" result="BackgroundImageFix"/>
<feGaussianBlur in="BackgroundImageFix" stdDeviation="3.42857"/>
<feComposite in2="SourceAlpha" operator="in" result="effect1_backgroundBlur_8127_26427"/>
<feColorMatrix in="SourceAlpha" type="matrix" values="0 0 0 0 0 0 0 0 0 0 0 0 0 0 0 0 0 0 127 0" result="hardAlpha"/>
<feMorphology radius="13.7143" operator="erode" in="SourceAlpha" result="effect2_dropShadow_8127_26427"/>
<feOffset dy="20.5714"/>
<feGaussianBlur stdDeviation="34.2857"/>
<feComposite in2="hardAlpha" operator="out"/>
<feColorMatrix type="matrix" values="0 0 0 0 0 0 0 0 0 0 0 0 0 0 0 0 0 0 0.08 0"/>
<feBlend mode="normal" in2="effect1_backgroundBlur_8127_26427" result="effect2_dropShadow_8127_26427"/>
<feBlend mode="normal" in="SourceGraphic" in2="effect2_dropShadow_8127_26427" result="shape"/>
</filter>
<radialGradient id="paint0_radial_8127_26427" cx="0" cy="0" r="1" gradientUnits="userSpaceOnUse" gradientTransform="translate(240 172.286) rotate(90) scale(172.286 240)">
<stop offset="0.912036" stop-color="#D9D9D9"/>
<stop offset="1" stop-color="#D9D9D9" stop-opacity="0.5"/>
</radialGradient>
<linearGradient id="paint1_linear_8127_26427" x1="77.1406" y1="196.45" x2="402.855" y2="196.45" gradientUnits="userSpaceOnUse">
<stop stop-color="#0A21F8"/>
<stop offset="0.427083" stop-color="#9933FF"/>
<stop offset="1" stop-color="#FC65D2"/>
</linearGradient>
<linearGradient id="paint2_linear_8127_26427" x1="64.2813" y1="170.739" x2="415.71" y2="170.739" gradientUnits="userSpaceOnUse">
<stop stop-color="#D1DAE5" stop-opacity="0.25"/>
<stop offset="1" stop-color="#D1DAE5" stop-opacity="0"/>
</linearGradient>
<linearGradient id="paint3_linear_8127_26427" x1="83" y1="67.4922" x2="140" y2="67.4922" gradientUnits="userSpaceOnUse">
<stop stop-color="#D1DAE5"/>
<stop offset="1" stop-color="#D1DAE5" stop-opacity="0.25"/>
<stop offset="1" stop-color="#D1DAE5" stop-opacity="0"/>
</linearGradient>
<linearGradient id="paint4_linear_8127_26427" x1="354.499" y1="71.9922" x2="354.499" y2="279.992" gradientUnits="userSpaceOnUse">
<stop stop-color="#D1DAE5" stop-opacity="0.25"/>
<stop offset="1" stop-color="#D1DAE5" stop-opacity="0"/>
</linearGradient>
<linearGradient id="paint5_linear_8127_26427" x1="315.758" y1="112.165" x2="393.25" y2="112.165" gradientUnits="userSpaceOnUse">
<stop stop-color="#D1DAE5"/>
<stop offset="1" stop-color="#D1DAE5" stop-opacity="0.25"/>
<stop offset="1" stop-color="#D1DAE5" stop-opacity="0"/>
</linearGradient>
<linearGradient id="paint6_linear_8127_26427" x1="315.758" y1="119.087" x2="382.179" y2="119.087" gradientUnits="userSpaceOnUse">
<stop stop-color="#D1DAE5"/>
<stop offset="1" stop-color="#D1DAE5" stop-opacity="0.25"/>
<stop offset="1" stop-color="#D1DAE5" stop-opacity="0"/>
</linearGradient>
<linearGradient id="paint7_linear_8127_26427" x1="315.758" y1="126.009" x2="365.574" y2="126.009" gradientUnits="userSpaceOnUse">
<stop stop-color="#D1DAE5"/>
<stop offset="1" stop-color="#D1DAE5" stop-opacity="0.25"/>
<stop offset="1" stop-color="#D1DAE5" stop-opacity="0"/>
</linearGradient>
<linearGradient id="paint8_linear_8127_26427" x1="315.758" y1="99.7147" x2="326.828" y2="99.7147" gradientUnits="userSpaceOnUse">
<stop stop-color="#D1DAE5"/>
<stop offset="1" stop-color="#D1DAE5" stop-opacity="0.25"/>
<stop offset="1" stop-color="#D1DAE5" stop-opacity="0"/>
</linearGradient>
<linearGradient id="paint9_linear_8127_26427" x1="315.758" y1="177.376" x2="393.25" y2="177.376" gradientUnits="userSpaceOnUse">
<stop stop-color="#D1DAE5"/>
<stop offset="1" stop-color="#D1DAE5" stop-opacity="0.25"/>
<stop offset="1" stop-color="#D1DAE5" stop-opacity="0"/>
</linearGradient>
<linearGradient id="paint10_linear_8127_26427" x1="315.758" y1="184.298" x2="382.179" y2="184.298" gradientUnits="userSpaceOnUse">
<stop stop-color="#D1DAE5"/>
<stop offset="1" stop-color="#D1DAE5" stop-opacity="0.25"/>
<stop offset="1" stop-color="#D1DAE5" stop-opacity="0"/>
</linearGradient>
<linearGradient id="paint11_linear_8127_26427" x1="315.758" y1="191.22" x2="365.574" y2="191.22" gradientUnits="userSpaceOnUse">
<stop stop-color="#D1DAE5"/>
<stop offset="1" stop-color="#D1DAE5" stop-opacity="0.25"/>
<stop offset="1" stop-color="#D1DAE5" stop-opacity="0"/>
</linearGradient>
<linearGradient id="paint12_linear_8127_26427" x1="315.758" y1="164.926" x2="326.828" y2="164.926" gradientUnits="userSpaceOnUse">
<stop stop-color="#D1DAE5"/>
<stop offset="1" stop-color="#D1DAE5" stop-opacity="0.25"/>
<stop offset="1" stop-color="#D1DAE5" stop-opacity="0"/>
</linearGradient>
<linearGradient id="paint13_linear_8127_26427" x1="315.758" y1="242.587" x2="393.25" y2="242.587" gradientUnits="userSpaceOnUse">
<stop stop-color="#D1DAE5"/>
<stop offset="1" stop-color="#D1DAE5" stop-opacity="0.25"/>
<stop offset="1" stop-color="#D1DAE5" stop-opacity="0"/>
</linearGradient>
<linearGradient id="paint14_linear_8127_26427" x1="315.758" y1="249.509" x2="382.179" y2="249.509" gradientUnits="userSpaceOnUse">
<stop stop-color="#D1DAE5"/>
<stop offset="1" stop-color="#D1DAE5" stop-opacity="0.25"/>
<stop offset="1" stop-color="#D1DAE5" stop-opacity="0"/>
</linearGradient>
<linearGradient id="paint15_linear_8127_26427" x1="315.758" y1="256.431" x2="365.574" y2="256.431" gradientUnits="userSpaceOnUse">
<stop stop-color="#D1DAE5"/>
<stop offset="1" stop-color="#D1DAE5" stop-opacity="0.25"/>
<stop offset="1" stop-color="#D1DAE5" stop-opacity="0"/>
</linearGradient>
<linearGradient id="paint16_linear_8127_26427" x1="315.758" y1="230.137" x2="326.828" y2="230.137" gradientUnits="userSpaceOnUse">
<stop stop-color="#D1DAE5"/>
<stop offset="1" stop-color="#D1DAE5" stop-opacity="0.25"/>
<stop offset="1" stop-color="#D1DAE5" stop-opacity="0"/>
</linearGradient>
<linearGradient id="paint17_linear_8127_26427" x1="83" y1="101.492" x2="140" y2="101.492" gradientUnits="userSpaceOnUse">
<stop stop-color="#D1DAE5"/>
<stop offset="1" stop-color="#D1DAE5" stop-opacity="0.25"/>
<stop offset="1" stop-color="#D1DAE5" stop-opacity="0"/>
</linearGradient>
<linearGradient id="paint18_linear_8127_26427" x1="83" y1="136.492" x2="140" y2="136.492" gradientUnits="userSpaceOnUse">
<stop stop-color="#D1DAE5"/>
<stop offset="1" stop-color="#D1DAE5" stop-opacity="0.25"/>
<stop offset="1" stop-color="#D1DAE5" stop-opacity="0"/>
</linearGradient>
<linearGradient id="paint19_linear_8127_26427" x1="83" y1="174.492" x2="140" y2="174.492" gradientUnits="userSpaceOnUse">
<stop stop-color="#D1DAE5"/>
<stop offset="1" stop-color="#D1DAE5" stop-opacity="0.25"/>
<stop offset="1" stop-color="#D1DAE5" stop-opacity="0"/>
</linearGradient>
<linearGradient id="paint20_linear_8127_26427" x1="83" y1="82.492" x2="288" y2="82.492" gradientUnits="userSpaceOnUse">
<stop stop-color="#D1DAE5"/>
<stop offset="1" stop-color="#D1DAE5" stop-opacity="0.25"/>
<stop offset="1" stop-color="#D1DAE5" stop-opacity="0"/>
</linearGradient>
<linearGradient id="paint21_linear_8127_26427" x1="83" y1="116.492" x2="288" y2="116.492" gradientUnits="userSpaceOnUse">
<stop stop-color="#D1DAE5"/>
<stop offset="1" stop-color="#D1DAE5" stop-opacity="0.25"/>
<stop offset="1" stop-color="#D1DAE5" stop-opacity="0"/>
</linearGradient>
<linearGradient id="paint22_linear_8127_26427" x1="83" y1="151.492" x2="288" y2="151.492" gradientUnits="userSpaceOnUse">
<stop stop-color="#D1DAE5"/>
<stop offset="1" stop-color="#D1DAE5" stop-opacity="0.25"/>
<stop offset="1" stop-color="#D1DAE5" stop-opacity="0"/>
</linearGradient>
<linearGradient id="paint23_linear_8127_26427" x1="83" y1="209.492" x2="288" y2="209.492" gradientUnits="userSpaceOnUse">
<stop stop-color="#D1DAE5"/>
<stop offset="1" stop-color="#D1DAE5" stop-opacity="0.25"/>
<stop offset="1" stop-color="#D1DAE5" stop-opacity="0"/>
</linearGradient>
<linearGradient id="paint24_linear_8127_26427" x1="83" y1="262.844" x2="136.109" y2="262.844" gradientUnits="userSpaceOnUse">
<stop stop-color="#D1DAE5"/>
<stop offset="1" stop-color="#D1DAE5" stop-opacity="0.25"/>
<stop offset="1" stop-color="#D1DAE5" stop-opacity="0"/>
</linearGradient>
<linearGradient id="paint25_linear_8127_26427" x1="144.961" y1="262.844" x2="198.07" y2="262.844" gradientUnits="userSpaceOnUse">
<stop stop-color="#D1DAE5"/>
<stop offset="1" stop-color="#D1DAE5" stop-opacity="0.25"/>
<stop offset="1" stop-color="#D1DAE5" stop-opacity="0"/>
</linearGradient>
<radialGradient id="paint26_angular_8127_26427" cx="0" cy="0" r="1" gradientUnits="userSpaceOnUse" gradientTransform="translate(239.994 171.432) rotate(98.2971) scale(41.5781)">
<stop stop-color="#B809A7" stop-opacity="0"/>
<stop offset="0.46875" stop-color="#FF7A42"/>
<stop offset="1" stop-color="#D54407"/>
</radialGradient>
<radialGradient id="paint27_angular_8127_26427" cx="0" cy="0" r="1" gradientUnits="userSpaceOnUse" gradientTransform="translate(239.994 171.432) rotate(98.2971) scale(41.5781)">
<stop stop-color="#B809A7" stop-opacity="0"/>
<stop offset="0.46875" stop-color="#FF7A42"/>
<stop offset="1" stop-color="#D54407"/>
</radialGradient>
<radialGradient id="paint28_angular_8127_26427" cx="0" cy="0" r="1" gradientUnits="userSpaceOnUse" gradientTransform="translate(239.994 171.432) rotate(98.2971) scale(41.5781)">
<stop stop-color="#B809A7" stop-opacity="0"/>
<stop offset="0.46875" stop-color="#FF7A42"/>
<stop offset="1" stop-color="#D54407"/>
</radialGradient>
<radialGradient id="paint29_angular_8127_26427" cx="0" cy="0" r="1" gradientUnits="userSpaceOnUse" gradientTransform="translate(239.994 171.432) rotate(98.2971) scale(41.5781)">
<stop stop-color="#B809A7" stop-opacity="0"/>
<stop offset="0.46875" stop-color="#FF7A42"/>
<stop offset="1" stop-color="#D54407"/>
</radialGradient>
<radialGradient id="paint30_angular_8127_26427" cx="0" cy="0" r="1" gradientUnits="userSpaceOnUse" gradientTransform="translate(239.994 171.432) rotate(98.2971) scale(41.5781)">
<stop stop-color="#B809A7" stop-opacity="0"/>
<stop offset="0.46875" stop-color="#FF7A42"/>
<stop offset="1" stop-color="#D54407"/>
</radialGradient>
<radialGradient id="paint31_angular_8127_26427" cx="0" cy="0" r="1" gradientUnits="userSpaceOnUse" gradientTransform="translate(239.994 171.432) rotate(98.2971) scale(41.5781)">
<stop stop-color="#B809A7" stop-opacity="0"/>
<stop offset="0.46875" stop-color="#FF7A42"/>
<stop offset="1" stop-color="#D54407"/>
</radialGradient>
<radialGradient id="paint32_angular_8127_26427" cx="0" cy="0" r="1" gradientUnits="userSpaceOnUse" gradientTransform="translate(239.994 171.432) rotate(98.2971) scale(41.5781)">
<stop stop-color="#B809A7" stop-opacity="0"/>
<stop offset="0.46875" stop-color="#FF7A42"/>
<stop offset="1" stop-color="#D54407"/>
</radialGradient>
<radialGradient id="paint33_angular_8127_26427" cx="0" cy="0" r="1" gradientUnits="userSpaceOnUse" gradientTransform="translate(239.994 171.432) rotate(98.2971) scale(41.5781)">
<stop stop-color="#B809A7" stop-opacity="0"/>
<stop offset="0.46875" stop-color="#FF7A42"/>
<stop offset="1" stop-color="#D54407"/>
</radialGradient>
<radialGradient id="paint34_angular_8127_26427" cx="0" cy="0" r="1" gradientUnits="userSpaceOnUse" gradientTransform="translate(239.994 171.432) rotate(98.2971) scale(41.5781)">
<stop stop-color="#B809A7" stop-opacity="0"/>
<stop offset="0.46875" stop-color="#FF7A42"/>
<stop offset="1" stop-color="#D54407"/>
</radialGradient>
<radialGradient id="paint35_angular_8127_26427" cx="0" cy="0" r="1" gradientUnits="userSpaceOnUse" gradientTransform="translate(239.994 171.432) rotate(98.2971) scale(41.5781)">
<stop stop-color="#B809A7" stop-opacity="0"/>
<stop offset="0.46875" stop-color="#FF7A42"/>
<stop offset="1" stop-color="#D54407"/>
</radialGradient>
<radialGradient id="paint36_angular_8127_26427" cx="0" cy="0" r="1" gradientUnits="userSpaceOnUse" gradientTransform="translate(239.994 171.432) rotate(98.2971) scale(41.5781)">
<stop stop-color="#B809A7" stop-opacity="0"/>
<stop offset="0.46875" stop-color="#FF7A42"/>
<stop offset="1" stop-color="#D54407"/>
</radialGradient>
<radialGradient id="paint37_angular_8127_26427" cx="0" cy="0" r="1" gradientUnits="userSpaceOnUse" gradientTransform="translate(239.994 171.432) rotate(98.2971) scale(41.5781)">
<stop stop-color="#B809A7" stop-opacity="0"/>
<stop offset="0.46875" stop-color="#FF7A42"/>
<stop offset="1" stop-color="#D54407"/>
</radialGradient>
<clipPath id="clip0_8127_26427">
<rect width="480" height="344" fill="white"/>
</clipPath>
</defs>
</svg>