<svg width="406" height="307" viewBox="0 0 406 307" fill="none" xmlns="http://www.w3.org/2000/svg">
<path d="M313.418 74.3125H100.543C96.6185 74.3125 93.4375 77.4935 93.4375 81.4175V212.616C93.4375 216.54 96.6185 219.721 100.543 219.721H313.418C317.342 219.721 320.523 216.54 320.523 212.616V81.4175C320.523 77.4935 317.342 74.3125 313.418 74.3125Z" fill="white"/>
<path d="M313.418 220.229H100.542C98.5241 220.226 96.5893 219.423 95.1623 217.996C93.7353 216.569 92.9324 214.634 92.9297 212.616V81.4273C92.9324 79.4083 93.7349 77.4725 95.1617 76.0439C96.5884 74.6152 98.5231 73.8101 100.542 73.8047H313.418C315.437 73.8101 317.372 74.6152 318.799 76.0439C320.225 77.4725 321.028 79.4083 321.031 81.4273V212.616C321.028 214.634 320.225 216.569 318.798 217.996C317.371 219.423 315.436 220.226 313.418 220.229ZM100.542 74.8197C98.7915 74.8224 97.1134 75.5197 95.8764 76.7586C94.6395 77.9975 93.9447 79.6766 93.9447 81.4273V212.616C93.9474 214.365 94.6433 216.042 95.88 217.278C97.1167 218.515 98.7932 219.211 100.542 219.214H313.418C315.167 219.211 316.844 218.515 318.08 217.278C319.317 216.042 320.013 214.365 320.016 212.616V81.4273C320.016 79.6766 319.321 77.9975 318.084 76.7586C316.847 75.5197 315.169 74.8224 313.418 74.8197H100.542Z" fill="#0F172A"/>
<path d="M320.523 197.242H93.4372C93.3034 197.239 93.1758 197.185 93.0812 197.09C92.9866 196.995 92.9323 196.868 92.9297 196.734C92.9297 196.599 92.9832 196.47 93.0783 196.375C93.1735 196.28 93.3026 196.227 93.4372 196.227H320.523C320.658 196.227 320.787 196.28 320.882 196.375C320.977 196.47 321.031 196.599 321.031 196.734C321.031 196.869 320.977 196.998 320.882 197.093C320.787 197.188 320.658 197.242 320.523 197.242Z" fill="#0F172A"/>
<path d="M236.001 247.842H177.953L188.661 219.727H225.303L236.001 247.842Z" fill="white"/>
<path d="M236.001 248.349H177.954C177.871 248.349 177.79 248.329 177.717 248.29C177.645 248.251 177.583 248.195 177.537 248.126C177.49 248.059 177.46 247.981 177.45 247.9C177.439 247.819 177.448 247.736 177.477 247.659L188.185 219.554C188.22 219.456 188.285 219.371 188.37 219.311C188.456 219.251 188.558 219.219 188.662 219.219H225.324C225.427 219.219 225.527 219.252 225.61 219.312C225.694 219.372 225.757 219.456 225.791 219.554L236.489 247.659C236.516 247.736 236.525 247.819 236.514 247.9C236.503 247.981 236.473 248.059 236.426 248.126C236.38 248.193 236.318 248.249 236.246 248.288C236.174 248.326 236.093 248.348 236.012 248.349H236.001ZM178.695 247.334H235.271L224.948 220.234H189.007L178.695 247.334Z" fill="#0F172A"/>
<path d="M242.812 246.188H171.142C169.265 246.188 167.742 247.71 167.742 249.588V250.369C167.742 252.247 169.265 253.77 171.142 253.77H242.812C244.689 253.77 246.212 252.247 246.212 250.369V249.588C246.212 247.71 244.689 246.188 242.812 246.188Z" fill="white"/>
<path d="M242.819 254.277H171.15C170.114 254.277 169.12 253.865 168.387 253.132C167.654 252.399 167.242 251.405 167.242 250.369V249.598C167.242 248.56 167.654 247.565 168.386 246.831C169.119 246.096 170.113 245.682 171.15 245.68H242.819C243.856 245.682 244.85 246.096 245.583 246.831C246.315 247.565 246.727 248.56 246.727 249.598V250.369C246.727 250.882 246.626 251.39 246.429 251.864C246.233 252.339 245.945 252.769 245.582 253.132C245.219 253.495 244.789 253.783 244.315 253.979C243.84 254.176 243.332 254.277 242.819 254.277ZM171.15 246.695C170.382 246.697 169.646 247.004 169.104 247.549C168.562 248.093 168.257 248.829 168.257 249.598V250.369C168.26 251.135 168.565 251.87 169.107 252.412C169.649 252.953 170.384 253.259 171.15 253.262H242.819C243.585 253.259 244.32 252.953 244.862 252.412C245.404 251.87 245.709 251.135 245.712 250.369V249.598C245.712 248.829 245.407 248.093 244.865 247.549C244.323 247.004 243.587 246.697 242.819 246.695H171.15Z" fill="#0F172A"/>
<path d="M312.413 81.1641H101.547V187.82H312.413V81.1641Z" fill="#D54407"/>
<path d="M312.413 81.1641H101.547V187.82H312.413V81.1641Z" fill="#CBD5E1"/>
<path d="M183.367 232.566L226.586 224.172L224.891 219.727H188.249L183.367 232.566Z" fill="#0F172A"/>
<path d="M183.37 233.073C183.288 233.074 183.206 233.054 183.133 233.016C183.059 232.978 182.996 232.923 182.949 232.855C182.902 232.787 182.873 232.708 182.863 232.626C182.853 232.544 182.864 232.46 182.893 232.383L187.776 219.554C187.812 219.456 187.877 219.372 187.962 219.313C188.048 219.253 188.149 219.22 188.253 219.219H224.894C224.998 219.219 225.1 219.251 225.186 219.311C225.271 219.371 225.336 219.456 225.371 219.554L227.066 223.989C227.096 224.056 227.112 224.129 227.112 224.202C227.112 224.276 227.096 224.349 227.066 224.416C227.028 224.48 226.977 224.536 226.915 224.58C226.854 224.624 226.785 224.654 226.711 224.669L183.492 233.063L183.37 233.073ZM188.608 220.234L184.162 231.896L225.899 223.776L224.549 220.224L188.608 220.234Z" fill="#0F172A"/>
<path d="M283.853 56.1173V187.834H130.172V47.3984H275.134C277.447 47.3984 279.664 48.317 281.299 49.9521C282.934 51.5872 283.853 53.8049 283.853 56.1173Z" fill="white"/>
<path d="M283.853 188.341H130.172C130.038 188.338 129.91 188.284 129.816 188.19C129.721 188.095 129.667 187.967 129.664 187.834V47.3982C129.664 47.2636 129.718 47.1345 129.813 47.0393C129.908 46.9441 130.037 46.8907 130.172 46.8907H275.134C276.347 46.8867 277.548 47.1226 278.669 47.5848C279.791 48.047 280.809 48.7265 281.667 49.584C282.524 50.4416 283.204 51.4603 283.666 52.5815C284.128 53.7027 284.364 54.9043 284.36 56.117V187.834C284.36 187.968 284.307 188.097 284.212 188.192C284.116 188.288 283.987 188.341 283.853 188.341ZM130.679 187.326H283.345V56.117C283.344 55.0405 283.13 53.9748 282.717 52.9809C282.303 51.9869 281.698 51.0843 280.935 50.3245C280.173 49.5647 279.268 48.9626 278.272 48.5528C277.277 48.143 276.21 47.9335 275.134 47.9361H130.679V187.326Z" fill="#0F172A"/>
<path d="M204.743 93.1516H139.265C139.131 93.1516 139.002 93.0982 138.906 93.003C138.811 92.9078 138.758 92.7787 138.758 92.6441V69.695C138.758 69.5604 138.811 69.4313 138.906 69.3361C139.002 69.241 139.131 69.1875 139.265 69.1875C139.4 69.1875 139.529 69.241 139.624 69.3361C139.719 69.4313 139.773 69.5604 139.773 69.695V92.1367H204.733C204.867 92.1367 204.996 92.1901 205.092 92.2853C205.187 92.3805 205.24 92.5096 205.24 92.6441C205.24 92.777 205.188 92.9046 205.095 92.9995C205.002 93.0943 204.876 93.149 204.743 93.1516Z" fill="#CBD5E1"/>
<path d="M191.992 148.418H139.851C139.717 148.418 139.588 148.364 139.492 148.269C139.397 148.174 139.344 148.045 139.344 147.91V100.093C139.344 99.9588 139.397 99.8298 139.492 99.7346C139.588 99.6394 139.717 99.5859 139.851 99.5859H191.992C192.126 99.5859 192.255 99.6394 192.351 99.7346C192.446 99.8298 192.499 99.9588 192.499 100.093V147.951C192.489 148.078 192.431 148.197 192.337 148.284C192.243 148.37 192.12 148.418 191.992 148.418ZM140.359 147.403H191.484V100.601H140.359V147.403Z" fill="#CBD5E1"/>
<path d="M273.567 180.625H142.906C142.771 180.625 142.642 180.571 142.547 180.476C142.452 180.381 142.398 180.252 142.398 180.117V156.945C142.398 156.81 142.452 156.681 142.547 156.586C142.642 156.491 142.771 156.438 142.906 156.438H273.567C273.701 156.44 273.828 156.494 273.923 156.589C274.017 156.684 274.072 156.811 274.074 156.945V180.117C274.074 180.252 274.021 180.381 273.926 180.476C273.831 180.571 273.701 180.625 273.567 180.625ZM143.413 179.61H273.029V157.452H143.413V179.61Z" fill="#CBD5E1"/>
<path d="M273.567 165.679H142.906C142.771 165.679 142.642 165.626 142.547 165.53C142.452 165.435 142.398 165.306 142.398 165.172C142.398 165.037 142.452 164.908 142.547 164.813C142.642 164.718 142.771 164.664 142.906 164.664H273.567C273.701 164.667 273.828 164.721 273.923 164.816C274.017 164.91 274.072 165.038 274.074 165.172C274.074 165.306 274.021 165.435 273.926 165.53C273.831 165.626 273.701 165.679 273.567 165.679Z" fill="#CBD5E1"/>
<path d="M86.3906 250.461V257.921C86.3906 257.921 103.595 259.951 103.209 259.149C102.823 258.347 93.3738 251.608 93.3738 251.608L86.3906 250.461Z" fill="#0F172A"/>
<path d="M101.869 259.807C99.9101 259.807 95.6776 259.513 86.3396 258.427C86.2139 258.414 86.0975 258.355 86.0131 258.261C85.9286 258.167 85.8822 258.046 85.8828 257.919V250.459C85.8827 250.385 85.8991 250.312 85.9307 250.246C85.9623 250.179 86.0084 250.12 86.0655 250.073C86.1216 250.024 86.188 249.987 86.2599 249.966C86.3319 249.945 86.4076 249.94 86.4817 249.952L93.3735 251.109C93.4515 251.119 93.5252 251.151 93.5867 251.2C96.4693 253.23 103.229 258.122 103.635 258.924C103.68 259.012 103.703 259.11 103.703 259.208C103.703 259.307 103.68 259.404 103.635 259.493C103.524 259.624 103.402 259.807 101.869 259.807ZM86.8978 257.473C93.0995 258.183 99.8188 258.823 102.123 258.823C100.641 257.584 96.7129 254.681 93.0792 252.093L86.8572 251.078L86.8978 257.473Z" fill="#0F172A"/>
<path d="M86.4062 243.883V250.46L93.3285 251.607L94.4755 243.883H86.4062Z" fill="white"/>
<path d="M93.375 252.121H93.2938L86.27 250.934C86.1517 250.915 86.0439 250.854 85.9659 250.763C85.8879 250.672 85.8446 250.556 85.8438 250.436V243.859C85.8438 243.725 85.8972 243.595 85.9924 243.5C86.0876 243.405 86.2167 243.352 86.3512 243.352H94.4712C94.5443 243.35 94.6167 243.365 94.6833 243.395C94.75 243.425 94.8093 243.469 94.8569 243.524C94.9059 243.579 94.9422 243.643 94.9633 243.714C94.9843 243.784 94.9896 243.858 94.9788 243.93L93.8217 251.664C93.8117 251.731 93.7886 251.795 93.7538 251.852C93.7189 251.91 93.673 251.96 93.6186 251.999C93.5498 252.061 93.4657 252.103 93.375 252.121ZM86.9501 250.02L92.9488 251.035L93.9637 244.397H86.8994L86.9501 250.02Z" fill="#0F172A"/>
<path d="M110.289 245.844V252.888L118.145 253.456L118.602 245.844H110.289Z" fill="white"/>
<path d="M118.143 253.979L110.297 253.401C110.169 253.395 110.048 253.341 109.959 253.248C109.87 253.155 109.82 253.032 109.82 252.903V245.859C109.82 245.724 109.874 245.595 109.969 245.5C110.064 245.405 110.193 245.352 110.328 245.352H118.641C118.711 245.352 118.78 245.367 118.845 245.395C118.909 245.423 118.968 245.463 119.016 245.514C119.062 245.564 119.098 245.624 119.121 245.688C119.143 245.753 119.153 245.821 119.148 245.89L118.691 253.502C118.683 253.639 118.621 253.766 118.519 253.857C118.414 253.945 118.28 253.989 118.143 253.979ZM110.795 252.426L117.666 252.934L118.062 246.367H110.795V252.426Z" fill="#0F172A"/>
<path d="M121.887 174.539L119.37 247.304H109.139L103.779 193.124L95.2838 246.381L85.4688 245.843L90.8584 175.128L121.887 174.539Z" fill="#0F172A"/>
<path d="M119.371 247.812H109.14C109.014 247.812 108.892 247.766 108.798 247.681C108.704 247.597 108.645 247.48 108.632 247.355L103.669 197.082L95.7825 246.462C95.7649 246.586 95.7006 246.7 95.6026 246.779C95.5047 246.858 95.3803 246.897 95.2547 246.888L85.4397 246.35C85.3721 246.346 85.3059 246.329 85.2451 246.299C85.1843 246.269 85.1301 246.228 85.0856 246.177C85.0412 246.125 85.0074 246.066 84.9863 246.002C84.9651 245.937 84.9571 245.869 84.9626 245.802L90.332 175.087C90.3397 174.96 90.3956 174.841 90.488 174.755C90.5804 174.668 90.7025 174.62 90.8293 174.62L121.858 174.031C121.998 174.031 122.133 174.086 122.233 174.184C122.326 174.283 122.377 174.413 122.376 174.549L119.858 247.324C119.853 247.452 119.8 247.573 119.71 247.663C119.62 247.754 119.499 247.807 119.371 247.812ZM109.597 246.797H118.884L121.361 175.056L91.347 175.625L86.0385 245.365L94.8792 245.853L103.304 193.073C103.304 192.938 103.357 192.809 103.452 192.714C103.547 192.619 103.677 192.565 103.811 192.565C103.946 192.565 104.075 192.619 104.17 192.714C104.265 192.809 104.319 192.938 104.319 193.073L109.597 246.797Z" fill="#0F172A"/>
<path d="M143.112 153.95C145.08 153.159 147.165 152.696 149.283 152.58C152.775 152.397 154.176 150.225 154.044 148.682C153.912 147.139 150.643 145.871 148.42 146.246C146.198 146.622 141.031 150.113 141.031 150.113L143.112 153.95Z" fill="white"/>
<path d="M143.113 154.514C143.022 154.515 142.932 154.491 142.853 154.445C142.774 154.398 142.71 154.331 142.667 154.25L140.576 150.413C140.517 150.303 140.5 150.174 140.53 150.052C140.56 149.93 140.634 149.824 140.738 149.754C140.951 149.601 146.016 146.201 148.32 145.805C150.142 145.566 151.988 146.014 153.497 147.064C153.768 147.253 153.999 147.495 154.173 147.776C154.348 148.057 154.463 148.371 154.512 148.698C154.538 149.173 154.468 149.649 154.308 150.096C154.148 150.544 153.899 150.956 153.578 151.307C153.027 151.894 152.359 152.36 151.619 152.676C150.878 152.992 150.08 153.152 149.274 153.144C147.219 153.258 145.196 153.707 143.286 154.473C143.231 154.497 143.173 154.51 143.113 154.514ZM141.692 150.342L143.337 153.387C145.236 152.68 147.231 152.263 149.254 152.149C149.921 152.163 150.584 152.039 151.201 151.784C151.818 151.529 152.375 151.149 152.837 150.667C153.071 150.42 153.253 150.128 153.372 149.809C153.49 149.49 153.543 149.15 153.527 148.81C153.487 148.62 153.408 148.44 153.297 148.282C153.185 148.123 153.043 147.988 152.878 147.886C151.587 147.027 150.029 146.667 148.493 146.871C146.737 147.054 142.91 149.49 141.692 150.292V150.342Z" fill="#0F172A"/>
<path d="M120.364 130.211C120.364 130.211 128.341 150.054 129.915 150.45C131.488 150.846 143.455 147.486 143.455 147.486L143.729 154.855C143.729 154.855 130.93 162.732 125.997 159.991C121.064 157.251 106.844 142.969 106.844 142.969L120.364 130.211Z" fill="#D54407"/>
<path d="M150.734 148.511L157.149 152.683L165.553 139.539L159.139 135.367L150.734 148.511Z" fill="#0F172A"/>
<path d="M157.147 153.188C157.049 153.193 156.953 153.164 156.873 153.107L150.458 148.935C150.403 148.9 150.355 148.855 150.317 148.801C150.279 148.747 150.252 148.686 150.238 148.622C150.224 148.558 150.223 148.492 150.234 148.427C150.246 148.362 150.27 148.3 150.306 148.245L158.71 135.05C158.746 134.993 158.794 134.943 158.85 134.905C158.905 134.867 158.969 134.84 159.035 134.827C159.099 134.81 159.166 134.808 159.231 134.82C159.296 134.833 159.357 134.859 159.411 134.898L165.825 139.07C165.881 139.105 165.929 139.151 165.967 139.204C166.005 139.258 166.031 139.319 166.045 139.383C166.06 139.447 166.061 139.514 166.049 139.578C166.038 139.643 166.013 139.705 165.978 139.76L157.573 152.955C157.539 153.014 157.493 153.065 157.436 153.103C157.38 153.142 157.316 153.168 157.249 153.178L157.147 153.188ZM151.433 148.418L156.995 152.031L164.851 139.729L159.289 136.116L151.433 148.418Z" fill="#0F172A"/>
<path d="M157.438 139.076L187.756 91.625L192.668 94.8223" fill="#0F172A"/>
<path d="M157.436 139.584C157.339 139.581 157.245 139.553 157.162 139.503C157.049 139.43 156.97 139.316 156.941 139.184C156.913 139.053 156.937 138.916 157.01 138.803L187.328 91.3515C187.399 91.2385 187.512 91.1583 187.643 91.1282C187.776 91.1003 187.914 91.1259 188.028 91.1992L192.941 94.3965C193.046 94.4724 193.119 94.5859 193.143 94.7136C193.167 94.8413 193.141 94.9734 193.071 95.0827C193.001 95.192 192.891 95.2702 192.765 95.3011C192.639 95.3321 192.506 95.3135 192.393 95.2491L187.907 92.3259L157.863 139.351C157.818 139.424 157.755 139.484 157.681 139.524C157.606 139.565 157.521 139.586 157.436 139.584Z" fill="#0F172A"/>
<path d="M196.849 130.472C205.015 117.239 202.977 101.168 192.296 94.5762C181.615 87.9846 166.336 93.3687 158.17 106.602C150.003 119.835 152.041 135.906 162.722 142.498C173.403 149.089 188.682 143.705 196.849 130.472Z" fill="#0F172A"/>
<path d="M172.911 145.826C169.07 145.86 165.303 144.773 162.07 142.699C151.332 135.716 149.525 119.202 158.01 105.875C162.689 98.557 169.693 93.4313 177.224 91.7971C179.881 91.1672 182.637 91.0725 185.332 91.5186C188.026 91.9647 190.604 92.9427 192.916 94.3955C203.655 101.379 205.472 117.893 196.976 131.21C192.297 138.538 185.294 143.664 177.752 145.298C176.161 145.641 174.538 145.818 172.911 145.826ZM158.883 106.423C150.672 119.273 152.357 135.168 162.629 141.847C164.822 143.24 167.274 144.176 169.838 144.598C172.402 145.02 175.025 144.92 177.549 144.303C184.827 142.73 191.597 137.756 196.124 130.661C204.335 117.812 202.66 101.927 192.388 95.2481C190.194 93.8532 187.74 92.9166 185.174 92.4945C182.608 92.0723 179.983 92.1735 177.458 92.7918C170.18 94.3651 163.42 99.3284 158.883 106.423Z" fill="#0F172A"/>
<path d="M192.627 128.11C200.869 114.892 198.901 98.7846 188.233 92.1325C177.564 85.4804 162.235 90.8028 153.993 104.02C145.751 117.238 147.719 133.346 158.387 139.998C169.056 146.65 184.385 141.328 192.627 128.11Z" fill="white"/>
<path d="M168.001 142.626C164.16 142.66 160.393 141.574 157.161 139.5C146.422 132.517 144.605 115.992 153.101 102.676C157.78 95.3574 164.783 90.2317 172.325 88.5975C174.982 87.9647 177.738 87.8686 180.433 88.3148C183.127 88.761 185.705 89.7405 188.017 91.1959C198.755 98.1791 200.562 114.693 192.077 128.01C187.408 135.328 180.404 140.464 172.863 142.098C171.265 142.443 169.635 142.62 168.001 142.626ZM177.268 89.0746C175.682 89.0666 174.1 89.2265 172.548 89.5516C165.27 91.1249 158.5 96.0882 153.973 103.183C145.762 116.033 147.437 131.928 157.709 138.607C159.903 140.001 162.357 140.938 164.923 141.36C167.489 141.782 170.114 141.681 172.639 141.063C179.917 139.49 186.687 134.516 191.214 127.421C199.425 114.571 197.74 98.6866 187.468 92.0079C184.43 90.0489 180.882 89.0286 177.268 89.0746Z" fill="#0F172A"/>
<path d="M187.898 124.791C194.36 114.32 192.746 101.603 184.293 96.386C175.84 91.1693 163.748 95.4288 157.286 105.9C150.824 116.371 152.439 129.088 160.892 134.305C169.345 139.522 181.436 135.262 187.898 124.791Z" fill="white"/>
<path d="M168.957 137.031C165.897 137.059 162.896 136.195 160.319 134.544C151.783 128.982 150.332 115.848 157.092 105.261C160.498 99.6797 165.97 95.6675 172.317 94.0961C174.43 93.5865 176.623 93.5036 178.769 93.8521C180.914 94.2007 182.968 94.9738 184.811 96.1261C193.358 101.678 194.809 114.812 188.049 125.399C184.641 130.979 179.171 134.99 172.824 136.564C171.556 136.858 170.259 137.014 168.957 137.031ZM176.296 94.6239C175.046 94.6296 173.801 94.7691 172.581 95.04C166.473 96.5469 161.21 100.412 157.944 105.789C151.489 115.939 152.798 128.413 160.878 133.671C162.602 134.767 164.531 135.503 166.547 135.834C168.564 136.166 170.626 136.086 172.611 135.599C178.712 134.09 183.969 130.23 187.237 124.861C193.703 114.711 192.393 102.226 184.314 96.9685C181.927 95.4213 179.14 94.6063 176.296 94.6239Z" fill="#0F172A"/>
<path d="M157.511 105.541C150.894 115.914 152.264 128.713 160.556 134.123C161.096 134.475 161.659 134.79 162.241 135.067C155.309 129.139 154.507 117.325 160.698 107.662C166.89 97.9991 177.882 93.8275 186.073 97.7555C185.583 97.3385 185.068 96.9521 184.531 96.5984C176.258 91.158 164.139 95.1774 157.511 105.541Z" fill="#0F172A"/>
<path d="M162.278 135.575C162.201 135.574 162.125 135.556 162.055 135.524C161.454 135.225 160.875 134.886 160.319 134.509C151.783 128.957 150.332 115.823 157.092 105.226C160.498 99.6448 165.97 95.6327 172.317 94.0613C174.43 93.5545 176.623 93.473 178.768 93.8215C180.913 94.17 182.967 94.9416 184.811 96.0913C185.369 96.4543 185.901 96.8545 186.405 97.289C186.497 97.3693 186.557 97.4803 186.574 97.6015C186.591 97.7226 186.564 97.8458 186.497 97.9483C186.43 98.0508 186.329 98.1258 186.211 98.1595C186.094 98.1931 185.968 98.1831 185.857 98.1314C177.737 94.2643 167.13 98.4461 161.111 107.855C155.092 117.264 155.722 128.784 162.552 134.631C162.631 134.698 162.687 134.787 162.713 134.887C162.74 134.987 162.735 135.093 162.7 135.19C162.664 135.287 162.6 135.371 162.516 135.431C162.432 135.49 162.331 135.523 162.228 135.524L162.278 135.575ZM176.296 94.6297C175.046 94.636 173.801 94.7755 172.581 95.0458C166.475 96.551 161.215 100.417 157.955 105.795C151.946 115.194 152.646 126.663 159.254 132.449C154.666 125.861 154.92 115.782 160.269 107.348C165.618 98.913 174.672 94.4977 182.528 96.0101C180.578 95.0958 178.449 94.6243 176.296 94.6297Z" fill="#0F172A"/>
<path d="M126.868 189.316L130.218 191.498C130.609 191.751 131.046 191.924 131.505 192.007C131.963 192.09 132.433 192.081 132.888 191.981C133.343 191.881 133.774 191.692 134.155 191.424C134.537 191.157 134.861 190.816 135.11 190.422L158.008 154.582C158.523 153.79 158.705 152.828 158.515 151.903C158.325 150.978 157.778 150.164 156.993 149.639L153.654 147.457C153.262 147.204 152.824 147.03 152.365 146.947C151.905 146.864 151.434 146.873 150.978 146.973C150.523 147.073 150.091 147.262 149.709 147.53C149.327 147.798 149.001 148.139 148.752 148.533L125.853 184.373C125.339 185.165 125.157 186.127 125.347 187.052C125.537 187.977 126.083 188.79 126.868 189.316Z" fill="white"/>
<path d="M132.098 192.572C131.324 192.569 130.567 192.343 129.916 191.923L126.566 189.741C126.114 189.451 125.724 189.075 125.419 188.634C125.113 188.193 124.898 187.696 124.785 187.171C124.673 186.646 124.666 186.104 124.764 185.577C124.863 185.049 125.065 184.546 125.359 184.097L148.257 148.258C148.838 147.353 149.754 146.715 150.804 146.485C151.855 146.255 152.954 146.45 153.86 147.029L157.199 149.212C157.651 149.501 158.041 149.877 158.347 150.318C158.653 150.759 158.868 151.257 158.98 151.781C159.093 152.306 159.1 152.848 159.001 153.376C158.903 153.903 158.701 154.406 158.407 154.855L135.509 190.695C135.143 191.268 134.639 191.741 134.043 192.069C133.447 192.397 132.778 192.57 132.098 192.572ZM127.115 188.888L130.464 191.07C131.138 191.502 131.955 191.652 132.738 191.486C133.13 191.401 133.501 191.238 133.831 191.008C134.16 190.778 134.44 190.485 134.656 190.147L157.554 154.307C157.777 153.97 157.93 153.592 158.004 153.196C158.079 152.799 158.075 152.391 157.991 151.997C157.907 151.602 157.745 151.228 157.515 150.896C157.285 150.564 156.991 150.281 156.651 150.064L153.302 147.882C152.969 147.665 152.597 147.516 152.207 147.445C151.816 147.373 151.416 147.381 151.028 147.466C150.636 147.552 150.264 147.714 149.935 147.944C149.606 148.174 149.325 148.467 149.11 148.806L126.221 184.645C125.999 184.982 125.845 185.359 125.769 185.755C125.694 186.151 125.698 186.559 125.781 186.953C125.864 187.348 126.025 187.722 126.254 188.055C126.482 188.387 126.775 188.67 127.115 188.888Z" fill="#0F172A"/>
<path d="M162.844 115.119C162.709 115.147 162.569 115.121 162.454 115.046C162.339 114.97 162.258 114.853 162.23 114.718C162.202 114.583 162.228 114.443 162.303 114.328C162.378 114.213 162.496 114.132 162.631 114.104L177.622 107.151C177.682 107.122 177.747 107.106 177.813 107.102C177.88 107.099 177.946 107.109 178.009 107.132C178.071 107.154 178.128 107.189 178.177 107.234C178.226 107.28 178.265 107.334 178.292 107.395C178.321 107.455 178.338 107.521 178.342 107.588C178.345 107.655 178.335 107.722 178.313 107.786C178.29 107.849 178.255 107.907 178.21 107.957C178.164 108.006 178.11 108.046 178.049 108.075L163.037 115.068C162.976 115.097 162.911 115.114 162.844 115.119Z" fill="#CBD5E1"/>
<path d="M175.053 116.629C174.919 116.659 174.778 116.634 174.662 116.559C174.545 116.485 174.464 116.368 174.434 116.233C174.404 116.099 174.429 115.958 174.504 115.842C174.578 115.725 174.695 115.644 174.83 115.614L187.771 109.463C187.89 109.424 188.019 109.43 188.135 109.479C188.25 109.528 188.343 109.617 188.398 109.73C188.452 109.843 188.464 109.971 188.431 110.092C188.398 110.213 188.322 110.318 188.218 110.387L175.276 116.578C175.208 116.616 175.131 116.633 175.053 116.629Z" fill="#CBD5E1"/>
<path d="M161.696 129.95C161.602 129.948 161.509 129.92 161.429 129.87C161.349 129.82 161.283 129.75 161.239 129.666C161.21 129.606 161.193 129.54 161.189 129.474C161.184 129.407 161.193 129.34 161.215 129.277C161.237 129.214 161.271 129.156 161.315 129.106C161.359 129.056 161.413 129.015 161.473 128.986L185.386 117.161C185.446 117.122 185.514 117.095 185.585 117.084C185.656 117.073 185.728 117.077 185.798 117.096C185.867 117.115 185.931 117.148 185.987 117.194C186.042 117.24 186.087 117.296 186.119 117.361C186.151 117.425 186.169 117.495 186.171 117.567C186.174 117.639 186.161 117.71 186.134 117.777C186.107 117.843 186.066 117.903 186.014 117.953C185.962 118.002 185.901 118.04 185.833 118.064L161.92 129.899C161.849 129.932 161.773 129.949 161.696 129.95Z" fill="#CBD5E1"/>
<path d="M112.664 122.745C111.842 122.654 111.02 122.461 110.055 122.319C109.091 122.177 108.025 121.771 108.025 120.868C108.025 119.964 109.04 119.508 108.858 118.746C108.797 118.54 108.697 118.347 108.563 118.178C107.407 116.373 106.966 114.201 107.325 112.088C107.716 109.972 108.899 108.084 110.634 106.81C110.38 106.871 110.126 106.607 110.116 106.333C110.133 106.064 110.249 105.811 110.441 105.622C111.155 104.928 112.053 104.452 113.029 104.252C116.124 103.505 119.373 103.714 122.347 104.851C124.631 105.683 127.32 107.723 126.854 110.545C126.788 111.052 126.551 111.521 126.181 111.873C125.812 112.226 125.333 112.442 124.824 112.484C124.133 115.529 122.438 117.457 120.327 119.528C118.92 120.956 117.174 122.003 115.252 122.573C114.409 122.8 113.53 122.858 112.664 122.745Z" fill="white"/>
<path d="M113.454 123.292C113.16 123.306 112.866 123.306 112.571 123.292C112.074 123.231 111.556 123.14 111.059 123.048L109.943 122.855C108.39 122.622 107.476 121.84 107.517 120.886C107.566 120.429 107.746 119.996 108.034 119.638C108.258 119.293 108.4 119.08 108.359 118.887C108.317 118.758 108.251 118.637 108.166 118.531C106.903 116.599 106.424 114.258 106.826 111.985C107.197 109.988 108.235 108.177 109.77 106.849C109.68 106.698 109.628 106.527 109.618 106.351C109.619 106.152 109.661 105.956 109.739 105.773C109.818 105.59 109.932 105.424 110.074 105.286C110.852 104.516 111.835 103.987 112.906 103.763C116.101 102.987 119.457 103.2 122.529 104.372C125.289 105.387 127.847 107.701 127.36 110.625C127.277 111.182 127.03 111.701 126.65 112.117C126.271 112.533 125.776 112.826 125.228 112.959C124.398 115.651 122.826 118.054 120.691 119.892C119.218 121.373 117.396 122.462 115.393 123.058C114.762 123.23 114.109 123.309 113.454 123.292ZM112.683 122.277C113.496 122.376 114.321 122.311 115.109 122.084C116.947 121.534 118.619 120.532 119.971 119.171C122.265 116.918 123.706 115.111 124.335 112.37C124.365 112.26 124.43 112.162 124.519 112.091C124.609 112.02 124.718 111.979 124.833 111.975C125.221 111.928 125.583 111.753 125.861 111.477C126.138 111.201 126.316 110.84 126.365 110.452C126.812 107.772 123.939 105.966 122.183 105.316C119.302 104.22 116.158 104.019 113.16 104.738C112.28 104.905 111.47 105.333 110.836 105.966C110.735 106.054 110.664 106.171 110.633 106.301C110.73 106.294 110.827 106.318 110.911 106.369C110.994 106.42 111.06 106.495 111.1 106.585C111.152 106.691 111.165 106.812 111.137 106.927C111.109 107.042 111.042 107.143 110.947 107.214C109.31 108.402 108.193 110.177 107.831 112.167C107.473 114.17 107.887 116.233 108.988 117.943C109.158 118.158 109.28 118.407 109.344 118.674C109.376 118.946 109.351 119.222 109.271 119.484C109.191 119.746 109.056 119.989 108.877 120.196C108.707 120.406 108.588 120.653 108.532 120.917C108.532 121.434 109.364 121.739 110.095 121.85C110.501 121.911 110.876 121.982 111.252 122.053C111.627 122.125 112.206 122.226 112.683 122.277Z" fill="#0F172A"/>
<path d="M125.377 116.953C125.377 116.953 127.326 120.648 126.788 121.328C126.25 122.008 124.758 121.328 124.758 121.328" fill="white"/>
<path d="M125.977 122.089C125.479 122.072 124.987 121.966 124.526 121.775C124.407 121.719 124.315 121.619 124.268 121.497C124.221 121.374 124.223 121.238 124.275 121.117C124.326 120.997 124.422 120.9 124.542 120.849C124.663 120.797 124.799 120.794 124.922 120.841C125.409 121.044 126.211 121.186 126.393 120.952C126.128 119.606 125.634 118.315 124.932 117.136C124.895 117.077 124.871 117.011 124.86 116.942C124.85 116.874 124.854 116.803 124.872 116.736C124.89 116.669 124.921 116.606 124.964 116.552C125.008 116.497 125.062 116.452 125.123 116.419C125.184 116.386 125.252 116.367 125.321 116.361C125.391 116.355 125.46 116.364 125.526 116.387C125.592 116.409 125.652 116.445 125.704 116.492C125.755 116.539 125.797 116.596 125.825 116.659C126.84 118.486 127.855 120.821 127.185 121.592C127.035 121.761 126.848 121.894 126.639 121.98C126.429 122.066 126.203 122.103 125.977 122.089Z" fill="#0F172A"/>
<path d="M125.327 112.263C126.666 113.603 126.007 116.079 125.834 117.714C125.601 120.018 125.306 122.322 124.971 124.605C124.748 126.057 120.993 125.712 120.373 125.204V131.041L112.781 127.184L113.553 122.443C114.435 122.458 115.305 122.227 116.064 121.777C116.824 121.328 117.444 120.676 117.856 119.896C119.602 117.064 120.008 110.578 120.008 110.578C120.008 110.578 124.027 110.954 125.327 112.263Z" fill="white"/>
<path d="M120.417 131.549C120.335 131.55 120.254 131.529 120.183 131.489L112.591 127.632C112.497 127.582 112.42 127.505 112.371 127.411C112.322 127.316 112.303 127.209 112.317 127.104L113.099 122.364C113.116 122.235 113.184 122.119 113.286 122.039C113.388 121.959 113.518 121.923 113.647 121.937C114.435 121.944 115.21 121.731 115.884 121.323C116.558 120.914 117.105 120.325 117.463 119.623C119.128 116.933 119.493 110.61 119.493 110.549C119.498 110.481 119.517 110.415 119.548 110.354C119.579 110.293 119.621 110.239 119.673 110.194C119.725 110.15 119.785 110.116 119.85 110.095C119.915 110.074 119.983 110.066 120.051 110.072C120.478 110.072 124.243 110.508 125.644 111.899C126.923 113.198 126.659 115.249 126.405 116.893C126.405 117.207 126.324 117.502 126.294 117.766C126.06 120.06 125.766 122.394 125.421 124.678C125.37 124.959 125.242 125.221 125.05 125.433C124.858 125.645 124.61 125.798 124.335 125.876C123.199 126.212 121.993 126.24 120.843 125.957V131.032C120.841 131.167 120.787 131.295 120.692 131.392C120.598 131.488 120.47 131.544 120.336 131.549H120.417ZM113.383 126.901L119.899 130.21V125.206C119.899 125.111 119.925 125.017 119.976 124.937C120.026 124.856 120.098 124.791 120.183 124.749C120.271 124.706 120.369 124.69 120.466 124.7C120.563 124.711 120.655 124.749 120.731 124.81C121.805 125.196 122.973 125.235 124.071 124.921C124.335 124.82 124.477 124.688 124.497 124.536C124.842 122.252 125.126 119.948 125.36 117.664C125.36 117.38 125.4 117.076 125.482 116.751C125.685 115.33 125.928 113.553 125.005 112.62C124.172 111.787 121.848 111.32 120.549 111.138C120.407 112.782 119.879 117.705 118.356 120.161C117.926 120.946 117.307 121.612 116.556 122.099C115.805 122.586 114.945 122.88 114.053 122.952L113.383 126.901Z" fill="#0F172A"/>
<path d="M125.077 122.882C124.84 123.011 124.579 123.086 124.311 123.104C124.043 123.121 123.774 123.08 123.523 122.984C123.272 122.887 123.045 122.738 122.857 122.545C122.67 122.352 122.527 122.121 122.438 121.867" fill="white"/>
<path d="M124.094 123.604C123.817 123.61 123.541 123.562 123.282 123.461C122.975 123.334 122.697 123.142 122.47 122.899C122.242 122.656 122.069 122.366 121.963 122.051C121.916 121.925 121.919 121.786 121.972 121.663C122.025 121.54 122.124 121.443 122.247 121.391C122.309 121.365 122.375 121.351 122.442 121.352C122.51 121.352 122.576 121.366 122.638 121.392C122.699 121.419 122.755 121.457 122.801 121.506C122.847 121.555 122.883 121.612 122.907 121.675C122.964 121.86 123.06 122.03 123.188 122.175C123.316 122.32 123.472 122.437 123.648 122.518C124.052 122.629 124.483 122.597 124.866 122.426C124.987 122.371 125.125 122.365 125.251 122.411C125.376 122.456 125.478 122.549 125.536 122.67C125.565 122.729 125.582 122.793 125.586 122.859C125.59 122.925 125.581 122.991 125.559 123.054C125.538 123.116 125.504 123.173 125.46 123.223C125.415 123.272 125.362 123.311 125.302 123.34C124.923 123.512 124.511 123.602 124.094 123.604Z" fill="#0F172A"/>
<path d="M120.855 117.968C120.848 117.385 120.68 116.816 120.368 116.324C120.183 115.91 119.937 115.526 119.637 115.187C119.487 115.02 119.301 114.889 119.094 114.803C118.887 114.717 118.663 114.678 118.439 114.689C118.235 114.712 118.038 114.779 117.863 114.886C117.687 114.993 117.538 115.137 117.424 115.309C117.211 115.646 117.075 116.028 117.028 116.425C116.914 117.289 117.024 118.167 117.347 118.976C117.671 119.785 118.197 120.497 118.876 121.043L118.764 120.891" fill="white"/>
<path d="M118.922 121.516C118.811 121.515 118.703 121.476 118.617 121.405C117.863 120.812 117.278 120.03 116.922 119.139C116.565 118.249 116.45 117.279 116.587 116.33C116.642 115.859 116.805 115.407 117.065 115.01C117.21 114.78 117.405 114.585 117.635 114.439C117.865 114.294 118.124 114.201 118.394 114.168C118.695 114.15 118.995 114.199 119.274 114.311C119.553 114.423 119.804 114.596 120.008 114.817C120.339 115.194 120.613 115.619 120.82 116.076C121.182 116.65 121.372 117.316 121.368 117.994C121.355 118.128 121.291 118.252 121.189 118.339C121.086 118.426 120.954 118.47 120.82 118.461C120.753 118.456 120.688 118.438 120.629 118.407C120.569 118.377 120.516 118.335 120.473 118.284C120.429 118.233 120.396 118.174 120.376 118.111C120.355 118.047 120.348 117.98 120.353 117.913C120.34 117.424 120.189 116.949 119.917 116.543C119.755 116.175 119.539 115.833 119.277 115.528C119.181 115.415 119.061 115.325 118.926 115.264C118.791 115.202 118.644 115.171 118.496 115.173C118.251 115.224 118.035 115.37 117.897 115.579C117.735 115.856 117.631 116.163 117.592 116.482C117.496 117.196 117.57 117.923 117.81 118.603C118.05 119.282 118.449 119.895 118.973 120.39C119.074 120.424 119.162 120.488 119.226 120.572L119.338 120.725C119.419 120.816 119.463 120.933 119.463 121.055C119.463 121.176 119.419 121.293 119.338 121.384C119.284 121.438 119.218 121.478 119.146 121.501C119.074 121.524 118.997 121.529 118.922 121.516Z" fill="#0F172A"/>
<path d="M125.214 115.062C125.232 114.602 125.102 114.224 124.922 114.217C124.743 114.21 124.583 114.576 124.565 115.036C124.546 115.495 124.677 115.873 124.856 115.88C125.035 115.887 125.195 115.521 125.214 115.062Z" fill="#0F172A"/>
<path d="M111.086 128.445L111.999 125.969L122.028 127.583L122.769 131.47C118.655 131.699 114.572 130.642 111.086 128.445Z" fill="#0F172A"/>
<path d="M121.647 132.032C117.819 131.991 114.077 130.899 110.827 128.875C110.729 128.815 110.654 128.722 110.615 128.613C110.577 128.505 110.576 128.386 110.614 128.277L111.528 125.8C111.57 125.69 111.648 125.597 111.749 125.536C111.85 125.475 111.969 125.45 112.086 125.465L122.114 127.089C122.219 127.104 122.316 127.151 122.392 127.224C122.469 127.297 122.52 127.391 122.54 127.495L123.271 131.382C123.285 131.451 123.283 131.522 123.268 131.59C123.252 131.658 123.222 131.722 123.18 131.778C123.14 131.835 123.089 131.883 123.03 131.918C122.97 131.953 122.904 131.974 122.835 131.981C122.44 132.021 122.044 132.037 121.647 132.032ZM111.72 128.226C114.877 130.103 118.493 131.066 122.165 131.007L121.607 128.033L112.34 126.541L111.72 128.226Z" fill="#0F172A"/>
<path d="M142.922 160.602C144.4 161.33 145.914 161.98 147.459 162.55C148.16 162.652 149.489 160.916 150.271 161.414C151.052 161.911 153.773 165.037 153.773 165.534C153.773 166.032 152.534 169.838 151.458 169.594C150.311 169.244 149.203 168.778 148.15 168.204L141.156 167.189" fill="white"/>
<path d="M151.535 170.17H151.362C150.186 169.811 149.053 169.324 147.982 168.719L141.08 167.704C141.015 167.695 140.952 167.674 140.895 167.64C140.837 167.607 140.788 167.562 140.748 167.509C140.708 167.456 140.679 167.396 140.663 167.332C140.647 167.268 140.644 167.201 140.654 167.136C140.674 167.002 140.746 166.881 140.854 166.799C140.963 166.718 141.098 166.682 141.233 166.699L148.216 167.714H148.388C149.389 168.276 150.447 168.729 151.545 169.064C152.083 168.973 153.22 166.151 153.26 165.451C152.332 164.092 151.237 162.854 150.002 161.766C149.84 161.665 149.211 162.111 148.906 162.324C148.498 162.725 147.955 162.956 147.384 162.974C145.778 162.399 144.212 161.721 142.694 160.944C142.635 160.916 142.581 160.876 142.537 160.827C142.493 160.778 142.459 160.72 142.437 160.658C142.415 160.596 142.406 160.53 142.41 160.464C142.414 160.398 142.432 160.333 142.461 160.274C142.518 160.154 142.62 160.061 142.746 160.015C142.871 159.969 143.01 159.975 143.131 160.031C144.558 160.754 146.029 161.388 147.536 161.929C147.819 161.81 148.082 161.649 148.317 161.452C148.987 160.985 149.809 160.437 150.54 160.873C151.271 161.309 154.275 164.578 154.275 165.42C154.275 165.918 153.372 168.841 152.306 169.724C152.116 169.966 151.84 170.126 151.535 170.17Z" fill="#0F172A"/>
<path d="M125.858 133.016C125.858 133.016 128.599 153.762 130.091 153.762C131.583 153.762 145.803 160.603 145.803 160.603L143.377 169.738C143.377 169.738 125.168 167.099 121.22 165.181C119.129 164.166 115.516 141.836 115.516 141.836L125.858 133.016Z" fill="#D54407"/>
<path d="M125.299 131.919C119.828 128.965 112.307 123.941 102.786 131.31C93.2652 138.679 88.7891 180.121 88.7891 180.121L124.446 177.381C124.446 177.381 130.414 134.67 125.299 131.919Z" fill="#D54407"/>
<path d="M119.22 164.283C119.102 164.285 118.988 164.246 118.897 164.171C118.806 164.097 118.744 163.993 118.722 163.877C118.722 163.745 116.225 150.835 114.764 141.669C114.743 141.537 114.775 141.403 114.853 141.295C114.931 141.186 115.049 141.113 115.18 141.091C115.314 141.073 115.45 141.107 115.559 141.186C115.669 141.266 115.744 141.384 115.769 141.517C117.22 150.652 119.687 163.553 119.717 163.684C119.741 163.816 119.711 163.952 119.635 164.062C119.559 164.173 119.443 164.249 119.311 164.273L119.22 164.283Z" fill="#0F172A"/>
<path d="M141.674 159.455C141.617 159.465 141.559 159.465 141.501 159.455L128.022 154.796C127.928 154.762 127.846 154.702 127.785 154.623C127.724 154.544 127.687 154.449 127.677 154.35C127.677 154.177 126.49 137.49 125.19 133.633C125.148 133.505 125.157 133.366 125.216 133.245C125.275 133.123 125.378 133.03 125.505 132.984C125.634 132.944 125.774 132.956 125.895 133.017C126.015 133.077 126.109 133.182 126.155 133.309C127.403 137.023 128.489 151.477 128.672 153.944L141.867 158.501C142.001 158.522 142.122 158.597 142.202 158.707C142.282 158.817 142.315 158.955 142.293 159.09C142.272 159.224 142.197 159.345 142.087 159.425C141.977 159.505 141.839 159.537 141.704 159.516L141.674 159.455Z" fill="#0F172A"/>
<path d="M146.156 147.402C146.156 147.402 149.648 144.479 150.785 144.54C151.921 144.601 156.205 145.108 154.987 146.032C153.769 146.956 150.673 146.519 150.673 146.519C150.673 146.519 151.028 146.895 149.577 147.92" fill="white"/>
<path d="M149.533 148.42C149.425 148.42 149.319 148.387 149.231 148.323C149.144 148.259 149.079 148.169 149.046 148.066C149.013 147.963 149.014 147.852 149.049 147.749C149.083 147.647 149.15 147.558 149.239 147.496C149.598 147.284 149.906 146.997 150.142 146.653C150.097 146.532 150.097 146.399 150.142 146.278C150.191 146.186 150.267 146.112 150.359 146.065C150.452 146.017 150.557 146 150.66 146.014C151.928 146.225 153.228 146.12 154.446 145.71C153.223 145.316 151.953 145.091 150.67 145.04C150.061 144.979 148 146.44 146.397 147.79C146.29 147.873 146.156 147.911 146.022 147.898C145.888 147.885 145.765 147.821 145.676 147.719C145.633 147.669 145.6 147.61 145.579 147.547C145.558 147.484 145.551 147.417 145.557 147.351C145.562 147.285 145.581 147.22 145.612 147.162C145.643 147.103 145.686 147.051 145.737 147.009C146.6 146.288 149.513 143.964 150.721 144.025C150.903 144.025 155.217 144.268 155.593 145.486C155.642 145.661 155.632 145.848 155.564 146.017C155.497 146.186 155.374 146.328 155.217 146.42C154.141 147.232 152.03 147.161 151.035 147.07C150.723 147.58 150.295 148.011 149.787 148.328C149.712 148.38 149.624 148.412 149.533 148.42Z" fill="#0F172A"/>
<path d="M110.289 252.883V259.338C110.289 259.338 126.681 260.15 126.448 258.881C126.214 257.613 118.145 253.451 118.145 253.451L110.289 252.883Z" fill="#0F172A"/>
<path d="M119.546 260.073C116.206 260.073 112.512 259.921 110.268 259.809C110.137 259.804 110.013 259.748 109.923 259.653C109.832 259.559 109.781 259.433 109.781 259.301V252.846C109.781 252.776 109.796 252.706 109.824 252.641C109.852 252.577 109.892 252.519 109.944 252.47C109.995 252.422 110.055 252.385 110.122 252.362C110.189 252.339 110.259 252.331 110.329 252.338L118.175 252.917C118.239 252.902 118.305 252.902 118.368 252.917C120.865 254.196 126.701 257.332 126.955 258.703C126.972 258.802 126.966 258.904 126.938 259C126.909 259.097 126.86 259.186 126.793 259.261C126.275 259.941 123.118 260.073 119.546 260.073ZM110.796 258.824C117.302 259.129 124.265 259.159 125.808 258.723C125.016 257.83 121.342 255.678 118.003 253.922L110.796 253.384V258.824Z" fill="#0F172A"/>
<path d="M275.13 47.3984C272.817 47.3984 270.6 48.317 268.965 49.9521C267.329 51.5872 266.411 53.8049 266.411 56.1173V64.826H117.805V56.1173C117.805 53.8049 118.723 51.5872 120.358 49.9521C121.993 48.317 124.211 47.3984 126.524 47.3984H275.13Z" fill="white"/>
<path d="M266.411 65.334H117.804C117.671 65.3314 117.543 65.2771 117.448 65.1825C117.354 65.0878 117.299 64.9603 117.297 64.8265V56.1178C117.308 53.6769 118.284 51.3395 120.013 49.6164C121.742 47.8933 124.082 46.9245 126.523 46.9219H275.129C275.264 46.9219 275.393 46.9753 275.488 47.0705C275.583 47.1657 275.637 47.2948 275.637 47.4294C275.637 47.564 275.583 47.6931 275.488 47.7882C275.393 47.8834 275.264 47.9369 275.129 47.9369C272.961 47.9449 270.884 48.809 269.35 50.3412C267.816 51.8734 266.949 53.9496 266.938 56.1178V64.8265C266.938 64.8949 266.925 64.9626 266.898 65.0255C266.871 65.0884 266.832 65.1453 266.783 65.1927C266.733 65.2401 266.675 65.2771 266.611 65.3013C266.547 65.3256 266.479 65.3367 266.411 65.334ZM118.312 64.319H265.923V56.1178C265.93 54.427 266.4 52.7703 267.282 51.3279C268.164 49.8855 269.425 48.7127 270.927 47.9369H126.523C124.346 47.9396 122.259 48.8055 120.72 50.3449C119.181 51.8842 118.315 53.9713 118.312 56.1482V64.319Z" fill="#0F172A"/>
<path d="M217.907 101.5H206.641V147.957H217.907V101.5Z" fill="#94A3B8"/>
<path d="M217.907 148.423H206.64C206.506 148.423 206.377 148.37 206.281 148.274C206.186 148.179 206.133 148.05 206.133 147.916V101.5C206.135 101.366 206.19 101.238 206.284 101.144C206.379 101.049 206.507 100.995 206.64 100.992H217.907C218.041 100.992 218.17 101.046 218.266 101.141C218.361 101.236 218.414 101.365 218.414 101.5V147.956C218.404 148.084 218.346 148.203 218.252 148.289C218.158 148.376 218.035 148.424 217.907 148.423ZM207.148 147.408H217.399V102.007H207.148V147.408Z" fill="#94A3B8"/>
<path d="M217.907 101.5H206.641V118.542H217.907V101.5Z" fill="white"/>
<path d="M217.907 119.049H206.64C206.506 119.049 206.377 118.996 206.281 118.9C206.186 118.805 206.133 118.676 206.133 118.542V101.5C206.135 101.366 206.19 101.238 206.284 101.144C206.379 101.049 206.507 100.995 206.64 100.992H217.907C218.041 100.992 218.17 101.046 218.266 101.141C218.361 101.236 218.414 101.365 218.414 101.5V118.542C218.414 118.676 218.361 118.805 218.266 118.9C218.17 118.996 218.041 119.049 217.907 119.049ZM207.148 118.034H217.399V102.007H207.148V118.034Z" fill="#94A3B8"/>
<path d="M234.774 101.5H223.508V147.957H234.774V101.5Z" fill="#94A3B8"/>
<path d="M234.764 148.423H223.507C223.373 148.423 223.244 148.37 223.149 148.274C223.053 148.179 223 148.05 223 147.916V101.5C223 101.365 223.053 101.236 223.149 101.141C223.244 101.046 223.373 100.992 223.507 100.992H234.764C234.898 100.992 235.028 101.046 235.123 101.141C235.218 101.236 235.271 101.365 235.271 101.5V147.956C235.261 148.084 235.203 148.203 235.109 148.289C235.015 148.376 234.892 148.424 234.764 148.423ZM224.015 147.408H234.256V102.007H224.015V147.408Z" fill="#94A3B8"/>
<path d="M234.774 101.5H223.508V124.723H234.774V101.5Z" fill="white"/>
<path d="M234.764 125.241H223.507C223.373 125.241 223.244 125.187 223.149 125.092C223.053 124.997 223 124.868 223 124.733V101.5C223 101.365 223.053 101.236 223.149 101.141C223.244 101.046 223.373 100.992 223.507 100.992H234.764C234.898 100.992 235.028 101.046 235.123 101.141C235.218 101.236 235.271 101.365 235.271 101.5V124.733C235.271 124.868 235.218 124.997 235.123 125.092C235.028 125.187 234.898 125.241 234.764 125.241ZM224.015 124.226H234.256V102.007H224.015V124.226Z" fill="#94A3B8"/>
<path d="M251.634 101.5H240.367V147.957H251.634V101.5Z" fill="#94A3B8"/>
<path d="M251.633 148.423H240.367C240.232 148.423 240.103 148.37 240.008 148.274C239.913 148.179 239.859 148.05 239.859 147.916V101.5C239.859 101.365 239.913 101.236 240.008 101.141C240.103 101.046 240.232 100.992 240.367 100.992H251.633C251.767 100.995 251.895 101.049 251.989 101.144C252.084 101.238 252.138 101.366 252.141 101.5V147.956C252.131 148.084 252.073 148.203 251.979 148.289C251.885 148.376 251.761 148.424 251.633 148.423ZM240.874 147.408H251.126V102.007H240.874V147.408Z" fill="#94A3B8"/>
<path d="M251.634 101.5H240.367V110.026H251.634V101.5Z" fill="white"/>
<path d="M251.633 110.533H240.367C240.232 110.533 240.103 110.48 240.008 110.385C239.913 110.289 239.859 110.16 239.859 110.026V101.5C239.859 101.365 239.913 101.236 240.008 101.141C240.103 101.046 240.232 100.992 240.367 100.992H251.633C251.767 100.995 251.895 101.049 251.989 101.144C252.084 101.238 252.138 101.366 252.141 101.5V110.026C252.138 110.159 252.084 110.287 251.989 110.382C251.895 110.476 251.767 110.531 251.633 110.533ZM240.874 109.518H251.126V102.007H240.874V109.518Z" fill="#94A3B8"/>
<path d="M268.493 101.5H257.227V147.957H268.493V101.5Z" fill="#94A3B8"/>
<path d="M268.493 148.423H257.226C257.092 148.423 256.963 148.37 256.867 148.274C256.772 148.179 256.719 148.05 256.719 147.916V101.5C256.719 101.365 256.772 101.236 256.867 101.141C256.963 101.046 257.092 100.992 257.226 100.992H268.493C268.627 100.995 268.754 101.049 268.849 101.144C268.943 101.238 268.998 101.366 269 101.5V147.956C268.99 148.084 268.932 148.203 268.838 148.289C268.744 148.376 268.621 148.424 268.493 148.423ZM257.734 147.408H267.955V102.007H257.703L257.734 147.408Z" fill="#94A3B8"/>
<path d="M268.493 101.5H257.227V119.242H268.493V101.5Z" fill="white"/>
<path d="M268.493 119.749H257.226C257.092 119.749 256.963 119.696 256.867 119.601C256.772 119.506 256.719 119.376 256.719 119.242V101.5C256.719 101.365 256.772 101.236 256.867 101.141C256.963 101.046 257.092 100.992 257.226 100.992H268.493C268.627 100.995 268.754 101.049 268.849 101.144C268.943 101.238 268.998 101.366 269 101.5V119.242C269 119.376 268.947 119.506 268.852 119.601C268.756 119.696 268.627 119.749 268.493 119.749ZM257.734 118.734H267.955V102.007H257.703L257.734 118.734Z" fill="#94A3B8"/>
<path d="M180.507 180.625C180.373 180.625 180.244 180.571 180.149 180.476C180.053 180.381 180 180.252 180 180.117V156.945C180 156.81 180.053 156.681 180.149 156.586C180.244 156.491 180.373 156.438 180.507 156.438C180.641 156.44 180.769 156.494 180.863 156.589C180.958 156.684 181.012 156.811 181.015 156.945V180.117C181.015 180.252 180.962 180.381 180.866 180.476C180.771 180.571 180.642 180.625 180.507 180.625Z" fill="#CBD5E1"/>
<path d="M241.57 180.625C241.435 180.625 241.306 180.571 241.211 180.476C241.116 180.381 241.062 180.252 241.062 180.117V156.945C241.065 156.811 241.119 156.684 241.214 156.589C241.309 156.494 241.436 156.44 241.57 156.438C241.705 156.438 241.834 156.491 241.929 156.586C242.024 156.681 242.077 156.81 242.077 156.945V180.117C242.077 180.252 242.024 180.381 241.929 180.476C241.834 180.571 241.705 180.625 241.57 180.625Z" fill="#CBD5E1"/>
<path d="M276.141 148.421H196.789C196.654 148.421 196.525 148.368 196.43 148.273C196.335 148.177 196.281 148.048 196.281 147.914C196.281 147.779 196.335 147.65 196.43 147.555C196.525 147.46 196.654 147.406 196.789 147.406H276.141C276.276 147.406 276.405 147.46 276.5 147.555C276.595 147.65 276.649 147.779 276.649 147.914C276.649 148.048 276.595 148.177 276.5 148.273C276.405 148.368 276.276 148.421 276.141 148.421Z" fill="#94A3B8"/>
<path d="M143.525 89.2939C143.437 89.2943 143.35 89.2734 143.272 89.233C143.161 89.1583 143.083 89.0446 143.053 88.9147C143.023 88.7848 143.043 88.6483 143.109 88.5326C145.156 84.9593 147.92 81.8489 151.229 79.3976C153.807 77.5097 156.05 76.7992 158.08 77.2357C159.724 77.7649 161.208 78.7006 162.394 79.9559C162.77 80.2807 163.145 80.6156 163.521 80.9709C164.646 81.8708 165.893 82.6056 167.226 83.1531C167.775 83.4113 168.375 83.5431 168.982 83.5388C169.691 83.4249 170.352 83.1036 170.88 82.6152C171.737 81.8931 172.547 81.1167 173.305 80.2908C174.552 78.7942 176.079 77.5562 177.802 76.647C179.089 76.0873 180.5 75.8753 181.895 76.032C183.29 76.1888 184.619 76.7088 185.749 77.5402C186.294 77.9756 186.81 78.447 187.292 78.951C187.691 79.3645 188.112 79.7575 188.551 80.1284C191.18 82.2498 195.321 82.5847 199.127 81.0013C202.71 79.5093 205.664 76.6267 208.161 74.0486C208.208 74.001 208.264 73.9632 208.326 73.9375C208.388 73.9117 208.454 73.8984 208.521 73.8984C208.588 73.8984 208.654 73.9117 208.716 73.9375C208.778 73.9632 208.834 74.001 208.881 74.0486C208.975 74.1451 209.027 74.2744 209.027 74.4089C209.027 74.5434 208.975 74.6726 208.881 74.7692C206.313 77.4184 203.268 80.372 199.503 81.9453C195.372 83.6809 190.814 83.2749 187.901 80.9303C187.424 80.5344 186.988 80.098 186.561 79.6717C186.111 79.2031 185.63 78.7657 185.12 78.3623C184.138 77.6375 182.982 77.1837 181.769 77.0465C180.555 76.9093 179.327 77.0936 178.208 77.5808C176.607 78.4377 175.187 79.5957 174.026 80.9912C173.247 81.8337 172.413 82.6238 171.529 83.3561C170.847 83.9693 170 84.3682 169.093 84.5031C168.322 84.5263 167.557 84.3663 166.86 84.0362C165.438 83.4575 164.108 82.6745 162.912 81.7118C162.516 81.3972 162.13 81.0622 161.745 80.6968C160.661 79.5696 159.315 78.729 157.827 78.2507C156.091 77.8751 154.122 78.5349 151.737 80.2807C148.539 82.6294 145.867 85.6198 143.891 89.0604C143.851 89.1239 143.797 89.1778 143.734 89.2181C143.671 89.2585 143.6 89.2844 143.525 89.2939Z" fill="#CBD5E1"/>
<path d="M266.711 78.0306H224.984C224.85 78.028 224.723 77.9737 224.628 77.8791C224.533 77.7845 224.479 77.6569 224.477 77.5231C224.477 77.3885 224.53 77.2594 224.625 77.1643C224.72 77.0691 224.849 77.0156 224.984 77.0156H266.711C266.845 77.0156 266.974 77.0691 267.07 77.1643C267.165 77.2594 267.218 77.3885 267.218 77.5231C267.218 77.6577 267.165 77.7868 267.07 77.882C266.974 77.9772 266.845 78.0306 266.711 78.0306Z" fill="#CBD5E1"/>
<path d="M266.709 83.6634H249.687C249.553 83.6634 249.424 83.61 249.328 83.5148C249.233 83.4196 249.18 83.2905 249.18 83.1559C249.18 83.0213 249.233 82.8923 249.328 82.7971C249.424 82.7019 249.553 82.6484 249.687 82.6484H266.688C266.823 82.6484 266.952 82.7019 267.047 82.7971C267.142 82.8923 267.196 83.0213 267.196 83.1559C267.196 83.2871 267.145 83.4132 267.055 83.5078C266.964 83.6024 266.84 83.6582 266.709 83.6634Z" fill="#CBD5E1"/>
<path d="M242.584 83.6634H224.984C224.849 83.6634 224.72 83.61 224.625 83.5148C224.53 83.4196 224.477 83.2905 224.477 83.1559C224.479 83.0222 224.533 82.8946 224.628 82.8C224.723 82.7053 224.85 82.651 224.984 82.6484H242.584C242.718 82.651 242.846 82.7053 242.94 82.8C243.035 82.8946 243.089 83.0222 243.092 83.1559C243.092 83.2905 243.038 83.4196 242.943 83.5148C242.848 83.61 242.719 83.6634 242.584 83.6634Z" fill="#CBD5E1"/>
<path d="M266.712 89.3041H230.273C230.139 89.3041 230.009 89.2506 229.914 89.1554C229.819 89.0602 229.766 88.9312 229.766 88.7966C229.766 88.662 229.819 88.5329 229.914 88.4377C230.009 88.3425 230.139 88.2891 230.273 88.2891H266.712C266.846 88.2891 266.975 88.3425 267.07 88.4377C267.166 88.5329 267.219 88.662 267.219 88.7966C267.219 88.9312 267.166 89.0602 267.07 89.1554C266.975 89.2506 266.846 89.3041 266.712 89.3041Z" fill="#CBD5E1"/>
</svg>
