<svg width="240" height="240" viewBox="0 0 240 240" fill="none" xmlns="http://www.w3.org/2000/svg">
<rect width="240" height="240" rx="12" fill="#FCF0E1"/>
<path d="M142.661 61.5009H122.451C121.068 61.5009 119.953 60.3856 119.953 59.0025V44.057C119.953 42.6739 121.068 41.5586 122.451 41.5586C122.451 41.5586 122.451 41.5586 122.496 41.5586L145.695 41.8709C147.034 41.9155 148.149 43.0308 148.104 44.3693L147.792 64.7577C147.792 65.3823 147.257 65.9177 146.632 65.9177C146.275 65.9177 145.918 65.7392 145.74 65.4715L142.661 61.5009Z" fill="#000005"/>
<path d="M146.634 66.1858C146.188 66.1858 145.787 65.9627 145.519 65.6504L142.53 61.7244H122.409C120.937 61.7244 119.688 60.5198 119.688 59.003V44.0574C119.688 43.3436 119.955 42.6297 120.491 42.139C121.026 41.6482 121.695 41.3359 122.409 41.3359L145.608 41.6482C146.322 41.6482 146.991 41.9605 147.526 42.4513C148.017 42.942 148.285 43.6559 148.285 44.3697L147.973 64.7581C147.973 65.3381 147.571 65.8735 147.036 66.0519C146.946 66.1412 146.813 66.1858 146.634 66.1858ZM122.454 41.8267C121.204 41.8267 120.223 42.8528 120.223 44.102V59.0476C120.223 60.2968 121.249 61.3229 122.498 61.3229H142.842L145.965 65.4273C146.277 65.8289 146.857 65.9181 147.259 65.6058C147.482 65.4273 147.616 65.1596 147.616 64.892L147.928 44.5035C147.928 43.2543 146.946 42.2282 145.697 42.2282L122.543 41.9159H122.454V41.8267Z" fill="#000005"/>
<path d="M128.074 48.3406C131.42 50.5713 134.722 52.802 138.023 55.1219C138.469 55.3896 138.96 55.5234 139.495 55.5234C139.674 55.5234 140.343 55.5234 139.942 55.2111C136.685 52.8912 133.339 50.6605 129.993 48.4298C129.547 48.1622 129.056 48.0283 128.52 48.0283C128.387 48.0283 127.673 48.0729 128.074 48.3406Z" fill="white"/>
<path d="M137.576 45.9313C134.363 49.1435 131.33 52.5342 128.564 56.1479C128.296 56.5048 130.303 57.1294 130.66 56.6832C133.471 53.1141 136.46 49.6789 139.672 46.4667C139.94 46.199 139.137 45.976 139.003 45.9313C138.646 45.8421 137.843 45.619 137.576 45.9313Z" fill="white"/>
<path d="M220.071 48.876C220.071 48.876 221.276 54.185 221.276 55.7019C221.276 57.2187 214.539 103.795 211.461 104.955L220.071 48.876Z" fill="white"/>
<path d="M219.045 49.2772C219.224 50.1248 219.402 51.0171 219.581 51.8648C219.893 53.1586 220.116 54.4078 220.205 55.7462C220.205 56.46 220.116 57.1292 219.982 57.843C219.492 61.4567 218.956 65.0704 218.421 68.7288C217.618 73.8593 216.77 78.9899 215.878 84.1205C215.03 88.8495 214.138 93.534 213.023 98.2184C212.666 99.8245 212.22 101.386 211.684 102.947C211.684 102.992 211.64 103.081 211.595 103.126C211.55 103.171 211.64 103.081 211.55 103.215C211.461 103.349 211.461 103.483 211.372 103.617C211.283 103.84 211.193 104.063 211.06 104.286L210.926 104.509C210.881 104.598 210.703 104.777 210.881 104.598C210.837 104.643 210.792 104.732 210.747 104.732C210.837 104.687 210.926 104.598 210.97 104.554C211.372 104.33 211.06 104.509 210.792 104.598L210.257 104.821L209.81 105C209.498 105.089 208.829 105.49 208.963 105.892C209.097 106.293 209.944 106.07 210.212 105.981L211.55 105.49C211.863 105.401 212.353 105.089 212.398 104.732L213.246 99.1553L215.298 85.7712L217.796 69.5764L219.938 55.5677L220.652 50.9725C220.741 50.2587 220.919 49.5003 221.008 48.7864C221.008 48.7418 221.008 48.7418 221.008 48.6972C221.142 47.9388 219.001 48.4741 218.912 49.2326L218.064 54.8093L216.012 68.1934L213.513 84.4328L211.372 98.4415L210.658 103.037C210.569 103.75 210.346 104.509 210.301 105.223C210.301 105.267 210.301 105.267 210.301 105.312L211.149 104.554L209.81 105.044L210.212 106.026C211.015 105.713 211.907 105.535 212.532 104.866C212.8 104.554 213.023 104.152 213.201 103.75C213.781 102.412 214.227 101.029 214.539 99.646C215.744 95.1847 216.592 90.6341 217.439 86.0835C218.421 80.8191 219.269 75.5546 220.116 70.2902C220.741 66.3196 221.365 62.3044 221.901 58.2891C222.035 57.3969 222.168 56.5046 222.213 55.6123C222.213 54.8539 222.124 54.0508 221.99 53.2924C221.767 51.954 221.499 50.571 221.187 49.2326C221.142 48.9649 221.098 48.6972 221.008 48.4741C220.964 47.7603 218.867 48.4741 219.045 49.2772Z" fill="#D54407"/>
<path d="M208.917 110.264C208.515 111.959 207.534 113.431 206.151 114.458C199.28 119.499 178.49 134.757 177.241 135.114C175.769 135.515 120.358 111.379 120.76 106.338L209.14 109.282L208.917 110.264Z" fill="white"/>
<path d="M208.026 109.64C207.625 111.291 206.643 112.718 205.305 113.7C204.68 114.191 204.011 114.637 203.342 115.127L198.167 118.92C194.107 121.909 190.003 124.853 185.898 127.798C182.998 129.85 180.143 131.991 177.154 133.865L177.02 133.954C176.931 133.999 177.109 133.91 177.02 133.954L176.797 134.088C176.708 134.133 176.618 134.177 176.529 134.222C176.44 134.311 176.752 134.222 176.574 134.222C176.395 134.222 176.797 134.267 176.529 134.222C175.905 134.044 175.325 133.821 174.7 133.597C173.674 133.196 172.648 132.794 171.622 132.393C170.997 132.125 170.328 131.858 169.703 131.59L169.614 131.545L169.346 131.456L168.766 131.233L167.651 130.742C164.171 129.27 160.691 127.753 157.211 126.192C153.285 124.407 149.359 122.578 145.478 120.749C141.686 118.92 137.938 117.046 134.235 115.083C132.629 114.235 131.023 113.343 129.462 112.451C128.748 112.049 128.034 111.603 127.32 111.201L127.097 111.068L127.142 111.112L127.008 111.023L126.517 110.711L125.625 110.131C125.09 109.774 124.554 109.417 124.063 109.06C123.84 108.881 123.617 108.748 123.35 108.569L123.037 108.346L122.904 108.212C122.725 108.078 123.127 108.391 122.948 108.212C122.636 107.945 122.324 107.632 122.011 107.365C122.324 107.677 121.967 107.275 121.833 107.142C121.654 106.918 121.967 107.365 121.833 107.142C121.788 107.097 121.744 107.008 121.744 106.963C121.654 106.829 121.877 107.231 121.744 107.008C121.744 106.963 121.699 106.918 121.699 106.874C121.788 107.052 121.744 107.052 121.744 106.918C121.744 106.74 121.744 107.008 121.744 106.918L121.387 107.142L123.751 107.231L130.22 107.454L139.723 107.766L151.322 108.168L164.082 108.569L176.886 109.015L188.843 109.417L198.97 109.774L206.242 109.997C207.402 110.041 208.562 110.131 209.677 110.131H209.766L208.339 108.658L208.026 109.64C207.848 110.309 209.633 111.603 209.811 110.889L210.034 109.952C210.168 109.328 209.186 108.48 208.606 108.48L206.242 108.391L199.773 108.168L190.27 107.855L178.671 107.454L165.956 107.052L153.152 106.651L141.195 106.249L131.068 105.892L123.796 105.669C122.636 105.625 121.521 105.58 120.361 105.58H120.227C120.093 105.58 119.87 105.625 119.87 105.803C119.825 106.606 120.361 107.32 120.851 107.855C121.61 108.658 122.413 109.372 123.35 110.041C125.893 111.826 128.525 113.477 131.291 114.904C134.86 116.867 138.518 118.741 142.177 120.526C146.147 122.489 150.162 124.407 154.222 126.236C157.925 127.932 161.628 129.582 165.376 131.188C168.231 132.393 171.042 133.597 173.942 134.757C174.789 135.07 175.637 135.427 176.485 135.694C176.886 135.828 177.466 136.096 177.912 135.962C178.18 135.828 178.448 135.694 178.671 135.516C179.161 135.204 179.608 134.891 180.054 134.624C181.571 133.597 182.998 132.571 184.515 131.545C188.619 128.645 192.724 125.656 196.784 122.667L202.628 118.384C204.19 117.269 205.796 116.198 207.268 114.949C208.517 113.878 209.409 112.451 209.766 110.889C209.989 110.22 208.25 108.881 208.026 109.64Z" fill="#D54407"/>
<path d="M210.434 105.222C210.434 105.222 220.919 49.5 220.071 48.8754C219.223 48.2508 160.869 37.5435 158.995 38.6143C157.121 39.685 154.801 83.9418 155.649 85.8155C156.496 87.6893 210.211 106.472 210.434 105.222Z" fill="white"/>
<path d="M211.511 105.491C211.823 103.751 212.18 102.011 212.492 100.271C213.295 96.0771 214.054 91.8388 214.812 87.6005C215.749 82.3807 216.686 77.2055 217.623 71.9857C218.47 67.3012 219.273 62.5722 220.032 57.8431C220.478 55.1663 221.013 52.4003 221.147 49.6788C221.192 49.4112 221.192 49.1435 221.147 48.9204C221.013 48.385 220.478 48.162 219.987 48.0281C219.229 47.8051 218.426 47.6712 217.667 47.4928C214.143 46.7343 210.618 46.1097 207.094 45.4405C202.053 44.5036 196.967 43.5668 191.925 42.6745C186.705 41.7376 181.441 40.8453 176.177 39.9977C172.027 39.3285 167.878 38.6593 163.685 38.1239C162.48 37.9901 161.276 37.8116 160.071 37.767C159.357 37.7224 158.331 37.5885 157.84 38.2577C157.305 38.9716 157.216 40.1761 157.082 41.0238C156.77 42.7637 156.591 44.5483 156.413 46.3328C155.877 51.4188 155.52 56.5047 155.208 61.5907C154.896 66.7659 154.628 71.9411 154.45 77.1609C154.405 78.99 154.36 80.8638 154.36 82.7376C154.316 83.7191 154.36 84.7006 154.494 85.6375C154.673 86.4405 155.476 86.7974 156.19 87.1543C157.305 87.7343 158.42 88.1804 159.536 88.6712C163.417 90.2773 167.388 91.7495 171.314 93.2218C176.266 95.051 181.263 96.8355 186.259 98.5754C190.944 100.226 195.673 101.832 200.402 103.349C203.302 104.286 206.202 105.267 209.146 105.937C209.726 106.071 211.288 106.472 211.511 105.535C211.734 104.554 209.548 104.018 209.325 105C209.369 104.777 210.038 104.375 210.128 104.554C210.128 104.554 209.86 104.509 209.815 104.509C210.083 104.464 210.083 104.554 209.86 104.509L209.592 104.464L208.968 104.331C207.674 104.018 206.425 103.661 205.175 103.26C201.16 102.055 197.145 100.717 193.13 99.3339L192.237 99.0216L191.836 98.8877C192.014 98.9323 191.568 98.7985 191.524 98.7539L189.695 98.0401C188.49 97.6385 187.241 97.1924 186.036 96.7463C183.538 95.854 181.039 94.9617 178.496 94.0695C173.991 92.4634 169.485 90.8573 165.023 89.1173C162.257 88.1358 159.536 86.9759 156.903 85.6821L156.814 85.6375C156.636 85.5482 157.037 85.7713 156.903 85.6821C156.859 85.6375 156.77 85.5929 156.68 85.5482C156.547 85.459 156.279 85.1913 156.591 85.5036C156.502 85.3698 156.68 85.6375 156.68 85.7267C156.68 85.5928 156.636 85.5036 156.636 85.3698C156.547 84.2544 156.502 83.1391 156.547 82.0684C156.547 77.7408 156.77 73.4133 156.993 69.0858C157.26 63.7321 157.573 58.4231 158.019 53.0695C158.331 49.0989 158.643 45.0836 159.357 41.1576C159.446 40.6223 159.58 40.0869 159.714 39.5961C159.759 39.4177 159.803 39.2838 159.893 39.1054C159.803 39.3731 159.848 39.1946 159.893 39.1054C160.026 38.9716 159.937 39.0608 159.848 39.15C159.937 39.0608 159.402 39.3731 159.625 39.2392C159.67 39.1946 159.714 39.2392 159.759 39.2392C159.982 39.1946 159.446 39.2392 159.714 39.2392C160.116 39.2392 160.517 39.2392 160.874 39.2838C162.212 39.3731 163.506 39.5515 164.8 39.73C165.692 39.8192 166.54 39.9531 167.388 40.0869L168.057 40.1761L168.414 40.2207L168.637 40.2654L170.154 40.4884C175.017 41.2469 179.835 42.0499 184.698 42.8529C189.918 43.7452 195.137 44.6821 200.357 45.619C204.685 46.422 209.012 47.2251 213.295 48.0727C215.437 48.5189 217.578 49.0096 219.72 49.4558C219.898 49.5004 219.363 49.3219 219.541 49.4112C219.72 49.5004 219.318 49.2773 219.273 49.2327C219.229 49.1881 218.961 48.8758 219.006 48.8312V48.9204C219.006 48.9204 219.006 49.0096 219.006 49.0542C219.006 49.1881 219.006 49.2327 219.006 49.0542C219.006 49.2327 219.006 49.3665 218.961 49.545C218.872 50.705 218.693 51.8203 218.515 52.9802C217.935 56.9955 217.221 61.0107 216.552 64.9813C215.66 70.0673 214.767 75.1532 213.831 80.2392C212.983 85.0129 212.091 89.7419 211.198 94.5156C210.618 97.5493 210.083 100.583 209.503 103.617C209.414 104.063 209.325 104.464 209.28 104.866C209.191 105.981 211.332 106.472 211.511 105.491Z" fill="#D54407"/>
<path d="M208.114 100.315C208.114 100.315 215.253 54.9877 215.03 54.1401C214.807 53.2924 163.813 43.2097 162.787 44.0574C161.761 44.905 158.147 81.8452 158.995 83.5405C159.842 85.2358 205.795 100.092 208.114 100.315Z" fill="white"/>
<path d="M209.054 99.9582C209.277 98.4413 209.545 96.9244 209.768 95.363C210.348 91.7046 210.883 88.0909 211.463 84.4326C212.177 79.9712 212.846 75.5545 213.516 71.0931C214.096 67.2563 214.676 63.4196 215.256 59.5828C215.434 58.2444 215.612 56.9506 215.791 55.6122C215.925 54.9876 215.969 54.363 216.014 53.6938C215.969 53.2476 215.523 53.203 215.166 53.0692C214.319 52.8015 213.426 52.623 212.579 52.4C209.367 51.6415 206.11 50.9277 202.898 50.2585C198.659 49.3662 194.376 48.5186 190.093 47.6709C185.81 46.8233 181.483 46.0202 177.111 45.2172C173.809 44.6372 170.508 44.0126 167.162 43.5219C166.225 43.388 165.288 43.2542 164.307 43.1649C163.325 43.0757 162.433 43.2096 161.853 44.1464C161.541 44.8156 161.362 45.5295 161.273 46.2879C161.005 47.7602 160.827 49.2324 160.604 50.66C160.068 54.8983 159.622 59.1366 159.176 63.3749C158.775 67.7471 158.373 72.0746 158.061 76.4468C157.972 78.0082 157.838 79.6143 157.838 81.1758C157.748 82.0235 157.793 82.8711 157.882 83.7188C157.972 84.2541 158.507 84.4326 158.953 84.7003C159.89 85.1464 160.827 85.5479 161.808 85.9495C165.154 87.2879 168.5 88.4478 171.891 89.6078C176.219 91.1247 180.546 92.5969 184.874 94.0245C188.978 95.4076 193.127 96.746 197.276 98.0398C200.042 98.9321 202.853 99.8243 205.664 100.583C206.244 100.761 206.824 100.94 207.448 101.029C207.983 100.984 208.474 100.761 208.787 100.315C209.01 100.047 209.233 99.5566 208.697 99.512C208.608 99.512 208.563 99.512 208.474 99.4674L208.34 99.4228C208.207 99.3782 208.474 99.4674 208.385 99.4228L208.296 99.3782L207.18 99.0659C206.02 98.7536 204.816 98.3967 203.656 98.0398C200.087 96.9691 196.473 95.8091 192.904 94.6491C188.577 93.2661 184.294 91.8385 179.966 90.3662C175.995 89.0278 172.025 87.6448 168.099 86.2172C165.6 85.3695 163.147 84.388 160.738 83.3173C160.47 83.1834 160.247 83.0496 159.979 82.9157C159.89 82.8711 159.89 82.8711 159.979 82.9157C159.935 82.9157 159.935 82.8711 159.89 82.8265C159.845 82.7819 159.845 82.7819 159.845 82.7819C159.845 82.8711 159.935 82.9157 159.845 82.7819C159.756 81.9789 159.756 81.1312 159.801 80.3281C159.89 76.7591 160.202 73.1453 160.47 69.5762C160.827 65.0703 161.273 60.6089 161.764 56.1029C162.165 52.6677 162.522 49.2324 163.102 45.8418C163.191 45.3956 163.281 44.9049 163.37 44.4587C163.414 44.3249 163.459 44.1464 163.504 44.0126C163.504 43.968 163.548 43.9234 163.548 43.8342C163.593 43.6557 163.459 44.0126 163.504 43.8788C163.191 44.2357 162.79 44.5034 162.388 44.6818C162.567 44.6372 162.165 44.6818 162.433 44.6818C162.701 44.6818 163.013 44.7264 163.325 44.7264C165.868 44.9941 168.456 45.4402 170.954 45.8864C174.925 46.5556 178.851 47.314 182.821 48.0278C187.194 48.8755 191.566 49.7232 195.893 50.6154C199.685 51.3739 203.478 52.1769 207.225 52.98C209.411 53.4707 211.419 53.8276 213.56 54.4968C213.739 54.586 213.872 54.6307 214.051 54.6753C214.006 54.6753 213.962 54.5414 213.962 54.5414C213.962 54.586 213.962 54.6753 213.962 54.7199C213.917 55.4337 213.783 56.1475 213.694 56.8613C213.649 57.3521 213.56 57.9321 213.471 58.5567C213.382 59.3151 213.248 60.0289 213.159 60.7873C212.891 62.5719 212.623 64.3564 212.356 66.1856C211.686 70.4239 211.062 74.6622 210.393 78.9451C209.768 83.0942 209.099 87.1987 208.474 91.3477C208.073 93.9799 207.627 96.6567 207.225 99.3336L207.047 100.449C207.002 101.564 208.965 100.627 209.054 99.9582Z" fill="#D54407"/>
<path d="M209.145 109.327C209.145 109.327 178.719 133.24 176.22 133.24C173.722 133.24 120.186 108.033 120.81 106.383C121.435 104.732 153.646 89.3848 155.475 89.3848C157.304 89.3848 209.145 109.327 209.145 109.327Z" fill="white"/>
<path d="M208.43 108.569C207.002 109.684 205.53 110.844 204.057 111.96C200.756 114.547 197.41 117.09 194.109 119.589C190.495 122.31 186.881 125.031 183.223 127.664C181.795 128.69 180.368 129.671 178.895 130.653C178.36 131.01 177.825 131.367 177.245 131.679C177.022 131.813 176.799 131.947 176.575 132.036L176.442 132.125C176.263 132.214 176.62 132.036 176.486 132.08C176.352 132.125 176.308 132.17 176.219 132.214C176.129 132.259 175.862 132.303 175.817 132.348C175.862 132.303 176.174 132.303 175.951 132.303C175.906 132.303 176.352 132.303 176.129 132.303C175.817 132.303 176.397 132.393 176.129 132.303L175.772 132.214C174.925 131.947 174.122 131.59 173.319 131.277C170.374 130.073 167.474 128.779 164.619 127.485C160.648 125.701 156.722 123.871 152.796 122.042C150.7 121.061 148.603 120.035 146.506 119.053L143.338 117.536C142.268 117.001 141.331 116.555 140.394 116.109C136.735 114.324 133.122 112.54 129.508 110.666C127.188 109.461 124.779 108.257 122.593 106.784C122.325 106.606 122.058 106.383 121.745 106.204C121.567 106.115 121.968 106.427 121.79 106.249C121.745 106.204 121.701 106.16 121.656 106.16C121.433 105.981 121.745 106.338 121.656 106.204C121.745 106.338 121.745 106.472 121.745 106.606C121.745 106.561 121.656 107.007 121.567 106.963C121.478 106.918 122.058 106.606 121.611 106.874C121.968 106.695 122.281 106.383 122.593 106.16C123.797 105.401 125.091 104.688 126.34 104.018C127.188 103.572 128.036 103.126 128.883 102.68C129.776 102.189 130.802 101.698 131.56 101.297C135.754 99.2001 139.948 97.1479 144.186 95.1849C147.398 93.668 150.655 92.1511 153.956 90.8573C154.358 90.6789 154.804 90.545 155.206 90.4112L155.429 90.3666C155.652 90.322 155.116 90.4112 155.339 90.3666C155.652 90.322 154.982 90.3666 155.25 90.3666C155.562 90.3666 154.982 90.2774 155.206 90.3666L155.562 90.4558C155.919 90.545 156.276 90.6789 156.633 90.8127C159.31 91.705 161.987 92.6865 164.664 93.668C168.634 95.1402 172.56 96.5679 176.531 98.0847C180.858 99.6908 185.141 101.342 189.469 102.992C193.216 104.42 197.009 105.848 200.756 107.275L207.627 109.907L208.563 110.264C209.099 110.487 209.723 110.264 209.991 109.774C210.17 109.283 209.902 108.747 209.411 108.569H209.367C208.073 108.078 206.779 107.587 205.485 107.097C202.273 105.848 199.016 104.598 195.759 103.394C191.521 101.788 187.283 100.182 183.089 98.5755C178.851 96.9694 174.568 95.3633 170.285 93.7572C166.939 92.508 163.548 91.2588 160.202 90.0989C159.132 89.742 158.105 89.3405 157.035 89.0282C156.41 88.7605 155.741 88.6266 155.072 88.582C154.224 88.7159 153.421 88.9836 152.707 89.3405C151.235 89.9204 149.807 90.545 148.38 91.2142C144.231 93.0434 140.171 95.0064 136.111 96.9694C132.185 98.8878 128.214 100.851 124.377 102.948C123.173 103.572 121.968 104.241 120.853 105C120.228 105.446 119.158 106.071 119.648 107.007C119.916 107.587 120.63 107.989 121.121 108.346C122.013 108.926 122.95 109.461 123.887 109.997C126.92 111.692 130.043 113.298 133.166 114.859C137.271 116.912 141.375 118.919 145.48 120.882C149.673 122.89 153.912 124.898 158.105 126.816C161.63 128.467 165.199 130.073 168.768 131.634C170.82 132.571 172.873 133.419 175.014 134.177C175.683 134.445 176.397 134.445 177.022 134.177C178.048 133.686 179.029 133.151 179.966 132.482C183.268 130.34 186.435 127.976 189.603 125.656C193.35 122.89 197.053 120.079 200.756 117.224C203.388 115.216 205.976 113.209 208.563 111.157L209.723 110.264C210.973 109.194 209.411 107.811 208.43 108.569Z" fill="#D54407"/>
<path d="M186.93 44.4145C186.93 44.4145 188.045 44.8606 187.777 45.9313C187.51 47.0021 186.037 46.3775 185.948 45.619C185.859 44.8606 186.35 43.9237 186.93 44.4145Z" fill="#D54407"/>
<path d="M194.559 111.781L190.276 109.952L180.059 105.579L167.656 100.27L156.949 95.7198C155.209 94.9614 153.514 94.1584 151.729 93.4891L151.64 93.4445C151.239 93.2661 150.614 93.3107 150.525 93.8014C150.436 94.2922 151.016 94.7829 151.417 94.9614L155.7 96.7906L165.917 101.163L178.319 106.472L189.026 111.067C190.766 111.825 192.462 112.628 194.246 113.298L194.335 113.342C194.737 113.521 195.362 113.476 195.451 112.985C195.54 112.495 194.96 111.959 194.559 111.781Z" fill="#D54407"/>
<path d="M189.382 116.019L184.921 114.145L174.213 109.684L161.32 104.286L150.122 99.6014C148.337 98.8429 146.508 98.0399 144.679 97.3261L144.59 97.2814C144.233 97.103 143.742 97.1476 143.742 97.6384C143.742 98.1291 144.322 98.6199 144.724 98.7983L149.185 100.672L159.892 105.133L172.786 110.532L183.984 115.216C185.813 115.975 187.597 116.778 189.427 117.491L189.516 117.536C189.873 117.715 190.363 117.67 190.363 117.179C190.363 116.688 189.784 116.198 189.382 116.019Z" fill="#D54407"/>
<path d="M184.114 120.392L179.653 118.518L168.901 114.057L155.963 108.658L144.676 103.974C142.847 103.216 141.062 102.368 139.233 101.699L139.144 101.654C138.608 101.476 138.028 101.565 137.582 101.966C137.359 102.145 137.314 102.502 137.493 102.725C137.582 102.814 137.671 102.903 137.805 102.903L142.267 104.777L153.018 109.238L165.956 114.637L177.244 119.321C179.028 120.08 180.857 120.927 182.687 121.596L182.776 121.641C183.311 121.819 183.891 121.686 184.337 121.329C184.56 121.15 184.605 120.793 184.427 120.57C184.337 120.481 184.248 120.436 184.114 120.392Z" fill="#D54407"/>
<path d="M189.691 106.249L182.731 110.666L171.667 117.715L169.124 119.321C168.678 119.633 168.856 120.258 169.213 120.57C169.659 120.927 170.284 120.971 170.775 120.659L177.734 116.242L188.754 109.193L191.297 107.587C191.743 107.275 191.565 106.65 191.208 106.338C190.762 105.981 190.182 105.937 189.691 106.249Z" fill="#D54407"/>
<path d="M178.763 101.564L172.428 105.267L162.389 111.156L160.07 112.539C159.266 112.985 160.471 114.904 161.274 114.413L167.609 110.71L177.647 104.821L179.967 103.438C180.77 102.992 179.61 101.118 178.763 101.564Z" fill="#D54407"/>
<path d="M166.849 96.4783L160.202 100.27L149.673 106.338L147.219 107.721C146.238 108.301 147.219 110.264 148.201 109.729L154.848 105.892L165.377 99.8244L167.831 98.4413C168.812 97.906 167.831 95.943 166.849 96.4783Z" fill="#D54407"/>
<path d="M172.558 77.3406C175.698 74.3381 183.146 70.9107 187.814 81.2214" stroke="#D54407" stroke-width="2" stroke-linecap="round"/>
<path d="M176.126 70.915C177.152 69.5319 178.267 68.2828 179.517 67.1228C179.874 66.6767 179.829 66.0075 179.427 65.6505C179.026 65.249 178.357 65.2044 177.955 65.6059C176.706 66.7659 175.591 68.0597 174.565 69.3981C174.386 69.6212 174.297 69.8442 174.297 70.1119C174.341 70.6919 174.832 71.1826 175.412 71.2273C175.635 71.2273 175.903 71.0934 176.126 70.915Z" fill="white"/>
<path d="M194.463 72.8776C193.838 71.3161 193.08 69.8439 192.098 68.5055C191.741 68.0593 191.161 67.8363 190.626 68.0147C190.135 68.2378 190.18 68.7732 190.447 69.1747C190.581 69.3531 190.671 69.487 190.804 69.6654C190.849 69.7547 190.938 69.8439 190.983 69.9331C190.849 69.7101 191.027 69.9777 191.027 70.0223C191.206 70.3346 191.429 70.6469 191.607 71.0038C191.964 71.673 192.277 72.3869 192.589 73.1007C192.723 73.3684 192.901 73.5468 193.169 73.6807C193.392 73.8145 193.704 73.8591 193.972 73.8591C194.195 73.8591 194.418 73.7253 194.507 73.5468C194.552 73.3238 194.552 73.1007 194.463 72.8776Z" fill="white"/>
<path d="M147.437 183.788C147.437 183.788 170.725 188.338 161.267 168.619C151.809 148.9 92.8295 103.26 73.824 102.858C54.8186 102.457 26.3551 133.597 20.1984 159.875C14.0417 186.152 29.6119 195.476 29.6119 195.476L46.8327 185.304L147.437 183.788Z" fill="#000005"/>
<path d="M146.859 183.877C148.554 184.189 150.25 184.367 151.945 184.412C154.756 184.501 157.789 184.367 160.422 183.207C167.872 179.906 163.768 170.448 160.555 165.451C158.548 162.373 156.272 159.518 153.774 156.796C150.74 153.406 147.528 150.193 144.182 147.026C136.464 139.798 128.344 133.017 119.823 126.727C111.748 120.704 103.361 114.993 94.5271 110.13C91.0472 108.167 87.4335 106.427 83.7306 104.955C80.8307 103.75 77.7524 102.947 74.6294 102.635C70.3911 102.278 66.1974 103.304 62.316 105C57.3639 107.186 52.8579 110.353 48.7089 113.833C39.2061 122.087 31.3095 132.036 25.4651 143.189C19.8884 153.807 15.9178 166.388 18.2823 178.478C19.4869 184.68 22.6098 190.97 27.7404 194.852C28.0081 195.03 28.2758 195.253 28.5435 195.387C28.9896 195.655 30.2388 195.878 30.6849 195.61L45.7644 186.732L47.9058 185.483L47.3704 185.527L50.0473 185.483L57.3639 185.394L68.205 185.215L81.4107 184.992L95.8209 184.769L110.454 184.546L124.061 184.323L135.572 184.144L143.87 184.011C145.164 184.011 146.502 183.966 147.796 183.966H147.974C148.197 183.966 148.688 184.011 148.376 183.743C148.064 183.475 147.216 183.52 146.859 183.52L143.022 183.564L132.85 183.743L118.172 183.966L101.175 184.234L83.5521 184.501L67.4912 184.769L54.6871 184.947L47.2812 185.037C46.9243 185.037 46.5674 185.037 46.2105 185.037C45.7644 185.081 45.3628 185.215 45.0059 185.483L42.6414 186.866L29.3911 194.673L28.4096 195.253L30.5511 195.476C29.4804 194.807 28.4989 193.959 27.6512 193.067C25.4205 190.792 23.636 188.115 22.3868 185.17C17.8808 174.865 19.6207 162.73 23.4575 152.469C27.785 140.958 34.834 130.385 43.2214 121.418C47.1474 117.135 51.5641 113.298 56.2932 109.907C60.2638 107.141 64.6806 104.732 69.4096 103.572C70.3911 103.304 71.4172 103.171 72.4433 103.037C73.1572 102.947 73.871 102.947 74.5848 102.992C74.2279 102.992 74.7186 102.992 74.8079 103.037C75.1202 103.081 74.674 102.992 74.9863 103.037L75.4771 103.081C75.7447 103.126 75.254 103.037 75.5217 103.081L75.7894 103.126C76.5032 103.26 76.9493 103.349 77.6631 103.572C80.9646 104.554 84.1767 105.803 87.2105 107.364C95.5978 111.424 103.539 116.555 111.123 121.908C119.734 127.931 127.987 134.445 135.839 141.404C142.531 147.293 149.134 153.539 154.711 160.499C156.719 162.908 158.459 165.496 159.886 168.262C161.492 171.563 163.321 176.203 161.448 179.817C160.198 182.226 157.477 183.297 154.934 183.698C154.265 183.787 153.64 183.877 152.971 183.877C152.614 183.877 152.57 183.877 152.168 183.921H151.365C151.097 183.921 150.785 183.921 150.517 183.877H150.16C149.893 183.877 150.428 183.877 150.16 183.877H149.893C149.67 183.877 149.402 183.832 149.179 183.832L148.867 183.787C149.268 183.832 148.822 183.787 148.733 183.787L147.885 183.654C148.197 183.698 147.974 183.654 147.84 183.654C147.439 183.564 146.725 183.386 146.324 183.564C145.922 183.743 146.681 183.832 146.859 183.877Z" fill="#000005"/>
<path d="M100.062 85.5483C100.062 85.5483 102.694 62.483 82.8859 58.557C63.0774 54.631 42.7782 74.038 46.9272 98.0401C51.0763 122.042 80.6552 118.384 80.6552 118.384L100.062 85.5483Z" fill="white"/>
<path d="M100.597 86.4847C100.91 83.0494 100.687 79.5696 99.9281 76.2235C98.5005 69.6207 94.976 63.1963 88.9085 59.8503C81.458 55.7459 71.9999 56.4151 64.5495 60.118C56.5636 64.044 50.4515 71.3607 47.6409 79.7926C46.124 84.4325 45.544 89.34 45.9902 94.2029C46.3025 98.575 47.5963 102.858 49.7377 106.695C51.4776 109.684 53.8422 112.271 56.6974 114.234C59.2404 115.93 62.0957 117.224 65.0402 118.027C69.5908 119.276 74.3199 119.811 79.0489 119.543C79.5843 119.499 80.1196 119.499 80.655 119.454C80.8781 119.454 80.9673 119.454 81.1011 119.32C81.3242 119.008 81.5473 118.651 81.7257 118.25L83.0641 115.974L92.433 100.181L100.107 87.2431L100.597 86.4847C100.776 86.217 100.285 85.414 100.151 85.1909C100.107 85.0571 99.705 84.3432 99.5712 84.6109L94.1283 93.7567L84.4025 110.175L81.0119 115.93C80.7442 116.376 80.4765 116.822 80.2089 117.268C80.1196 117.402 80.075 117.402 80.1642 117.357C80.1196 117.357 80.0304 117.357 79.9858 117.357C79.5843 117.357 79.1381 117.447 78.692 117.447C77.9336 117.491 77.1305 117.536 76.3721 117.536C74.0968 117.536 71.8215 117.402 69.5908 117.09C63.8356 116.287 57.9912 114.324 53.6191 110.353C52.4591 109.327 51.433 108.122 50.5408 106.829C49.6485 105.535 48.9347 104.107 48.4439 102.59C46.9717 98.3073 46.6594 93.489 47.1055 88.9831C48.0424 79.9711 52.5038 71.7176 59.4635 65.9624C65.9771 60.6534 74.5875 57.8873 82.9303 59.4488C86.6778 60.118 90.2469 61.6349 93.1022 64.2225C94.2622 65.2486 95.2883 66.4531 96.1359 67.7469L96.4036 68.1931C96.5375 68.4161 96.5375 68.3715 96.6267 68.55C96.7159 68.7284 96.8051 68.8623 96.8944 69.0407C96.939 69.13 96.9836 69.2192 97.0282 69.3084C97.1621 69.5315 96.9836 69.1746 97.0728 69.3977C97.3851 70.0222 97.6528 70.6468 97.8759 71.2714L97.9651 71.4945C97.8759 71.316 98.0097 71.5837 98.0097 71.6283L98.1882 72.0745C98.2774 72.3868 98.4559 72.8775 98.5005 73.056C98.6789 73.7252 98.8574 74.3944 98.9912 75.019C99.2589 76.2235 99.4374 77.4727 99.5266 78.6773C99.705 80.3726 99.705 82.0679 99.6158 83.7633C99.6158 84.0309 99.5712 84.254 99.5712 84.4771C99.5712 84.9678 99.7497 85.414 100.017 85.7709C100.017 85.9939 100.553 86.7524 100.597 86.4847Z" fill="#000005"/>
<path d="M103.94 104.999C108.714 95.229 95.8202 67.2562 95.8202 67.2562C89.3066 60.8318 65.4383 71.3161 65.4383 71.3161C70.6581 78.0527 72.398 90.723 72.398 90.723C67.892 84.6109 60.6646 89.3846 62.6276 95.8982C64.5906 102.412 72.7995 102.59 72.7995 102.59C72.7995 102.59 73.8703 117.134 75.0748 119.633C76.2794 122.131 89.5296 123.068 94.3033 114.056C94.3033 114.056 99.7462 113.521 103.94 104.999Z" fill="white"/>
<path d="M104.523 105.936C105.549 103.839 105.683 101.386 105.594 99.0657C105.415 96.0766 104.969 93.0875 104.211 90.1876C102.783 84.3878 100.909 78.7219 98.5894 73.1898C97.9648 71.6283 97.2956 70.0222 96.5818 68.4607C96.4479 68.1484 96.3141 67.8807 96.1802 67.5684C95.5557 66.3639 94.4849 65.427 93.1911 64.9362C90.9158 63.9993 88.239 64.044 85.8299 64.267C82.8408 64.5793 79.8516 65.1593 76.9518 66.007C74.3195 66.7208 71.732 67.613 69.189 68.5499C67.7613 68.9961 66.3783 69.576 64.9953 70.2006L64.7722 70.2899C64.5491 70.3791 65.4414 71.6729 65.5306 71.8067C67.449 74.3051 68.609 77.4281 69.5459 80.4172C70.3489 82.9602 70.9735 85.5924 71.4643 88.2246C71.5535 88.7153 71.6427 89.2061 71.732 89.7414L72.1781 90.0537C70.6612 88.0461 68.4305 86.3508 65.7983 86.9754C63.5676 87.5108 62.0508 89.4738 61.6939 91.6598C61.2477 94.4259 62.6308 97.2812 64.3707 99.378C65.7983 100.984 67.6275 102.189 69.6797 102.769C70.8397 103.126 72.0442 103.349 73.2934 103.393L72.1335 101.564C72.3565 104.553 72.6242 107.498 72.9811 110.487C73.2042 112.494 73.4719 114.502 73.8288 116.51C74.1411 118.071 74.5872 119.722 75.7918 120.793C76.7733 121.64 78.2009 121.908 79.4501 122.042C81.4131 122.265 83.3761 122.131 85.2945 121.685C87.4806 121.194 89.5328 120.257 91.3174 118.963C92.2542 118.25 93.1019 117.402 93.8157 116.42C93.9942 116.197 94.1726 115.93 94.3065 115.707C94.4403 115.528 94.6188 114.993 94.7972 114.859C94.8418 114.859 94.9311 114.859 94.9757 114.859C96.0464 114.547 97.1171 114.145 98.054 113.565C100.151 112.182 101.891 110.308 103.185 108.122C103.72 107.498 104.166 106.739 104.523 105.936C104.657 105.713 104.211 105.133 104.077 104.91C104.032 104.865 103.363 103.973 103.318 104.062C101.489 107.721 98.634 111.691 94.4849 112.941C94.2172 112.985 93.9496 113.03 93.6819 113.119C93.4588 113.253 93.2804 113.788 93.1465 114.011C92.8342 114.502 92.4773 114.993 92.0758 115.439C90.6035 117.09 88.7298 118.383 86.6775 119.142C84.8038 119.856 82.7961 120.302 80.7439 120.346C79.1378 120.436 77.5763 120.257 76.0595 119.766C75.7918 119.677 75.5687 119.543 75.301 119.41C75.2118 119.365 75.078 119.276 74.9888 119.231L74.9441 119.186C74.8103 119.097 74.9441 119.231 74.8995 119.142C75.078 119.41 75.301 119.722 75.4349 119.99C75.4795 120.079 75.4795 120.168 75.4795 120.034C75.4795 119.9 75.4795 119.99 75.4349 119.99L75.3903 119.811C75.301 119.499 75.2118 119.231 75.1672 118.919C74.8103 117.134 74.498 115.305 74.3195 113.476C73.918 110.219 73.695 106.918 73.3827 103.661V103.482C73.2934 103.081 73.115 102.679 72.8473 102.367C72.7135 102.189 72.4458 101.653 72.1781 101.653C69.5905 101.609 67.0475 100.716 64.9507 99.1549C64.5938 98.8426 64.2369 98.5303 63.9246 98.1734C63.7461 97.995 63.5676 97.7719 63.4784 97.5488C62.9877 96.4335 62.7646 95.2289 62.8984 94.0244C63.0323 91.9721 64.2815 90.143 66.1552 89.2953C68.5198 88.2246 71.0627 89.3399 72.535 91.3029C72.5796 91.3475 73.0258 91.7937 72.9811 91.6152C72.2673 86.3954 70.8397 81.2648 68.6536 76.4466C67.7167 74.4389 66.6014 72.5206 65.263 70.736L66.066 72.2529C68.7875 71.0483 71.5981 70.0668 74.4088 69.1299C79.3609 67.5238 84.6253 66.0516 89.8897 66.1408C92.1204 66.1854 94.6188 66.5423 96.3141 68.1484L95.4664 66.8992C95.288 66.4977 95.4218 66.81 95.4664 66.8992C95.5557 67.0777 95.6449 67.3008 95.7341 67.4792C96.0464 68.193 96.3141 68.9068 96.6264 69.5761C97.6079 71.9406 98.5448 74.3051 99.437 76.6696C101.668 82.7371 103.72 89.1168 104.345 95.5858C104.612 98.3519 104.701 101.519 103.452 104.107C103.318 104.375 103.765 104.955 103.898 105.133C103.809 105.178 104.478 106.025 104.523 105.936Z" fill="#000005"/>
<path d="M93.28 93.7126C93.28 93.7126 109.386 91.6158 109.921 82.8269C110.456 74.038 98.2321 73.2795 91.4062 82.4253" fill="white"/>
<path d="M92.8751 94.2922C94.7043 94.0246 96.5334 93.623 98.318 93.1323C101.575 92.1954 104.832 90.9016 107.464 88.7155C110.096 86.5295 111.657 83.3619 110.765 79.9713C109.873 76.5806 106.438 75.153 103.136 75.2422C98.0503 75.4207 93.4105 78.499 90.4214 82.4696C90.1091 82.8711 90.7337 83.005 91.0013 82.9604C91.5367 82.9158 92.0275 82.6927 92.3844 82.2912C93.6782 80.5512 95.2843 79.079 97.1134 78.0083C98.4964 77.1606 100.013 76.6252 101.619 76.4914C104.43 76.2237 107.419 77.3391 108.445 80.1943C109.471 83.0496 108.401 86.128 106.17 88.1356C103.939 90.1432 101.441 91.0801 98.6749 91.9277L98.0949 92.1062L97.8719 92.1508C97.6042 92.24 98.0503 92.1062 97.7826 92.1954L96.7565 92.4631C96.1765 92.5969 95.5966 92.7308 95.0166 92.8646L93.812 93.0877H93.7228H93.6782C93.232 93.1323 92.5182 93.3107 92.2951 93.7569C92.0721 94.203 92.5182 94.3369 92.8751 94.2922Z" fill="#000005"/>
<path d="M99.1669 97.4595C99.2115 97.3703 99.2561 97.2364 99.3008 97.1472L99.2115 97.3257C99.3008 97.1472 99.39 97.0134 99.4792 96.8795L99.3454 97.058C99.4346 96.9688 99.5238 96.8349 99.6577 96.7457L99.4792 96.8795C99.5684 96.7903 99.6577 96.7457 99.7915 96.6565L99.6131 96.7457C99.7023 96.7011 99.8361 96.6119 99.97 96.5672L99.7915 96.6119C99.8807 96.5672 99.97 96.5672 100.059 96.5226C100.282 96.478 100.461 96.3442 100.639 96.2103C100.773 96.0765 100.862 95.898 100.907 95.7196C100.951 95.5411 100.862 95.4073 100.728 95.3181C100.595 95.2288 100.371 95.2288 100.238 95.2734C99.1669 95.4965 98.3193 96.2549 97.8731 97.2364C97.8731 97.2811 97.8285 97.3257 97.8285 97.4149C97.6947 97.638 97.7839 97.9057 98.007 98.0395C98.0962 98.0841 98.1854 98.0841 98.2746 98.0841C98.4977 98.0841 98.6762 97.9949 98.8546 97.9057C98.9439 97.8164 99.0777 97.638 99.1669 97.4595Z" fill="#000005"/>
<path d="M89.5732 77.6954C89.5732 77.6954 88.2348 78.4984 89.127 79.703C90.0193 80.9075 91.4916 79.7922 91.0454 78.543C90.9116 77.9184 90.3316 77.5169 89.707 77.6507C89.6624 77.6954 89.6178 77.6954 89.5732 77.6954Z" fill="#000005"/>
<path d="M80.1169 80.7295C80.1169 80.7295 78.8231 81.5326 79.6708 82.7372C80.5184 83.9417 82.0353 82.8264 81.5891 81.5772C81.4553 80.9526 80.8753 80.5511 80.2507 80.6849C80.2061 80.6849 80.1615 80.7295 80.1169 80.7295Z" fill="#000005"/>
<path d="M51.9676 125.433C51.9676 125.433 41.0818 109.372 49.7815 106.026C49.7815 106.026 50.6738 98.5753 52.3245 95.3632C53.9752 92.151 56.4735 93.0432 56.9643 94.5155C56.9643 94.5155 60.8457 90.991 62.0502 95.4078C62.0502 95.4078 65.084 92.8648 66.7347 97.1477C68.0285 100.494 66.6008 105.714 68.1177 109.283C69.2777 112.004 72.6237 117.848 70.7499 127.217C68.8761 136.586 67.4039 207.567 36.2189 199.001C5.03396 190.435 51.9676 125.433 51.9676 125.433Z" fill="white"/>
<path d="M53.0355 125.209L52.9909 125.165L52.7678 124.852C52.5002 124.451 52.2771 124.049 52.054 123.692C51.2956 122.399 50.5818 121.105 49.9572 119.766C49.1541 118.16 48.5295 116.465 48.0388 114.725C47.548 113.164 47.4142 111.468 47.6373 109.862C47.905 108.212 49.0203 106.828 50.5818 106.204C50.671 106.159 50.8495 106.115 50.8941 105.981C51.0725 104.375 51.3848 102.724 51.6971 101.118C51.9202 99.8241 52.2771 98.575 52.634 97.2812C53.0355 96.0766 53.5263 94.6936 54.5078 93.8459C54.6416 93.7567 54.7755 93.6228 54.9093 93.5782C55.0431 93.489 55.2216 93.5336 54.9539 93.5336C54.2847 93.5336 54.597 93.5336 54.9093 93.7121C55.3554 93.9351 55.6677 94.292 55.8462 94.7828C55.9354 95.0505 56.6492 94.9612 56.8277 94.9612C57.2292 94.9612 57.6753 94.8274 58.0323 94.6043C58.4784 94.2028 59.0138 93.8905 59.5491 93.6675C59.5937 93.6675 59.683 93.6228 59.5937 93.6675C59.6383 93.6228 59.683 93.6228 59.7722 93.6228C59.6384 93.6228 59.4599 93.6228 59.3261 93.6675C59.4153 93.6675 59.3261 93.6675 59.4599 93.7121C59.5491 93.7567 59.6384 93.8013 59.7722 93.8459C60.4414 94.2474 60.7537 95.0059 60.9321 95.7197C61.0214 95.9874 61.7352 95.8981 61.9137 95.8981C62.3152 95.8981 62.7613 95.7643 63.1182 95.5412L63.3859 95.3628L63.5644 95.2735L63.6536 95.2289C63.7428 95.1843 63.832 95.1843 63.8766 95.1397C63.832 95.1843 63.7428 95.1397 63.832 95.1397C63.7428 95.1397 63.6536 95.1843 63.5644 95.1843C63.4751 95.1843 63.4751 95.2289 63.5197 95.1843C63.5644 95.1397 63.5197 95.1843 63.5644 95.1843C63.7874 95.2289 64.0105 95.3628 64.1889 95.4966C64.7243 95.9428 65.1258 96.4781 65.3935 97.1473C66.0181 98.575 66.1073 100.181 66.1073 101.743C66.1519 103.438 66.0627 105.133 66.1966 106.784C66.3304 108.033 66.6873 109.238 67.2227 110.398C67.6242 111.245 67.9811 112.093 68.338 112.941C69.3195 115.439 69.9441 118.116 70.078 120.793C70.1672 122.577 70.078 124.362 69.8103 126.146C69.721 126.86 69.5426 127.529 69.4534 128.243C69.3195 129.091 69.2303 129.894 69.1411 130.741C68.8734 133.284 68.6057 135.872 68.3826 138.415C68.0257 141.85 67.6688 145.285 67.2227 148.721C66.7319 152.647 66.1073 156.617 65.3935 160.499C64.6351 164.514 63.7874 168.529 62.7167 172.5C61.6906 176.292 60.3968 179.995 58.8353 183.609C57.4969 186.821 55.7123 189.855 53.6155 192.621C51.7863 194.941 49.4664 197.082 46.8342 198.331C46.5665 198.465 46.2096 198.599 45.8973 198.733L45.4066 198.911L45.2281 198.956L45.0051 199L44.5143 199.134L44.2466 199.179C43.9789 199.223 44.2912 199.179 44.1574 199.179L43.622 199.268L43.3544 199.313H43.4436C43.399 199.313 43.3097 199.313 43.2651 199.357L42.7298 199.402H42.6851H42.3729C42.1944 199.402 42.0159 199.402 41.8375 199.402H41.4806C40.7221 199.402 39.9637 199.313 39.2053 199.179C36.1715 198.688 33.1824 197.528 30.9071 195.387C28.9441 193.468 27.6057 191.015 27.0704 188.338C26.4012 185.259 26.535 182.092 26.9811 178.969C27.5611 175.311 28.4534 171.741 29.7026 168.262C31.041 164.469 32.5578 160.722 34.2978 157.064C35.9931 153.405 37.8669 149.836 39.8299 146.312C41.6144 143.144 43.4436 139.976 45.362 136.898C46.8342 134.489 48.3957 132.124 49.9572 129.76C50.8495 128.422 51.7417 127.128 52.6786 125.789L53.0355 125.299C53.2586 125.031 52.3217 125.031 52.2325 125.031C51.8756 125.031 51.1171 125.075 50.8941 125.388C50.3587 126.102 49.868 126.86 49.3772 127.574C48.0388 129.537 46.7004 131.5 45.4512 133.507C43.622 136.363 41.8375 139.263 40.1422 142.163C38.1346 145.598 36.1715 149.122 34.387 152.691C32.5132 156.394 30.7287 160.186 29.2118 164.068C27.7396 167.726 26.4904 171.474 25.5981 175.311C24.7504 178.612 24.3935 182.047 24.5274 185.482C24.7058 188.338 25.375 191.193 26.9811 193.602C28.6764 196.056 31.1302 197.885 33.9855 198.822C37.3761 200.026 41.0344 200.339 44.6035 199.67C47.6819 199.045 50.5818 197.617 52.9463 195.521C55.4 193.29 57.4523 190.613 59.0138 187.668C60.8429 184.322 62.3598 180.753 63.5197 177.14C64.8135 173.214 65.8843 169.198 66.7319 165.139C67.6242 161.079 68.338 156.974 68.918 152.87C69.4534 149.122 69.9441 145.419 70.3456 141.672C70.6579 138.683 70.9702 135.649 71.2825 132.66C71.461 130.831 71.5948 128.957 71.9517 127.128C72.6209 123.871 72.6655 120.525 72.1302 117.223C71.684 114.904 70.9256 112.628 69.9441 110.442C69.4534 109.505 69.0965 108.524 68.8734 107.498C68.6057 105.847 68.4719 104.107 68.5611 102.412C68.5611 100.806 68.6057 99.1549 68.2042 97.5935C67.8919 96.3443 67.2227 94.9612 65.9735 94.4705C64.5012 93.8459 62.3598 94.3367 61.1552 95.3628L63.3413 95.1843C63.0736 94.3367 62.6721 93.4444 61.8244 93.0429C60.9768 92.6413 59.7722 92.7752 58.8353 92.9982C57.8092 93.2659 56.8277 93.7567 56.0693 94.5151L58.2553 94.3367C57.8538 93.1767 56.6492 92.7752 55.4893 92.8198C53.794 92.8198 52.2325 93.8013 51.474 95.3628C50.8495 96.6566 50.4033 97.995 50.091 99.378C49.7341 100.806 49.4664 102.233 49.2434 103.706C49.1095 104.509 48.9757 105.312 48.8864 106.115L49.1987 105.892C47.6819 106.427 46.4327 107.632 45.8973 109.148C45.362 110.71 45.4958 112.45 45.8527 114.011C46.5665 117.357 48.128 120.57 49.868 123.514C50.2695 124.228 50.7156 124.942 51.1617 125.611C51.2064 126.057 53.2586 125.566 53.0355 125.209Z" fill="#000005"/>
<path d="M62.3174 112.539C61.782 110.576 61.3805 108.613 61.0682 106.561C60.7113 103.884 61.2912 101.296 62.1389 98.7531C62.362 98.1285 62.585 97.5039 62.8527 96.8793C62.9866 96.5224 63.165 96.1655 63.4327 95.8532C63.8342 95.4517 61.8712 94.604 61.4251 95.0502C60.8005 95.6748 60.4882 96.7009 60.2205 97.5039C59.7298 98.8423 59.3729 100.225 59.0606 101.653C58.5252 104.33 58.9713 106.962 59.5513 109.594C59.7298 110.442 59.9528 111.334 60.1759 112.182C60.3544 112.717 62.4512 113.074 62.3174 112.539Z" fill="#000005"/>
<path d="M50.8947 109.639C50.8947 108.39 50.8947 107.141 50.8501 105.891C50.8501 105.356 50.2255 105.133 49.7794 105.222C49.3333 105.311 48.6641 105.668 48.6641 106.204C48.6641 107.453 48.7087 108.702 48.7087 109.951C48.7087 110.487 49.3333 110.71 49.7794 110.621C50.2255 110.531 50.8947 110.174 50.8947 109.639Z" fill="#000005"/>
<path d="M56.0703 94.5599C55.4457 95.6752 54.8657 96.8798 54.4642 98.0844C53.4827 100.672 53.0365 103.393 53.0812 106.159C53.1704 107.989 53.5719 109.818 54.2857 111.513C54.598 112.272 56.5164 111.201 56.2041 110.353C54.2411 105.624 55.1334 100.137 57.3195 95.6306C57.4979 95.2737 57.6764 94.8722 57.8994 94.5153C58.1225 94.1584 57.8548 93.7568 57.4087 93.7568C56.8287 93.7568 56.338 94.0691 56.0703 94.5599Z" fill="#000005"/>
<path d="M105.146 189.498C101.845 191.283 103.808 196.458 99.3912 199.848C95.5544 202.793 93.9037 199.224 93.9037 199.224C90.3346 204.354 86.7209 199.179 86.7209 199.179C79.7165 203.641 82.1703 184.992 82.1703 184.992C80.1181 187.134 74.3183 198.51 70.5707 196.815C66.8232 195.119 74.6306 168.797 95.1529 165.585C115.675 162.373 147.797 164.158 161.315 168.619C161.315 168.619 174.164 184.011 157.211 193.246C140.257 202.481 105.146 189.498 105.146 189.498Z" fill="white"/>
<path d="M104.565 188.561C102.2 189.855 102.156 192.889 101.397 195.164C100.951 196.592 100.104 197.841 98.9436 198.822C98.319 199.358 97.6051 199.759 96.8021 199.938C96.356 200.027 95.9098 199.982 95.5083 199.804C95.4637 199.804 95.3298 199.714 95.4191 199.759C95.5083 199.804 95.3298 199.67 95.3298 199.67C95.2406 199.625 95.0622 199.447 95.2406 199.581C95.1514 199.536 95.1068 199.447 95.0175 199.358C94.8837 199.224 94.8837 199.179 94.9729 199.313L94.7052 198.956C94.5268 198.733 94.7945 199.179 94.7499 199.045C94.5268 198.599 93.6791 197.751 93.233 198.421C92.2069 199.848 90.7346 200.964 89.0393 200.116C88.8162 199.982 88.5932 199.848 88.3701 199.67C88.3255 199.625 88.2363 199.581 88.1917 199.536C88.2809 199.625 88.2363 199.581 88.147 199.491L87.8794 199.224C87.7455 199.045 87.6117 198.867 87.4332 198.733C87.5671 198.911 87.6117 198.911 87.4332 198.733C87.1655 198.376 86.6302 197.93 86.184 198.242C85.7379 198.599 85.1579 198.822 84.5779 198.867C84.801 198.867 84.4441 198.867 84.3549 198.867C84.2656 198.867 84.2656 198.867 84.1764 198.822C84.0872 198.778 84.3103 198.911 84.1764 198.822C84.1318 198.778 84.0872 198.778 84.0426 198.778C83.9087 198.733 84.221 198.911 84.0872 198.822C84.0426 198.778 83.998 198.778 83.9533 198.733C83.7749 198.644 83.998 198.733 83.998 198.733C83.9534 198.644 83.8195 198.555 83.7749 198.51C83.7303 198.465 83.9087 198.733 83.8195 198.555C83.7749 198.51 83.7303 198.421 83.6857 198.376C83.6411 198.331 83.6411 198.287 83.5964 198.198C83.6857 198.331 83.6857 198.376 83.5964 198.242C83.5072 198.108 83.4626 197.975 83.418 197.841C83.3734 197.707 83.3288 197.573 83.2395 197.395C83.3288 197.662 83.1949 197.216 83.1503 197.127C83.0611 196.815 83.0165 196.458 82.9272 196.145C82.838 195.833 82.838 195.432 82.7934 195.075C82.7488 194.807 82.7934 194.985 82.7488 194.718C82.7488 194.539 82.7042 194.316 82.7042 194.138C82.6596 193.335 82.6596 192.576 82.6596 191.773C82.6596 190.39 82.7488 189.007 82.838 187.58C82.8826 186.866 82.9718 186.152 83.0611 185.438C83.1503 184.724 82.0796 183.609 81.4104 184.278C80.3843 185.394 79.5812 186.777 78.7336 188.026C77.6182 189.81 76.369 191.506 75.0306 193.112C74.4506 193.825 73.826 194.45 73.1122 195.03C72.6215 195.476 71.9969 195.833 71.3277 195.967L71.1046 196.012C71.06 196.012 71.1938 196.012 71.06 196.012H70.8369H70.7477C70.5246 195.967 70.8369 196.056 70.7477 196.012C70.5692 195.922 70.48 195.878 70.7031 196.012C70.48 195.878 70.7477 196.056 70.7477 196.056C70.5246 195.878 70.8369 196.101 70.7923 196.145C70.7477 196.19 70.7031 195.967 70.7031 195.967C70.7923 196.101 70.7923 196.235 70.7477 196.012C70.7031 195.788 70.7031 195.833 70.7477 196.012C70.7031 195.833 70.6585 195.655 70.6585 195.476C70.6585 195.298 70.6139 195.119 70.6585 195.387C70.6585 195.253 70.6585 195.164 70.6139 195.03C70.6139 194.539 70.6139 194.004 70.6585 193.513C70.6585 193.379 70.7031 193.246 70.7031 193.112C70.7031 192.978 70.7031 193.112 70.7031 193.067C70.7031 193.022 70.7477 192.889 70.7477 192.844C70.7923 192.532 70.8369 192.219 70.9262 191.907C71.06 191.238 71.2384 190.524 71.4615 189.855C72.4876 186.553 73.9599 183.386 75.8337 180.531C77.9751 177.14 80.7412 174.106 83.9533 171.652C87.4778 168.976 91.6269 167.191 95.999 166.522C101.263 165.763 106.572 165.273 111.882 165.094C117.637 164.871 123.392 164.916 129.147 165.139C134.679 165.362 140.211 165.763 145.654 166.433C150.115 166.923 154.577 167.726 158.904 168.842C159.663 169.065 160.51 169.288 161.313 169.556L160.867 169.243C160.644 168.931 161.046 169.466 160.867 169.243C161.001 169.422 161.135 169.6 161.269 169.779C161.715 170.403 162.161 171.073 162.563 171.742C162.697 171.965 162.786 172.143 162.92 172.366C162.964 172.411 163.009 172.545 162.875 172.322L162.964 172.5L163.187 172.902C163.455 173.392 163.678 173.928 163.901 174.463C163.99 174.731 164.124 174.999 164.213 175.311C164.258 175.445 164.303 175.578 164.347 175.712C164.392 175.802 164.392 175.846 164.436 175.935C164.526 176.248 164.392 175.712 164.481 176.025C164.66 176.649 164.793 177.274 164.927 177.898C165.195 179.192 165.239 180.531 165.061 181.824C164.883 183.207 164.436 184.546 163.767 185.795C161.983 189.052 158.726 191.416 155.38 192.978C149.357 195.744 142.219 195.878 135.705 195.387C128.924 194.807 122.232 193.602 115.674 191.818C112.238 190.926 108.803 189.81 105.368 188.65L105.234 188.606C104.922 188.472 104.565 188.606 104.386 188.918C104.342 189.007 104.342 189.096 104.342 189.186C104.342 189.766 104.699 190.256 105.189 190.524C109.071 191.907 112.997 193.112 117.012 194.093C124.864 196.101 133.028 197.618 141.193 197.662C149.357 197.707 158.592 196.056 163.99 189.32C166.266 186.464 167.247 182.806 166.756 179.192C166.355 176.248 165.329 173.437 163.767 170.939C163.321 170.18 162.875 169.466 162.34 168.753C162.161 168.53 161.983 168.306 161.804 168.083C161.403 167.682 160.823 167.548 160.287 167.414C156.584 166.343 152.792 165.54 148.955 165.05C139.007 163.622 128.924 162.953 118.841 163.042C113.666 163.042 108.491 163.221 103.316 163.667C100.996 163.89 98.6313 164.113 96.3113 164.425C94.1699 164.693 92.073 165.184 90.0654 165.853C82.8826 168.44 77.1721 173.972 73.3353 180.531C71.7292 183.207 70.48 186.063 69.5877 189.052C69.0078 191.059 68.4724 193.379 68.8739 195.476C69.0078 196.368 69.4539 197.172 70.1231 197.707C71.2384 198.465 72.6215 198.153 73.6922 197.484C75.1645 196.547 76.3244 195.119 77.3505 193.781C78.5105 192.264 79.5812 190.703 80.6073 189.096C81.2765 187.981 82.035 186.91 82.8826 185.929L81.2319 184.769C80.9642 186.866 80.8304 189.007 80.8304 191.104C80.7858 192.799 80.9196 194.495 81.1873 196.145C81.455 197.528 81.9011 199.09 82.9719 200.116C84.2656 201.365 85.8717 201.142 87.2994 200.25L86.0502 199.759C86.8086 200.83 87.7901 201.678 88.9947 202.257C89.8424 202.659 90.8239 202.748 91.7161 202.525C92.9653 202.168 93.9022 201.187 94.6606 200.161L93.1438 199.536C94.036 201.41 96.1329 202.704 98.2297 201.945C99.9697 201.231 101.442 199.982 102.334 198.287C103.003 196.904 103.494 195.476 103.806 193.959C104.163 192.621 104.52 191.283 105.859 190.569C106.662 189.899 105.457 188.026 104.565 188.561Z" fill="#000005"/>
<path d="M89.1313 179.638C88.4174 181.021 87.8375 182.449 87.3467 183.921C86.2314 186.955 85.5622 190.167 85.4729 193.424C85.4283 195.387 85.7406 197.305 86.3652 199.134C86.7221 200.116 88.9528 199.893 88.5513 198.822C87.3913 195.699 87.5698 192.264 88.239 189.051C88.7744 186.508 89.5774 184.01 90.6035 181.601C90.8266 181.11 91.0497 180.664 91.2727 180.173C91.7635 179.147 89.5774 178.701 89.1313 179.638Z" fill="#000005"/>
<path d="M96.8044 179.325C96.0459 180.708 95.3767 182.136 94.8414 183.608C93.5922 186.597 92.8337 189.72 92.5214 192.977C92.343 194.851 92.5661 196.725 93.1014 198.509C93.3245 198.911 93.5922 199.268 93.9937 199.535C94.0829 199.58 94.7967 200.071 94.7521 199.892C93.726 196.68 94.0829 193.2 94.886 189.988C95.5552 187.356 96.5367 184.768 97.7412 182.315C97.9643 181.824 98.232 181.333 98.4997 180.842C98.6335 180.441 96.8936 179.192 96.8044 179.325Z" fill="#000005"/>
<path d="M175.463 61.459C175.245 61.531 174.946 61.777 174.662 62.1801C174.537 62.3573 174.566 62.5471 174.598 62.701C174.63 62.8549 174.695 62.9846 174.809 63.0546C174.923 63.1245 175.084 63.1307 175.214 63.0858C175.467 62.999 175.6 62.7365 175.691 62.5087C175.722 62.3897 175.722 62.2641 175.692 62.1388C175.661 62.0136 175.601 61.8925 175.538 61.4742" stroke="#D54407" stroke-width="2" stroke-linecap="round"/>
<path d="M190.147 64.1354C190.123 64.1594 190.111 64.3015 190.153 64.5461C190.173 64.6666 190.279 64.7569 190.441 64.755C190.854 64.7499 191.241 64.3588 191.491 64.009C191.601 63.8546 191.615 63.7068 191.484 63.6298C191.109 63.4103 190.618 63.5937 190.379 63.7409C190.268 63.8092 190.217 63.9187 190.186 64.0306C190.154 64.1424 190.154 64.2673 190.202 64.3676C190.25 64.4679 190.346 64.5399 190.664 64.7595" stroke="#D54407" stroke-width="2" stroke-linecap="round"/>
</svg>
