<svg width="240" height="240" viewBox="0 0 240 240" fill="none" xmlns="http://www.w3.org/2000/svg">
<rect width="240" height="240" rx="12" fill="#FCF0E1"/>
<path d="M190.501 67.6711L181.843 155.718C181.536 158.604 178.958 160.753 176.072 160.446L156.915 158.542L30.1867 146.078C27.3009 145.771 25.1519 143.193 25.4589 140.307L34.1162 52.1984C34.4232 49.3126 37.002 47.1636 39.8878 47.4706L109.822 54.3474L185.773 61.8381C188.659 62.1451 190.808 64.7853 190.501 67.6711Z" fill="#431407"/>
<path d="M176.562 160.876C176.378 160.876 176.193 160.876 176.009 160.876L30.1239 146.509C26.9926 146.202 24.7208 143.439 25.0278 140.308L33.6851 52.2607C33.9921 49.1293 36.7551 46.8575 39.8865 47.1645L185.772 61.532C188.842 61.839 191.113 64.602 190.868 67.6719L182.211 155.78C181.904 158.666 179.509 160.876 176.562 160.876ZM39.3339 47.9013C36.8165 47.9013 34.7289 49.8047 34.4833 52.3221L25.826 140.369C25.5804 143.071 27.5452 145.465 30.2467 145.711L176.132 160.078C178.834 160.324 181.228 158.359 181.474 155.658L190.131 67.6105C190.377 64.909 188.412 62.5144 185.71 62.2688L39.8251 47.9013C39.7023 47.9013 39.5181 47.8399 39.3339 47.9013Z" fill="#431407"/>
<path d="M139.842 166.892C142.298 167.076 144.263 164.497 145.798 162.164C143.771 165.234 146.412 169.655 148.683 171.681C150.648 173.339 152.92 174.628 155.314 175.488C159.121 177.023 163.174 177.76 167.226 177.698C171.34 177.575 175.269 176.225 178.585 173.769C182.392 170.822 184.786 166.278 185.584 161.55C186.26 156.761 185.769 151.91 184.049 147.367C183.62 145.893 182.883 144.543 181.9 143.376C180.488 141.964 178.708 140.92 176.804 140.429C174.225 139.631 171.462 139.201 168.761 139.201C164.954 139.201 162.253 138.955 158.814 137.359C156.174 136.069 153.411 135.087 150.525 134.35C145.184 133.061 138.552 133.122 136.281 139.078C134.009 144.972 131.553 166.278 139.842 166.892Z" fill="white"/>
<path d="M166.305 178.128C162.498 178.067 158.691 177.33 155.192 175.918C152.736 175.058 150.402 173.769 148.438 172.05C146.657 170.453 144.57 167.383 144.692 164.498C143.28 166.217 141.745 167.445 139.842 167.322C138.184 167.199 136.71 166.217 135.851 164.805C132.044 158.849 134.009 143.929 135.851 139.017C138.43 132.201 146.166 132.938 150.587 133.982C153.472 134.719 156.235 135.701 158.937 136.991C162.253 138.526 164.831 138.771 168.7 138.771H168.761C171.524 138.771 174.226 139.201 176.866 140.061C179.322 140.859 180.979 141.841 182.146 143.131C183.128 144.359 183.865 145.771 184.356 147.244C186.076 151.849 186.628 156.761 185.891 161.612C185.155 166.524 182.576 170.945 178.769 174.137C175.392 176.655 171.34 178.006 167.165 178.128C166.919 178.067 166.612 178.128 166.305 178.128ZM146.166 162.349C144.324 165.112 146.719 169.287 148.929 171.374C150.832 173.032 153.043 174.26 155.437 175.058C159.183 176.532 163.174 177.269 167.165 177.207C171.156 177.146 175.085 175.795 178.278 173.401C181.778 170.638 184.295 166.278 185.093 161.428C185.769 156.7 185.277 151.911 183.558 147.429C183.128 146.016 182.392 144.727 181.471 143.56C180.365 142.332 178.83 141.411 176.559 140.736C174.041 139.938 171.34 139.508 168.7 139.508H168.515C164.709 139.508 161.946 139.201 158.63 137.666C155.99 136.438 153.227 135.456 150.402 134.719C146.289 133.736 139.044 133 136.649 139.201C134.868 143.867 132.904 158.603 136.526 164.252C137.202 165.48 138.43 166.278 139.842 166.401C142.052 166.524 143.833 164.313 145.429 161.857C145.552 161.673 145.859 161.673 146.043 161.796C146.227 161.98 146.227 162.164 146.166 162.349Z" fill="#431407"/>
<path d="M138.309 211.348H196.515C203.085 192.007 214.812 157.009 214.628 154.86C214.383 151.913 192.893 110.284 183.622 103.714C174.35 97.1445 157.158 108.933 157.158 108.933L159.43 125.941L173.491 124.836L176.315 150.255C176.315 150.255 162.868 150.439 156.053 154.983C149.238 159.526 139.537 174.262 138.37 183.963C137.203 193.665 138.37 205.269 138.37 205.269L138.309 211.348Z" fill="white"/>
<path d="M196.452 211.715H138.245C138 211.715 137.815 211.531 137.815 211.285V205.084C137.815 205.022 136.71 193.418 137.815 183.717C138.982 173.77 148.745 159.095 155.683 154.429C161.884 150.315 173.243 149.763 175.699 149.64L172.997 125.08L159.367 126.185C159.121 126.185 158.937 126.062 158.937 125.817L156.665 108.809C156.665 108.625 156.726 108.502 156.849 108.441C159.919 106.415 163.235 104.695 166.673 103.345C173.98 100.52 179.874 100.459 183.804 103.283C193.014 109.791 214.749 151.543 214.995 154.736C215.179 156.824 205.232 186.664 196.82 211.346C196.759 211.592 196.636 211.715 196.452 211.715ZM138.736 210.917H196.145C207.688 176.778 214.258 156.394 214.135 154.92C213.889 151.789 192.4 110.528 183.312 104.081C174.901 98.1256 159.489 107.827 157.525 109.178L159.674 125.51L173.304 124.405C173.55 124.405 173.734 124.527 173.734 124.773L176.559 150.192C176.559 150.438 176.436 150.622 176.19 150.622C176.19 150.622 176.19 150.622 176.129 150.622C176.006 150.622 162.744 150.868 156.112 155.289C149.481 159.709 139.719 174.445 138.614 183.962C137.508 193.479 138.614 205.022 138.614 205.145L138.736 210.917Z" fill="#431407"/>
<path d="M205.725 66.4425L186.753 152.832C186.139 155.656 183.314 157.498 180.428 156.884L161.64 152.77L37.2448 125.509C34.4204 124.895 32.5784 122.07 33.1924 119.246L52.1648 32.7955C52.7788 29.9712 55.6032 28.1292 58.4276 28.7432L127.072 43.7861L201.673 60.1184C204.497 60.7323 206.339 63.5567 205.725 66.4425Z" fill="#F97316"/>
<path d="M181.596 157.622C181.166 157.622 180.736 157.56 180.306 157.499L37.1227 126.062C33.9299 125.387 31.9651 122.255 32.6405 119.063L51.613 32.6121C52.2884 29.4807 55.4197 27.4545 58.5511 28.1299L201.735 59.5665C204.866 60.2419 206.892 63.3733 206.217 66.5661L187.306 153.017C186.753 155.718 184.359 157.622 181.596 157.622ZM57.3845 29.1737C55.1741 29.1737 53.2708 30.7087 52.841 32.8577L33.8685 119.308C33.3159 121.826 34.9123 124.343 37.4297 124.896L180.613 156.332C183.131 156.885 185.648 155.288 186.201 152.771L205.173 66.3205C205.726 63.8031 204.129 61.2857 201.612 60.7331L58.4283 29.2965C58.0599 29.1737 57.7529 29.1737 57.3845 29.1737Z" fill="#431407"/>
<path d="M67.1465 68.1015L82.2508 71.417C83.8472 71.7854 84.891 73.3818 84.5226 74.9782L81.8824 87.0739C81.514 88.6703 79.9177 89.7141 78.3213 89.3457L63.217 86.0301C61.6206 85.6617 60.5768 84.0653 60.9452 82.469L63.5854 70.3732C63.9538 68.7768 65.5502 67.7331 67.1465 68.1015Z" fill="white"/>
<path d="M67.4547 68.2848C67.7617 68.2848 68.0687 68.3462 68.3757 68.4076L81.1468 71.232C83.4186 71.7232 84.8307 73.9335 84.3396 76.2053L82.1906 85.9678C81.6994 88.2396 79.489 89.6518 77.2172 89.1606L64.4461 86.3362C62.1743 85.845 60.7621 83.6347 61.2533 81.3629L63.4023 71.6003C63.7707 69.6356 65.4899 68.2848 67.4547 68.2848ZM67.4547 67.6708C65.1829 67.6708 63.2181 69.2672 62.7269 71.4775L60.5779 81.1787C60.0253 83.7575 61.6217 86.3362 64.2005 86.8888C64.2005 86.8888 64.2005 86.8888 64.2619 86.8888L77.033 89.7132C77.4014 89.7746 77.7084 89.836 78.0768 89.836C80.3486 89.836 82.3134 88.2396 82.8046 86.0292L84.9535 76.2667C85.5061 73.6879 83.8484 71.1092 81.2696 70.5566L68.4985 67.7322C68.1301 67.6708 67.8231 67.6094 67.4547 67.6094V67.6708Z" fill="#431407"/>
<path d="M70.8892 68.9365L66.9531 86.8672L67.7927 87.0515L71.7287 69.1208L70.8892 68.9365Z" fill="#D1D3D4"/>
<path d="M77.7329 70.4248L73.7969 88.3555L74.6364 88.5398L78.5725 70.609L77.7329 70.4248Z" fill="#D1D3D4"/>
<path d="M63.446 71.1448L63.2617 71.9844L84.1909 76.5786L84.3752 75.7391L63.446 71.1448Z" fill="#D1D3D4"/>
<path d="M61.3015 80.9143L61.1172 81.7539L82.0463 86.3482L82.2306 85.5086L61.3015 80.9143Z" fill="#D1D3D4"/>
<path d="M62.7702 74.2542L62.5859 75.0938L69.2425 76.555L69.4268 75.7154L62.7702 74.2542Z" fill="#D1D3D4"/>
<path d="M61.9773 77.7815L61.793 78.6211L68.4495 80.0823L68.6338 79.2427L61.9773 77.7815Z" fill="#D1D3D4"/>
<path d="M76.6843 77.2972L76.5 78.1367L83.5763 79.6901L83.7606 78.8505L76.6843 77.2972Z" fill="#D1D3D4"/>
<path d="M75.8757 80.8792L75.6914 81.7188L82.7677 83.2721L82.952 82.4325L75.8757 80.8792Z" fill="#D1D3D4"/>
<path d="M60.8234 92.9067L76.9714 96.4679C78.138 96.7135 78.8748 97.8801 78.5678 98.9853L78.0152 101.441C77.7696 102.608 76.6031 103.345 75.4979 103.038L59.3498 99.4765C58.1832 99.2309 57.4464 98.0643 57.7534 96.9591L58.306 94.5031C58.5516 93.3979 59.7182 92.6611 60.8234 92.9067Z" fill="white"/>
<path d="M88.2062 98.9223L104.354 102.484C105.521 102.729 106.258 103.896 105.951 105.001L105.398 107.457C105.152 108.623 103.986 109.36 102.881 109.053L86.7326 105.492C85.566 105.246 84.8292 104.08 85.1362 102.975L85.6888 100.519C85.873 99.4135 87.0396 98.6767 88.2062 98.9223Z" fill="white"/>
<path d="M115.53 104.941L131.678 108.502C132.845 108.748 133.582 109.914 133.275 111.019L132.722 113.475C132.477 114.642 131.31 115.379 130.205 115.072L114.057 111.511C112.89 111.265 112.153 110.098 112.46 108.993L113.013 106.537C113.197 105.371 114.364 104.695 115.53 104.941Z" fill="white"/>
<path d="M142.851 110.895L158.999 114.456C160.165 114.702 160.902 115.868 160.595 116.974L160.043 119.43C159.797 120.596 158.63 121.333 157.525 121.026L141.377 117.465C140.211 117.219 139.474 116.053 139.781 114.947L140.333 112.491C140.518 111.386 141.684 110.649 142.851 110.895Z" fill="white"/>
<path d="M95.4536 120.964H95.3308L54.5002 112C54.1932 111.938 54.009 111.631 54.0704 111.324C54.1318 111.017 54.4387 110.833 54.7457 110.895L95.5764 119.859C95.8834 119.92 96.0676 120.227 96.0062 120.534C95.9448 120.78 95.6992 120.964 95.4536 120.964Z" fill="#431407"/>
<path d="M112.584 124.771H112.461L106.137 123.359C105.83 123.298 105.646 122.991 105.707 122.684C105.768 122.377 106.075 122.193 106.382 122.254L112.707 123.666C113.014 123.789 113.136 124.157 113.014 124.464C112.952 124.587 112.829 124.771 112.584 124.771Z" fill="#431407"/>
<path d="M125.721 127.597C125.659 127.597 125.659 127.597 125.598 127.597L119.274 126.246C118.967 126.184 118.782 125.877 118.844 125.57C118.905 125.263 119.212 125.079 119.519 125.141L125.843 126.491C126.15 126.614 126.273 126.983 126.15 127.29C126.089 127.474 125.905 127.597 125.721 127.597Z" fill="#431407"/>
<path d="M113.134 128.946C113.011 128.946 112.827 128.885 112.704 128.762C112.458 128.516 112.458 128.148 112.704 127.902L118.659 121.639C118.966 121.455 119.335 121.578 119.519 121.824C119.642 122.008 119.642 122.253 119.519 122.438L113.563 128.7C113.441 128.885 113.318 128.946 113.134 128.946Z" fill="#431407"/>
<path d="M138.988 180.338C138.988 180.338 150.286 143.805 149.61 136.314C148.935 128.824 144.883 106.904 151.637 100.764C158.391 94.624 163.425 94.1942 167.723 103.957C172.021 113.719 173.372 161.672 173.372 161.672" fill="white"/>
<path d="M138.987 180.767C138.925 180.767 138.925 180.767 138.864 180.767C138.618 180.706 138.496 180.46 138.618 180.276C138.741 179.908 149.855 143.682 149.179 136.375C149.056 135.27 148.872 133.797 148.688 132.077C147.46 122.253 145.434 105.798 151.39 100.518C155.381 96.9568 158.451 95.5447 161.152 96.1587C163.854 96.7726 166.064 99.2286 168.152 103.834C172.45 113.535 173.8 159.769 173.862 161.733C173.862 161.979 173.678 162.163 173.493 162.163C173.248 162.163 173.064 161.979 173.064 161.795C173.064 161.304 171.651 113.78 167.415 104.202C165.511 99.8426 163.424 97.5094 161.029 96.9568C158.635 96.4043 155.749 97.755 152.004 101.132C146.416 106.167 148.504 122.99 149.609 132.016C149.793 133.735 149.977 135.209 150.1 136.375C150.776 143.866 139.969 179.048 139.478 180.583C139.355 180.644 139.171 180.767 138.987 180.767Z" fill="#431407"/>
</svg>
