<svg width="40" height="40" viewBox="0 0 40 40" fill="none" xmlns="http://www.w3.org/2000/svg">
<g id="logos" clip-path="url(#clip0_4834_3491)">
<path id="Vector" fill-rule="evenodd" clip-rule="evenodd" d="M20 40C31.0457 40 40 31.0457 40 20C40 8.95429 31.0457 0 20 0C8.95429 0 0 8.95429 0 20C0 31.0457 8.95429 40 20 40ZM26.1503 25.86C27.3066 25.129 27.9999 23.9058 28 22.5969C28.0001 20.7781 26.6721 19.1963 24.7885 18.7718L19.1451 17.371C18.6131 17.2511 18.4857 16.5951 18.9382 16.3065L23.3349 13.5021C25.3814 12.1967 25.9135 9.58069 24.5234 7.65897C24.3497 7.41874 24.0014 7.35629 23.7455 7.51949L13.8134 14.2191C12.6791 14.9426 12 16.1466 12 17.4342C12 19.2313 13.3121 20.7941 15.1731 21.2135L20.9084 22.635C21.4416 22.7552 21.568 23.4133 21.1131 23.7009L16.6842 26.5008C14.6319 27.7982 14.0882 30.4121 15.4699 32.3392C15.6426 32.5801 15.9906 32.6439 16.2471 32.4817L26.1503 25.86Z" fill="#5733FF"/>
</g>
<defs>
<clipPath id="clip0_4834_3491">
<rect width="40" height="40" fill="white"/>
</clipPath>
</defs>
</svg>
