<svg width="257" height="256" viewBox="0 0 257 256" fill="none" xmlns="http://www.w3.org/2000/svg">
<rect x="0.144531" width="256" height="256" rx="128" fill="white"/>
<rect width="256" height="256" rx="96" fill="#8345DD"/>
<path d="M128 44.9121C164.787 44.9122 195.989 68.8194 206.919 101.944C207.255 102.963 206.487 103.999 205.414 103.999H170.467C169.908 103.999 169.391 103.706 169.092 103.233C160.584 89.796 145.364 80.8418 128.001 80.8418C101.336 80.842 79.7207 101.956 79.7207 128C79.7209 154.044 101.337 175.157 128.001 175.157C145.365 175.157 160.586 166.203 169.093 152.765C169.392 152.292 169.909 151.999 170.468 151.999H205.415C206.488 151.999 207.256 153.035 206.92 154.054C195.99 187.18 164.787 211.088 128 211.088C82.112 211.088 44.9122 173.888 44.9121 128C44.9121 82.1119 82.1119 44.9121 128 44.9121Z" fill="white"/>
<path d="M126.752 151.999C126.294 149.291 125.085 146.374 123.127 143.249C121.169 140.082 118.377 137.145 114.752 134.437C111.169 131.728 107.585 129.999 104.002 129.249V126.624C107.544 125.791 110.939 124.249 114.189 121.999C117.481 119.707 120.231 116.957 122.439 113.749C124.689 110.457 126.127 107.207 126.752 103.999H129.377C129.752 106.082 130.502 108.228 131.627 110.437C132.752 112.603 134.189 114.687 135.939 116.687C137.731 118.645 139.731 120.416 141.939 121.999C145.231 124.332 148.585 125.874 152.002 126.624V129.249C149.71 129.707 147.335 130.645 144.877 132.062C142.46 133.478 140.21 135.166 138.127 137.124C136.044 139.041 134.335 141.062 133.002 143.187C131.044 146.312 129.835 149.249 129.377 151.999H126.752Z" fill="white"/>
</svg>
