<svg width="48" height="48" viewBox="0 0 48 48" fill="none" xmlns="http://www.w3.org/2000/svg">
<path d="M44.9884 17.7645C44.9884 7.95207 37.1561 0 27.4913 0H3V47.9531H7.11561C14.2601 47.9531 20.1561 42.5363 21.0405 35.5232H21.052L21.0809 28.0817H20.4624C15.5144 28.0817 11.4913 24.0792 11.3526 19.0908H11.3468V16.7199H13.6879C16.9595 16.7199 19.8555 18.3631 21.6243 20.8749C23.3121 14.8008 28.815 10.3465 35.3353 10.3465V12.7174V15.9041C35.3353 22.6003 30.3699 28.0347 23.7861 28.0758V35.5232C24.6416 42.5539 30.5491 48 37.711 48H45V33.745H35.1387C40.9769 30.8634 45 24.7893 45 17.7586L44.9884 17.7645Z" fill="#4338CA"/>
</svg>
