<svg width="20" height="20" viewBox="0 0 20 20" fill="none" xmlns="http://www.w3.org/2000/svg">
<g clip-path="url(#clip0_848_4648)">
<path fill-rule="evenodd" clip-rule="evenodd" d="M5.38529 0C2.41107 0 0 2.41107 0 5.38529V14.6147C0 17.589 2.41107 20 5.38529 20H14.6147C17.589 20 20 17.589 20 14.6147V5.38529C20 2.41107 17.589 0 14.6147 0H5.38529ZM14.0552 10.0568C14.0552 12.2837 12.2502 14.089 10.0231 14.089C7.7961 14.089 5.99107 12.2837 5.99107 10.0568C5.99107 7.82988 7.7961 6.02462 10.0231 6.02462C12.2502 6.02462 14.0552 7.82988 14.0552 10.0568ZM16.9719 11.5951C16.2688 14.7854 13.4247 17.1724 10.0231 17.1724C6.62157 17.1724 3.77746 14.7854 3.07438 11.5951H1.17647V8.51818H3.07446C3.77765 5.32799 6.62169 2.94118 10.0231 2.94118C13.4246 2.94118 16.2687 5.32799 16.9719 8.51818H18.8688V11.5951H16.9719Z" fill="#6B7280"/>
</g>
<defs>
<clipPath id="clip0_848_4648">
<rect width="20" height="20" fill="white"/>
</clipPath>
</defs>
</svg>
