<?xml version="1.0" encoding="UTF-8"?>
<svg version="1.1" xmlns="http://www.w3.org/2000/svg" width="500" height="500">
<path d="M0 0 C1.35477699 -0.01058945 1.35477699 -0.01058945 2.73692322 -0.02139282 C40.20436063 -0.24790859 40.20436063 -0.24790859 56.171875 3.203125 C57.16590332 3.41243652 58.15993164 3.62174805 59.18408203 3.83740234 C113.7872253 15.57188773 164.32004214 43.96558197 199.171875 88.203125 C200.15220703 89.38261719 200.15220703 89.38261719 201.15234375 90.5859375 C232.15917696 128.09120881 252.11984779 179.27119545 252.375 228.03125 C252.38205963 228.93443466 252.38911926 229.83761932 252.39639282 230.76817322 C252.62290859 268.23561063 252.62290859 268.23561063 249.171875 284.203125 C248.96256348 285.19715332 248.75325195 286.19118164 248.53759766 287.21533203 C236.80311227 341.8184753 208.40941803 392.35129214 164.171875 427.203125 C162.99238281 428.18345703 162.99238281 428.18345703 161.7890625 429.18359375 C124.28379119 460.19042696 73.10380455 480.15109779 24.34375 480.40625 C22.98897301 480.41683945 22.98897301 480.41683945 21.60682678 480.42764282 C-15.86061063 480.65415859 -15.86061063 480.65415859 -31.828125 477.203125 C-32.82215332 476.99381348 -33.81618164 476.78450195 -34.84033203 476.56884766 C-89.4434753 464.83436227 -139.97629214 436.44066803 -174.828125 392.203125 C-175.48167969 391.41679687 -176.13523438 390.63046875 -176.80859375 389.8203125 C-207.81542696 352.31504119 -227.77609779 301.13505455 -228.03125 252.375 C-228.03830963 251.47181534 -228.04536926 250.56863068 -228.05264282 249.63807678 C-228.27915859 212.17063937 -228.27915859 212.17063937 -224.828125 196.203125 C-224.61881348 195.20909668 -224.40950195 194.21506836 -224.19384766 193.19091797 C-212.45936227 138.5877747 -184.06566803 88.05495786 -139.828125 53.203125 C-138.64863281 52.22279297 -138.64863281 52.22279297 -137.4453125 51.22265625 C-99.94004119 20.21582304 -48.76005455 0.25515221 0 0 Z M-133.828125 164.203125 C-133.89622284 176.94789748 -133.95112569 189.69254677 -133.98356152 202.4374609 C-133.99913835 208.35705833 -134.02022885 214.27652355 -134.05444336 220.19604492 C-134.08732391 225.92138001 -134.10503784 231.64658888 -134.11275673 237.37201118 C-134.11824919 239.54340155 -134.12897262 241.71478594 -134.14531517 243.88612175 C-134.33517891 270.18659648 -131.05652164 296.01626092 -112.13671875 315.95703125 C-97.57729387 330.12229234 -79.98917581 335.46219829 -60.02294922 335.4519043 C-40.74481792 335.18128621 -24.33243872 329.12904108 -10.078125 315.890625 C5.36088438 299.56728095 11.3720355 276.15472316 11.28540039 254.22875977 C11.28561943 252.7641909 11.28561943 252.7641909 11.2858429 251.27003479 C11.28514947 248.06151055 11.27738387 244.85304528 11.26953125 241.64453125 C11.26766504 239.41251151 11.2662421 237.18049136 11.26524353 234.94847107 C11.26143432 229.08772644 11.25161769 223.22700677 11.24053955 217.36627197 C11.23029108 211.38025246 11.22573856 205.39422889 11.22070312 199.40820312 C11.20999396 187.67316437 11.19241011 175.93815068 11.171875 164.203125 C-1.038125 164.203125 -13.248125 164.203125 -25.828125 164.203125 C-25.84270752 167.06299072 -25.85729004 169.92285645 -25.87231445 172.86938477 C-25.92288334 182.36890609 -25.98951644 191.86826732 -26.06383991 201.36763096 C-26.10837206 207.12129348 -26.14766512 212.87488797 -26.17456055 218.62866211 C-26.20076574 224.19202171 -26.24128726 229.7551171 -26.29131126 235.31831169 C-26.3078644 237.42989731 -26.31944998 239.5415285 -26.32573891 241.65316963 C-26.385019 259.74509571 -26.5654076 279.23916047 -39.828125 293.203125 C-48.2386092 299.95206751 -57.29752489 301.03280864 -67.828125 300.203125 C-76.70227812 298.39664807 -82.8616853 293.98470812 -88.22265625 286.75390625 C-94.70830873 276.4494511 -96.11757719 263.88993453 -96.14697266 251.95825195 C-96.15701828 251.00079575 -96.1670639 250.04333954 -96.17741394 249.05686951 C-96.20796839 245.93505378 -96.22520305 242.81332267 -96.2421875 239.69140625 C-96.26092152 237.50993638 -96.28049656 235.32847358 -96.3008728 233.14701843 C-96.35196403 227.4376342 -96.39171227 221.72822653 -96.42901611 216.01873779 C-96.46920079 210.17975172 -96.52022681 204.34086118 -96.5703125 198.50195312 C-96.66679907 187.06907122 -96.7502869 175.63614909 -96.828125 164.203125 C-109.038125 164.203125 -121.248125 164.203125 -133.828125 164.203125 Z M44.171875 164.203125 C44.171875 175.753125 44.171875 187.303125 44.171875 199.203125 C81.791875 199.203125 119.411875 199.203125 158.171875 199.203125 C158.171875 187.653125 158.171875 176.103125 158.171875 164.203125 C120.551875 164.203125 82.931875 164.203125 44.171875 164.203125 Z M44.171875 232.203125 C44.171875 243.753125 44.171875 255.303125 44.171875 267.203125 C81.791875 267.203125 119.411875 267.203125 158.171875 267.203125 C158.171875 255.653125 158.171875 244.103125 158.171875 232.203125 C120.551875 232.203125 82.931875 232.203125 44.171875 232.203125 Z M44.171875 300.203125 C44.171875 311.753125 44.171875 323.303125 44.171875 335.203125 C81.791875 335.203125 119.411875 335.203125 158.171875 335.203125 C158.171875 323.653125 158.171875 312.103125 158.171875 300.203125 C120.551875 300.203125 82.931875 300.203125 44.171875 300.203125 Z " fill="#511BB9" transform="translate(237.828125,9.796875)"/>
</svg>
