<svg width="384" height="230" viewBox="0 0 384 230" fill="none" xmlns="http://www.w3.org/2000/svg">
<path d="M47.2323 105.093L36.9411 140.114C36.9411 140.114 30.7203 160.389 30.7203 166.072C30.7203 171.755 33.1011 184.965 33.1011 184.965L15.1299 220.754H81.7923L88.8579 194.258C88.8579 194.258 105.6 179.589 106.829 173.138H72.1923C72.1923 173.138 72.8067 145.259 60.7491 135.199C60.7491 135.199 69.5043 112.235 63.2835 102.943C57.0627 93.6498 48.4611 97.029 47.2323 105.093Z" fill="#FFC2A7"/>
<path d="M71.5011 185.349C71.4243 185.349 71.2707 185.349 71.1939 185.272C70.6563 185.118 70.3491 184.581 70.5027 184.043C71.3475 181.125 71.1939 173.291 71.1939 173.214C71.1939 172.677 71.6547 172.139 72.1923 172.139C72.7299 172.139 73.2675 172.6 73.2675 173.138C73.2675 173.445 73.4211 181.355 72.4995 184.581C72.3459 185.042 71.9619 185.349 71.5011 185.349Z" fill="#D88260"/>
<path d="M76.7235 202.014C76.1091 202.014 75.7251 201.554 75.7251 200.939C75.7251 200.478 76.0323 200.094 76.4163 199.941C82.4067 198.174 88.0131 193.413 88.0899 193.413C88.4739 193.029 89.1651 193.029 89.5491 193.49C89.9331 193.874 89.9331 194.565 89.4723 194.949L89.3955 195.026C89.1651 195.256 83.4051 200.018 76.9539 201.938C76.9539 202.014 76.8003 202.014 76.7235 202.014Z" fill="#D88260"/>
<path d="M35.3281 193.259C34.9441 193.259 34.5601 193.029 34.4065 192.722C34.0993 191.954 33.8689 191.109 33.7153 190.264C33.3313 188.651 32.7937 186.27 32.2561 185.502C31.9489 185.042 32.0257 184.427 32.4865 184.043C32.9473 183.736 33.5617 183.813 33.9457 184.274C33.9457 184.274 33.9457 184.274 33.9457 184.35C34.6369 185.349 35.0977 187.346 35.7121 189.726C35.8657 190.494 36.1729 191.493 36.2497 191.723C36.4801 192.261 36.2497 192.875 35.7889 193.106C35.6353 193.182 35.4817 193.259 35.3281 193.259Z" fill="#D88260"/>
<path d="M60.749 136.274C60.365 136.274 60.0578 136.043 59.9042 135.736C58.2914 133.202 56.0642 130.206 55.2962 129.899C54.7586 129.746 54.4514 129.131 54.605 128.594C54.7586 128.056 55.373 127.749 55.9106 127.902C55.9874 127.902 55.9874 127.902 56.0642 127.979C57.9074 128.67 60.9026 133.278 61.7474 134.661C62.0546 135.122 61.901 135.813 61.4402 136.12C61.2098 136.197 60.9794 136.274 60.749 136.274Z" fill="#D88260"/>
<path d="M135.245 174.213H76.416C75.8784 174.213 75.3408 173.752 75.3408 173.138C75.3408 172.523 75.8016 172.062 76.416 172.062H135.245C140.237 172.062 144.307 167.992 144.307 163V54.0208C144.307 49.0288 140.237 44.9584 135.245 44.9584H63.6672C58.6753 44.9584 54.6048 49.0288 54.6048 54.0208V97.336C54.6048 97.8736 54.144 98.3344 53.5296 98.3344C52.992 98.3344 52.5312 97.8736 52.5312 97.336V54.0208C52.5312 47.8768 57.5233 42.8848 63.6672 42.8848H135.245C141.389 42.8848 146.381 47.8768 146.381 54.0208V163C146.381 169.221 141.389 174.213 135.245 174.213Z" fill="#000111"/>
<path d="M60.9023 93.4193V52.4849H82.1759C83.4047 52.4849 84.4031 53.4833 84.4031 54.7121V55.8641C84.4031 57.0929 85.4015 58.0913 86.6303 58.0913C86.6303 58.0913 86.6303 58.0913 86.7071 58.0913H114.125C115.354 58.0913 116.352 57.0929 116.352 55.8641C116.352 54.6353 117.35 53.6369 118.579 53.6369H135.629V162.386H75.9551C75.9551 162.386 73.8815 136.811 65.4335 130.437C65.4335 130.437 77.2607 102.635 60.9023 93.4193Z" fill="url(#paint0_linear_13853_44049)"/>
<path d="M95.616 54.9424C97.1005 54.9424 98.304 53.7389 98.304 52.2544C98.304 50.7699 97.1005 49.5664 95.616 49.5664C94.1314 49.5664 92.928 50.7699 92.928 52.2544C92.928 53.7389 94.1314 54.9424 95.616 54.9424Z" fill="#000111"/>
<path d="M102.912 53.6369C103.675 53.6369 104.294 53.018 104.294 52.2545C104.294 51.491 103.675 50.8721 102.912 50.8721C102.148 50.8721 101.53 51.491 101.53 52.2545C101.53 53.018 102.148 53.6369 102.912 53.6369Z" fill="#000111"/>
<path d="M302.822 172.37H151.68C151.142 172.37 150.605 171.909 150.605 171.294C150.605 170.68 151.066 170.219 151.68 170.219H302.822C306.586 170.219 309.658 167.147 309.581 163.384C309.581 161.234 308.582 159.237 306.816 157.931L265.805 127.902C265.574 127.672 265.421 127.365 265.421 127.058V18.6927C265.421 14.0847 261.658 10.3215 256.973 10.3215H104.064C99.4559 10.3215 95.6927 14.0847 95.6927 18.6927V42.6543C95.6927 43.1919 95.2319 43.7295 94.6943 43.7295C94.1567 43.7295 93.6191 43.2687 93.6191 42.7311V18.7695C93.6191 13.0095 98.3039 8.32471 104.064 8.32471H257.05C262.81 8.32471 267.494 13.0095 267.494 18.8463V126.52L308.122 156.242C312.115 159.16 312.96 164.69 310.042 168.683C308.352 170.987 305.664 172.37 302.822 172.37Z" fill="#000111"/>
<path d="M266.419 128.133H145.843C145.306 128.133 144.768 127.672 144.768 127.058C144.768 126.443 145.229 125.982 145.843 125.982H266.496C267.034 125.982 267.571 126.443 267.571 127.058C267.571 127.672 267.034 128.133 266.419 128.133Z" fill="#000111"/>
<path d="M256.665 118.763H146.15C145.613 118.763 145.152 118.302 145.152 117.688C145.152 117.15 145.613 116.689 146.15 116.689H255.667V18.9997H102.297V41.7325C102.297 42.2701 101.837 42.7309 101.222 42.7309C100.685 42.7309 100.224 42.2701 100.224 41.7325V18.0013C100.224 17.4637 100.685 17.0029 101.222 17.0029H256.589C257.126 17.0029 257.664 17.4637 257.664 18.0013V117.765C257.741 118.302 257.28 118.763 256.665 118.763Z" fill="#000111"/>
<path d="M114.509 33.7453C116.46 33.7453 118.041 32.1636 118.041 30.2125C118.041 28.2614 116.46 26.6797 114.509 26.6797C112.558 26.6797 110.976 28.2614 110.976 30.2125C110.976 32.1636 112.558 33.7453 114.509 33.7453Z" fill="url(#paint1_linear_13853_44049)"/>
<path d="M124.416 33.7453C126.367 33.7453 127.949 32.1636 127.949 30.2125C127.949 28.2614 126.367 26.6797 124.416 26.6797C122.465 26.6797 120.883 28.2614 120.883 30.2125C120.883 32.1636 122.465 33.7453 124.416 33.7453Z" fill="url(#paint2_linear_13853_44049)"/>
<path d="M134.4 33.7453C136.351 33.7453 137.933 32.1636 137.933 30.2125C137.933 28.2614 136.351 26.6797 134.4 26.6797C132.449 26.6797 130.867 28.2614 130.867 30.2125C130.867 32.1636 132.449 33.7453 134.4 33.7453Z" fill="url(#paint3_linear_13853_44049)"/>
<path d="M308.352 159.851H225.101C224.717 159.851 224.409 159.621 224.179 159.313L218.112 148.792H159.513L153.216 158.853C152.985 159.16 152.678 159.313 152.371 159.313H145.152C144.614 159.313 144.077 158.853 144.077 158.238C144.077 157.624 144.537 157.163 145.152 157.163H151.757L158.054 147.179C158.208 146.872 158.592 146.718 158.899 146.718H218.649C219.033 146.718 219.341 146.949 219.571 147.256L225.638 157.777H308.275C308.813 157.701 309.35 158.161 309.427 158.699C309.504 159.237 309.043 159.774 308.505 159.851C308.429 159.928 308.429 159.928 308.352 159.851Z" fill="#000111"/>
<path d="M225.101 159.313H152.294C151.757 159.313 151.219 158.853 151.219 158.238C151.219 157.624 151.68 157.163 152.294 157.163H225.101C225.638 157.163 226.176 157.624 226.176 158.238C226.176 158.853 225.638 159.313 225.101 159.313Z" fill="#000111"/>
<path d="M217.574 74.0654H134.861V117.457H217.574V74.0654Z" fill="url(#paint4_linear_13853_44049)"/>
<path d="M160.742 74.0656C172.322 74.0656 181.709 64.6786 181.709 53.0992C181.709 41.5198 172.322 32.1328 160.742 32.1328C149.163 32.1328 139.776 41.5198 139.776 53.0992C139.776 64.6786 149.163 74.0656 160.742 74.0656Z" fill="#FED490"/>
<path d="M155.674 54.7888C151.373 54.7888 147.917 53.8672 146.995 51.1792C145.766 47.6464 148.147 43.192 153.984 37.816C156.749 35.3584 159.667 33.0544 162.739 30.9808C163.2 30.6736 163.891 30.8272 164.198 31.3648C164.506 31.8256 164.352 32.44 163.891 32.7472C159.13 35.8192 147.072 45.0352 148.992 50.488C150.528 54.9424 167.885 51.7168 179.635 47.8768C180.173 47.7232 180.787 48.0304 180.941 48.568C181.094 49.1056 180.787 49.72 180.25 49.8736C176.87 50.9488 164.429 54.7888 155.674 54.7888Z" fill="#000111"/>
<path d="M170.573 72.2993C170.342 72.2993 170.189 72.2225 169.958 72.1457C169.498 71.8385 169.344 71.1473 169.728 70.6865C169.728 70.6865 171.571 67.9985 170.957 65.6945C170.496 64.4657 169.498 63.4673 168.269 63.0833C163.43 61.0097 152.294 67.2305 148.378 69.8417C147.917 70.1489 147.226 69.9953 146.918 69.5345C146.611 69.0737 146.765 68.4593 147.226 68.1521C147.84 67.7681 162.278 58.2449 169.114 61.2401C171.187 62.1617 172.493 63.4673 172.954 65.2337C173.875 68.4593 171.571 71.8385 171.494 71.9921C171.264 72.1457 170.957 72.2993 170.573 72.2993Z" fill="#000111"/>
<path d="M201.293 118.302C200.755 118.302 200.294 117.841 200.218 117.304V74.8335C200.218 74.2959 200.678 73.7583 201.293 73.7583C201.907 73.7583 202.368 74.2191 202.368 74.8335V117.304C202.291 117.841 201.83 118.302 201.293 118.302Z" fill="#000111"/>
<path d="M91.008 110.545C81.5616 110.545 73.8816 102.865 73.8816 93.4189C73.8816 83.9725 81.5616 76.2925 91.008 76.2925C100.454 76.2925 108.134 83.9725 108.134 93.4189C108.058 102.865 100.454 110.545 91.008 110.545ZM91.008 78.3661C82.7136 78.3661 75.9552 85.0477 75.9552 93.3421C75.9552 101.636 82.6368 108.395 90.9312 108.395C99.2256 108.395 105.984 101.713 105.984 93.4189C105.984 85.1245 99.3024 78.4429 91.008 78.3661Z" fill="white"/>
<path d="M134.861 118.149H89.0879C88.5503 118.149 88.0127 117.688 88.0127 117.15C88.0127 116.843 88.1663 116.536 88.4735 116.306L134.246 82.4368C134.707 82.1296 135.321 82.2064 135.705 82.6672C135.859 82.8208 135.936 83.0512 135.936 83.2816V117.15C135.936 117.611 135.475 118.072 134.861 118.149ZM92.2367 116.075H133.785V85.2784L92.2367 116.075Z" fill="#000111"/>
<path d="M235.008 114.693C248.157 114.693 258.816 104.033 258.816 90.8847C258.816 77.7359 248.157 67.0767 235.008 67.0767C221.859 67.0767 211.2 77.7359 211.2 90.8847C211.2 104.033 221.859 114.693 235.008 114.693Z" fill="url(#paint5_linear_13853_44049)"/>
<path d="M201.754 74.3727C201.216 74.3727 200.678 73.9119 200.678 73.3743C200.678 73.2975 200.678 73.1439 200.755 73.0671L213.811 26.9871C213.965 26.4495 214.502 26.1423 215.117 26.2959C215.27 26.3727 215.501 26.4495 215.578 26.6031L247.296 62.0847C247.68 62.5455 247.603 63.1599 247.219 63.5439C247.066 63.6207 246.912 63.7743 246.758 63.7743L201.984 74.3727C201.907 74.3727 201.83 74.3727 201.754 74.3727ZM215.27 29.3679L203.213 71.9151L244.608 62.1615L215.27 29.3679Z" fill="#000111"/>
<path d="M313.344 128.901C311.885 127.288 310.349 125.675 308.966 123.986C304.973 119.531 301.363 114.693 298.138 109.624C295.296 104.786 292.685 99.7937 290.381 94.7249C286.387 85.9697 282.701 76.1393 282.778 66.3089C288.461 67.4609 295.68 75.3713 295.68 75.3713C295.68 75.3713 295.142 61.4705 293.453 53.7137C289.997 37.2785 303.974 29.8289 309.734 37.5857C309.734 37.5857 314.573 57.7073 317.184 65.6945C319.795 73.6817 318.106 99.1025 314.88 115.845C314.035 120.146 313.574 124.523 313.344 128.901Z" fill="#D88260"/>
<path d="M269.261 123.448C280.32 125.061 287.002 111.16 278.477 103.864L278.246 103.634C270.336 97.1057 256.896 90.6545 256.896 90.6545C241.306 96.0305 227.021 82.5905 236.928 76.4465C236.928 76.4465 254.746 73.9889 264.192 73.6049C270.029 73.3745 281.702 81.6689 281.702 81.6689C281.702 81.6689 275.482 69.2273 270.797 62.7761C260.89 49.2593 270.49 36.6641 279.014 41.3489C279.014 41.3489 291.686 57.7073 297.37 63.9281C303.053 70.1489 309.888 94.5713 315.878 110.623C322.867 129.285 359.808 214.763 362.266 220.831L278.784 220.37C278.784 220.37 271.334 182.277 262.272 170.68C253.21 159.083 232.934 141.496 231.936 130.821C229.939 121.298 232.934 107.167 246.912 115.845C253.594 120.223 262.579 122.373 269.261 123.448Z" fill="#FFC2A7"/>
<path d="M303.053 106.936C302.592 106.936 302.208 106.629 302.054 106.168C300.979 102.789 299.443 99.6401 297.446 96.7217C294.374 92.4209 281.165 82.5137 281.011 82.4369C280.55 82.1297 280.474 81.4385 280.781 80.9777C281.088 80.5169 281.779 80.4401 282.24 80.7473C282.778 81.1313 295.91 90.8849 299.136 95.4929C301.21 98.5649 302.899 101.944 304.051 105.554C304.205 106.091 303.898 106.706 303.36 106.859C303.206 106.936 303.13 106.936 303.053 106.936Z" fill="#D88260"/>
<path d="M283.776 181.048H283.699C276.019 180.357 269.107 176.056 265.037 173.522C264.038 172.83 262.963 172.216 261.888 171.678C261.35 171.448 261.12 170.834 261.35 170.296C261.581 169.758 262.195 169.528 262.733 169.758C263.885 170.373 265.037 170.987 266.189 171.755C270.413 174.366 276.71 178.36 283.93 178.974C284.467 179.051 284.928 179.589 284.851 180.126C284.698 180.664 284.314 181.048 283.776 181.048Z" fill="#D88260"/>
<path d="M330.47 161.541C330.317 161.541 330.163 161.541 330.01 161.464C329.472 161.234 329.318 160.619 329.549 160.082C332.544 154.015 330.24 150.866 330.086 150.789C329.702 150.328 329.856 149.714 330.24 149.33C330.701 148.946 331.315 149.023 331.699 149.483C331.853 149.637 335.002 153.707 331.392 161.003C331.238 161.311 330.854 161.541 330.47 161.541Z" fill="#D88260"/>
<path d="M375.245 221.752H8.75489C8.21729 221.752 7.67969 221.291 7.67969 220.677C7.67969 220.062 8.14049 219.602 8.75489 219.602H375.321C375.859 219.602 376.396 220.062 376.396 220.677C376.396 221.291 375.859 221.752 375.245 221.752Z" fill="#000111"/>
<defs>
<linearGradient id="paint0_linear_13853_44049" x1="141.192" y1="1.49565" x2="75.9811" y2="162.468" gradientUnits="userSpaceOnUse">
<stop stop-color="#F38374"/>
<stop offset="1" stop-color="#C64234"/>
</linearGradient>
<linearGradient id="paint1_linear_13853_44049" x1="107.678" y1="19.0125" x2="118.783" y2="37.1296" gradientUnits="userSpaceOnUse">
<stop stop-color="#F38374"/>
<stop offset="1" stop-color="#C64234"/>
</linearGradient>
<linearGradient id="paint2_linear_13853_44049" x1="117.602" y1="19.0159" x2="128.708" y2="37.1331" gradientUnits="userSpaceOnUse">
<stop stop-color="#F38374"/>
<stop offset="1" stop-color="#C64234"/>
</linearGradient>
<linearGradient id="paint3_linear_13853_44049" x1="127.533" y1="19.0159" x2="138.638" y2="37.1331" gradientUnits="userSpaceOnUse">
<stop stop-color="#F38374"/>
<stop offset="1" stop-color="#C64234"/>
</linearGradient>
<linearGradient id="paint4_linear_13853_44049" x1="204.004" y1="17.2257" x2="163.976" y2="130.521" gradientUnits="userSpaceOnUse">
<stop stop-color="#0A6B5B"/>
<stop offset="0.78" stop-color="#005146"/>
<stop offset="0.91" stop-color="#005045"/>
</linearGradient>
<linearGradient id="paint5_linear_13853_44049" x1="254.046" y1="25.3665" x2="226.352" y2="120.491" gradientUnits="userSpaceOnUse">
<stop stop-color="#F38374"/>
<stop offset="1" stop-color="#C64234"/>
</linearGradient>
</defs>
</svg>

