<svg width="74" height="20" viewBox="0 0 74 20" fill="none" xmlns="http://www.w3.org/2000/svg">
<g clip-path="url(#clip0_13850_35940)">
<path d="M17.2667 13.6536L17.2564 13.6207L23.7942 7.63553V4.75171H13.3054V7.63553H19.5704L19.5807 7.66316L13.1068 13.6536V16.5374H23.8995V13.6536H17.2667Z" fill="#201515"/>
<path d="M30.3376 4.47705C29.1278 4.47705 28.1418 4.65952 27.3796 5.02446C26.6697 5.34251 26.0716 5.86652 25.6631 6.52854C25.2724 7.1949 25.0269 7.9364 24.9431 8.70435L28.1256 9.15161C28.2407 8.47354 28.471 7.9929 28.8163 7.7097C29.209 7.41349 29.6928 7.26383 30.184 7.28662C30.8299 7.28662 31.2984 7.45932 31.5897 7.80467C31.8781 8.15004 32.0249 8.62837 32.0249 9.25867V9.57295H28.9649C27.4072 9.57295 26.2882 9.91832 25.6079 10.6091C24.9275 11.2998 24.5879 12.2116 24.5891 13.3444C24.5891 14.5048 24.9287 15.3683 25.6079 15.9346C26.2871 16.5011 27.1413 16.7825 28.1706 16.779C29.4472 16.779 30.4293 16.3399 31.1165 15.4615C31.5223 14.9216 31.8122 14.3038 31.9678 13.6466H32.0835L32.5222 16.5303H35.406V9.2276C35.406 7.71833 35.0082 6.54927 34.2128 5.72039C33.4172 4.89151 32.1256 4.47705 30.3376 4.47705ZM31.3462 13.4791C30.8885 13.8607 30.2894 14.0506 29.5434 14.0506C28.9285 14.0506 28.5015 13.943 28.2621 13.7277C28.1454 13.6259 28.0525 13.4996 27.9901 13.3578C27.9278 13.2161 27.8974 13.0623 27.9012 12.9075C27.8943 12.7615 27.9174 12.6156 27.9687 12.4787C28.02 12.3419 28.0987 12.2169 28.1999 12.1114C28.3093 12.0088 28.4384 11.9294 28.5794 11.8781C28.7204 11.8267 28.8703 11.8044 29.0201 11.8127H32.03V12.0112C32.0362 12.2919 31.9776 12.5703 31.8591 12.8248C31.7404 13.0793 31.565 13.3032 31.3462 13.4791Z" fill="#201515"/>
<path d="M52.8425 4.75171H49.4354V16.5391H52.8425V4.75171Z" fill="#201515"/>
<path d="M72.9572 4.75171C71.9949 4.75171 71.2362 5.09131 70.6813 5.77055C70.2829 6.25866 69.9801 6.97991 69.7729 7.93427H69.6728L69.2274 4.75171H66.3175V16.5374H69.7247V10.4934C69.7247 9.73134 69.9031 9.14709 70.26 8.74071C70.6168 8.33433 71.2753 8.13114 72.2354 8.13114H73.5288V4.75171H72.9572Z" fill="#201515"/>
<path d="M62.9398 5.13696C62.1444 4.66381 61.1412 4.42781 59.93 4.42896C58.0237 4.42896 56.5316 4.97177 55.4541 6.05737C54.3765 7.14297 53.8378 8.63956 53.8378 10.5472C53.8103 11.7004 54.0621 12.8432 54.5716 13.8782C55.0381 14.8005 55.7646 15.5659 56.6612 16.0799C57.5637 16.6015 58.6372 16.8628 59.8816 16.8639C60.9581 16.8639 61.8572 16.6981 62.579 16.3667C63.2576 16.0689 63.8485 15.6021 64.2954 15.0111C64.721 14.4308 65.0371 13.7777 65.2279 13.0839L62.2924 12.2619C62.1688 12.713 61.9309 13.1247 61.6016 13.4569C61.27 13.7884 60.7146 13.9542 59.9351 13.9542C59.0085 13.9542 58.3178 13.6888 57.8629 13.1581C57.5332 12.7748 57.326 12.2274 57.2344 11.5176H65.2729C65.3057 11.1861 65.3229 10.908 65.3229 10.6836V9.94965C65.3424 8.96372 65.1387 7.98615 64.7272 7.09002C64.3421 6.27367 63.719 5.59287 62.9398 5.13696ZM59.8316 7.23852C61.2131 7.23852 61.9965 7.91831 62.1818 9.27792H57.2949C57.3725 8.82427 57.5604 8.39668 57.8423 8.03287C58.2901 7.50215 58.9532 7.23737 59.8316 7.23852Z" fill="#201515"/>
<path d="M51.1754 0.0011057C50.9191 -0.00761116 50.6637 0.0352837 50.4243 0.127244C50.1849 0.219204 49.9665 0.358348 49.7819 0.536413C49.6 0.716184 49.4574 0.931823 49.3631 1.16963C49.2688 1.40745 49.225 1.66224 49.2346 1.91787C49.2253 2.17515 49.2693 2.43156 49.3635 2.6711C49.4579 2.91066 49.6006 3.12821 49.7826 3.31016C49.9649 3.49212 50.1825 3.63459 50.4221 3.72869C50.6618 3.82279 50.9182 3.8665 51.1754 3.85709C51.431 3.86675 51.686 3.82306 51.9238 3.72881C52.1616 3.63457 52.3772 3.49182 52.5569 3.30968C52.7351 3.12565 52.8743 2.90749 52.9659 2.66829C53.0576 2.4291 53.1 2.17385 53.0904 1.91787C53.1022 1.6634 53.0609 1.40926 52.9688 1.1717C52.8769 0.934137 52.7365 0.718363 52.5565 0.538153C52.3763 0.357943 52.1607 0.217257 51.9232 0.125083C51.6857 0.0329099 51.4316 -0.00872312 51.1772 0.00283421L51.1754 0.0011057Z" fill="#201515"/>
<path d="M44.1382 4.42896C42.978 4.42896 42.0455 4.79331 41.3409 5.52203C40.8193 6.06195 40.4366 6.86782 40.1925 7.9396H40.0837L39.6382 4.75704H36.7284V19.9256H40.1355V13.6779H40.2599C40.3638 14.0945 40.5096 14.4995 40.695 14.8866C40.9832 15.5174 41.4559 16.0461 42.0506 16.4028C42.6672 16.7393 43.3618 16.9068 44.064 16.8881C45.4905 16.8881 46.5766 16.3327 47.3227 15.2216C48.0685 14.1107 48.4416 12.5606 48.4416 10.5713C48.4416 8.64993 48.0807 7.14585 47.3588 6.05909C46.6371 4.97234 45.5635 4.42896 44.1382 4.42896ZM44.4837 12.9699C44.0865 13.5455 43.4649 13.8333 42.6187 13.8333C42.2699 13.8494 41.9221 13.7822 41.6044 13.6371C41.2866 13.4921 41.0081 13.2734 40.7918 12.9992C40.3507 12.4455 40.1309 11.6874 40.1321 10.725V10.5005C40.1321 9.52312 40.3519 8.77482 40.7918 8.25562C41.2315 7.73643 41.8405 7.47969 42.6187 7.48546C43.4799 7.48546 44.1055 7.75887 44.4957 8.30569C44.886 8.85253 45.0812 9.61522 45.0812 10.5937C45.0835 11.6057 44.8855 12.3977 44.4871 12.9699H44.4837Z" fill="#201515"/>
<path d="M11.7874 13.6533H0V16.5406H11.7874V13.6533Z" fill="#FF4F00"/>
</g>
<defs>
<clipPath id="clip0_13850_35940">
<rect width="73.5294" height="20" fill="white"/>
</clipPath>
</defs>
</svg>
