<svg xmlns="http://www.w3.org/2000/svg" xmlns:xlink="http://www.w3.org/1999/xlink" width="20px" height="20px" viewBox="0 0 20 20" version="1.1">
<g id="surface1">
<path style=" stroke:none;fill-rule:nonzero;fill:#6B7280;fill-opacity:1;" d="M 16.070312 0 L 3.929688 0 C 2.886719 0 1.890625 0.414062 1.152344 1.152344 C 0.414062 1.890625 0 2.886719 0 3.929688 L 0 16.070312 C 0 17.113281 0.414062 18.109375 1.152344 18.847656 C 1.890625 19.585938 2.886719 20 3.929688 20 L 16.070312 20 C 17.113281 20 18.109375 19.585938 18.847656 18.847656 C 19.585938 18.109375 20 17.113281 20 16.070312 L 20 3.929688 C 20 2.886719 19.585938 1.890625 18.847656 1.152344 C 18.109375 0.414062 17.113281 0 16.070312 0 Z M 16.867188 12.230469 C 16.664062 12.988281 15.265625 13.015625 14.816406 13.5 C 14.691406 13.792969 14.640625 14.113281 14.664062 14.433594 C 14.699219 15.855469 14.128906 16.277344 12.785156 15.824219 C 11.90625 15.542969 11.742188 15.570312 11.191406 16.332031 C 10.371094 17.535156 9.625 17.523438 8.808594 16.332031 C 8.585938 16.042969 8.363281 15.746094 8.160156 15.679688 C 7.507812 15.542969 6.363281 16.339844 5.757812 15.855469 C 5.105469 15.429688 5.507812 14.089844 5.183594 13.515625 C 4.734375 13.03125 3.335938 13.003906 3.132812 12.246094 C 2.863281 11.523438 3.988281 10.679688 4.046875 10.015625 C 3.984375 9.355469 2.863281 8.511719 3.132812 7.789062 C 3.335938 7.03125 4.734375 7 5.183594 6.519531 C 5.507812 5.945312 5.105469 4.605469 5.757812 4.175781 C 6.363281 3.691406 7.511719 4.492188 8.160156 4.355469 C 8.363281 4.289062 8.585938 4.007812 8.808594 3.703125 C 9.628906 2.5 10.375 2.511719 11.191406 3.703125 C 11.738281 4.433594 11.902344 4.472656 12.78125 4.191406 C 14.132812 3.71875 14.695312 4.148438 14.664062 5.566406 C 14.636719 5.882812 14.6875 6.207031 14.8125 6.5 C 15.050781 6.707031 15.335938 6.855469 15.644531 6.925781 C 17 7.328125 17.253906 7.992188 16.386719 9.125 C 16.171875 9.378906 16.023438 9.675781 15.953125 10 C 16.015625 10.660156 17.136719 11.507812 16.867188 12.230469 Z M 16.867188 12.230469 "/>
<path style=" stroke:none;fill-rule:nonzero;fill:#6B7280;fill-opacity:1;" d="M 12.621094 10.050781 C 12.675781 9.992188 12.683594 9.921875 12.644531 9.851562 C 12.609375 9.78125 12.527344 9.742188 12.433594 9.726562 L 10.410156 9.375 L 11.355469 6.503906 C 11.386719 6.40625 11.324219 6.289062 11.207031 6.238281 C 11.183594 6.226562 11.15625 6.21875 11.132812 6.214844 C 11.03125 6.199219 10.933594 6.226562 10.875 6.289062 L 7.394531 10.097656 C 7.34375 10.15625 7.332031 10.242188 7.371094 10.3125 C 7.410156 10.382812 7.484375 10.445312 7.578125 10.460938 L 9.574219 10.808594 L 8.675781 13.574219 C 8.644531 13.671875 8.707031 13.769531 8.828125 13.820312 C 8.851562 13.832031 8.875 13.835938 8.902344 13.839844 C 9 13.859375 9.101562 13.832031 9.160156 13.769531 Z M 12.621094 10.050781 "/>
</g>
</svg>